<svg width="130" height="102" viewBox="0 0 130 102" fill="none" xmlns="http://www.w3.org/2000/svg">
<path d="M58.9239 71.9626V74.2726C58.9239 76.4478 57.6124 78.408 55.6019 79.2382L44.8402 83.6809C42.8298 84.5111 41.5182 86.4713 41.5182 88.6465C41.5182 90.8932 42.9165 92.9026 45.0232 93.6836C48.4612 94.958 52.0985 95.6104 55.765 95.6104H62.5408" fill="#FC4747"/>
<path d="M71.0756 71.9626V74.2726C71.0756 76.4478 72.3871 78.408 74.3976 79.2382L85.1593 83.6809C87.1697 84.5111 88.4813 86.4713 88.4813 88.6465C88.4813 90.8932 87.0829 92.9026 84.9763 93.6836C81.5382 94.958 77.901 95.6104 74.2345 95.6104H67.4587" fill="#FC4747"/>
<path d="M129.233 28.3713C128.374 30.1486 126.846 31.5725 124.902 32.26L106.097 38.9103L95.4003 42.6933C93.8059 43.2574 92.2534 43.9129 90.7223 44.6123C89.9878 44.9479 89.257 45.2882 88.5383 45.6542C84.8226 47.5449 81.327 49.8345 78.1075 52.4817C76.1833 54.064 74.3495 55.7614 72.6365 57.5894L72.2198 64.6595C78.5769 57.7326 86.5362 52.4712 95.4003 49.3363L124.902 38.9029C127.957 37.8224 130 34.9333 130 31.6923C129.999 30.5009 129.719 29.377 129.233 28.3713Z" fill="#FC4747"/>
<path d="M124.902 32.2604C126.846 31.5725 128.374 30.1491 129.233 28.3718C127.995 25.814 125.384 24.045 122.351 24.045H106.097V38.9113L124.902 32.2604Z" fill="#F2F2F0"/>
<path d="M95.4003 42.6939L106.097 38.9108V24.0446H90.7223V44.6129C92.2529 43.9134 93.8059 43.2574 95.4003 42.6939Z" fill="#E2E2E0"/>
<path d="M78.1075 52.4822L76.4755 48.3918L78.027 24.0446H74.6135L72.6365 57.5899C74.349 55.7619 76.1833 54.0645 78.1075 52.4822Z" fill="#E2E2E0"/>
<path d="M78.1075 52.4822C81.327 49.835 84.8226 47.5454 88.5383 45.6547V24.0446H78.027L76.4755 48.3918L78.1075 52.4822Z" fill="#F2F2F0"/>
<path d="M90.7217 44.6129V24.0446H88.5377V45.6547C89.2565 45.2888 89.9878 44.9479 90.7217 44.6129Z" fill="#B7B7B7"/>
<path d="M51.892 52.4822C48.6724 49.835 45.1769 47.5454 41.4612 45.6546C40.743 45.2887 40.0117 44.9484 39.2772 44.6128C37.7461 43.9134 36.193 43.2579 34.5992 42.6938L23.9023 38.9108L5.09776 32.2604C3.15317 31.5725 1.6252 30.1491 0.766859 28.3718C0.28071 29.3775 0 30.5014 0 31.6933C0 34.9343 2.04235 37.8235 5.09829 38.904L34.5997 49.3373C43.4638 52.4722 51.4231 57.7336 57.7802 64.6605L57.3635 57.5904C55.6505 55.7618 53.8162 54.0645 51.892 52.4822Z" fill="#FC4747"/>
<path d="M5.09776 32.2605L23.9023 38.9108V24.0446H7.64771C4.61581 24.0446 2.00366 25.8135 0.766333 28.3713C1.6252 30.1491 3.15317 31.5726 5.09776 32.2605Z" fill="#F2F2F0"/>
<path d="M51.892 52.4822C53.8162 54.0645 55.65 55.7619 57.363 57.5899L55.386 24.0446H51.9725L53.524 48.3918L51.892 52.4822Z" fill="#E2E2E0"/>
<path d="M51.892 52.4822L53.524 48.3918L51.9725 24.0446H41.4612V45.6547C45.1769 47.5454 48.6724 49.835 51.892 52.4822Z" fill="#F2F2F0"/>
<path d="M34.5992 42.6939C36.1936 43.2579 37.7461 43.9134 39.2772 44.6129V24.0446H23.9023V38.9108L34.5992 42.6939Z" fill="#E2E2E0"/>
<path d="M41.4612 45.6547V24.0446H39.2772V44.6129C40.0117 44.9479 40.743 45.2888 41.4612 45.6547Z" fill="#B7B7B7"/>
<path d="M59.5021 12.5045C59.5021 9.72769 61.1733 7.22376 63.7373 6.15894H62.7823C60.3651 6.15894 58.0839 7.28022 56.6077 9.19397C55.4827 10.6524 54.9098 12.4621 54.9913 14.3027L55.0086 14.6911H59.5015V12.5045H59.5021Z" fill="#B7B7B7"/>
<path d="M70.4974 14.6906V12.5045C70.4974 9.72769 68.8262 7.22376 66.2622 6.15894H64.9997V14.6911L70.4974 14.6906Z" fill="#B7B7B7"/>
<path d="M70.4974 12.5045V14.6906H74.9904L75.0076 14.3022C75.0892 12.4617 74.5168 10.6519 73.3913 9.19348C71.9146 7.2792 69.6338 6.15845 67.2167 6.15845H66.2616C68.8262 7.22379 70.4974 9.72772 70.4974 12.5045Z" fill="#E2E2E0"/>
<path d="M59.5021 12.5045V14.6906H64.9997V6.15894H63.7378C61.1733 7.22376 59.5021 9.72769 59.5021 12.5045Z" fill="#E2E2E0"/>
<path d="M70.4974 14.6906H64.9997V19.3676H70.4974V14.6906Z" fill="#E2E2E0"/>
<path d="M74.9904 14.6906H70.4974V19.3676H74.7834L74.9904 14.6906Z" fill="#B7B7B7"/>
<path d="M55.0091 14.6906L55.2161 19.3676H59.5021V14.6906H55.0091Z" fill="#E2E2E0"/>
<path d="M64.9997 14.6906H59.5021V19.3676H64.9997V14.6906Z" fill="#B7B7B7"/>
<path d="M67.6391 6.15894H62.3599V2.63932C62.3599 1.1814 63.5418 0 64.9992 0C66.4571 0 67.6385 1.18192 67.6385 2.63932V6.15894H67.6391Z" fill="#FC4747"/>
<path d="M80.0975 4.23998H67.6391V2.63934H80.0975C80.5398 2.63934 80.8979 2.99742 80.8979 3.43966C80.8979 3.88138 80.5398 4.23998 80.0975 4.23998Z" fill="#8C8C8C"/>
<path d="M49.9019 4.23998H62.3604V2.63934H49.9019C49.4597 2.63934 49.1016 2.99742 49.1016 3.43966C49.1016 3.88138 49.4597 4.23998 49.9019 4.23998Z" fill="#8C8C8C"/>
<path d="M70.8048 22.6347L74.4995 25.7701L74.7834 19.3676H64.9997H55.2161L55.5 25.7701L59.1947 22.6347H70.8048Z" fill="#FC4747"/>
<path d="M70.8048 22.6347H59.1942L55.4994 25.7701L56.7404 53.7802C56.902 57.4237 57.2611 61.0557 57.8168 64.66L62.5591 95.4238C62.7446 96.6277 63.7807 97.5169 64.9992 97.5169C66.2177 97.5169 67.2538 96.6282 67.4394 95.4238L72.1817 64.66C72.7374 61.0557 73.0965 57.4237 73.258 53.7802L74.499 25.7701L70.8048 22.6347Z" fill="#F8F8F6"/>
<path d="M68.3798 48.0378H61.6202V40.665C61.6202 38.7983 63.1335 37.2855 65.0003 37.2855C66.867 37.2855 68.3803 38.7989 68.3803 40.665V48.0378H68.3798Z" fill="#B6E5FF"/>
<path d="M61.6197 48.0379H60.1367C59.3003 48.0379 58.6218 47.3599 58.6218 46.523V42.8335C58.6218 42.201 59.0149 41.6348 59.6077 41.4142L61.6192 40.6652" fill="#A3D8EF"/>
<path d="M68.3798 48.0379H69.8628C70.6992 48.0379 71.3777 47.3599 71.3777 46.523V42.8335C71.3777 42.201 70.9846 41.6348 70.3918 41.4142L68.3803 40.6652" fill="#A3D8EF"/>
<path d="M64.9997 101.184C64.3332 101.184 63.7932 100.644 63.7932 99.9774V71.8879C63.7932 71.2214 64.3332 70.6814 64.9997 70.6814C65.6662 70.6814 66.2062 71.2214 66.2062 71.8879V99.9774C66.2062 100.643 65.6662 101.184 64.9997 101.184Z" fill="#FC4747"/>
</svg>
