<svg width="130" height="43" viewBox="0 0 130 43" fill="none" xmlns="http://www.w3.org/2000/svg">
<path d="M10.054 31.509L0 15.6178L4.2498 13.181L24.6938 25.5027L10.054 31.509Z" fill="#E5251D"/>
<path d="M4.81475 14.8207C7.47207 15.9034 9.66577 17.7331 12.0608 19.2701C15.0233 21.172 17.8482 23.603 21.0963 25.0086C22.1057 25.4454 23.023 25.698 23.9024 25.8271L24.6938 25.5028L4.24981 13.1811L1.01411 15.0366C2.23614 14.5449 3.49874 14.2841 4.81475 14.8207Z" fill="#E8461D"/>
<path d="M1.59939 15.4977L1.08592 15.8238L8.86389 27.766L1.59939 15.4977Z" fill="#BC1A15"/>
<path d="M113.767 22.4383C114.011 23.034 113.725 23.7147 113.129 23.9585L110.195 25.1587C109.599 25.4026 108.918 25.1159 108.675 24.5209C108.431 23.9251 108.717 23.2445 109.312 22.9999L112.246 21.8004C112.842 21.5566 113.523 21.8418 113.767 22.4383Z" fill="#4D5961"/>
<path d="M111.944 23.713L110.605 23.9394L111.193 27.4196L112.532 27.1932L111.944 23.713Z" fill="#4D5961"/>
<path d="M114.186 27.8923C114.387 29.0838 113.584 30.213 112.392 30.4147C111.201 30.6157 110.072 29.8131 109.871 28.6215C109.669 27.4293 110.472 26.3002 111.663 26.0991C112.854 25.8975 113.984 26.7001 114.186 27.8923Z" fill="#454F56"/>
<path d="M112.858 28.1172C112.935 28.5744 112.627 29.0091 112.168 29.0867C111.71 29.1637 111.275 28.8552 111.198 28.3973C111.121 27.938 111.429 27.5041 111.887 27.4271C112.346 27.3495 112.78 27.6579 112.858 28.1172Z" fill="#EDEDED"/>
<path d="M68.747 34.4479C68.8585 35.0822 68.4339 35.6859 67.8001 35.7977L64.6776 36.3441C64.0426 36.4552 63.4389 36.0314 63.3279 35.3971C63.2172 34.7622 63.641 34.1584 64.2756 34.0474L67.3977 33.5002C68.0316 33.3899 68.6364 33.8144 68.747 34.4479Z" fill="#4D5961"/>
<path d="M66.7613 35.1554L65.4218 35.3817L66.0098 38.8618L67.3493 38.6355L66.7613 35.1554Z" fill="#4D5961"/>
<path d="M66.0506 36.8223C64.7009 37.4326 61.7652 37.0487 61.9517 39.2496C61.9586 39.3302 62.0795 39.3367 62.1045 39.2648C62.6328 37.7504 65.0245 37.8977 66.2237 37.1931C66.446 37.0617 66.2954 36.712 66.0506 36.8223Z" fill="#4D5961"/>
<path d="M66.5371 36.7403C68.0124 36.8731 70.6589 35.5459 71.2053 37.6866C71.226 37.7643 71.1138 37.8107 71.067 37.7512C70.0703 36.4936 67.8596 37.4188 66.4961 37.1467C66.2422 37.0966 66.2697 36.7164 66.5371 36.7403Z" fill="#4D5961"/>
<path d="M69.0022 39.3359C69.2036 40.5275 68.4006 41.6566 67.209 41.8576C66.0175 42.0586 64.8884 41.2561 64.687 40.0652C64.486 38.8729 65.289 37.7438 66.4798 37.5421C67.6717 37.3411 68.8008 38.1436 69.0022 39.3359Z" fill="#454F56"/>
<path d="M67.6742 39.5602C67.7511 40.0181 67.4431 40.4528 66.9848 40.5305C66.5261 40.6074 66.0922 40.2983 66.0149 39.841C65.9369 39.3817 66.2453 38.9478 66.7039 38.8701C67.1627 38.7924 67.5966 39.1016 67.6742 39.5602Z" fill="#EDEDED"/>
<path d="M73.416 38.59C73.6173 39.7815 72.8141 40.9107 71.6225 41.1116C70.431 41.3134 69.3022 40.5108 69.1009 39.3192C68.8995 38.1269 69.7024 36.9979 70.8936 36.7968C72.0847 36.5959 73.2146 37.3977 73.416 38.59Z" fill="#454F56"/>
<path d="M72.088 38.8149C72.1653 39.2728 71.8569 39.7068 71.3983 39.7844C70.9404 39.862 70.5061 39.5529 70.4288 39.0951C70.3511 38.6364 70.6599 38.2018 71.1178 38.1249C71.5765 38.0472 72.0103 38.3555 72.088 38.8149Z" fill="#EDEDED"/>
<path d="M64.687 40.0652C64.8884 41.256 64.085 42.3851 62.8939 42.5868C61.7023 42.7878 60.5733 41.9853 60.3719 40.7937C60.1708 39.6015 60.9734 38.4723 62.1645 38.2713C63.3565 38.0704 64.486 38.8729 64.687 40.0652Z" fill="#454F56"/>
<path d="M63.3591 40.2894C63.4364 40.7473 63.1283 41.1813 62.6693 41.259C62.211 41.3366 61.7775 41.0275 61.6998 40.5695C61.6225 40.111 61.9306 39.6763 62.3892 39.5993C62.8479 39.5217 63.2818 39.8309 63.3591 40.2894Z" fill="#EDEDED"/>
<path d="M119.82 20.0015C114.521 22.8025 106.745 26.2189 79.4988 32.157C52.2518 38.095 32.8135 38.6545 23.6924 37.7155C16.0374 36.9282 7.85491 35.9406 7.66731 33.3775C7.48046 30.8131 16.2783 27.7726 24.6938 25.5027C29.9995 24.071 51.9811 16.8935 72.6853 11.1038C94.3244 5.05306 103.217 1.73622 110.063 0.339872C112.709 -0.200004 116.297 -0.0937061 119.511 0.637403C124.95 1.87427 129.602 4.144 129.956 6.23548C130.52 9.57888 125.596 16.9494 119.82 20.0015Z" fill="white"/>
<path d="M119.82 20.0015C114.521 22.8025 106.745 26.2189 79.4988 32.157C52.2518 38.0951 32.8135 38.6545 23.6924 37.7156C21.0129 37.4399 18.2685 37.1394 15.8255 36.7563C45.5082 34.8557 109.57 16.5333 115.266 14.9364C126.064 11.9098 129.956 6.2356 129.956 6.2356C130.52 9.57892 125.596 16.9494 119.82 20.0015Z" fill="#D2D2D2"/>
<path d="M103.135 10.1399C103.22 10.6421 102.882 11.1173 102.38 11.2023C101.878 11.2872 101.403 10.949 101.318 10.4468L101.045 8.83223C100.961 8.33004 101.298 7.85403 101.8 7.76909C102.302 7.6846 102.778 8.02308 102.862 8.52528L103.135 10.1399Z" fill="#454F56"/>
<path d="M96.9672 11.642C97.0518 12.1437 96.714 12.6194 96.2118 12.7043C95.7103 12.7892 95.2351 12.4507 95.1501 11.9489L94.8777 10.3339C94.7924 9.83208 95.1302 9.35607 95.632 9.27114C96.1338 9.18628 96.6095 9.52513 96.694 10.0269L96.9672 11.642Z" fill="#454F56"/>
<path d="M90.7992 13.144C90.8841 13.6458 90.5463 14.1214 90.0441 14.2064C89.5426 14.2909 89.0674 13.9528 88.9824 13.4509L88.7092 11.8356C88.6247 11.3339 88.9625 10.8582 89.4639 10.7733C89.9661 10.6884 90.4414 11.0273 90.526 11.5287L90.7992 13.144Z" fill="#454F56"/>
<path d="M84.631 14.6461C84.7155 15.1475 84.3781 15.6235 83.8759 15.7085C83.3745 15.7927 82.8992 15.4548 82.8143 14.9531L82.5415 13.3378C82.4566 12.8356 82.7943 12.3603 83.2962 12.2754C83.7976 12.1905 84.2732 12.5286 84.3578 13.0308L84.631 14.6461Z" fill="#454F56"/>
<path d="M78.4633 16.1482C78.5479 16.6496 78.2101 17.1253 77.7079 17.2105C77.2064 17.2947 76.7312 16.9569 76.6466 16.4551L76.3734 14.8397C76.2888 14.3375 76.6267 13.8623 77.1281 13.7773C77.6299 13.6924 78.1056 14.0306 78.1901 14.5328L78.4633 16.1482Z" fill="#454F56"/>
<path d="M72.2953 17.6504C72.3802 18.1518 72.042 18.6278 71.5398 18.7124C71.0387 18.7969 70.5635 18.4588 70.4789 17.9573L70.2061 16.342C70.1212 15.8399 70.4586 15.3645 70.9604 15.2797C71.4622 15.1947 71.9379 15.5329 72.0224 16.0351L72.2953 17.6504Z" fill="#454F56"/>
<path d="M66.1271 19.1526C66.2121 19.654 65.8739 20.1293 65.3721 20.2142C64.8707 20.2991 64.3954 19.961 64.3108 19.4595L64.0376 17.8438C63.9531 17.3421 64.2909 16.8663 64.7919 16.7818C65.2941 16.6969 65.7694 17.035 65.8543 17.5372L66.1271 19.1526Z" fill="#454F56"/>
<path d="M59.9593 20.6546C60.0438 21.156 59.7061 21.6313 59.2039 21.7162C58.7028 21.8011 58.2272 21.463 58.1426 20.9615L57.8694 19.3455C57.7849 18.844 58.1223 18.3684 58.6237 18.2838C59.1259 18.1989 59.6016 18.5371 59.6861 19.0385L59.9593 20.6546Z" fill="#454F56"/>
<path d="M53.7913 22.1567C53.8758 22.6581 53.538 23.1334 53.0358 23.2183C52.5348 23.3032 52.0595 22.9651 51.9749 22.4636L51.7017 20.8475C51.6172 20.3461 51.955 19.8701 52.4564 19.7859C52.9579 19.701 53.4335 20.0391 53.5181 20.5406L53.7913 22.1567Z" fill="#454F56"/>
<path d="M47.6232 23.6581C47.7081 24.1602 47.3699 24.6356 46.8681 24.7204C46.3666 24.8054 45.8913 24.4672 45.8068 23.9657L45.5336 22.3497C45.449 21.8482 45.7869 21.3722 46.2882 21.2873C46.79 21.2031 47.2657 21.5413 47.3499 22.0427L47.6232 23.6581Z" fill="#454F56"/>
<path d="M41.4551 25.1602C41.54 25.6624 41.2022 26.1376 40.7 26.2226C40.1986 26.3067 39.7233 25.9693 39.6387 25.4671L39.3659 23.8518C39.2813 23.3503 39.6188 22.8743 40.1202 22.7895C40.6224 22.7045 41.0977 23.0435 41.1822 23.5449L41.4551 25.1602Z" fill="#454F56"/>
<path d="M35.2873 26.6624C35.3715 27.1645 35.034 27.6398 34.5319 27.7247C34.0308 27.8089 33.5555 27.4715 33.4709 26.9693L33.1977 25.354C33.1133 24.8525 33.451 24.3765 33.9521 24.2916C34.4542 24.2067 34.9295 24.5456 35.0141 25.047L35.2873 26.6624Z" fill="#454F56"/>
<path d="M23.454 30.8522L23.1532 29.0722L5.59156 28.123L4.21427 29.2935L10.9049 33.7963L23.454 30.8522Z" fill="#E5251D"/>
<path d="M23.454 30.8522L23.3169 30.0409L10.9396 33.1155L4.21427 29.2935L10.9049 33.7962L23.454 30.8522Z" fill="#BC1A15"/>
<path d="M13.2749 29.4895L23.1532 29.0722L5.59156 28.123L4.21427 29.2935L5.92247 28.8647L13.2749 29.4895Z" fill="#E8461D"/>
<path d="M92.7 20.3367C89.7074 20.1829 24.3197 20.7416 24.3197 20.7416C24.3197 20.7416 50.077 31.3217 56.6061 31.0743C60.8008 30.9139 84.1742 25.621 91.7015 23.6189C95.8919 22.5042 95.6933 20.4913 92.7 20.3367Z" fill="#C6C6C6"/>
<path d="M92.7 20.3367C89.7074 20.1829 24.3197 20.7416 24.3197 20.7416C24.3197 20.7416 84.1742 25.621 91.7015 23.6189C95.8919 22.5042 95.6933 20.4913 92.7 20.3367Z" fill="#DCDCDC"/>
<path d="M24.3197 20.7416L22.7984 15.8558L32.9123 20.6705L24.3197 20.7416Z" fill="#E5251D"/>
<path d="M64.2687 28.7333C64.4552 30.8632 64.1646 32.628 63.62 32.6752C63.075 32.7231 53.8483 33.5307 53.5112 29.6753C53.1737 25.8213 62.4009 25.0129 62.9451 24.9657C63.4897 24.9179 64.0829 26.6057 64.2687 28.7333Z" fill="#B2B2B2"/>
<path d="M57.9787 29.6273C59.4797 29.398 60.8915 28.665 61.5696 27.2333C61.9266 26.4808 62.0961 25.758 62.1687 25.0469C60.0331 25.303 54.3127 26.2276 53.5831 28.8972C55.0626 29.0882 56.4414 29.8639 57.9787 29.6273Z" fill="#BDBCBC"/>
<path d="M62.2474 29.3393C59.7787 31.7462 56.502 31.6998 53.6374 30.2347C54.7847 33.4458 63.1037 32.7208 63.6199 32.6751C64.1646 32.6279 64.4552 30.8631 64.2687 28.7333C64.2002 27.9446 64.0738 27.2174 63.9168 26.6144C63.5096 27.7007 62.9393 28.6651 62.2474 29.3393Z" fill="#ACACAC"/>
<path d="M61.9662 28.9627C62.3142 31.0206 63.0296 32.6156 63.5656 32.5249C64.1007 32.4342 64.2535 30.6933 63.9055 28.6353C63.5576 26.5774 62.8425 24.9831 62.3065 25.0731C61.771 25.1638 61.619 26.9054 61.9662 28.9627Z" fill="#9D9D9C"/>
<path d="M62.1723 28.9169C62.0123 27.8785 61.9669 27.0229 62.0714 27.0062C62.1773 26.9903 63.9552 26.716 64.2465 28.5976C64.5364 30.4785 62.7575 30.7535 62.6526 30.7687C62.5478 30.7862 62.3326 29.9561 62.1723 28.9169Z" fill="#8A8989"/>
<path d="M77.9615 27.6855C78.1005 29.2703 77.8838 30.5845 77.4786 30.6194C77.0733 30.6549 70.2057 31.2557 69.9542 28.3865C69.7035 25.518 76.5712 24.9164 76.9764 24.8815C77.3813 24.846 77.8229 26.1014 77.9615 27.6855Z" fill="#B2B2B2"/>
<path d="M73.2796 28.3509C74.3967 28.1797 75.4475 27.6347 75.9526 26.5687C76.2178 26.0092 76.3445 25.4707 76.3981 24.9418C74.8086 25.1319 70.5507 25.8206 70.0079 27.8074C71.1091 27.9488 72.1359 28.5265 73.2796 28.3509Z" fill="#BDBCBC"/>
<path d="M76.4569 28.1361C74.6195 29.9278 72.1806 29.8929 70.0486 28.803C70.9023 31.1933 77.0943 30.6527 77.4786 30.6193C77.8838 30.5845 78.1005 29.2703 77.9615 27.6855C77.91 27.0984 77.8164 26.5563 77.6992 26.1086C77.3965 26.9163 76.972 27.6347 76.4569 28.1361Z" fill="#ACACAC"/>
<path d="M76.2472 27.856C76.5062 29.3878 77.0392 30.575 77.4376 30.5075C77.8367 30.44 77.9499 29.144 77.6908 27.6121C77.4322 26.081 76.8995 24.8939 76.5004 24.9614C76.102 25.0288 75.9885 26.3248 76.2472 27.856Z" fill="#9D9D9C"/>
<path d="M76.4006 27.8218C76.2816 27.0491 76.2478 26.4119 76.3262 26.4003C76.4046 26.388 77.7282 26.184 77.9444 27.5839C78.1604 28.9844 76.8367 29.189 76.7583 29.2006C76.6804 29.2129 76.52 28.5954 76.4006 27.8218Z" fill="#8A8989"/>
<path d="M119.511 0.638179C118.92 0.904853 118.476 1.11315 117.163 1.74226C116.241 2.18385 114.974 3.18579 114.717 3.60705C114.139 4.55187 113.697 6.29745 113.867 6.5757C114.037 6.85394 116.942 6.11942 118.998 5.20435C121.055 4.28891 124.41 2.11827 124.41 2.11827C124.41 2.11827 120.102 0.371134 119.511 0.638179Z" fill="#454F56"/>
<path d="M119.373 5.77908L116.705 2.6571L120.335 5.23721L119.373 5.77908Z" fill="white"/>
</svg>
