<svg width="120" height="169" viewBox="0 0 120 169" fill="none" xmlns="http://www.w3.org/2000/svg">
<path d="M59.7998 127.209H59.2542V150.887H59.7998V127.209Z" fill="#999999"/>
<path d="M45.4403 98.127L44.8957 98.169L48.9469 150.624L49.4914 150.582L45.4403 98.127Z" fill="#999999"/>
<path d="M53.1095 127.771L52.5651 127.808L54.1813 151.52L54.7257 151.483L53.1095 127.771Z" fill="#999999"/>
<path d="M74.6163 98.1302L70.5651 150.585L71.1096 150.627L75.1608 98.1722L74.6163 98.1302Z" fill="#999999"/>
<path d="M66.9762 127.771L65.36 151.483L65.9044 151.52L67.5206 127.808L66.9762 127.771Z" fill="#999999"/>
<path d="M119.657 42.6623C117.201 21.7361 102.286 10.8949 87.9863 5.28544C70.0213 -1.76181 49.9788 -1.76181 32.0137 5.28544C17.7136 10.8949 2.79907 21.7361 0.34257 42.6623C-2.29335 65.1159 10.7147 85.0605 24.5043 98.7942C36.1754 110.418 44.0144 120.726 44.0144 120.726C44.0144 120.726 46.3785 125.004 47.0334 127.981C47.2934 129.163 48.3383 130.006 49.5492 130.006H70.4508C71.6617 130.006 72.7061 129.164 72.9666 127.981C73.6215 125.004 75.9856 120.726 75.9856 120.726C75.9856 120.726 83.8246 110.418 95.4957 98.7942C109.285 85.0605 122.293 65.1159 119.657 42.6623Z" fill="white"/>
<path d="M60 117.73C53.7604 117.73 47.9523 118.394 43.0857 119.536C43.6907 120.3 44.0144 120.726 44.0144 120.726C44.0144 120.726 46.3785 125.004 47.0334 127.981C47.2934 129.163 48.3383 130.006 49.5492 130.006H70.4508C71.6617 130.006 72.7061 129.164 72.9666 127.981C73.6215 125.004 75.9856 120.726 75.9856 120.726C75.9856 120.726 76.3098 120.3 76.9143 119.536C72.0477 118.394 66.2396 117.73 60 117.73Z" fill="#FB6E52"/>
<path d="M60 121.999C58.1529 117.632 49.2917 89.6097 46.7438 42.298C44.9125 8.28561 52.2385 1.42322 54.1316 0.228088C50.4177 0.512786 46.7205 1.06834 43.0704 1.89327C42.5564 2.17599 28.0754 10.3086 26.5456 30.834C24.3619 60.1307 41.1027 92.1567 54.9323 120.907L60 121.999Z" fill="#FB6E52"/>
<path d="M49.3827 121.999H53.2038C53.2038 121.999 14.445 77.8729 12.5341 46.2107C11.2678 25.2291 21.3874 12.8205 28.3591 6.83447C28.3012 6.86067 28.2439 6.88736 28.1861 6.91356C16.729 12.1834 8.25972 22.4834 5.43301 34.7739C4.51714 38.7566 3.95861 43.0765 3.93637 47.7118C3.79995 75.6892 45.8343 119.634 45.8343 119.634L49.3827 121.999Z" fill="#FB6E52"/>
<path d="M61.2554 121.999C63.1025 117.632 71.9637 89.6097 74.5117 42.298C76.3429 8.28561 69.0169 1.42322 67.1239 0.228088C70.8378 0.512786 74.5349 1.06834 78.185 1.89327C78.6991 2.17599 93.1796 10.3086 94.7099 30.834C96.8935 60.1307 80.1527 92.1567 66.3232 120.907L61.2554 121.999Z" fill="#FB6E52"/>
<path d="M71.8728 121.999H68.0516C68.0516 121.999 106.81 77.8729 108.721 46.2107C109.988 25.2291 99.868 12.8205 92.8964 6.83447C92.9542 6.86067 93.0115 6.88736 93.0694 6.91356C104.526 12.1834 112.996 22.4834 115.822 34.7739C116.738 38.7566 117.297 43.0765 117.319 47.7118C117.455 75.6892 75.4211 119.634 75.4211 119.634L71.8728 121.999Z" fill="#FB6E52"/>
<path d="M66.8782 168.856H52.0848C51.3286 168.856 50.6895 168.296 50.5892 167.547L48.7001 153.434H70.2629L68.3739 167.547C68.274 168.296 67.6344 168.856 66.8782 168.856Z" fill="#EDBA4D"/>
<path d="M67.5672 168.683C67.627 168.652 67.6839 168.618 67.7387 168.58L67.0467 167.888L68.5261 166.409L68.5686 166.091L66.9088 167.751L65.1893 166.031L66.9088 164.312L68.5824 165.985L68.615 165.742L67.0463 164.174L68.7658 162.454L69.0208 162.709L69.0535 162.466L68.9032 162.316L69.0994 162.12L69.1419 161.802L68.7653 162.179L67.0458 160.459L68.7653 158.74L69.4588 159.433L69.4914 159.19L68.9027 158.602L69.6733 157.831L69.7158 157.513L68.7653 158.464L67.0458 156.744L68.7653 155.025L69.8972 156.157L69.9298 155.914L68.9027 154.887L70.2471 153.542L70.2619 153.432H70.0825L68.7653 154.749L67.4481 153.432H67.1728L68.6274 154.887L66.9079 156.606L65.1883 154.887L66.6429 153.432H66.3676L65.0504 154.749L63.7332 153.432H63.4579L64.9125 154.887L63.1929 156.606L61.4734 154.887L62.928 153.432H62.6527L61.3355 154.749L60.0183 153.432H59.743L61.1976 154.887L59.478 156.606L57.7585 154.887L59.2131 153.432H58.9378L57.6206 154.749L56.3034 153.432H56.0281L57.4827 154.887L55.7631 156.606L54.0436 154.887L55.4982 153.432H55.2229L53.9057 154.749L52.5885 153.432H52.3132L53.7678 154.887L52.0482 156.606L50.3287 154.887L51.7833 153.432H51.508L50.1908 154.749L48.8736 153.432H48.6942L48.709 153.542L50.0534 154.887L49.0263 155.914L49.0589 156.157L50.1908 155.025L51.9103 156.744L50.1908 158.464L49.2403 157.513L49.2828 157.831L50.0534 158.602L49.4647 159.19L49.4973 159.433L50.1908 158.74L51.9103 160.459L50.1908 162.179L49.8142 161.802L49.8567 162.12L50.0529 162.316L49.9026 162.466L49.9352 162.709L50.1903 162.454L51.9098 164.174L50.341 165.742L50.3737 165.985L52.0473 164.312L53.7668 166.031L52.0473 167.751L50.3875 166.091L50.43 166.409L51.9094 167.888L51.2174 168.58C51.2722 168.619 51.3291 168.653 51.3889 168.683L52.0468 168.025L52.8771 168.856H53.1524L52.1842 167.888L53.9037 166.168L55.6233 167.888L54.655 168.856H54.9303L55.7607 168.025L56.5915 168.856H56.8663L55.8981 167.888L57.6176 166.168L59.3372 167.888L58.3689 168.856H58.6437L59.4746 168.025L60.305 168.856H60.5803L59.612 167.888L61.3315 166.168L63.0511 167.888L62.0828 168.856H62.3576L63.1885 168.025L64.0189 168.856H64.2942L63.3259 167.888L65.0455 166.168L66.765 167.888L65.7967 168.856H66.0716L66.9019 168.025L67.5672 168.683ZM68.6289 162.317L66.9093 164.036L65.1898 162.317L66.9093 160.597L68.6289 162.317ZM55.7676 160.598L57.4871 162.317L55.7676 164.037L54.048 162.317L55.7676 160.598ZM53.9106 162.179L52.1911 160.46L53.9106 158.74L55.6302 160.46L53.9106 162.179ZM55.905 160.46L57.6246 158.74L59.3441 160.46L57.6246 162.179L55.905 160.46ZM59.4815 160.598L61.2011 162.317L59.4815 164.037L57.7619 162.317L59.4815 160.598ZM59.6189 160.46L61.3385 158.74L63.058 160.46L61.3385 162.179L59.6189 160.46ZM63.1954 160.598L64.915 162.317L63.1954 164.037L61.4759 162.317L63.1954 160.598ZM63.3333 160.46L65.0529 158.74L66.7724 160.46L65.0529 162.179L63.3333 160.46ZM68.6289 158.603L66.9093 160.322L65.1898 158.603L66.9093 156.883L68.6289 158.603ZM65.0524 155.027L66.7719 156.746L65.0524 158.466L63.3328 156.746L65.0524 155.027ZM64.915 158.603L63.1954 160.322L61.4759 158.603L63.1954 156.883L64.915 158.603ZM61.3385 155.027L63.058 156.746L61.3385 158.466L59.6189 156.746L61.3385 155.027ZM61.2011 158.603L59.4815 160.322L57.7619 158.603L59.4815 156.883L61.2011 158.603ZM57.6246 155.027L59.3441 156.746L57.6246 158.466L55.905 156.746L57.6246 155.027ZM57.4871 158.603L55.7676 160.322L54.048 158.603L55.7676 156.883L57.4871 158.603ZM53.9106 155.027L55.6302 156.746L53.9106 158.466L52.1911 156.746L53.9106 155.027ZM50.3341 158.603L52.0537 156.883L53.7732 158.603L52.0537 160.322L50.3341 158.603ZM50.3341 162.317L52.0537 160.597L53.7732 162.317L52.0537 164.036L50.3341 162.317ZM52.1911 164.174L53.9106 162.455L55.6302 164.174L53.9106 165.894L52.1911 164.174ZM55.7676 167.75L54.048 166.031L55.7676 164.311L57.4871 166.031L55.7676 167.75ZM55.905 164.174L57.6246 162.455L59.3441 164.174L57.6246 165.894L55.905 164.174ZM59.4815 167.75L57.7619 166.031L59.4815 164.311L61.2011 166.031L59.4815 167.75ZM59.6189 164.174L61.3385 162.455L63.058 164.174L61.3385 165.894L59.6189 164.174ZM63.1954 167.75L61.4759 166.031L63.1954 164.311L64.915 166.031L63.1954 167.75ZM63.3333 164.174L65.0529 162.455L66.7724 164.174L65.0529 165.894L63.3333 164.174Z" fill="#BF8B37"/>
<path opacity="0.5" d="M68.6131 165.699C68.5127 166.448 67.8732 167.008 67.1169 167.008H52.3235C51.5673 167.008 50.9277 166.448 50.8274 165.699L49.1859 153.434H48.6996L50.5887 167.547C50.689 168.296 51.3286 168.856 52.0843 168.856H66.8777C67.6339 168.856 68.273 168.296 68.3734 167.547L70.2624 153.434H70.254L68.6131 165.699Z" fill="#BF8B37"/>
<path d="M69.9046 154.162H49.0584C48.3516 154.162 47.7788 153.589 47.7788 152.883V151.876H71.1843V152.883C71.1843 153.589 70.6114 154.162 69.9046 154.162Z" fill="#BF8B37"/>
<path d="M70.9455 153.025H48.1089C46.9534 153.025 46.0162 152.088 46.0162 150.932V150.842C46.0162 149.686 46.9534 148.749 48.1089 148.749H70.9455C72.1016 148.749 73.0383 149.686 73.0383 150.842V150.932C73.0383 152.088 72.1011 153.025 70.9455 153.025Z" fill="#EDBA4D"/>
<path opacity="0.5" d="M71.3093 151.547H47.7447C46.9029 151.547 46.2026 150.945 46.0484 150.148C46.0276 150.255 46.0162 150.365 46.0162 150.478V151.297C46.0162 152.252 46.7902 153.025 47.7447 153.025H71.3093C72.2642 153.025 73.0378 152.251 73.0378 151.297V150.478C73.0378 150.365 73.0264 150.255 73.0056 150.148C72.8519 150.944 72.1511 151.547 71.3093 151.547Z" fill="#BF8B37"/>
</svg>
