<svg width="110" height="167" viewBox="0 0 110 167" fill="none" xmlns="http://www.w3.org/2000/svg">
<path d="M44.6316 150.118C43.3044 150.1 41.6353 153.074 41.6448 155.812C41.647 156.482 41.884 157.734 42.9516 158.519C43.9663 159.265 45.4878 159.35 46.5917 158.612C47.8751 157.755 47.9919 156.497 47.9919 155.719C47.9919 153.074 45.5746 150.132 44.6316 150.118Z" fill="#E24F52"/>
<path d="M44.1128 157.335C42.8399 156.615 41.7828 153.245 44.6782 150.127C44.6633 150.126 44.6457 150.119 44.6316 150.118C43.3044 150.1 41.6353 153.074 41.6448 155.812C41.647 156.482 41.884 157.734 42.9516 158.519C43.9663 159.265 45.4878 159.35 46.5917 158.612C47.3658 158.095 47.7139 157.432 47.8697 156.817C47.0323 157.6 45.6963 158.231 44.1128 157.335Z" fill="#ED5D5D"/>
<path d="M65.2058 150.118C63.8785 150.1 62.2095 153.074 62.219 155.812C62.2212 156.482 62.4581 157.734 63.5257 158.519C64.5404 159.265 66.062 159.35 67.1659 158.612C68.4493 157.755 68.566 156.497 68.566 155.719C68.5658 153.074 66.1488 150.132 65.2058 150.118Z" fill="#CE3846"/>
<path d="M43.569 130.421L42.2944 130.722L46.617 149.012L47.8915 148.711L43.569 130.421Z" fill="#0F3042"/>
<path d="M48.7582 125.933L47.4518 126.03L49.0748 147.903L50.3812 147.806L48.7582 125.933Z" fill="#0F3042"/>
<path d="M61.2375 125.925L59.6101 147.796L60.9158 147.893L62.5432 126.022L61.2375 125.925Z" fill="#0F3042"/>
<path d="M66.4372 130.424L62.1147 148.714L63.3893 149.015L67.7118 130.725L66.4372 130.424Z" fill="#0F3042"/>
<path d="M89.6171 8.94751C81.1665 3.22653 73.0644 1.9383 66.9492 0.965789C56.7955 -0.648645 49.2358 -0.178357 38.5345 1.92367C20.6555 5.43559 11.0457 14.8818 7.24634 20.7603C6.36744 22.1202 2.06683 28.9453 0.54163 39.2778C-1.43192 52.6491 2.45691 63.3161 4.69205 68.9695C10.1195 82.698 37.5763 118.22 37.5763 118.22L37.6188 118.413H71.931C71.931 118.413 95.999 85.8789 103.984 70.649C106.41 66.0205 118.031 43.1025 100.472 19.1576C98.8419 16.9346 95.1915 12.7213 89.6171 8.94751Z" fill="#E24F52"/>
<path d="M47.6057 10.2245C48.9039 5.76032 50.3667 3.34501 51.0113 2.34933C51.5796 1.47141 52.1526 0.707107 52.676 0.0651855C50.2358 0.171969 47.7666 0.417474 45.1633 0.787804C44.1838 1.28125 43.1739 1.86344 42.1592 2.56217C25.1311 14.2855 28.8147 41.8457 30.06 50.1095C33.6748 74.1017 45.9342 109.88 48.8483 118.413H52.2971C51.0311 107.442 48.607 87.0979 48.244 83.526C47.4704 75.9099 43.5057 40.6377 45.9028 19.796C46.0966 18.1121 46.3404 14.5753 47.6057 10.2245Z" fill="#F9F4F4"/>
<path d="M12.3934 35.5531C12.3934 22.8473 19.2514 12.1942 26.3457 5.64972C19.2344 8.71061 14.1539 12.6977 10.7675 16.3125C9.10649 18.7829 7.54179 21.6395 6.28867 24.9108C5.65991 26.5523 4.06693 31.0179 3.5218 37.0429C2.95716 43.2852 3.80412 48.03 4.37315 51.0906C5.64187 57.9145 7.74585 62.7039 10.5456 68.9696C13.8367 76.3345 16.9336 81.7724 18.208 83.9517C25.9515 97.1951 34.5769 109.637 40.6382 118.413H44.1808C37.1346 105.004 23.88 78.5279 23.0354 76.5022C21.6631 73.2092 12.3934 55.2152 12.3934 35.5531Z" fill="#F9F4F4"/>
<path d="M104.156 24.903C103.102 23.0031 101.883 21.0873 100.472 19.1642C98.8419 16.9413 95.1915 12.7216 89.6171 8.9476C88.6165 8.27033 87.6211 7.65693 86.633 7.09692C93.1646 13.7092 99.0887 23.7445 99.0887 35.5531C99.0887 55.2152 89.8189 73.2093 88.4466 76.5022C87.6021 78.528 74.3475 105.004 67.3012 118.413H69.6668C72.2979 114.513 75.0143 110.761 77.8043 106.726C83.339 98.7218 86.1703 94.5253 89.2979 89.3963C91.9705 85.0135 94.9487 80.1024 98.2373 73.2234C103.424 62.3753 105.15 55.4941 105.687 53.2175C106.924 47.9685 107.158 44.6178 107.177 42.1505C107.186 40.984 107.168 37.3284 106.112 32.1472C105.713 30.1859 105.107 27.7281 104.156 24.903Z" fill="white"/>
<path d="M70.142 2.5622C69.3262 2.00049 68.5134 1.51411 67.7171 1.08844C67.4582 1.047 67.2015 1.00604 66.9494 0.965811C64.3593 0.554035 61.9389 0.279517 59.5909 0.131531C60.1001 0.760044 60.6533 1.5007 61.2026 2.34937C61.847 3.34504 63.3097 5.7606 64.6082 10.2245C65.8735 14.5751 66.1173 18.1187 66.3109 19.8024C68.7079 40.644 64.743 75.91 63.9697 83.526C63.6067 87.0979 61.1826 107.442 59.9163 118.413H63.4524C66.3665 109.88 78.6259 74.1017 82.2409 50.1095C83.4865 41.8457 87.1701 14.2855 70.142 2.5622Z" fill="#F7F0F0"/>
<path d="M42.3416 130.847H67.6586C67.6586 130.847 68.9161 126.459 71.9314 118.413H37.6192L42.3416 130.847Z" fill="#285168"/>
<path d="M61.6268 145.477H48.3734C46.4182 145.477 44.8184 147.077 44.8184 149.032V162.496C44.8184 164.451 46.4182 166.051 48.3734 166.051H61.6268C63.5821 166.051 65.1819 164.451 65.1819 162.496V149.032C65.1819 147.077 63.5821 145.477 61.6268 145.477Z" fill="#F7D48D"/>
<path d="M64.9395 121.686C63.7152 124.575 62.3226 127.533 59.3529 128.726C58.4894 129.072 58.8438 129.027 53.5122 129.135C51.2259 129.181 48.8905 129.295 45.64 129.053C44.2247 128.947 43.5862 128.844 42.8465 128.561C42.1763 128.305 41.6024 127.96 41.1026 127.586L42.3416 130.847H67.6586C67.6586 130.847 68.9161 126.459 71.9314 118.413H66.0561C65.8067 119.145 65.4532 120.475 64.9395 121.686Z" fill="#274254"/>
<path d="M47.1179 0.531097C47.7196 0.458689 48.3147 0.394084 48.9059 0.33606C48.3154 0.393596 47.7191 0.458689 47.1179 0.531097Z" fill="#E24F52"/>
<path d="M23.789 6.83115C24.1901 6.63269 24.5987 6.43717 25.0144 6.24457C24.5987 6.43717 24.1903 6.63269 23.789 6.83115Z" fill="#E24F52"/>
<path d="M45.1633 0.787857C45.8018 0.69692 46.4321 0.61403 47.0562 0.538452C46.4328 0.61403 45.8016 0.697164 45.1633 0.787857Z" fill="#E24F52"/>
<path d="M21.4193 8.08181C21.7757 7.8814 22.1392 7.68344 22.5091 7.48743C22.1392 7.6832 21.7757 7.8814 21.4193 8.08181Z" fill="#E24F52"/>
<path d="M15.375 12.1073C15.6288 11.9078 15.8878 11.7086 16.1523 11.5102C15.888 11.7086 15.6288 11.9076 15.375 12.1073Z" fill="#E24F52"/>
<path d="M16.2759 11.4174C16.5436 11.218 16.8164 11.0188 17.0948 10.8209C16.8164 11.0191 16.5433 11.2178 16.2759 11.4174Z" fill="#E24F52"/>
<path d="M17.2189 10.7327C17.5019 10.5328 17.7904 10.3336 18.0844 10.1356C17.7904 10.3338 17.5019 10.5328 17.2189 10.7327Z" fill="#E24F52"/>
<path d="M14.5137 12.8018C14.7551 12.6021 15.0015 12.4022 15.2534 12.203C15.0015 12.4024 14.7551 12.6021 14.5137 12.8018Z" fill="#E24F52"/>
<path d="M12.908 14.1994C13.1299 13.9961 13.3566 13.7925 13.589 13.5889C13.3566 13.7927 13.1299 13.9963 12.908 14.1994Z" fill="#E24F52"/>
<path d="M26.3406 5.65484C26.3423 5.65313 26.344 5.65143 26.346 5.64996C26.2543 5.68946 26.1665 5.73091 26.0756 5.77064C26.1639 5.73212 26.2516 5.69311 26.3406 5.65484Z" fill="#E24F52"/>
<path d="M26.0754 5.77063C25.7272 5.92203 25.3818 6.07489 25.0441 6.23092C25.3818 6.07465 25.7279 5.92227 26.0754 5.77063Z" fill="#E24F52"/>
<path d="M26.3406 5.65479C20.7969 10.7707 15.3985 18.3952 13.3052 27.5474C17.0395 21.2903 22.6934 18.7019 28.0411 19.5245C28.9824 19.6693 29.755 20.2052 30.3979 21.0763C32.1401 13.8964 35.6225 7.06224 42.159 2.56221C43.1737 1.86348 44.1835 1.28129 45.1631 0.787842C43.062 1.08674 40.8764 1.46365 38.5345 1.9237C33.934 2.82746 29.8872 4.12691 26.3406 5.65479Z" fill="#E24F52"/>
<path d="M12.1594 14.9027C12.3746 14.6953 12.595 14.4871 12.8215 14.2786C12.5953 14.4871 12.3746 14.695 12.1594 14.9027Z" fill="#E24F52"/>
<path d="M10.7665 16.3141C10.9752 16.0915 11.19 15.8675 11.4114 15.6422C11.1905 15.8668 10.9757 16.0903 10.7675 16.3124C10.7673 16.3131 10.767 16.3136 10.7665 16.3141Z" fill="#E24F52"/>
<path d="M10.5457 68.9695C7.74587 62.7039 5.64213 57.9145 4.37316 51.0906C3.80413 48.0299 2.95693 43.2851 3.52181 37.0429C4.06695 31.0179 5.65993 26.5522 6.28868 24.9107C7.54157 21.6402 9.10578 18.7841 10.7665 16.3141C9.27497 17.9059 8.10938 19.4253 7.24657 20.7603C6.36768 22.1202 2.06707 28.9454 0.541867 39.2778C-1.43168 52.6492 2.45715 63.3161 4.69229 68.9695C10.1197 82.6981 37.5766 118.22 37.5766 118.22L37.619 118.413H40.638C34.5766 109.637 25.9515 97.1951 18.2078 83.9517C16.9337 81.7724 13.8367 76.3344 10.5457 68.9695Z" fill="#E24F52"/>
<path d="M35.8995 92.2157C34.1346 91.3675 31.3814 89.8497 28.1896 87.0994C32.8998 96.5978 39.7612 110.124 44.1808 118.413H48.8484C47.5143 114.513 44.2213 104.897 40.6957 93.3133C39.6055 93.7075 38.0612 93.2548 35.8995 92.2157Z" fill="#E24F52"/>
<path d="M50.8731 0.169287C51.4767 0.126622 52.0772 0.0915161 52.6757 0.0654297C52.077 0.0915161 51.4763 0.126866 50.8731 0.169287Z" fill="#E24F52"/>
<path d="M49.0202 0.324625C49.5992 0.268796 50.1739 0.220767 50.7456 0.179321C50.1741 0.220279 49.5988 0.268796 49.0202 0.324625Z" fill="#E24F52"/>
<path d="M45.1631 0.788841L45.1641 0.787842L45.1631 0.788841Z" fill="#F9F4F4"/>
<path d="M48.9059 0.33585C48.9433 0.332255 48.9809 0.32818 49.0183 0.324585C48.9809 0.32818 48.9433 0.332016 48.9059 0.33585Z" fill="#F9F4F4"/>
<path d="M50.7456 0.179064C50.788 0.176138 50.8307 0.172237 50.8731 0.169312C50.8307 0.172237 50.7878 0.176138 50.7456 0.179064Z" fill="#F9F4F4"/>
<path d="M47.0562 0.538376C47.0763 0.535979 47.0967 0.533341 47.1168 0.530945C47.0967 0.533581 47.0763 0.535979 47.0562 0.538376Z" fill="#F9F4F4"/>
<path d="M52.6765 0.0651855L52.6755 0.066185L52.6765 0.0651855Z" fill="#F9F4F4"/>
<path d="M15.2534 12.2013C15.2929 12.1699 15.3332 12.1385 15.373 12.1071C15.333 12.1385 15.2932 12.1699 15.2534 12.2013Z" fill="#F9F4F4"/>
<path d="M16.1523 11.5099C16.1932 11.4792 16.2344 11.4482 16.2759 11.4175C16.2344 11.4484 16.1932 11.4792 16.1523 11.5099Z" fill="#F9F4F4"/>
<path d="M11.4114 15.6416C11.4231 15.6296 11.4353 15.6176 11.4471 15.6057C11.4353 15.6176 11.4231 15.6299 11.4114 15.6416Z" fill="#F9F4F4"/>
<path d="M12.8215 14.2771C12.8495 14.2512 12.8783 14.2253 12.9066 14.1994C12.8783 14.2253 12.8495 14.2514 12.8215 14.2771Z" fill="#F9F4F4"/>
<path d="M21.3308 8.13098C21.3598 8.11468 21.3886 8.09814 21.4176 8.0816C21.3886 8.09814 21.36 8.11468 21.3308 8.13098Z" fill="#F9F4F4"/>
<path d="M25.0146 6.24425C25.0244 6.2397 25.0338 6.23514 25.0436 6.23059C25.0338 6.23514 25.0242 6.23994 25.0146 6.24425Z" fill="#F9F4F4"/>
<path d="M22.5091 7.4866C22.5328 7.47414 22.5563 7.46143 22.58 7.44873C22.5561 7.46143 22.5328 7.47414 22.5091 7.4866Z" fill="#F9F4F4"/>
<path d="M17.0948 10.8209C17.136 10.7914 17.1774 10.7621 17.2189 10.7328C17.1774 10.7621 17.1362 10.7914 17.0948 10.8209Z" fill="#F9F4F4"/>
<path d="M19.12 9.45659C19.1562 9.43359 19.1922 9.41034 19.2286 9.38733C19.1922 9.41034 19.1562 9.43335 19.12 9.45659Z" fill="#F9F4F4"/>
<path d="M20.2015 8.78838C20.2346 8.76849 20.2674 8.74859 20.3007 8.7287C20.2674 8.74859 20.2348 8.76849 20.2015 8.78838Z" fill="#F9F4F4"/>
<path d="M30.3979 21.0765C29.755 20.2051 28.9824 19.6695 28.0411 19.5247C22.6934 18.7021 17.0395 21.2903 13.3052 27.5476C12.7206 30.1041 12.3934 32.7798 12.3934 35.5532C12.3934 55.2153 21.6631 73.2082 23.0354 76.5011C23.3502 77.2564 25.39 81.4534 28.1896 87.0983C31.3814 89.8486 34.1346 91.3677 35.8995 92.2159C38.0612 93.2547 39.6052 93.7062 40.6957 93.312C36.5207 79.5935 32.0197 63.1166 30.0595 50.1082C29.2925 45.0167 27.6018 32.6006 30.3979 21.0765Z" fill="#E24F52"/>
<path d="M30.3979 21.0765C29.755 20.2051 28.9824 19.6695 28.0411 19.5247C22.6934 18.7021 17.0395 21.2903 13.3052 27.5476C12.7206 30.1041 12.3934 32.7798 12.3934 35.5532C12.3934 55.2153 21.6631 73.2082 23.0354 76.5011C23.3502 77.2564 25.39 81.4534 28.1896 87.0983C31.3814 89.8486 34.1346 91.3677 35.8995 92.2159C38.0612 93.2547 39.6052 93.7062 40.6957 93.312C36.5207 79.5935 32.0197 63.1166 30.0595 50.1082C29.2925 45.0167 27.6018 32.6006 30.3979 21.0765Z" fill="#ED5D5D"/>
<path d="M30.3979 21.0765C27.6018 32.6009 29.2925 45.0168 30.0598 50.1083C32.0199 63.1167 36.5209 79.5936 40.696 93.3121C40.8527 93.2555 41.0002 93.1814 41.1387 93.089C42.9067 91.9095 43.1483 87.9449 40.3746 79.9915C32.3171 56.8869 35.5701 28.085 30.3979 21.0765Z" fill="#F9F4F4"/>
<path d="M30.3979 21.0765C27.6018 32.6009 29.2925 45.0168 30.0598 50.1083C32.0199 63.1167 36.5209 79.5936 40.696 93.3121C40.8527 93.2555 41.0002 93.1814 41.1387 93.089C42.9067 91.9095 43.1483 87.9449 40.3746 79.9915C32.3171 56.8869 35.5701 28.085 30.3979 21.0765Z" fill="white"/>
<path d="M12.3934 35.553C12.3934 32.7796 12.7203 30.1039 13.3052 27.5474C10.7165 31.8848 9.0497 37.984 9.0497 45.9379C9.0497 52.1328 10.3984 56.7828 11.2327 59.6903C11.9755 62.2792 13.8762 68.2313 18.218 75.1891C21.6239 80.6468 25.1109 84.4454 28.1898 87.0984C25.3903 81.4532 23.3504 77.2563 23.0357 76.5012C21.6631 73.208 12.3934 55.2152 12.3934 35.553Z" fill="#F9F4F4"/>
<path d="M12.3934 35.553C12.3934 32.7796 12.7203 30.1039 13.3052 27.5474C10.7165 31.8848 9.0497 37.984 9.0497 45.9379C9.0497 52.1328 10.3984 56.7828 11.2327 59.6903C11.9755 62.2792 13.8762 68.2313 18.218 75.1891C21.6239 80.6468 25.1109 84.4454 28.1898 87.0984C25.3903 81.4532 23.3504 77.2563 23.0357 76.5012C21.6631 73.208 12.3934 55.2152 12.3934 35.553Z" fill="white"/>
<path opacity="0.12" d="M89.6171 8.94761C86.1288 6.58617 82.7005 4.98125 79.4463 3.84076C85.1911 8.1499 89.6424 13.8182 91.6291 18.238C94.5206 24.6707 95.2242 30.1988 95.419 33.0086C97.2397 59.2713 76.8532 95 74.1795 98.3227C71.8127 101.264 68.8333 104.896 63.6852 107.853C57.1048 111.633 50.9765 111.978 48.2959 112.15C40.9634 112.618 34.1154 109.792 28.047 105.497C33.4327 112.857 37.5768 118.22 37.5768 118.22L37.6192 118.414H71.9314C71.9314 118.414 95.9995 85.8795 103.984 70.6496C106.411 66.0211 118.032 43.1031 100.472 19.1581C98.8419 16.9347 95.1915 12.7214 89.6171 8.94761Z" fill="#01012D"/>
<path d="M46.239 124.149C45.3057 121.824 45.0904 118.421 45.0904 118.421L37.619 118.411C37.619 118.411 40.1584 125.102 40.7611 126.378C41.5437 128.036 50.2409 128.293 50.3755 127.961C50.446 127.788 47.2583 126.688 46.239 124.149Z" fill="#29637C"/>
<path opacity="0.1" d="M62.4404 145.694C62.5001 153.024 63.3249 159.086 60.5287 161.85C56.628 165.707 45.492 164.836 45.0044 160.425V162.399C45.0044 164.678 46.5991 166.198 48.8335 166.198H61.1875C63.4217 166.198 65.2328 164.178 65.1821 161.906L65.2328 148.542C65.2326 146.725 64.0428 146.249 62.4404 145.694Z" fill="#01012D"/>
<path d="M48.5448 155.375C48.4785 153.796 48.5207 149.294 48.5114 145.503C46.494 145.727 45.0041 147.449 45.0041 149.524V158.871C45.2479 159.757 45.8216 160.373 46.1483 160.743C46.4126 161.041 46.7341 161.483 47.3795 161.9C48.1984 162.429 48.9339 162.612 49.7921 162.815C50.858 163.066 51.7374 163.135 52.2727 163.159C52.8059 163.182 53.325 163.176 53.8294 163.148C53.3377 162.955 52.8796 162.741 52.469 162.506C50.2921 161.255 48.7023 159.124 48.5448 155.375Z" fill="#FFE299"/>
<path d="M44.8184 151.264H65.2224L65.2277 148.574L44.8184 148.59V151.264Z" fill="#C39963"/>
<path d="M65.3759 144.606H44.6243C43.6918 144.606 42.9289 145.369 42.9289 146.301V148.423C42.9289 149.356 43.6918 150.118 44.6243 150.118H65.3759C66.3085 150.118 67.0713 149.356 67.0713 148.423V146.301C67.0713 145.369 66.3085 144.606 65.3759 144.606Z" fill="#F7D48D"/>
<path d="M54.8134 150.118C53.4861 150.1 51.8171 153.074 51.8266 155.812C51.8288 156.482 52.0658 157.734 53.1333 158.519C54.148 159.265 55.6696 159.35 56.7735 158.612C58.0569 157.755 58.1736 156.497 58.1736 155.719C58.1736 153.074 55.7564 150.132 54.8134 150.118Z" fill="#E24F52"/>
<path d="M61.8726 145.162H44.6477C44.1972 145.162 43.6435 145.597 43.6435 146.127V147.092H61.9757C62.5086 147.092 62.9406 146.66 62.9406 146.127C62.9404 145.597 62.3233 145.162 61.8726 145.162Z" fill="#FFE299"/>
<path d="M65.1416 144.744H63.3058C63.8612 144.987 64.321 145.57 64.321 146.639C64.321 147.922 63.1593 148.863 62.219 148.868L45.1275 148.847C43.9809 148.82 43.298 148.125 43.0542 147.256V148.268C43.0542 149.33 43.7976 150.107 44.8588 150.107H65.1416C66.2031 150.107 66.9462 149.33 66.9462 148.268V146.536C66.9462 145.474 66.2029 144.744 65.1416 144.744Z" fill="#DDB57A"/>
<path d="M54.6795 150.135C53.401 150.302 51.8797 153.058 51.8317 155.663C51.9875 156.388 52.3291 156.981 52.831 157.335C53.0882 157.516 53.7506 157.892 54.591 157.785C54.7575 157.764 56.4329 157.499 56.4329 155.125C56.4329 154.199 56.2445 153.499 56.1874 153.283C55.8439 151.986 55.2298 150.914 54.6795 150.135Z" fill="#E24F52"/>
<path d="M54.8134 150.118C54.7692 150.118 54.7241 150.129 54.6793 150.135C55.2298 150.914 55.8439 151.986 56.1869 153.283C56.244 153.499 56.4324 154.199 56.4324 155.125C56.4324 157.499 54.7573 157.764 54.5905 157.785C53.7502 157.892 53.088 157.516 52.8306 157.335C52.3286 156.981 51.9873 156.388 51.8312 155.663C51.8303 155.713 51.8261 155.763 51.8261 155.812C51.8283 156.481 52.0653 157.734 53.1329 158.519C54.1476 159.265 55.6691 159.35 56.773 158.612C58.0564 157.755 58.1732 156.497 58.1732 155.719C58.1736 153.074 55.7564 150.132 54.8134 150.118Z" fill="#CE3846"/>
<path d="M54.3043 151.073C53.1997 151.306 51.8934 154.816 52.8717 155.575C53.1411 155.784 53.6214 155.455 53.6904 155.411C55.0633 154.538 54.8287 150.962 54.3043 151.073Z" fill="#ED5D5D"/>
</svg>
