<svg width="160" height="56" viewBox="0 0 160 56" fill="none" xmlns="http://www.w3.org/2000/svg">
<path d="M106.51 9.01547C106.014 5.47639 101.208 4.27165 100.194 0.487366C98.4609 1.79994 99.5044 4.82115 101.051 5.7921C100.14 6.29339 100.215 7.48518 100.964 8.20575C100.202 10.1238 103.523 10.5587 104.725 10.4976C103.141 11.9366 100.417 13.1725 98.5106 14.341C99.5153 14.385 100.473 13.6002 101.314 13.1652C102.505 12.5483 102.851 12.5748 104.165 12.5603C107.476 12.5245 106.333 9.71634 109.04 9.00666C108.169 8.83196 107.248 8.7485 106.51 9.01547Z" fill="#CAFFF5"/>
<path d="M130.266 25.0266C131.278 22.6632 128.767 20.1324 129.551 17.4249C127.995 17.5882 127.513 19.8369 128.104 21.0101C127.357 20.98 126.959 21.7415 127.152 22.4637C125.969 23.3615 127.853 24.8654 128.615 25.2749C127.104 25.5714 124.966 25.319 123.358 25.3288C123.96 25.7301 124.842 25.6031 125.522 25.6476C126.485 25.7114 126.688 25.856 127.503 26.3366C129.555 27.547 129.896 25.3926 131.827 25.9628C131.356 25.531 130.82 25.1365 130.266 25.0266Z" fill="#CAFFF5"/>
<path d="M54.7041 24.842C56.5864 23.0909 55.3158 19.7597 57.1297 17.6021C55.6414 17.1211 54.2899 18.9816 54.3542 20.2942C53.6834 19.964 53.011 20.4989 52.8949 21.2376C51.4501 21.5793 52.5626 23.7171 53.094 24.4004C51.5927 24.0593 49.741 22.9623 48.2662 22.3201C48.6539 22.9307 49.5119 23.1718 50.1148 23.4885C50.9696 23.9369 51.0966 24.1521 51.6466 24.9208C53.0323 26.8586 54.2173 25.0276 55.7518 26.3309C55.4962 25.7441 55.1655 25.1666 54.7041 24.842Z" fill="#CAFFF5"/>
<path d="M19.7918 42.7848C18.8089 40.409 15.2439 40.4354 13.8556 37.9824C12.8847 39.2089 14.1558 41.1254 15.4082 41.5235C14.8644 42.0367 15.1309 42.8532 15.782 43.2202C15.5969 44.6935 17.9888 44.398 18.8151 44.1393C17.9712 45.427 16.2962 46.7785 15.1786 47.9355C15.8862 47.7852 16.4119 47.0662 16.9194 46.6116C17.6379 45.9677 17.8841 45.9231 18.7965 45.6769C21.0961 45.0559 19.7944 43.3058 21.5522 42.3234C20.9141 42.3581 20.2568 42.4659 19.7918 42.7848Z" fill="#CAFFF5"/>
<path d="M158.25 7.15903C158.617 4.61423 155.537 2.81799 155.595 0C154.134 0.559348 154.25 2.85636 155.124 3.83716C154.395 4.00098 154.207 4.83973 154.58 5.48721C153.669 6.65981 155.877 7.62611 156.719 7.82517C155.336 8.50168 153.206 8.81012 151.655 9.23468C152.34 9.46641 153.159 9.11649 153.827 8.9843C154.774 8.79716 155.008 8.88425 155.919 9.13826C158.214 9.77744 157.987 7.60796 160 7.6598C159.433 7.36484 158.813 7.12223 158.25 7.15903Z" fill="#CAFFF5"/>
<path d="M86.5714 24.5725C87.5828 22.2086 85.0717 19.6783 85.8561 16.9708C84.3003 17.1341 83.8182 19.3828 84.4092 20.556C83.6622 20.5259 83.2646 21.2874 83.4574 22.0096C82.275 22.9074 84.1583 24.4113 84.9209 24.8208C83.4103 25.1173 81.2724 24.8649 79.6643 24.8747C80.2662 25.2755 81.1485 25.149 81.8281 25.1935C82.7913 25.2573 82.9945 25.4019 83.8089 25.8825C85.8607 27.0929 86.2023 24.9385 88.1334 25.5087C87.6611 25.0769 87.1246 24.6824 86.5714 24.5725Z" fill="#CAFFF5"/>
<path d="M125.635 8.51051C125.758 8.06054 127.86 9.85989 128.196 10.244C128.586 10.6909 128.94 11.0854 129.476 11.3632C129.741 11.5006 130.088 11.5327 130.278 11.7458C128.934 11.837 127.457 11.2969 126.405 10.4866C126.316 11.2222 125.279 10.3607 125.027 10.2596C124.415 10.0149 124.039 10.0875 123.645 9.40941C122.884 9.64735 122.236 9.81739 121.432 9.54575C120.906 9.36794 120.739 9.27151 120.157 9.32335C119.716 9.36274 119.198 9.48716 118.812 9.3389C119.502 9.08022 120.516 9.06104 121.3 8.90864C122.201 8.73394 123.189 8.64582 124.046 8.31975C125.126 7.90866 126.472 7.23214 127.603 7.82829C127.297 7.98381 127.048 7.99159 126.787 8.23057C126.527 8.46799 126.552 8.76348 125.635 8.51051Z" fill="#CAFFF5"/>
<path d="M145.081 19.0443C145.228 18.7551 146.41 20.2734 146.586 20.5819C146.789 20.9406 146.976 21.2589 147.302 21.5228C147.464 21.6529 147.696 21.7234 147.796 21.895C146.868 21.7701 145.936 21.1967 145.332 20.4984C145.169 20.9873 144.582 20.2558 144.424 20.1521C144.041 19.9002 143.775 19.8976 143.6 19.3808C143.049 19.4373 142.584 19.4627 142.073 19.1661C141.739 18.9718 141.639 18.8831 141.235 18.8375C140.929 18.8028 140.559 18.8157 140.317 18.6612C140.823 18.5809 141.517 18.7089 142.072 18.7141C142.71 18.7203 143.395 18.7976 144.025 18.6944C144.818 18.5643 145.829 18.2906 146.518 18.8541C146.287 18.9173 146.117 18.8883 145.905 19.0148C145.695 19.1392 145.671 19.3445 145.081 19.0443Z" fill="#CAFFF5"/>
<path d="M69.5494 33.8725C69.6733 33.4226 71.7749 35.2219 72.1108 35.6061C72.5012 36.0529 72.8552 36.4474 73.3907 36.7253C73.6556 36.8621 74.003 36.8948 74.1927 37.1073C72.849 37.1986 71.3721 36.6584 70.3198 35.8481C70.2306 36.5838 69.1943 35.7222 68.9419 35.6211C68.3302 35.3764 67.9543 35.449 67.5598 34.7709C66.7988 35.0089 66.1513 35.1789 65.3468 34.9073C64.8206 34.7295 64.6537 34.633 64.0715 34.6849C63.6309 34.7243 63.113 34.8487 62.7268 34.7004C63.4168 34.4417 64.4308 34.4226 65.2146 34.2702C66.1151 34.0955 67.1031 34.0073 67.96 33.6812C69.0404 33.2702 70.3861 32.5937 71.5178 33.1898C71.2109 33.3453 70.9631 33.3531 70.7013 33.5921C70.4416 33.8295 70.4659 34.1255 69.5494 33.8725Z" fill="#CAFFF5"/>
<path d="M7.42029 52.4803C7.55507 51.9909 9.84067 53.9473 10.2056 54.3657C10.6302 54.8514 11.0148 55.2812 11.5975 55.5829C11.8852 55.7322 12.2631 55.7674 12.4695 55.9986C11.0081 56.0976 9.40211 55.5108 8.25749 54.629C8.16055 55.4289 7.03357 54.4916 6.75882 54.3817C6.09372 54.1153 5.6847 54.1946 5.25598 53.4569C4.42811 53.7156 3.72414 53.9007 2.84909 53.6052C2.27678 53.4118 2.09533 53.3071 1.46237 53.3631C0.982857 53.4056 0.419889 53.5409 -1.12512e-05 53.3802C0.750625 53.0987 1.85325 53.078 2.70601 52.9126C3.68526 52.7224 4.75936 52.627 5.69195 52.2719C6.86664 51.825 8.33059 51.0889 9.56126 51.7374C9.22742 51.9064 8.95785 51.9152 8.67325 52.1749C8.39124 52.4336 8.41716 52.7555 7.42029 52.4803Z" fill="#CAFFF5"/>
<path d="M36.5214 30.4666C36.6163 30.1219 38.228 31.5013 38.4851 31.7958C38.7842 32.1384 39.0559 32.4412 39.4664 32.6537C39.6697 32.7589 39.9361 32.7838 40.0813 32.9466C39.0512 33.0166 37.9185 32.6024 37.1114 31.9808C37.043 32.5448 36.2483 31.8839 36.0549 31.8067C35.5857 31.619 35.2975 31.675 34.9953 31.155C34.4116 31.3375 33.915 31.4676 33.2986 31.2598C32.8953 31.1234 32.7672 31.0498 32.3209 31.0892C31.9829 31.1193 31.5858 31.2147 31.2898 31.1011C31.8191 30.9031 32.5967 30.8881 33.1975 30.7714C33.888 30.6372 34.6454 30.5698 35.3027 30.3199C36.1311 30.0047 37.1627 29.4858 38.0305 29.943C37.7951 30.0623 37.6049 30.0685 37.4043 30.2515C37.2057 30.4339 37.2244 30.6605 36.5214 30.4666Z" fill="#CAFFF5"/>
<path d="M70.61 13.4508C70.7049 13.1061 72.3166 14.485 72.5737 14.78C72.8728 15.1227 73.1445 15.4254 73.555 15.638C73.7583 15.7432 74.0242 15.7681 74.1699 15.9308C73.1398 16.0008 72.0071 15.5866 71.2 14.9656C71.1315 15.5296 70.3368 14.8687 70.1435 14.7914C69.6743 14.6038 69.3861 14.6597 69.0839 14.1393C68.5002 14.3218 68.0035 14.4519 67.3872 14.244C66.9839 14.1077 66.8558 14.0335 66.4095 14.0735C66.0715 14.1035 65.6744 14.1989 65.3784 14.0854C65.9077 13.8868 66.6853 13.8723 67.2861 13.7557C67.9766 13.6214 68.734 13.554 69.3913 13.3041C70.2197 12.989 71.2513 12.4701 72.1191 12.9273C71.8837 13.0465 71.6935 13.0527 71.4929 13.2357C71.2943 13.4177 71.313 13.6447 70.61 13.4508Z" fill="#CAFFF5"/>
<path d="M93.884 35.124C93.7533 34.3863 98.0425 35.5465 98.7947 35.8726C99.6687 36.2515 100.455 36.5802 101.424 36.6133C101.902 36.6294 102.429 36.4371 102.851 36.6149C100.965 37.6735 98.45 37.9088 96.364 37.4588C96.7424 38.5874 94.6445 38.0519 94.2085 38.0794C93.1525 38.1457 92.6574 38.5112 91.6175 37.7989C90.6777 38.6688 89.8555 39.3619 88.5015 39.5226C87.6155 39.6278 87.3071 39.6029 86.4984 40.0793C85.8857 40.4401 85.2206 40.9777 84.5586 41.029C85.3813 40.1778 86.839 39.451 87.8711 38.6895C89.0572 37.815 90.4294 37.0063 91.4475 35.942C92.7311 34.6009 94.2168 32.6912 96.2696 32.7757C95.9311 33.2127 95.577 33.3957 95.3624 33.9224C95.1494 34.4464 95.3884 34.8591 93.884 35.124Z" fill="#CAFFF5"/>
</svg>
