<svg width="160" height="75" viewBox="0 0 160 75" fill="none" xmlns="http://www.w3.org/2000/svg">
<path d="M133.151 47.5716C133.151 47.5716 132.789 47.7318 132.721 47.9333C132.652 48.1351 132.696 48.2223 132.564 48.3608C132.431 48.4994 132.298 48.729 132.361 48.7561C132.423 48.7832 132.682 48.4535 133.103 48.4034C133.525 48.3531 133.423 48.2829 133.978 48.3482C134.533 48.4135 134.863 48.5172 135.145 48.4256C135.428 48.3343 135.421 48.2814 135.421 48.2814C135.421 48.2814 135.395 48.4073 135.546 48.4269C135.697 48.4465 135.72 48.3397 135.879 48.2932C136.039 48.2468 136.086 48.3149 136.071 48.2646C136.056 48.2143 135.913 48.22 135.913 48.22C135.913 48.22 136.026 48.1415 136.12 48.1506C136.213 48.1596 136.801 47.9612 136.946 47.9003C137.092 47.8396 136.883 47.8095 136.883 47.8095C136.883 47.8095 137.324 47.6993 137.422 47.6616C137.52 47.6239 137.356 47.5901 137.356 47.5901C137.356 47.5901 138.619 47.4671 138.785 47.3822C138.951 47.2973 137.614 47.4784 136.973 47.4018C136.333 47.3249 136.116 47.2973 136.178 47.2612C136.24 47.2248 136.397 47.1701 136.471 47.112C136.545 47.054 136.462 46.9874 136.542 46.9822C136.623 46.9771 136.767 46.9438 136.748 46.877C136.729 46.8101 136.866 46.8153 136.897 46.7335C136.928 46.652 136.831 46.5986 136.878 46.5753C136.926 46.5524 137.126 46.5212 137.093 46.4399C137.06 46.3586 136.956 46.3436 137.064 46.2758C137.171 46.2082 137.099 46.1473 137.133 46.1101C137.168 46.0727 137.22 45.9396 137.28 45.8947C137.339 45.85 137.265 45.8444 137.277 45.7592C137.288 45.6741 137.306 45.705 137.36 45.6078C137.413 45.5105 137.341 45.5131 137.353 45.4279C137.364 45.3428 137.44 45.3208 137.46 45.2331C137.479 45.1454 137.406 45.1124 137.436 45.0582C137.466 45.004 137.575 44.9446 137.583 44.8788C137.591 44.8128 137.462 44.7416 137.521 44.6969C137.581 44.6523 137.669 44.5176 137.643 44.4614C137.618 44.4051 137.432 44.4229 137.532 44.3303C137.632 44.2374 137.69 44.1845 137.647 44.1332C137.605 44.0818 137.508 44.0919 137.569 44.0196C137.63 43.9474 137.621 43.8862 137.573 43.9095C137.525 43.9324 137.914 43.5193 137.891 43.4716C137.868 43.4239 137.4 43.8145 137.356 43.8184C137.311 43.8222 137.932 43.1142 137.881 43.0652C137.831 43.0164 136.858 44.0728 136.807 44.0238C136.756 43.975 137.537 42.8201 137.485 42.6717C137.365 42.6341 136.524 44.0516 136.352 44.1471C136.352 44.1471 136.987 42.9896 136.945 42.502C136.739 42.762 136.089 44.3329 135.858 44.4456C136.029 44.1595 136.387 43.1736 136.277 42.7966C136.127 42.8131 136.005 43.9845 135.532 44.6678C135.554 44.5886 135.086 45.3797 134.801 45.6808C134.516 45.9819 134.328 46.2729 134.342 46.4778C134.342 46.4778 134.304 46.3163 134.289 46.3571C134.274 46.3978 134.26 46.4747 134.316 46.6672C134.372 46.8599 133.917 46.6383 133.917 46.6383C133.917 46.6383 132.654 46.2977 132.588 46.2262C132.522 46.1548 132.599 46.5774 132.572 46.5764C132.544 46.5753 132.491 46.0183 132.416 45.9491C132.342 45.88 132.124 46.2252 132.095 46.1246C132.065 46.0239 131.907 45.5433 131.816 45.606C131.726 45.6686 131.656 46.1161 131.637 46.1762C131.618 46.2363 131.411 45.3061 131.311 45.3079C131.212 45.3097 131.023 45.4738 131.133 45.9416C131.242 46.4097 130.882 45.333 130.75 45.19C130.617 45.0468 130.383 45.0244 130.478 45.2873C130.573 45.5502 130.666 45.8051 130.603 45.7781C130.541 45.751 130.298 45.2308 130.241 45.2839C130.184 45.3371 130.286 45.9979 130.573 46.3594C130.86 46.7209 130.437 46.299 130.365 46.3018C130.293 46.3047 130.315 46.5346 130.585 46.774C130.854 47.0135 131.533 47.0973 131.881 47.3231C132.228 47.5489 132.766 47.4286 132.896 47.4722C133.027 47.5158 133.162 47.6038 133.162 47.6038" fill="#F3F3F3"/>
<path d="M106.951 27.2774C106.951 27.2774 106.802 27.1584 106.701 27.1742C106.599 27.1899 106.572 27.2278 106.483 27.2023C106.395 27.1767 106.267 27.1711 106.269 27.2036C106.272 27.2364 106.47 27.2732 106.585 27.442C106.701 27.6107 106.708 27.5514 106.803 27.803C106.899 28.0545 106.928 28.2186 107.03 28.3187C107.132 28.4189 107.153 28.4044 107.153 28.4044C107.153 28.4044 107.093 28.4209 107.119 28.4898C107.144 28.5587 107.195 28.545 107.25 28.6026C107.305 28.6601 107.287 28.6955 107.305 28.6779C107.323 28.6604 107.289 28.6003 107.289 28.6003C107.289 28.6003 107.347 28.6312 107.364 28.6733C107.381 28.7151 107.597 28.9217 107.655 28.9705C107.713 29.0193 107.68 28.9236 107.68 28.9236C107.68 28.9236 107.825 29.0869 107.863 29.1204C107.901 29.154 107.878 29.0763 107.878 29.0763C107.878 29.0763 108.212 29.5882 108.285 29.6403C108.358 29.6925 107.983 29.1617 107.874 28.8712C107.764 28.5806 107.727 28.4821 107.757 28.5004C107.786 28.5187 107.844 28.5734 107.886 28.5923C107.927 28.6108 107.937 28.5608 107.957 28.5938C107.977 28.6268 108.023 28.6813 108.048 28.658C108.072 28.6348 108.1 28.6947 108.142 28.6898C108.184 28.6846 108.185 28.6312 108.205 28.6467C108.226 28.6619 108.283 28.7404 108.311 28.7084C108.338 28.6764 108.321 28.6284 108.374 28.6591C108.427 28.69 108.437 28.6457 108.46 28.6521C108.484 28.6586 108.553 28.6511 108.585 28.6666C108.617 28.682 108.603 28.649 108.642 28.6351C108.681 28.6212 108.672 28.6356 108.725 28.6369C108.778 28.6379 108.761 28.608 108.8 28.5938C108.839 28.5799 108.865 28.607 108.907 28.5961C108.949 28.585 108.947 28.5463 108.976 28.5471C109.006 28.5476 109.056 28.5814 109.086 28.5703C109.116 28.559 109.117 28.4878 109.149 28.5032C109.182 28.5187 109.259 28.5265 109.277 28.503C109.295 28.4795 109.246 28.4044 109.308 28.4263C109.37 28.4485 109.406 28.4612 109.418 28.4315C109.431 28.4021 109.405 28.3629 109.449 28.3727C109.494 28.3825 109.518 28.3652 109.497 28.35C109.477 28.3347 109.74 28.4085 109.755 28.3882C109.77 28.3678 109.499 28.255 109.488 28.237C109.476 28.2189 109.917 28.3262 109.926 28.2937C109.936 28.2612 109.268 28.0809 109.278 28.0483C109.287 28.0158 109.954 28.0925 110.006 28.037C109.995 27.9774 109.203 27.9338 109.124 27.8817C109.124 27.8817 109.759 27.8951 109.958 27.7687C109.801 27.7387 108.986 27.8104 108.886 27.7372C109.047 27.7465 109.547 27.6799 109.684 27.5491C109.643 27.4887 109.116 27.6974 108.719 27.6476C108.758 27.6396 108.316 27.6154 108.124 27.5607C107.932 27.5062 107.766 27.4908 107.682 27.5424C107.682 27.5424 107.742 27.4902 107.721 27.4928C107.7 27.4954 107.665 27.5065 107.595 27.5733C107.525 27.6402 107.518 27.3963 107.518 27.3963C107.518 27.3963 107.383 26.7815 107.399 26.7373C107.414 26.6932 107.251 26.8204 107.246 26.8083C107.24 26.7962 107.466 26.6496 107.479 26.6024C107.492 26.5552 107.296 26.5392 107.332 26.5043C107.369 26.4695 107.539 26.2948 107.492 26.2701C107.445 26.2453 107.239 26.3152 107.209 26.3206C107.179 26.326 107.53 26.0304 107.507 25.9883C107.484 25.9462 107.372 25.9024 107.196 26.0531C107.021 26.2037 107.4 25.8108 107.432 25.7223C107.463 25.6338 107.421 25.529 107.33 25.6281C107.239 25.7272 107.151 25.8234 107.148 25.7907C107.146 25.7579 107.314 25.5386 107.279 25.5259C107.243 25.5133 106.984 25.704 106.894 25.907C106.803 26.1101 106.889 25.8356 106.872 25.8056C106.855 25.7754 106.761 25.8361 106.719 26.0043C106.677 26.1728 106.792 26.4811 106.773 26.6798C106.754 26.8785 106.925 27.081 106.936 27.1466C106.946 27.2121 106.939 27.2892 106.939 27.2892" fill="#F3F3F3"/>
<path d="M130.847 60.7977C130.847 60.7977 130.62 60.8279 130.549 60.9288C130.479 61.0297 130.489 61.0849 130.393 61.1404C130.298 61.1959 130.187 61.3016 130.217 61.3269C130.247 61.3522 130.444 61.2111 130.686 61.2513C130.927 61.2916 130.882 61.2361 131.18 61.3623C131.477 61.4882 131.643 61.5991 131.815 61.594C131.986 61.5888 131.991 61.5586 131.991 61.5586C131.991 61.5586 131.956 61.6242 132.036 61.6595C132.117 61.6949 132.147 61.6394 132.243 61.6394C132.339 61.6394 132.354 61.6848 132.354 61.6546C132.354 61.6244 132.274 61.6043 132.274 61.6043C132.274 61.6043 132.349 61.579 132.399 61.5991C132.45 61.6193 132.808 61.6043 132.898 61.594C132.989 61.5839 132.878 61.5336 132.878 61.5336C132.878 61.5336 133.14 61.5437 133.201 61.5388C133.261 61.5336 133.175 61.4885 133.175 61.4885C133.175 61.4885 133.896 61.6244 134.002 61.6043C134.108 61.5842 133.337 61.4683 132.994 61.322C132.651 61.176 132.535 61.1254 132.576 61.1154C132.616 61.1053 132.712 61.1001 132.762 61.08C132.812 61.0599 132.777 61.0096 132.822 61.0196C132.868 61.0297 132.953 61.0348 132.953 60.9943C132.953 60.9541 133.029 60.9791 133.059 60.9389C133.089 60.8986 133.044 60.8532 133.074 60.848C133.105 60.8429 133.22 60.8581 133.216 60.8078C133.211 60.7575 133.155 60.7322 133.226 60.7121C133.296 60.6919 133.266 60.6465 133.291 60.6316C133.316 60.6163 133.367 60.5511 133.407 60.5358C133.447 60.5206 133.407 60.5056 133.427 60.4602C133.447 60.4148 133.452 60.4349 133.498 60.3898C133.543 60.3444 133.503 60.3343 133.523 60.2889C133.543 60.2435 133.588 60.2435 133.614 60.1981C133.639 60.1527 133.604 60.1225 133.629 60.0972C133.654 60.0719 133.725 60.0569 133.74 60.0216C133.755 59.9863 133.694 59.9259 133.735 59.9106C133.775 59.8954 133.846 59.835 133.841 59.7997C133.835 59.7643 133.73 59.7442 133.8 59.7089C133.871 59.6735 133.911 59.6534 133.896 59.618C133.881 59.5827 133.826 59.5726 133.871 59.5424C133.916 59.5123 133.921 59.4769 133.891 59.4821C133.861 59.4872 134.143 59.3208 134.138 59.2906C134.133 59.2604 133.81 59.4016 133.785 59.3964C133.76 59.3913 134.218 59.0992 134.198 59.0638C134.178 59.0285 133.468 59.4568 133.447 59.4214C133.427 59.3861 134.047 58.8721 134.042 58.7815C133.981 58.7413 133.286 59.3913 133.175 59.4163C133.175 59.4163 133.714 58.877 133.77 58.6002C133.613 58.7111 132.999 59.4769 132.853 59.5019C132.994 59.3709 133.351 58.8822 133.351 58.6554C133.266 58.6401 133.009 59.27 132.636 59.5724C132.661 59.5321 132.273 59.8949 132.066 60.0157C131.86 60.1367 131.708 60.2675 131.683 60.3836C131.683 60.3836 131.689 60.2879 131.673 60.308C131.658 60.3281 131.638 60.3684 131.638 60.4845C131.638 60.6006 131.421 60.404 131.421 60.404C131.421 60.404 130.776 60.011 130.751 59.9607C130.726 59.9104 130.701 60.1573 130.686 60.1522C130.671 60.147 130.731 59.8296 130.701 59.7793C130.671 59.729 130.494 59.8851 130.494 59.8247C130.494 59.7644 130.484 59.472 130.424 59.4921C130.363 59.5123 130.252 59.7491 130.232 59.7793C130.212 59.8095 130.248 59.2604 130.192 59.2452C130.137 59.23 130.006 59.2906 129.991 59.5677C129.975 59.8449 129.95 59.1897 129.9 59.0891C129.849 58.9882 129.724 58.9379 129.734 59.0992C129.744 59.2604 129.754 59.4165 129.724 59.3915C129.693 59.3662 129.643 59.0388 129.603 59.0589C129.562 59.079 129.512 59.462 129.613 59.7089C129.713 59.9558 129.547 59.6534 129.507 59.6433C129.467 59.6333 129.441 59.7643 129.552 59.9406C129.663 60.1171 130.026 60.2732 130.182 60.4546C130.338 60.6359 130.656 60.6561 130.721 60.7015C130.787 60.7469 130.847 60.8173 130.847 60.8173" fill="#F3F3F3"/>
<path d="M158.15 50.1205C158.15 50.1205 158.039 50.192 158.026 50.2622C158.014 50.3321 158.033 50.3587 157.997 50.411C157.96 50.4634 157.928 50.546 157.95 50.5519C157.972 50.5576 158.04 50.4355 158.177 50.3971C158.313 50.3587 158.275 50.3409 158.462 50.3336C158.649 50.3264 158.762 50.3434 158.851 50.2985C158.939 50.2539 158.934 50.2366 158.934 50.2366C158.934 50.2366 158.932 50.2794 158.983 50.2782C159.034 50.2769 159.036 50.2405 159.086 50.2168C159.136 50.1933 159.155 50.2131 159.147 50.1974C159.14 50.1817 159.093 50.1909 159.093 50.1909C159.093 50.1909 159.126 50.1592 159.157 50.1574C159.189 50.1556 159.372 50.0596 159.417 50.032C159.462 50.0044 159.391 50.0054 159.391 50.0054C159.391 50.0054 159.531 49.9463 159.561 49.9288C159.592 49.9112 159.536 49.9087 159.536 49.9087C159.536 49.9087 159.946 49.8026 159.996 49.766C160.046 49.7293 159.615 49.8584 159.4 49.8664C159.185 49.8744 159.112 49.8764 159.131 49.8612C159.149 49.846 159.198 49.8199 159.219 49.7969C159.241 49.774 159.21 49.7564 159.236 49.7505C159.262 49.7446 159.308 49.7263 159.298 49.7051C159.288 49.6839 159.334 49.6785 159.34 49.6501C159.346 49.6218 159.311 49.6091 159.325 49.599C159.34 49.589 159.404 49.5683 159.389 49.5433C159.374 49.5183 159.339 49.5188 159.371 49.4909C159.403 49.4631 159.376 49.4468 159.385 49.4326C159.395 49.4184 159.405 49.372 159.422 49.3542C159.439 49.3364 159.415 49.3384 159.414 49.3098C159.414 49.2812 159.421 49.2905 159.434 49.2556C159.446 49.2208 159.423 49.2254 159.422 49.1968C159.422 49.1682 159.445 49.1571 159.447 49.1271C159.449 49.0972 159.423 49.0902 159.43 49.0706C159.437 49.0513 159.471 49.026 159.47 49.0038C159.469 48.9816 159.422 48.9648 159.44 48.947C159.457 48.9292 159.479 48.8802 159.468 48.8632C159.456 48.8459 159.396 48.8614 159.424 48.8258C159.453 48.7899 159.469 48.7695 159.452 48.7548C159.436 48.7401 159.404 48.7483 159.421 48.7215C159.437 48.6947 159.431 48.6748 159.416 48.6849C159.402 48.6949 159.508 48.5386 159.498 48.5241C159.488 48.5094 159.354 48.6627 159.34 48.666C159.326 48.6697 159.493 48.4041 159.474 48.3907C159.455 48.3773 159.189 48.7757 159.17 48.7623C159.151 48.7489 159.348 48.3278 159.323 48.2816C159.281 48.2754 159.078 48.786 159.026 48.8265C159.026 48.8265 159.175 48.4121 159.136 48.2537C159.082 48.35 158.949 48.9014 158.879 48.9506C158.92 48.8474 158.987 48.5043 158.931 48.3856C158.883 48.3987 158.903 48.7912 158.783 49.0407C158.786 49.0133 158.673 49.2985 158.594 49.4122C158.516 49.5263 158.469 49.6318 158.484 49.6986C158.484 49.6986 158.464 49.6473 158.461 49.6615C158.458 49.6757 158.457 49.7017 158.486 49.7624C158.514 49.823 158.353 49.7735 158.353 49.7735C158.353 49.7735 157.919 49.7268 157.893 49.7066C157.868 49.6865 157.915 49.8217 157.906 49.8228C157.897 49.8238 157.851 49.6432 157.822 49.6241C157.794 49.6052 157.741 49.7301 157.726 49.6986C157.711 49.6672 157.633 49.5167 157.607 49.5423C157.58 49.5678 157.581 49.7188 157.578 49.7394C157.574 49.7603 157.458 49.4646 157.425 49.4703C157.392 49.476 157.339 49.54 157.399 49.6883C157.459 49.8369 157.285 49.5007 157.234 49.4605C157.183 49.4202 157.105 49.4249 157.149 49.5067C157.194 49.5885 157.238 49.6677 157.216 49.6617C157.194 49.6561 157.087 49.4974 157.071 49.5178C157.055 49.5382 157.123 49.7508 157.236 49.855C157.349 49.9592 157.188 49.8421 157.165 49.8467C157.141 49.8514 157.16 49.926 157.261 49.991C157.363 50.056 157.591 50.0483 157.717 50.1048C157.843 50.1613 158.014 50.0937 158.059 50.1012C158.105 50.1086 158.154 50.1308 158.154 50.1308" fill="#F3F3F3"/>
<path d="M108.593 46.4945C108.593 46.4945 108.462 46.5121 108.421 46.5701C108.381 46.6282 108.386 46.6604 108.331 46.6924C108.276 46.7244 108.212 46.7856 108.229 46.8C108.247 46.8145 108.36 46.7332 108.5 46.7564C108.639 46.7796 108.613 46.7476 108.785 46.8204C108.956 46.8932 109.053 46.9572 109.151 46.9543C109.25 46.9515 109.253 46.9339 109.253 46.9339C109.253 46.9339 109.233 46.9719 109.28 46.992C109.326 47.0124 109.344 46.9804 109.399 46.9804C109.454 46.9804 109.463 47.0067 109.463 46.9892C109.463 46.9716 109.416 46.96 109.416 46.96C109.416 46.96 109.46 46.9455 109.489 46.9572C109.518 46.9688 109.725 46.96 109.777 46.9543C109.829 46.9486 109.765 46.9195 109.765 46.9195C109.765 46.9195 109.917 46.9252 109.952 46.9223C109.986 46.9195 109.937 46.8932 109.937 46.8932C109.937 46.8932 110.353 46.9716 110.414 46.96C110.475 46.9484 110.03 46.8813 109.832 46.7969C109.634 46.7126 109.568 46.6834 109.591 46.6777C109.614 46.6718 109.67 46.669 109.698 46.6573C109.728 46.6457 109.707 46.6166 109.733 46.6225C109.76 46.6282 109.809 46.6313 109.809 46.6081C109.809 46.5848 109.853 46.5993 109.87 46.5761C109.888 46.5528 109.861 46.5265 109.879 46.5237C109.896 46.5208 109.963 46.5296 109.96 46.5005C109.958 46.4713 109.926 46.4569 109.966 46.4453C110.007 46.4336 109.99 46.4073 110.004 46.3988C110.019 46.39 110.048 46.3524 110.071 46.3436C110.094 46.3348 110.071 46.326 110.083 46.3C110.094 46.2739 110.097 46.2855 110.123 46.2592C110.15 46.2329 110.126 46.2272 110.138 46.2009C110.149 46.1746 110.176 46.1746 110.19 46.1485C110.205 46.1222 110.184 46.1049 110.199 46.0905C110.213 46.076 110.254 46.0672 110.263 46.0469C110.272 46.0265 110.237 45.9916 110.26 45.9829C110.283 45.9741 110.324 45.9393 110.321 45.9189C110.318 45.8985 110.257 45.8869 110.298 45.8665C110.339 45.8461 110.362 45.8345 110.353 45.8141C110.345 45.7937 110.313 45.7878 110.339 45.7705C110.365 45.753 110.368 45.7326 110.35 45.7357C110.333 45.7385 110.496 45.6425 110.493 45.6253C110.49 45.6077 110.304 45.6892 110.29 45.6864C110.275 45.6836 110.54 45.5148 110.528 45.4944C110.517 45.4741 110.106 45.7215 110.095 45.7011C110.083 45.6807 110.441 45.384 110.438 45.3316C110.403 45.3084 110.002 45.6838 109.938 45.6983C109.938 45.6983 110.249 45.3868 110.281 45.2269C110.191 45.2909 109.836 45.7331 109.751 45.7478C109.833 45.6722 110.039 45.3899 110.039 45.2589C109.99 45.2501 109.841 45.6139 109.626 45.7883C109.641 45.7651 109.417 45.9746 109.298 46.0445C109.178 46.1145 109.091 46.1901 109.076 46.2569C109.076 46.2569 109.079 46.2017 109.07 46.2133C109.062 46.2249 109.05 46.2481 109.05 46.3152C109.05 46.382 108.925 46.2685 108.925 46.2685C108.925 46.2685 108.552 46.0414 108.538 46.0125C108.523 45.9834 108.509 46.1261 108.5 46.123C108.491 46.1201 108.526 45.9367 108.509 45.9075C108.491 45.8784 108.39 45.9687 108.39 45.9338C108.39 45.899 108.384 45.7303 108.349 45.7419C108.314 45.7535 108.25 45.8902 108.238 45.9078C108.226 45.9253 108.247 45.608 108.215 45.5995C108.183 45.5907 108.107 45.6258 108.098 45.7857C108.09 45.9457 108.075 45.5675 108.046 45.5094C108.017 45.4511 107.944 45.4222 107.95 45.5151C107.956 45.6082 107.962 45.6985 107.944 45.6838C107.927 45.6694 107.898 45.4802 107.874 45.4919C107.851 45.5035 107.822 45.7246 107.88 45.8673C107.939 46.01 107.842 45.8353 107.819 45.8293C107.796 45.8237 107.781 45.8993 107.845 46.0009C107.909 46.1029 108.119 46.1929 108.209 46.2977C108.299 46.4024 108.483 46.414 108.521 46.4403C108.559 46.4667 108.593 46.5072 108.593 46.5072" fill="#F3F3F3"/>
<path d="M78.5566 63.0539C78.5566 63.0539 78.4255 63.0714 78.385 63.1295C78.3442 63.1875 78.3501 63.2198 78.2947 63.2518C78.2395 63.2837 78.1755 63.3449 78.1928 63.3593C78.21 63.3738 78.3236 63.2925 78.4634 63.3157C78.603 63.339 78.577 63.307 78.7485 63.3797C78.9201 63.4525 79.0164 63.5165 79.1152 63.5137C79.214 63.5108 79.2171 63.4933 79.2171 63.4933C79.2171 63.4933 79.1967 63.5312 79.2432 63.5513C79.2896 63.5717 79.3072 63.5397 79.3624 63.5397C79.4176 63.5397 79.4264 63.566 79.4264 63.5485C79.4264 63.5309 79.3797 63.5193 79.3797 63.5193C79.3797 63.5193 79.4233 63.5049 79.4524 63.5165C79.4816 63.5281 79.6883 63.5193 79.7406 63.5137C79.793 63.5077 79.729 63.4788 79.729 63.4788C79.729 63.4788 79.8802 63.4845 79.9153 63.4817C79.9501 63.4788 79.9009 63.4525 79.9009 63.4525C79.9009 63.4525 80.317 63.5312 80.3779 63.5193C80.4391 63.5077 79.9937 63.4406 79.7961 63.3563C79.5982 63.2719 79.5314 63.2427 79.5546 63.237C79.5778 63.2311 79.6333 63.2283 79.6622 63.2167C79.6913 63.2051 79.671 63.1759 79.697 63.1818C79.7233 63.1875 79.7726 63.1906 79.7726 63.1674C79.7726 63.1442 79.8162 63.1586 79.8338 63.1354C79.8513 63.1122 79.825 63.0858 79.8425 63.083C79.8601 63.0802 79.9269 63.0889 79.9241 63.0598C79.9212 63.0306 79.8893 63.0162 79.93 63.0046C79.9708 62.993 79.9532 62.9666 79.9679 62.9581C79.9824 62.9494 80.0115 62.9117 80.0348 62.9029C80.058 62.8941 80.0348 62.8854 80.0464 62.8593C80.058 62.833 80.0608 62.8449 80.0871 62.8185C80.1132 62.7922 80.09 62.7865 80.1016 62.7602C80.1132 62.7339 80.1395 62.7339 80.154 62.7078C80.1684 62.6815 80.148 62.6642 80.1627 62.6498C80.1772 62.6353 80.218 62.6266 80.2267 62.6062C80.2355 62.5858 80.2004 62.551 80.2239 62.5422C80.2471 62.5334 80.2879 62.4986 80.2851 62.4782C80.2822 62.4578 80.2211 62.4462 80.2618 62.4258C80.3026 62.4054 80.3258 62.3938 80.3171 62.3735C80.3083 62.3531 80.2763 62.3471 80.3026 62.3298C80.3289 62.3123 80.3318 62.2919 80.3142 62.295C80.2967 62.2978 80.4597 62.2019 80.4569 62.1846C80.4541 62.1673 80.2678 62.2486 80.2533 62.2457C80.2389 62.2429 80.5036 62.0741 80.492 62.0538C80.4804 62.0334 80.0701 62.2808 80.0585 62.2604C80.0469 62.24 80.4048 61.9433 80.4019 61.891C80.3671 61.8677 79.9654 62.2431 79.9014 62.2576C79.9014 62.2576 80.2128 61.9462 80.2448 61.7862C80.1545 61.8502 79.7995 62.2924 79.7151 62.3071C79.7966 62.2315 80.003 61.9493 80.003 61.8182C79.9535 61.8094 79.8051 62.1732 79.5899 62.3476C79.6044 62.3244 79.3804 62.5339 79.2612 62.6036C79.142 62.6735 79.0546 62.7491 79.0401 62.816C79.0401 62.816 79.0429 62.7607 79.0342 62.7724C79.0254 62.784 79.0138 62.8072 79.0138 62.8743C79.0138 62.9411 78.8886 62.8278 78.8886 62.8278C78.8886 62.8278 78.5163 62.6008 78.5016 62.5719C78.4872 62.5427 78.4725 62.6854 78.4637 62.6823C78.4549 62.6795 78.49 62.496 78.4724 62.4669C78.4549 62.4377 78.3532 62.528 78.3532 62.4932C78.3532 62.4583 78.3473 62.2896 78.3125 62.3012C78.2776 62.3128 78.2134 62.4496 78.2018 62.4671C78.1902 62.4847 78.2106 62.1673 78.1786 62.1588C78.1466 62.15 78.071 62.1851 78.0622 62.3451C78.0534 62.505 78.039 62.1268 78.0098 62.0687C77.9807 62.0104 77.9079 61.9815 77.9138 62.0747C77.9195 62.1678 77.9254 62.2579 77.9079 62.2434C77.8904 62.229 77.8615 62.0398 77.838 62.0514C77.8148 62.063 77.7856 62.2842 77.8439 62.4269C77.9022 62.5695 77.806 62.3949 77.7828 62.3889C77.7595 62.3833 77.7448 62.4589 77.8091 62.5605C77.8731 62.6624 78.0826 62.7525 78.1729 62.8572C78.2632 62.962 78.4464 62.9736 78.4843 62.9999C78.5222 63.0262 78.5571 63.0668 78.5571 63.0668" fill="#F3F3F3"/>
<path d="M28.5816 13.6835C28.5816 13.6835 28.4774 13.6022 28.4075 13.6141C28.3373 13.6257 28.3187 13.6523 28.2571 13.6355C28.1954 13.6185 28.1071 13.6156 28.1089 13.6383C28.1108 13.661 28.2485 13.6848 28.3298 13.8009C28.4111 13.917 28.4155 13.8757 28.4841 14.0491C28.5525 14.2225 28.5742 14.336 28.6456 14.4044C28.7171 14.473 28.7315 14.4627 28.7315 14.4627C28.7315 14.4627 28.6903 14.4746 28.7083 14.5221C28.7264 14.5695 28.7615 14.5595 28.8002 14.599C28.8389 14.6384 28.8265 14.6629 28.8389 14.6508C28.8513 14.6387 28.827 14.5972 28.827 14.5972C28.827 14.5972 28.868 14.6181 28.8802 14.6469C28.8923 14.6758 29.0432 14.8172 29.084 14.8505C29.1248 14.8838 29.1008 14.8178 29.1008 14.8178C29.1008 14.8178 29.2027 14.9297 29.2293 14.9527C29.2558 14.9757 29.2399 14.922 29.2399 14.922C29.2399 14.922 29.4754 15.2739 29.5265 15.3093C29.5776 15.3446 29.3134 14.9803 29.235 14.7798C29.1565 14.5796 29.1302 14.5115 29.1508 14.5239C29.1712 14.5365 29.2122 14.5739 29.2409 14.5863C29.2695 14.599 29.276 14.5639 29.2902 14.5868C29.3044 14.6095 29.3369 14.6469 29.3536 14.6307C29.3702 14.6144 29.3905 14.6557 29.4192 14.6519C29.4481 14.648 29.4483 14.6111 29.4628 14.6214C29.477 14.6317 29.5177 14.6857 29.5366 14.6632C29.5554 14.6408 29.5433 14.6077 29.5802 14.6286C29.6171 14.6495 29.6235 14.6188 29.6398 14.623C29.6563 14.6271 29.7035 14.6214 29.7262 14.632C29.7487 14.6426 29.7386 14.6196 29.7654 14.6098C29.7923 14.5997 29.7861 14.6101 29.823 14.6103C29.8599 14.6106 29.8478 14.5899 29.8746 14.5799C29.9014 14.5698 29.9197 14.5886 29.9486 14.5806C29.9775 14.5726 29.9757 14.5458 29.9964 14.5461C30.017 14.5463 30.0516 14.5693 30.0722 14.5613C30.0929 14.5533 30.0934 14.5037 30.1158 14.5143C30.1383 14.5249 30.192 14.5295 30.2043 14.513C30.2167 14.4965 30.1824 14.4449 30.2252 14.4596C30.2683 14.4743 30.2928 14.4828 30.3014 14.4625C30.3099 14.4421 30.2916 14.415 30.3223 14.4214C30.353 14.4279 30.3697 14.4158 30.3553 14.4052C30.3411 14.3949 30.5238 14.4436 30.5341 14.4294C30.5444 14.415 30.3558 14.3394 30.3478 14.327C30.3398 14.3146 30.6456 14.3853 30.652 14.3626C30.6585 14.3402 30.1945 14.2207 30.2007 14.198C30.2072 14.1755 30.6696 14.2228 30.7049 14.1841C30.6972 14.1428 30.1478 14.1196 30.0926 14.0839C30.0926 14.0839 30.5328 14.0878 30.6696 13.9985C30.5607 13.9789 29.9964 14.0357 29.927 13.9859C30.0379 13.9911 30.3842 13.9405 30.4776 13.8489C30.4492 13.8076 30.0856 13.9565 29.8103 13.9253C29.8372 13.9193 29.5306 13.9064 29.3972 13.87C29.2638 13.8339 29.1488 13.8246 29.0907 13.861C29.0907 13.861 29.1323 13.8244 29.1178 13.8262C29.1034 13.828 29.0786 13.836 29.0309 13.8829C28.9831 13.9299 28.9764 13.7612 28.9764 13.7612C28.9764 13.7612 28.8773 13.3365 28.8879 13.3058C28.8985 13.275 28.7865 13.3646 28.7826 13.3563C28.7785 13.3481 28.9338 13.2446 28.9424 13.2116C28.9509 13.1788 28.8151 13.1693 28.8402 13.1447C28.8652 13.1202 28.9813 12.9979 28.9485 12.9812C28.9158 12.9644 28.7733 13.0147 28.7527 13.0186C28.7321 13.0224 28.9725 12.8147 28.9563 12.7858C28.94 12.7569 28.8621 12.7273 28.7419 12.8333C28.6216 12.9394 28.8812 12.6638 28.9024 12.6021C28.9235 12.5405 28.8933 12.4682 28.8309 12.5376C28.7684 12.607 28.7083 12.6744 28.7065 12.6517C28.7047 12.629 28.8193 12.4757 28.7945 12.4672C28.77 12.4587 28.5917 12.5928 28.5308 12.7345C28.4699 12.8759 28.5272 12.6852 28.5151 12.6643C28.5029 12.6437 28.4387 12.6862 28.4108 12.8034C28.383 12.9205 28.4655 13.1331 28.4539 13.2709C28.4423 13.4087 28.5625 13.5475 28.5705 13.5929C28.5783 13.6383 28.5739 13.6918 28.5739 13.6918" fill="#F3F3F3"/>
<path d="M127.88 22.9088C127.88 22.9088 128.077 22.8706 128.163 22.9346C128.25 22.9986 128.257 23.0474 128.352 23.0667C128.446 23.0861 128.568 23.1428 128.55 23.1722C128.532 23.2017 128.329 23.1392 128.14 23.2401C127.951 23.341 127.973 23.2822 127.761 23.4695C127.55 23.6568 127.443 23.7951 127.299 23.8385C127.156 23.8821 127.143 23.8583 127.143 23.8583C127.143 23.8583 127.191 23.9027 127.134 23.9546C127.077 24.0064 127.036 23.9688 126.957 23.9953C126.877 24.0219 126.877 24.0637 126.869 24.0387C126.86 24.0137 126.922 23.9744 126.922 23.9744C126.922 23.9744 126.852 23.9747 126.816 24.0054C126.78 24.0361 126.479 24.1233 126.401 24.1401C126.323 24.1571 126.401 24.0844 126.401 24.0844C126.401 24.0844 126.186 24.1656 126.135 24.1783C126.083 24.1909 126.142 24.1295 126.142 24.1295C126.142 24.1295 125.582 24.443 125.489 24.4559C125.395 24.4686 126.002 24.1579 126.246 23.9412C126.49 23.7244 126.572 23.6504 126.535 23.6532C126.499 23.656 126.418 23.6785 126.371 23.6759C126.323 23.6733 126.339 23.6217 126.304 23.6426C126.269 23.6635 126.199 23.6916 126.188 23.6581C126.177 23.6246 126.121 23.6666 126.085 23.6416C126.049 23.6166 126.074 23.5662 126.047 23.5706C126.021 23.5748 125.929 23.6197 125.919 23.5766C125.909 23.5335 125.948 23.4971 125.884 23.4999C125.82 23.5028 125.832 23.4568 125.807 23.4514C125.782 23.446 125.722 23.4055 125.684 23.4042C125.647 23.4029 125.676 23.3792 125.647 23.3472C125.617 23.3152 125.619 23.3333 125.568 23.3082C125.518 23.2832 125.549 23.2636 125.519 23.2316C125.49 23.1996 125.453 23.2122 125.419 23.1815C125.385 23.1508 125.406 23.116 125.378 23.1021C125.351 23.0881 125.288 23.0954 125.265 23.0703C125.243 23.0453 125.276 22.9782 125.239 22.9769C125.201 22.9756 125.126 22.9452 125.12 22.9145C125.114 22.8838 125.197 22.8376 125.128 22.828C125.06 22.8185 125.021 22.8128 125.023 22.7795C125.026 22.7463 125.069 22.7223 125.023 22.7099C124.977 22.6975 124.963 22.6696 124.99 22.6652C125.016 22.6611 124.736 22.6018 124.732 22.5752C124.728 22.5486 125.034 22.576 125.054 22.5646C125.073 22.5533 124.611 22.4387 124.618 22.4039C124.625 22.369 125.334 22.5264 125.341 22.4913C125.348 22.4565 124.69 22.2029 124.669 22.1262C124.708 22.0759 125.466 22.4214 125.565 22.4113C125.565 22.4113 124.967 22.1144 124.844 21.8999C125.005 21.9485 125.728 22.4124 125.856 22.3925C125.703 22.3231 125.27 22.0173 125.207 21.8295C125.273 21.7931 125.662 22.2439 126.056 22.3907C126.023 22.3644 126.446 22.5571 126.651 22.6C126.856 22.6428 127.018 22.7091 127.071 22.7984C127.071 22.7984 127.04 22.7205 127.059 22.7328C127.077 22.7452 127.105 22.7731 127.137 22.8693C127.169 22.9653 127.294 22.7421 127.294 22.7421C127.294 22.7421 127.72 22.2364 127.726 22.1876C127.733 22.1389 127.823 22.3365 127.834 22.3283C127.845 22.3197 127.707 22.0733 127.718 22.0233C127.729 21.973 127.918 22.0535 127.902 22.0034C127.885 21.9534 127.812 21.708 127.868 21.708C127.923 21.708 128.081 21.8734 128.107 21.8927C128.132 21.9123 127.949 21.4665 127.991 21.4386C128.033 21.4107 128.158 21.4244 128.248 21.6499C128.338 21.8757 128.176 21.3253 128.19 21.2275C128.204 21.13 128.294 21.0531 128.331 21.1896C128.367 21.3261 128.403 21.4585 128.421 21.4291C128.439 21.3996 128.389 21.114 128.428 21.1194C128.467 21.1248 128.616 21.4285 128.601 21.6613C128.586 21.894 128.64 21.597 128.67 21.5774C128.701 21.5578 128.758 21.6595 128.715 21.8367C128.673 22.014 128.415 22.2444 128.336 22.4384C128.257 22.6325 127.999 22.7375 127.958 22.7935C127.916 22.8492 127.886 22.9245 127.886 22.9245" fill="#F3F3F3"/>
<path d="M42.5352 9.55513C42.5352 9.55513 42.7158 9.52004 42.7953 9.57887C42.875 9.6377 42.8814 9.68259 42.9686 9.70014C43.0559 9.71794 43.1673 9.77006 43.1508 9.79716C43.1343 9.82399 42.9483 9.76697 42.7741 9.8596C42.5999 9.95223 42.6203 9.8983 42.426 10.0707C42.2317 10.2428 42.1332 10.37 42.0013 10.41C41.8695 10.45 41.8579 10.4283 41.8579 10.4283C41.8579 10.4283 41.9015 10.4693 41.8491 10.5168C41.7967 10.5643 41.7593 10.5299 41.6865 10.5544C41.6135 10.579 41.6135 10.6174 41.6058 10.5944C41.598 10.5715 41.6543 10.5354 41.6543 10.5354C41.6543 10.5354 41.5903 10.5356 41.557 10.5637C41.5237 10.5921 41.2471 10.6721 41.1754 10.6876C41.1037 10.7031 41.1754 10.6362 41.1754 10.6362C41.1754 10.6362 40.9783 10.7111 40.9308 10.7227C40.8833 10.7343 40.937 10.6778 40.937 10.6778C40.937 10.6778 40.4225 10.966 40.3366 10.9779C40.2506 10.9895 40.8087 10.7038 41.0327 10.5047C41.2564 10.3055 41.332 10.2373 41.2987 10.2402C41.2654 10.2428 41.1911 10.2634 41.1475 10.2611C41.1039 10.2585 41.1179 10.2113 41.0859 10.2304C41.0539 10.2497 40.9899 10.2755 40.9796 10.2448C40.9692 10.2141 40.9181 10.2526 40.8846 10.2296C40.8513 10.2066 40.8743 10.1605 40.8498 10.1643C40.8255 10.1682 40.7409 10.2095 40.7319 10.1697C40.7228 10.13 40.7587 10.0967 40.6996 10.0993C40.6408 10.1019 40.6521 10.0596 40.6289 10.0547C40.6059 10.0495 40.5507 10.0126 40.5159 10.0113C40.4813 10.01 40.5082 9.98835 40.4813 9.95893C40.4542 9.92952 40.4555 9.94629 40.4093 9.92333C40.3631 9.90036 40.3913 9.8823 40.3644 9.85289C40.3373 9.82347 40.3028 9.83509 40.2721 9.80696C40.2411 9.77884 40.2605 9.74684 40.2346 9.73394C40.2091 9.7213 40.1513 9.72775 40.1307 9.70478C40.11 9.68182 40.1407 9.62015 40.1062 9.61912C40.0716 9.61783 40.0022 9.58996 39.997 9.56158C39.9919 9.53346 40.0675 9.49088 40.0045 9.48211C39.9418 9.47334 39.9059 9.46818 39.9083 9.43747C39.9108 9.40677 39.9503 9.38484 39.908 9.37348C39.8657 9.36213 39.8528 9.33659 39.877 9.33246C39.9013 9.32859 39.6438 9.27415 39.6397 9.24963C39.6358 9.22538 39.9178 9.25041 39.9356 9.24009C39.9534 9.22977 39.529 9.12449 39.5354 9.0925C39.5416 9.0605 40.1931 9.205 40.1993 9.173C40.2058 9.14101 39.6015 8.90775 39.5821 8.83731C39.618 8.79113 40.3144 9.1085 40.4055 9.09946C40.4055 9.09946 39.8564 8.82648 39.7431 8.62935C39.8907 8.67399 40.5554 9.1005 40.6733 9.08218C40.5321 9.01845 40.1343 8.73746 40.0762 8.56459C40.1376 8.53104 40.4947 8.94543 40.8565 9.08063C40.8271 9.05638 41.2156 9.23364 41.4043 9.27286C41.5926 9.31208 41.7415 9.37323 41.7905 9.45528C41.7905 9.45528 41.7621 9.38355 41.7789 9.39516C41.7957 9.40677 41.8212 9.43231 41.8509 9.52056C41.8806 9.6088 41.9954 9.40367 41.9954 9.40367C41.9954 9.40367 42.3865 8.93898 42.3927 8.89408C42.3989 8.84918 42.4815 9.03109 42.4918 9.02335C42.5021 9.01561 42.3747 8.78907 42.3847 8.74288C42.3948 8.69669 42.5692 8.77075 42.554 8.72456C42.5385 8.67837 42.4714 8.45312 42.5225 8.45286C42.5739 8.45286 42.7189 8.60484 42.7421 8.6229C42.7653 8.6407 42.5976 8.23096 42.6361 8.20542C42.6745 8.17962 42.7898 8.19226 42.8724 8.39971C42.955 8.60716 42.8064 8.10118 42.819 8.01165C42.8316 7.92185 42.9147 7.85116 42.9483 7.97681C42.9818 8.10221 43.0141 8.224 43.0308 8.19716C43.0473 8.17033 43.0019 7.90766 43.0378 7.91257C43.0737 7.91773 43.2102 8.19665 43.1965 8.4108C43.1828 8.62496 43.2323 8.35172 43.2605 8.33366C43.2886 8.3156 43.3415 8.409 43.302 8.57207C43.2628 8.73488 43.0262 8.94698 42.9534 9.12527C42.8809 9.30356 42.6441 9.40032 42.6056 9.45167C42.5674 9.50301 42.5393 9.57216 42.5393 9.57216" fill="#F3F3F3"/>
<path d="M4.84337 18.3893C4.84337 18.3893 4.73655 18.7278 5.0036 18.8971C5.27091 19.0664 5.19067 19.0576 5.45798 19.1466C5.72529 19.2356 5.83211 19.2803 6.11722 19.4227C6.40234 19.5651 6.68745 19.5385 6.74086 19.6007C6.79427 19.6632 6.7677 19.6454 6.7677 19.6454C6.7677 19.6454 6.31332 19.6363 5.98357 19.7434C5.65408 19.8502 5.30652 20.1353 4.70972 20.1266C4.11291 20.1175 3.60487 20.0641 3.33781 20.18C3.0705 20.2958 1.253 21.4407 0.290837 21.4541C0.290837 21.4541 -0.123547 21.4541 0.0369429 21.4273C0.197174 21.4004 0.371081 21.4004 0.317671 21.347C0.26426 21.2936 0.277677 21.1999 0.357664 21.2268C0.437909 21.2536 0.825457 21.0663 0.718378 21.0797C0.611557 21.0931 0.43765 21.0263 0.571306 21.0129C0.704961 20.9994 0.905444 20.9192 0.905444 20.9192C0.905444 20.9192 0.651551 20.8524 0.744954 20.8258C0.838358 20.799 0.958854 20.8258 1.15934 20.6921C1.35982 20.5585 1.54689 20.358 1.69396 20.1978C1.84103 20.0375 2.09492 20.0107 2.0281 19.917C1.96127 19.8234 1.93443 19.7568 2.00126 19.6766C2.06809 19.5963 1.35982 19.69 0.945437 19.73C0.531055 19.77 0.250585 19.6766 0.370823 19.6497C0.491061 19.6229 0.704961 19.5295 0.704961 19.5295C0.704961 19.5295 0.264003 19.5161 0.344247 19.4361C0.424492 19.3559 0.718378 19.3159 0.718378 19.3159C0.718378 19.3159 0.370823 19.2222 0.424491 19.1554C0.477902 19.0885 0.785206 19.1285 0.785206 19.1285C0.785206 19.1285 0.477902 18.9012 0.611558 18.9281C0.745213 18.9549 0.985689 19.0083 0.985689 19.0083C0.985689 19.0083 0.65155 18.7678 0.718378 18.7144C0.785206 18.661 1.10593 18.7947 1.10593 18.7947C1.10593 18.7947 0.798623 18.5542 0.892027 18.5008C0.985689 18.4474 1.27958 18.6344 1.27958 18.6344C1.27958 18.6344 0.972272 18.4608 1.05252 18.3405C1.13276 18.2203 1.50689 18.501 1.50689 18.501C1.50689 18.501 1.18617 18.2337 1.23958 18.1269C1.29299 18.0201 2.42906 18.8752 2.68296 18.7952C2.81661 18.6481 2.62955 18.4744 2.68296 18.3542C2.73637 18.234 3.00368 18.1806 3.08392 18.0067C3.16417 17.833 2.72321 18.2337 2.81661 18.0869C2.91001 17.9398 3.09734 17.7796 3.0705 17.7262C3.04367 17.6728 2.8566 17.6728 2.97684 17.5657C3.09708 17.4589 3.3244 16.9911 3.44464 16.7506C3.56487 16.5101 3.67195 16.3362 3.76536 16.0023C3.85902 15.6682 3.87218 15.6682 3.88559 15.5614C3.89901 15.4546 4.1929 15.6682 4.13949 15.5748C4.08608 15.4811 3.81877 15.3877 3.91243 15.3209C4.00609 15.2541 4.23315 15.4146 4.13949 15.2941C4.04608 15.1738 3.83218 15.0133 3.95242 14.9734C4.07266 14.9334 4.1929 15.0536 4.17948 14.9868C4.16606 14.9199 3.95242 14.706 4.01925 14.6392C4.08608 14.5724 4.07266 14.5456 4.12607 14.2382C4.17948 13.9309 4.1529 13.9175 4.24631 13.7305C4.33997 13.5434 4.36655 13.4232 4.35313 13.1693C4.33971 12.9154 4.32629 12.8885 4.37996 12.8485C4.43337 12.8086 4.28656 12.7417 4.33997 12.6081C4.39338 12.4744 4.4068 12.6349 4.44679 12.5547C4.48679 12.4744 4.41996 12.3273 4.47363 12.2474C4.52704 12.1671 4.5002 12.341 4.56703 12.3276C4.63386 12.3142 4.5402 12.1405 4.62044 12.1005C4.70069 12.0605 5.55577 13.2364 5.6226 14.4393C5.68942 15.6419 5.70284 16.3636 5.64943 16.4304C5.64943 16.4304 5.78309 15.4817 5.84991 15.4414C5.91674 15.4014 5.86333 16.2699 5.71626 16.6309C5.56919 16.9916 4.968 17.6199 4.92774 17.9806C4.88775 18.3403 4.84337 18.3893 4.84337 18.3893Z" fill="#F3F3F3"/>
<path d="M90.592 50.7534C90.592 50.7534 90.6988 51.0919 90.4317 51.2612C90.1644 51.4304 90.2447 51.4214 89.9773 51.5107C89.71 51.5997 89.6032 51.6443 89.3181 51.7868C89.033 51.9292 88.7479 51.9026 88.6945 51.965C88.641 52.0275 88.6676 52.0097 88.6676 52.0097C88.6676 52.0097 89.122 52.0009 89.4518 52.1077C89.7812 52.2146 90.1288 52.4997 90.7259 52.4909C91.3227 52.4819 91.8307 52.4285 92.0978 52.5443C92.3651 52.6602 94.1826 53.805 95.1447 53.8184C95.1447 53.8184 95.5591 53.8184 95.3986 53.7916C95.2381 53.7647 95.0645 53.7647 95.1179 53.7113C95.1713 53.6579 95.1579 53.5643 95.0779 53.5911C94.9977 53.6179 94.6101 53.4306 94.7172 53.444C94.824 53.4574 94.9979 53.3906 94.8643 53.3772C94.7306 53.3638 94.5301 53.2838 94.5301 53.2838C94.5301 53.2838 94.784 53.217 94.6906 53.1901C94.597 53.1633 94.4767 53.1901 94.2765 53.0565C94.076 52.9228 93.889 52.7223 93.7419 52.5621C93.5948 52.4019 93.3409 52.375 93.4077 52.2814C93.4746 52.188 93.5014 52.1211 93.4346 52.0409C93.3677 51.9607 94.076 52.0543 94.4904 52.0943C94.9045 52.1343 95.1853 52.0409 95.065 52.0141C94.9448 51.9872 94.7309 51.8938 94.7309 51.8938C94.7309 51.8938 95.1718 51.8804 95.0916 51.8002C95.0113 51.7199 94.7175 51.6799 94.7175 51.6799C94.7175 51.6799 95.065 51.5863 95.0113 51.5194C94.9579 51.4526 94.6506 51.4926 94.6506 51.4926C94.6506 51.4926 94.9579 51.2656 94.8243 51.2921C94.6906 51.319 94.4502 51.3724 94.4502 51.3724C94.4502 51.3724 94.7843 51.1319 94.7175 51.0785C94.6506 51.0251 94.3299 51.1587 94.3299 51.1587C94.3299 51.1587 94.6372 50.9183 94.5438 50.8648C94.4502 50.8114 94.1563 50.9985 94.1563 50.9985C94.1563 50.9985 94.4636 50.8249 94.3836 50.7046C94.3033 50.5844 93.9292 50.8648 93.9292 50.8648C93.9292 50.8648 94.2499 50.5975 94.1965 50.4907C94.1431 50.3839 93.0073 51.239 92.7531 51.159C92.6195 51.0119 92.8066 50.8383 92.7531 50.718C92.6997 50.5978 92.4324 50.5444 92.3522 50.3705C92.2719 50.1968 92.7129 50.5975 92.6195 50.4507C92.5258 50.3036 92.3388 50.1434 92.3656 50.09C92.3924 50.0366 92.5795 50.0366 92.4593 49.9298C92.339 49.823 92.1117 49.3552 91.9915 49.1147C91.8712 48.8742 91.7644 48.7003 91.6707 48.3664C91.5771 48.0323 91.5639 48.0323 91.5505 47.9255C91.5371 47.8186 91.2432 48.0323 91.2966 47.9389C91.35 47.8452 91.6173 47.7518 91.5237 47.685C91.43 47.6182 91.2029 47.7786 91.2966 47.6581C91.39 47.5379 91.6039 47.3774 91.4837 47.3374C91.3634 47.2974 91.2432 47.4177 91.2566 47.3508C91.27 47.284 91.4837 47.0701 91.4168 47.0033C91.35 46.9365 91.3634 46.9099 91.31 46.6023C91.2566 46.295 91.2832 46.2816 91.1898 46.0945C91.0961 45.9075 91.0695 45.7872 91.083 45.5333C91.0964 45.2795 91.1098 45.2526 91.0561 45.2126C91.0027 45.1726 91.1498 45.1058 91.0961 44.9721C91.0427 44.8385 91.0293 44.999 90.9893 44.9187C90.9493 44.8385 91.0159 44.6917 90.9625 44.6114C90.9091 44.5312 90.9356 44.7051 90.8688 44.6917C90.802 44.6783 90.8956 44.5046 90.8154 44.4646C90.7352 44.4246 89.8801 45.6004 89.8132 46.8033C89.7464 48.006 89.733 48.7276 89.7864 48.7945C89.7864 48.7945 89.6527 47.8457 89.5859 47.8055C89.5191 47.7655 89.5725 48.634 89.7196 48.9947C89.8666 49.3554 90.4678 49.9837 90.5081 50.3444C90.5476 50.7044 90.592 50.7534 90.592 50.7534Z" fill="#F3F3F3"/>
<path d="M63.9639 18.4816C63.9639 18.4816 63.5779 19.2632 63.0665 19.2536C62.5551 19.2441 62.4104 19.2924 62.2752 19.4273C62.1402 19.5625 61.9085 19.4177 61.706 19.5044C61.706 19.5044 61.6095 19.572 61.5901 19.6105C61.5901 19.6105 62.0533 19.5911 62.2269 19.7165C62.4006 19.8419 62.5453 20.1025 62.6514 20.1603C62.6514 20.1603 61.4709 20.8614 61.1365 20.9901C60.8019 21.1189 60.4804 21.7621 60.3774 21.968C60.2745 22.1739 59.4253 23.319 59.5799 24.4768C59.6312 24.4381 59.7471 24.1679 59.7471 24.1679C59.7471 24.1679 59.76 24.3738 59.7984 24.3994C59.8371 24.4252 59.9785 23.9491 59.9785 23.9491C59.9785 23.9491 60.0299 24.3609 60.0815 24.3351C60.1328 24.3093 60.3003 23.872 60.3003 23.872C60.3003 23.872 60.3261 24.0908 60.4032 24.1037C60.4804 24.1166 60.6734 23.4346 60.6734 23.4346C60.6734 23.4346 60.6734 23.7177 60.725 23.7048C60.7763 23.6919 60.9051 23.2803 60.918 23.1774C60.9309 23.0744 60.9309 23.4475 60.9951 23.4217C61.0594 23.3959 61.1239 22.9844 61.1239 22.9844C61.1239 22.9844 61.1368 23.3188 61.201 23.3188C61.2653 23.3188 61.3298 23.0357 61.3298 23.0357C61.3298 23.0357 61.3556 23.1645 61.4069 23.1258C61.4583 23.0871 61.6384 22.8427 61.6384 22.7527C61.6897 22.8298 61.7798 22.8685 61.8056 22.7914C61.8314 22.7142 61.8698 22.5984 61.8698 22.5984C61.8698 22.5984 61.947 22.6755 61.9857 22.5597C62.0244 22.4438 62.0757 22.3796 62.0757 22.3796C62.0757 22.3796 62.2171 22.4954 62.2429 22.3796C62.2687 22.2637 62.2558 22.1737 62.2558 22.1737C62.2558 22.1737 62.3972 22.2766 62.4359 22.1995C62.4746 22.1223 62.4873 22.0452 62.4873 22.0452C62.4873 22.0452 62.5902 22.1481 62.6289 22.0452C62.6676 21.9422 62.7061 21.9164 62.7061 21.9164C62.7061 21.9164 62.8348 21.9678 62.8991 21.8648C62.9633 21.7619 63.1179 21.7361 63.195 21.6589C63.2722 21.5818 63.4523 21.3888 63.6582 21.2087C63.8641 21.0286 64.0055 20.9899 64.0055 20.9899C64.0055 20.9899 64.5458 21.067 64.7517 21.1958C64.9576 21.3245 65.0089 21.4917 65.189 21.5175C65.3691 21.5433 65.5879 22.0707 65.8065 22.3024C66.0253 22.5339 65.8578 22.0581 65.8578 22.0581C65.8578 22.0581 66.0508 22.2769 66.1279 22.2769C66.2051 22.2769 66.115 22.0067 66.115 22.0067C66.115 22.0067 66.308 22.1226 66.3981 22.071C66.4881 22.0196 66.2822 21.8393 66.2822 21.8393C66.2822 21.8393 66.5911 22.0194 66.6553 21.9293C66.7196 21.8393 66.5395 21.6463 66.5395 21.6463C66.5395 21.6463 66.8739 21.8135 66.8997 21.6721C66.9255 21.5304 66.7454 21.4148 66.7454 21.4148C66.7454 21.4148 67.0798 21.4791 67.0671 21.3506C67.0542 21.2218 66.7841 21.1834 66.7841 21.1834C66.7841 21.1834 67.1056 21.2476 67.1185 21.1576C67.1314 21.0675 66.8354 20.9904 66.8354 20.9904C66.8354 20.9904 67.1698 21.0033 67.1698 20.9132C67.1698 20.8232 66.8354 20.7974 66.8354 20.7974C66.8354 20.7974 67.1314 20.7716 67.1443 20.7073C67.1572 20.6431 66.6682 20.6431 66.6682 20.6431C66.6682 20.6431 67.0155 20.5659 67.0155 20.4888C67.0155 20.4116 66.2306 20.5401 66.0634 20.553C65.8962 20.5659 65.2401 20.2057 65.1371 20.0641C65.1371 20.0641 65.4202 20.0127 65.4202 19.9353C65.4202 19.8582 65.1758 19.9095 65.1758 19.9095C65.1758 19.9095 65.4589 19.8066 65.4718 19.7423C65.4847 19.6781 65.4205 19.691 65.4205 19.691C65.4205 19.691 66.2503 18.0378 66.4239 17.7096C66.5975 17.3817 66.6169 17.4395 66.6747 17.2078C66.7325 16.9761 66.7134 16.9376 66.7518 16.8605C66.7905 16.7833 67.1185 16.8605 67.0607 16.7446C67.0029 16.6288 66.8099 16.6288 66.8099 16.6288C66.8099 16.6288 67.1572 16.6675 67.1701 16.603C67.183 16.5387 66.99 16.5 66.99 16.5C66.99 16.5 67.2472 16.4229 67.273 16.3199C67.2988 16.217 67.0158 16.2041 67.0158 16.2041C67.0158 16.2041 67.376 16.1912 67.4405 16.0498C67.5048 15.9081 67.1446 15.921 67.1446 15.921C67.1446 15.921 67.4789 15.831 67.6077 15.7022C67.7365 15.5735 66.6043 15.6251 66.6427 15.6122C66.6814 15.5993 67.762 15.5221 67.8778 15.3805C67.9937 15.2391 66.5398 15.4192 66.5785 15.3805C66.6172 15.3418 67.955 14.9431 68.0837 14.8015C68.2125 14.6598 66.6943 15.0845 66.6943 15.0845C66.6943 15.0845 68.2125 14.5698 68.2768 14.4155C68.341 14.2612 66.7844 14.7243 66.7844 14.7243C66.7844 14.7243 68.3281 14.0811 68.4827 13.901C68.637 13.7209 67.2346 14.2227 67.2346 14.2227C67.2346 14.2227 68.5598 13.5537 68.5727 13.4252C68.5856 13.2964 66.733 13.9913 66.347 14.3386C65.961 14.6859 65.575 15.4194 65.5108 15.4966C65.4465 15.5737 65.678 15.2393 65.6651 15.1493C65.6522 15.0592 65.3178 15.3165 65.0218 15.9342C64.7261 16.5516 64.1409 18.2628 63.9639 18.4816Z" fill="#F3F3F3"/>
<path d="M111.974 62.8083C111.974 62.8083 111.878 63.0028 111.751 63.0005C111.623 62.9982 111.587 63.01 111.554 63.0438C111.52 63.0776 111.462 63.0415 111.412 63.0629C111.412 63.0629 111.388 63.0797 111.383 63.0895C111.383 63.0895 111.498 63.0846 111.542 63.1158C111.585 63.147 111.621 63.2121 111.648 63.2263C111.648 63.2263 111.354 63.4009 111.27 63.4329C111.187 63.4649 111.107 63.6252 111.081 63.6765C111.056 63.7278 110.844 64.013 110.883 64.3014C110.895 64.2919 110.924 64.2245 110.924 64.2245C110.924 64.2245 110.927 64.2759 110.937 64.2823C110.947 64.2888 110.982 64.1701 110.982 64.1701C110.982 64.1701 110.995 64.2725 111.007 64.2661C111.02 64.2596 111.062 64.1507 111.062 64.1507C111.062 64.1507 111.068 64.2052 111.087 64.2085C111.107 64.2116 111.155 64.0419 111.155 64.0419C111.155 64.0419 111.155 64.1123 111.168 64.1092C111.181 64.1061 111.213 64.0034 111.216 63.9779C111.219 63.9523 111.219 64.0452 111.235 64.0388C111.251 64.0323 111.267 63.9299 111.267 63.9299C111.267 63.9299 111.27 64.0132 111.286 64.0132C111.302 64.0132 111.318 63.9428 111.318 63.9428C111.318 63.9428 111.325 63.9748 111.338 63.9652C111.351 63.9557 111.395 63.8948 111.395 63.8723C111.408 63.8914 111.431 63.9012 111.437 63.8819C111.443 63.8628 111.453 63.8339 111.453 63.8339C111.453 63.8339 111.472 63.8532 111.482 63.8243C111.491 63.7954 111.504 63.7795 111.504 63.7795C111.504 63.7795 111.539 63.8084 111.546 63.7795C111.552 63.7506 111.549 63.7281 111.549 63.7281C111.549 63.7281 111.584 63.7536 111.594 63.7346C111.603 63.7155 111.607 63.6961 111.607 63.6961C111.607 63.6961 111.632 63.7217 111.642 63.6961C111.651 63.6706 111.661 63.6641 111.661 63.6641C111.661 63.6641 111.693 63.677 111.709 63.6512C111.725 63.6254 111.763 63.6192 111.783 63.5999C111.802 63.5808 111.847 63.5325 111.898 63.4876C111.949 63.4427 111.985 63.4332 111.985 63.4332C111.985 63.4332 112.119 63.4523 112.17 63.4845C112.222 63.5165 112.234 63.5583 112.279 63.5648C112.324 63.5712 112.379 63.7026 112.433 63.7604C112.487 63.8182 112.446 63.6995 112.446 63.6995C112.446 63.6995 112.494 63.7539 112.513 63.7539C112.533 63.7539 112.51 63.6866 112.51 63.6866C112.51 63.6866 112.558 63.7155 112.58 63.7026C112.603 63.6897 112.551 63.6448 112.551 63.6448C112.551 63.6448 112.628 63.6897 112.644 63.6672C112.66 63.6448 112.615 63.5968 112.615 63.5968C112.615 63.5968 112.699 63.6383 112.705 63.6032C112.712 63.5679 112.667 63.5392 112.667 63.5392C112.667 63.5392 112.75 63.5552 112.747 63.5232C112.743 63.4912 112.676 63.4817 112.676 63.4817C112.676 63.4817 112.756 63.4977 112.76 63.4752C112.763 63.4528 112.689 63.4337 112.689 63.4337C112.689 63.4337 112.773 63.4368 112.773 63.4144C112.773 63.3919 112.689 63.3855 112.689 63.3855C112.689 63.3855 112.763 63.379 112.766 63.363C112.769 63.347 112.647 63.347 112.647 63.347C112.647 63.347 112.734 63.3277 112.734 63.3086C112.734 63.2895 112.539 63.3215 112.497 63.3246C112.455 63.3277 112.292 63.2381 112.266 63.2028C112.266 63.2028 112.336 63.1899 112.336 63.1708C112.336 63.1514 112.276 63.1643 112.276 63.1643C112.276 63.1643 112.346 63.1388 112.349 63.1228C112.352 63.1068 112.336 63.1099 112.336 63.1099C112.336 63.1099 112.543 62.6981 112.587 62.6165C112.63 62.5348 112.634 62.5492 112.649 62.4917C112.663 62.4339 112.658 62.4243 112.668 62.4052C112.678 62.3859 112.76 62.4052 112.745 62.3763C112.731 62.3474 112.683 62.3474 112.683 62.3474C112.683 62.3474 112.769 62.357 112.773 62.341C112.776 62.325 112.728 62.3154 112.728 62.3154C112.728 62.3154 112.792 62.2963 112.798 62.2705C112.805 62.245 112.734 62.2416 112.734 62.2416C112.734 62.2416 112.824 62.2383 112.84 62.2032C112.856 62.1681 112.766 62.1712 112.766 62.1712C112.766 62.1712 112.849 62.1488 112.881 62.1168C112.913 62.0848 112.631 62.0977 112.641 62.0943C112.651 62.0912 112.92 62.0719 112.949 62.0368C112.978 62.0014 112.615 62.0463 112.625 62.0368C112.635 62.0272 112.968 61.9279 113 61.8925C113.032 61.8572 112.654 61.963 112.654 61.963C112.654 61.963 113.032 61.8347 113.048 61.7963C113.064 61.7579 112.677 61.8732 112.677 61.8732C112.677 61.8732 113.061 61.713 113.099 61.6681C113.138 61.6232 112.789 61.748 112.789 61.748C112.789 61.748 113.119 61.5814 113.122 61.5494C113.125 61.5174 112.664 61.6902 112.568 61.7769C112.471 61.8634 112.375 62.0461 112.359 62.0654C112.343 62.0848 112.401 62.0014 112.398 61.979C112.395 61.9565 112.311 62.0205 112.238 62.1746C112.164 62.3276 112.018 62.7538 111.974 62.8083Z" fill="#F3F3F3"/>
<path d="M77.3191 46.0621C77.3191 46.0621 77.1158 45.9863 77.1052 45.8593C77.0946 45.7324 77.0792 45.6978 77.0423 45.6676C77.0054 45.6374 77.0355 45.5765 77.0087 45.5285C77.0087 45.5285 76.9896 45.5064 76.9796 45.5025C76.9796 45.5025 76.9961 45.6168 76.9692 45.663C76.9427 45.7092 76.8815 45.7515 76.8699 45.7793C76.8699 45.7793 76.6666 45.5045 76.6261 45.4248C76.5858 45.3451 76.4184 45.2816 76.3647 45.2615C76.311 45.2411 76.006 45.0595 75.723 45.1271C75.7338 45.1389 75.8038 45.1609 75.8038 45.1609C75.8038 45.1609 75.7532 45.1691 75.7478 45.1794C75.7423 45.1898 75.8639 45.2127 75.8639 45.2127C75.8639 45.2127 75.7632 45.2359 75.7707 45.2481C75.7785 45.2602 75.891 45.2906 75.891 45.2906C75.891 45.2906 75.8376 45.3025 75.8363 45.3219C75.835 45.3412 76.0089 45.3719 76.0089 45.3719C76.0089 45.3719 75.9387 45.3791 75.9433 45.3915C75.9477 45.4039 76.053 45.4256 76.0788 45.4261C76.1046 45.4266 76.0122 45.4362 76.0202 45.4514C76.0282 45.4666 76.132 45.4723 76.132 45.4723C76.132 45.4723 76.0494 45.4839 76.0509 45.4999C76.0525 45.5159 76.1242 45.5247 76.1242 45.5247C76.1242 45.5247 76.093 45.5342 76.1038 45.5461C76.1147 45.558 76.1797 45.5964 76.2021 45.5941C76.1843 45.6088 76.1771 45.632 76.1967 45.6364C76.2166 45.6408 76.2463 45.6475 76.2463 45.6475C76.2463 45.6475 76.229 45.6686 76.2587 45.6751C76.2883 45.6818 76.3056 45.6929 76.3056 45.6929C76.3056 45.6929 76.2806 45.7308 76.3097 45.7344C76.3392 45.7378 76.3611 45.7324 76.3611 45.7324C76.3611 45.7324 76.3391 45.77 76.3593 45.7775C76.3794 45.7853 76.3988 45.7863 76.3988 45.7863C76.3988 45.7863 76.3758 45.8144 76.4024 45.8214C76.4289 45.8284 76.4362 45.8374 76.4362 45.8374C76.4362 45.8374 76.4266 45.8707 76.4537 45.8838C76.4808 45.8973 76.4911 45.9347 76.5123 45.952C76.5334 45.9692 76.5858 46.009 76.6356 46.0554C76.6854 46.1019 76.6986 46.1359 76.6986 46.1359C76.6986 46.1359 76.6932 46.2716 76.6663 46.3261C76.6397 46.3803 76.5995 46.3973 76.5977 46.4425C76.5959 46.4879 76.4707 46.5552 76.4189 46.6153C76.367 46.6754 76.4808 46.622 76.4808 46.622C76.4808 46.622 76.4315 46.6755 76.4333 46.6945C76.4354 46.7136 76.4999 46.6845 76.4999 46.6845C76.4999 46.6845 76.4762 46.7353 76.4911 46.7562C76.5061 46.7771 76.5456 46.7216 76.5456 46.7216C76.5456 46.7216 76.5087 46.8027 76.5327 46.8163C76.5567 46.83 76.5998 46.7805 76.5998 46.7805C76.5998 46.7805 76.5667 46.8677 76.6023 46.8705C76.6379 46.8733 76.6622 46.8259 76.6622 46.8259C76.6622 46.8259 76.6547 46.9102 76.6862 46.9041C76.7177 46.8976 76.7205 46.8297 76.7205 46.8297C76.7205 46.8297 76.7128 46.911 76.7352 46.9121C76.7579 46.9131 76.7695 46.8377 76.7695 46.8377C76.7695 46.8377 76.7747 46.9208 76.7971 46.9188C76.8193 46.9164 76.8175 46.8331 76.8175 46.8331C76.8175 46.8331 76.8312 46.9059 76.8477 46.9074C76.864 46.909 76.8516 46.7879 76.8516 46.7879C76.8516 46.7879 76.8794 46.8721 76.8985 46.8703C76.9176 46.8682 76.866 46.677 76.8585 46.636C76.8511 46.5949 76.9238 46.4231 76.9563 46.3942C76.9563 46.3942 76.9762 46.4631 76.9953 46.461C77.0144 46.459 76.9956 46.3999 76.9956 46.3999C76.9956 46.3999 77.0281 46.4675 77.0443 46.469C77.0606 46.4706 77.0557 46.4551 77.0557 46.4551C77.0557 46.4551 77.4861 46.6192 77.5717 46.6538C77.6574 46.6886 77.6435 46.6948 77.7023 46.7033C77.7611 46.7118 77.7701 46.7061 77.7903 46.7136C77.8104 46.7211 77.7996 46.8045 77.8266 46.7872C77.8537 46.7699 77.8491 46.7222 77.8491 46.7222C77.8491 46.7222 77.8483 46.8091 77.8646 46.8106C77.8808 46.8122 77.8855 46.7634 77.8855 46.7634C77.8855 46.7634 77.911 46.8254 77.9373 46.829C77.9634 46.8328 77.9595 46.7624 77.9595 46.7624C77.9595 46.7624 77.9719 46.8514 78.0085 46.8638C78.0452 46.8762 78.0331 46.7872 78.0331 46.7872C78.0331 46.7872 78.0638 46.8677 78.0989 46.8963C78.1339 46.925 78.0927 46.6458 78.0968 46.6551C78.1009 46.6644 78.1474 46.9301 78.1853 46.9554C78.2232 46.9804 78.1422 46.6249 78.1525 46.6334C78.1631 46.6419 78.2955 46.9634 78.3339 46.9918C78.3721 47.0202 78.2289 46.6546 78.2289 46.6546C78.2289 46.6546 78.3945 47.0178 78.4345 47.0297C78.4745 47.0418 78.3205 46.6677 78.3205 46.6677C78.3205 46.6677 78.5187 47.0341 78.5672 47.0679C78.6157 47.1017 78.456 46.7668 78.456 46.7668C78.456 46.7668 78.6552 47.0782 78.6871 47.0782C78.7194 47.0782 78.5006 46.6365 78.4049 46.5498C78.3091 46.4628 78.1177 46.3857 78.0968 46.3718C78.0762 46.3578 78.1647 46.4068 78.1868 46.4012C78.2088 46.3957 78.1365 46.3194 77.9763 46.2616C77.8166 46.2025 77.3777 46.1006 77.3191 46.0621Z" fill="#F3F3F3"/>
<path d="M19.0808 35.8648C19.0808 35.8648 18.8813 35.9508 18.7861 35.8664C18.6906 35.782 18.6553 35.7678 18.6081 35.7717C18.5606 35.7756 18.54 35.7105 18.4876 35.6945C18.4876 35.6945 18.4584 35.6917 18.4486 35.6958C18.4486 35.6958 18.5397 35.767 18.5523 35.8189C18.565 35.8708 18.5505 35.9435 18.5611 35.9717C18.5611 35.9717 18.2241 35.9141 18.1398 35.8844C18.0556 35.8548 17.8908 35.925 17.8379 35.9474C17.7852 35.9698 17.4392 36.0498 17.2816 36.2944C17.2976 36.2955 17.3631 36.263 17.3631 36.263C17.3631 36.263 17.3324 36.304 17.3355 36.3151C17.3386 36.3262 17.4423 36.2588 17.4423 36.2588C17.4423 36.2588 17.3856 36.3453 17.3995 36.3486C17.4134 36.352 17.5159 36.296 17.5159 36.296C17.5159 36.296 17.4854 36.3417 17.4981 36.3566C17.5107 36.3716 17.6573 36.2733 17.6573 36.2733C17.6573 36.2733 17.6116 36.3269 17.6235 36.3329C17.6353 36.3388 17.7262 36.2815 17.7452 36.264C17.7643 36.2464 17.704 36.3174 17.7205 36.3228C17.7367 36.3282 17.8154 36.2606 17.8154 36.2606C17.8154 36.2606 17.7638 36.3262 17.776 36.3365C17.7881 36.3468 17.8461 36.3035 17.8461 36.3035C17.8461 36.3035 17.8301 36.3321 17.8461 36.3331C17.8621 36.3342 17.9357 36.3169 17.9504 36.2999C17.9478 36.3228 17.9586 36.3448 17.9759 36.3342C17.9932 36.3236 18.0193 36.3079 18.0193 36.3079C18.0193 36.3079 18.0213 36.3349 18.0474 36.3192C18.0735 36.3035 18.0936 36.2996 18.0936 36.2996C18.0936 36.2996 18.1018 36.3445 18.1253 36.3267C18.1488 36.3089 18.1609 36.2898 18.1609 36.2898C18.1609 36.2898 18.1712 36.3321 18.1909 36.3239C18.2107 36.3153 18.2254 36.303 18.2254 36.303C18.2254 36.303 18.2283 36.3391 18.2523 36.3259C18.2763 36.3128 18.2876 36.314 18.2876 36.314C18.2876 36.314 18.3036 36.3445 18.3325 36.3355C18.3614 36.3264 18.3947 36.3463 18.4218 36.3442C18.4489 36.3422 18.5142 36.3344 18.5823 36.3337C18.6504 36.3329 18.6834 36.3484 18.6834 36.3484C18.6834 36.3484 18.7735 36.4503 18.7918 36.5078C18.8101 36.5654 18.7928 36.6054 18.8227 36.6394C18.8527 36.6735 18.8091 36.8087 18.8132 36.8879C18.8173 36.9671 18.8625 36.85 18.8625 36.85C18.8625 36.85 18.8638 36.9225 18.8785 36.9351C18.8932 36.9475 18.9198 36.8817 18.9198 36.8817C18.9198 36.8817 18.9376 36.9348 18.9631 36.9395C18.9884 36.9444 18.9786 36.8768 18.9786 36.8768C18.9786 36.8768 19.008 36.9609 19.0348 36.9542C19.0617 36.9475 19.0586 36.8817 19.0586 36.8817C19.0586 36.8817 19.095 36.9674 19.1228 36.9447C19.1504 36.9219 19.1352 36.8709 19.1352 36.8709C19.1352 36.8709 19.1884 36.9372 19.2067 36.9106C19.225 36.884 19.1801 36.8332 19.1801 36.8332C19.1801 36.8332 19.2307 36.8974 19.2477 36.8822C19.2647 36.8672 19.2211 36.8048 19.2211 36.8048C19.2211 36.8048 19.2825 36.8613 19.297 36.844C19.3114 36.827 19.2521 36.7682 19.2521 36.7682C19.2521 36.7682 19.3125 36.811 19.3251 36.8009C19.338 36.7909 19.2451 36.7119 19.2451 36.7119C19.2451 36.7119 19.3236 36.7535 19.336 36.7388C19.3483 36.724 19.1788 36.6219 19.145 36.5974C19.1112 36.5728 19.0449 36.3984 19.0483 36.3551C19.0483 36.3551 19.1102 36.3909 19.1228 36.3762C19.1352 36.3615 19.0805 36.3318 19.0805 36.3318C19.0805 36.3318 19.1507 36.3579 19.1636 36.3478C19.1765 36.3378 19.162 36.3298 19.162 36.3298C19.162 36.3298 19.5862 36.1502 19.6722 36.1159C19.7581 36.0816 19.7524 36.0958 19.8007 36.0612C19.8489 36.0266 19.8515 36.0163 19.8713 36.0078C19.8912 35.9993 19.941 36.0669 19.9485 36.0356C19.9562 36.0044 19.9196 35.9732 19.9196 35.9732C19.9196 35.9732 19.9792 36.0367 19.9921 36.0264C20.005 36.0163 19.9746 35.9778 19.9746 35.9778C19.9746 35.9778 20.036 36.0047 20.0574 35.9895C20.0788 35.974 20.0272 35.926 20.0272 35.926C20.0272 35.926 20.0976 35.9817 20.1327 35.9652C20.1678 35.9487 20.0974 35.893 20.0974 35.893C20.0974 35.893 20.1753 35.9299 20.2205 35.9262C20.2656 35.9226 20.0427 35.7495 20.052 35.7534C20.0613 35.7572 20.2788 35.9169 20.3237 35.9087C20.3686 35.9004 20.0636 35.7 20.0773 35.6989C20.0909 35.6979 20.4091 35.8383 20.4563 35.8321C20.5035 35.8261 20.1472 35.6615 20.1472 35.6615C20.1472 35.6615 20.5182 35.8091 20.5554 35.79C20.5925 35.7712 20.2225 35.6076 20.2225 35.6076C20.2225 35.6076 20.6191 35.7348 20.6774 35.7255C20.7357 35.7162 20.3887 35.5851 20.3887 35.5851C20.3887 35.5851 20.7481 35.6721 20.7713 35.6499C20.7945 35.6275 20.3311 35.4603 20.2019 35.4639C20.0726 35.4675 19.8809 35.5441 19.8564 35.5485C19.8316 35.5529 19.9297 35.5268 19.9418 35.5075C19.9539 35.4884 19.8489 35.4832 19.6931 35.5524C19.537 35.6218 19.1497 35.8519 19.0808 35.8648Z" fill="#F3F3F3"/>
<path d="M150.255 27.5749C150.255 27.5749 150.174 27.8084 150.029 27.8236C149.885 27.8388 149.846 27.8577 149.813 27.9002C149.779 27.9431 149.709 27.9103 149.655 27.942C149.655 27.942 149.63 27.9645 149.626 27.9761C149.626 27.9761 149.756 27.9544 149.809 27.9836C149.863 28.0127 149.912 28.0811 149.944 28.0935C149.944 28.0935 149.637 28.3324 149.547 28.3804C149.458 28.4284 149.389 28.6209 149.368 28.6823C149.346 28.744 149.147 29.0959 149.232 29.4166C149.245 29.404 149.268 29.3237 149.268 29.3237C149.268 29.3237 149.279 29.3813 149.29 29.3872C149.302 29.3931 149.325 29.2541 149.325 29.2541C149.325 29.2541 149.354 29.3681 149.368 29.3591C149.381 29.3501 149.413 29.221 149.413 29.221C149.413 29.221 149.428 29.2817 149.45 29.2827C149.473 29.2835 149.503 29.0848 149.503 29.0848C149.503 29.0848 149.513 29.1645 149.527 29.1591C149.541 29.1537 149.563 29.0332 149.563 29.0038C149.563 28.9744 149.576 29.0794 149.593 29.0698C149.61 29.0603 149.614 28.9421 149.614 28.9421C149.614 28.9421 149.629 29.0358 149.647 29.0335C149.666 29.0311 149.674 28.9493 149.674 28.9493C149.674 28.9493 149.686 28.9847 149.699 28.9721C149.712 28.9594 149.754 28.8843 149.751 28.8588C149.768 28.8787 149.795 28.8864 149.799 28.8637C149.804 28.841 149.811 28.8072 149.811 28.8072C149.811 28.8072 149.835 28.8263 149.842 28.7922C149.848 28.7582 149.861 28.7383 149.861 28.7383C149.861 28.7383 149.905 28.7659 149.908 28.7324C149.911 28.6988 149.904 28.674 149.904 28.674C149.904 28.674 149.948 28.698 149.956 28.6751C149.964 28.6518 149.965 28.6299 149.965 28.6299C149.965 28.6299 149.997 28.6552 150.005 28.625C150.012 28.5946 150.022 28.5861 150.022 28.5861C150.022 28.5861 150.06 28.5961 150.074 28.5649C150.089 28.5337 150.131 28.521 150.15 28.4965C150.169 28.472 150.213 28.4114 150.265 28.3536C150.317 28.2955 150.355 28.2798 150.355 28.2798C150.355 28.2798 150.51 28.2826 150.572 28.3115C150.635 28.3404 150.655 28.3858 150.707 28.3866C150.758 28.3874 150.838 28.5283 150.908 28.5858C150.978 28.6433 150.914 28.5151 150.914 28.5151C150.914 28.5151 150.976 28.5698 150.998 28.5672C151.02 28.5644 150.985 28.4916 150.985 28.4916C150.985 28.4916 151.043 28.5174 151.067 28.4999C151.09 28.4823 151.026 28.4387 151.026 28.4387C151.026 28.4387 151.119 28.4785 151.134 28.4509C151.149 28.4232 151.092 28.3753 151.092 28.3753C151.092 28.3753 151.192 28.4106 151.194 28.3698C151.196 28.3291 151.142 28.3027 151.142 28.3027C151.142 28.3027 151.238 28.3092 151.23 28.2733C151.222 28.2375 151.145 28.2362 151.145 28.2362C151.145 28.2362 151.237 28.2429 151.238 28.2171C151.238 28.1913 151.152 28.1799 151.152 28.1799C151.152 28.1799 151.247 28.1717 151.243 28.1464C151.24 28.1211 151.145 28.1255 151.145 28.1255C151.145 28.1255 151.227 28.1079 151.229 28.0894C151.23 28.0708 151.093 28.0881 151.093 28.0881C151.093 28.0881 151.188 28.054 151.185 28.0323C151.182 28.0107 150.966 28.0744 150.919 28.0839C150.873 28.0935 150.675 28.0151 150.641 27.9789C150.641 27.9789 150.719 27.9544 150.716 27.9327C150.714 27.9111 150.647 27.934 150.647 27.934C150.647 27.934 150.723 27.8951 150.724 27.8765C150.725 27.8579 150.708 27.8639 150.708 27.8639C150.708 27.8639 150.883 27.3692 150.921 27.2709C150.958 27.1724 150.966 27.1881 150.974 27.1208C150.982 27.0537 150.975 27.0433 150.983 27.0204C150.992 26.9972 151.086 27.0075 151.066 26.977C151.046 26.9466 150.992 26.9533 150.992 26.9533C150.992 26.9533 151.091 26.952 151.092 26.9334C151.093 26.9148 151.037 26.9107 151.037 26.9107C151.037 26.9107 151.107 26.88 151.111 26.8501C151.114 26.8202 151.034 26.8266 151.034 26.8266C151.034 26.8266 151.135 26.8103 151.148 26.7683C151.161 26.7262 151.06 26.7425 151.06 26.7425C151.06 26.7425 151.151 26.7053 151.183 26.6646C151.215 26.6238 150.898 26.6782 150.908 26.6731C150.918 26.6682 151.22 26.6083 151.248 26.5645C151.275 26.5206 150.873 26.6225 150.882 26.6101C150.891 26.598 151.254 26.4385 151.285 26.3942C151.316 26.3498 150.904 26.5227 150.904 26.5227C150.904 26.5227 151.313 26.3245 151.326 26.2788C151.339 26.2332 150.917 26.4182 150.917 26.4182C150.917 26.4182 151.329 26.1828 151.366 26.1266C151.403 26.0706 151.026 26.261 151.026 26.261C151.026 26.261 151.375 26.0262 151.374 25.9896C151.374 25.9529 150.876 26.2135 150.78 26.325C150.683 26.4365 150.601 26.6563 150.585 26.6803C150.57 26.7043 150.623 26.6021 150.616 26.5771C150.61 26.5521 150.524 26.6364 150.463 26.8207C150.402 27.0049 150.297 27.507 150.255 27.5749Z" fill="#F3F3F3"/>
<path d="M88.6266 26.9685C88.6266 26.9685 88.0105 28.2163 87.1938 28.2011C86.3775 28.1856 86.1463 28.2628 85.9306 28.4785C85.7149 28.6942 85.3451 28.463 85.0216 28.6018C85.0216 28.6018 84.8675 28.7097 84.8368 28.7713C84.8368 28.7713 85.5763 28.7406 85.8537 28.9408C86.131 29.1411 86.362 29.557 86.5315 29.6494C86.5315 29.6494 84.6469 30.7689 84.1128 30.9743C83.5787 31.1797 83.0652 32.2069 82.9009 32.5353C82.7365 32.8641 81.3809 34.6921 81.6273 36.5406C81.7093 36.4789 81.8943 36.0475 81.8943 36.0475C81.8943 36.0475 81.915 36.3763 81.9764 36.4173C82.0381 36.4583 82.2638 35.6984 82.2638 35.6984C82.2638 35.6984 82.3459 36.3556 82.4282 36.3146C82.5102 36.2736 82.7773 35.5751 82.7773 35.5751C82.7773 35.5751 82.8183 35.9242 82.9416 35.9448C83.065 35.9655 83.3731 34.8769 83.3731 34.8769C83.3731 34.8769 83.3731 35.3287 83.4551 35.3083C83.5372 35.2877 83.7428 34.6305 83.7632 34.4661C83.7838 34.3018 83.7838 34.8975 83.8865 34.8562C83.9892 34.8152 84.0919 34.1578 84.0919 34.1578C84.0919 34.1578 84.1126 34.6919 84.2152 34.6919C84.3179 34.6919 84.4206 34.2401 84.4206 34.2401C84.4206 34.2401 84.4617 34.4455 84.544 34.3838C84.626 34.3221 84.9137 33.932 84.9137 33.788C84.9958 33.9114 85.1397 33.9728 85.1808 33.8497C85.2218 33.7264 85.2834 33.5416 85.2834 33.5416C85.2834 33.5416 85.4068 33.665 85.4685 33.48C85.5301 33.2952 85.6122 33.1925 85.6122 33.1925C85.6122 33.1925 85.8382 33.3773 85.8792 33.1925C85.9202 33.0078 85.8999 32.8638 85.8999 32.8638C85.8999 32.8638 86.1259 33.0282 86.1873 32.9048C86.249 32.7815 86.2696 32.6584 86.2696 32.6584C86.2696 32.6584 86.434 32.8228 86.4956 32.6584C86.5573 32.4941 86.619 32.453 86.619 32.453C86.619 32.453 86.8244 32.5351 86.927 32.371C87.0297 32.2066 87.2761 32.1656 87.3995 32.0423C87.5228 31.9189 87.8103 31.6109 88.139 31.3234C88.4677 31.0357 88.6935 30.9743 88.6935 30.9743C88.6935 30.9743 89.5563 31.0976 89.8848 31.303C90.2135 31.5084 90.2955 31.7755 90.5832 31.8165C90.8709 31.8575 91.22 32.6997 91.5691 33.0694C91.9182 33.4392 91.6512 32.6791 91.6512 32.6791C91.6512 32.6791 91.9592 33.0282 92.0826 33.0282C92.2059 33.0282 92.0619 32.5968 92.0619 32.5968C92.0619 32.5968 92.37 32.7818 92.5137 32.6994C92.6575 32.6174 92.329 32.3297 92.329 32.3297C92.329 32.3297 92.8221 32.6174 92.9248 32.4734C93.0275 32.3297 92.74 32.0216 92.74 32.0216C92.74 32.0216 93.2741 32.2887 93.3151 32.0626C93.3562 31.8366 93.0687 31.6519 93.0687 31.6519C93.0687 31.6519 93.6028 31.7546 93.5822 31.5492C93.5616 31.3438 93.1304 31.2821 93.1304 31.2821C93.1304 31.2821 93.6439 31.3848 93.6645 31.2411C93.6852 31.0974 93.2127 30.9741 93.2127 30.9741C93.2127 30.9741 93.7468 30.9947 93.7468 30.8507C93.7468 30.707 93.2127 30.666 93.2127 30.666C93.2127 30.666 93.6852 30.625 93.7058 30.5223C93.7264 30.4196 92.9459 30.4196 92.9459 30.4196C92.9459 30.4196 93.5004 30.2962 93.5004 30.1732C93.5004 30.0498 92.2475 30.2552 91.9804 30.2758C91.7134 30.2965 90.6658 29.7214 90.5014 29.4953C90.5014 29.4953 90.9532 29.413 90.9532 29.2899C90.9532 29.1666 90.5631 29.2489 90.5631 29.2489C90.5631 29.2489 91.0149 29.0846 91.0355 28.9819C91.0562 28.8792 90.9535 28.8998 90.9535 28.8998C90.9535 28.8998 92.2784 26.2603 92.5555 25.7365C92.8329 25.2127 92.8636 25.3051 92.956 24.9353C93.0484 24.5656 93.0176 24.5039 93.0793 24.3808C93.141 24.2575 93.6648 24.3808 93.5724 24.1961C93.48 24.0111 93.1719 24.0111 93.1719 24.0111C93.1719 24.0111 93.7264 24.0727 93.7471 23.9701C93.7677 23.8674 93.4594 23.8057 93.4594 23.8057C93.4594 23.8057 93.8702 23.6824 93.9112 23.518C93.9522 23.3536 93.5004 23.333 93.5004 23.333C93.5004 23.333 94.0755 23.3124 94.1782 23.0866C94.2809 22.8606 93.7058 22.8812 93.7058 22.8812C93.7058 22.8812 94.2399 22.7375 94.4453 22.5321C94.6507 22.3267 92.8432 22.4088 92.9046 22.3884C92.9663 22.3677 94.6917 22.2447 94.8764 22.0186C95.0612 21.7926 92.7403 22.0803 92.8019 22.0186C92.8636 21.957 94.9998 21.3202 95.2052 21.0944C95.4105 20.8684 92.9867 21.5462 92.9867 21.5462C92.9867 21.5462 95.4105 20.7247 95.5132 20.478C95.6159 20.2316 93.1307 20.9711 93.1307 20.9711C93.1307 20.9711 95.5955 19.9441 95.842 19.6564C96.0884 19.3688 93.8495 20.1699 93.8495 20.1699C93.8495 20.1699 95.9653 19.1017 95.9857 18.8963C96.0063 18.6909 93.0484 19.8002 92.4322 20.3547C91.816 20.9091 91.1996 22.08 91.0972 22.2034C90.9945 22.3267 91.3642 21.7926 91.3436 21.6489C91.323 21.5052 90.7891 21.9159 90.3167 22.9018C89.8435 23.8875 88.9089 26.6194 88.6266 26.9685Z" fill="#F3F3F3"/>
<path d="M30.6213 37.7807C30.6213 37.7807 30.2412 37.5286 29.8733 37.4922C29.5053 37.4558 29.1005 37.565 28.7963 37.9221C28.3461 38.0193 28.0697 37.8519 27.8832 37.9006C27.6966 37.9494 27.6437 38.0423 27.7116 38.0792C27.7794 38.1158 28.5264 38.2203 28.7006 38.3326C28.8747 38.4448 29.0484 38.6732 29.526 38.9598C30.0036 39.2467 30.1646 40.2791 31.1293 40.7585C32.0943 41.2379 35.3085 41.6556 35.7268 41.8352C36.1448 42.0148 36.1125 42.3113 36.2887 42.4723C36.465 42.6335 37.0695 42.8449 37.2254 42.9718C37.3815 43.0988 37.8064 42.8322 37.7863 42.7401C37.7664 42.648 37.6643 42.6508 37.5208 42.7011C37.3773 42.7515 37.1663 42.7264 37.0068 42.6129C36.8474 42.4994 36.6365 42.4165 36.5586 42.3239C36.4807 42.2315 36.4851 42.102 36.4851 42.102C36.4851 42.102 37.2166 42.304 37.5636 42.3639C37.9109 42.4238 38.6249 42.6939 39.0091 42.8358C39.3933 42.9777 39.5703 43.0232 40.2096 43.2451C40.849 43.467 39.8267 42.8714 39.4492 42.76C39.0718 42.6488 41.8264 43.5578 41.957 43.3883C42.0875 43.2187 39.7674 42.537 39.4714 42.4467C39.4714 42.4467 40.5745 42.6134 40.5889 42.5012C40.6034 42.3889 38.3109 41.6562 38.0152 41.5078C38.0152 41.5078 38.4752 41.524 38.4143 41.4216C38.3537 41.3189 36.265 40.6966 36.265 40.6966C36.265 40.6966 36.5235 40.7629 36.5581 40.6847C36.5927 40.6065 35.9401 40.3232 35.9401 40.3232C35.9401 40.3232 36.1512 40.3482 36.1721 40.2667C36.193 40.1852 35.5348 39.6973 35.8504 39.3719C36.1659 39.0465 36.1476 39.2305 36.273 38.7986C36.3981 38.3666 36.5344 37.8356 36.5697 37.5838C36.6053 37.3317 36.5953 37.3147 36.7052 37.1689C36.8151 37.0231 36.6242 37.0321 36.6242 37.0321C36.6242 37.0321 37.0065 36.898 37.0754 36.7997C37.1441 36.7011 36.9088 36.7715 36.9088 36.7715C36.9088 36.7715 37.5734 36.1587 37.6908 35.9276C37.6065 35.8045 37.2857 35.8672 37.2857 35.8672C37.2857 35.8672 37.7411 35.5052 37.8376 35.298C37.9344 35.0908 37.4666 35.2175 37.4666 35.2175C37.4666 35.2175 37.7677 35.0046 37.9403 34.6137C37.945 34.4264 37.5861 34.5809 37.5861 34.5809C37.5861 34.5809 37.8717 34.0886 37.8389 33.8771C37.7102 33.7571 37.4294 33.9462 37.4294 33.9462C37.4294 33.9462 37.6844 33.4604 37.7022 33.3344C37.4774 33.3058 37.0331 33.5112 37.0331 33.5112C37.0331 33.5112 37.2202 33.008 37.1735 32.8509C37.0855 32.7412 36.5537 33.3448 36.5537 33.3448C36.5537 33.3448 36.61 33.0692 36.6002 32.9941C36.5904 32.919 34.5602 35.0676 34.3946 35.4311C34.4637 35.2748 34.7584 34.9731 34.7184 34.847C34.6782 34.7205 34.4395 34.7466 34.4395 34.7466C34.4395 34.7466 34.7824 34.3704 34.6537 34.2504C34.5249 34.1304 34.351 34.1294 34.351 34.1294C34.351 34.1294 34.6193 33.705 34.5995 33.6128C34.5796 33.5207 34.1874 33.5798 34.1874 33.5798C34.1874 33.5798 34.3706 33.1482 34.351 32.998C34.3314 32.8478 33.9431 32.8354 33.9431 32.8354C33.9431 32.8354 34.2013 32.394 34.1985 32.2918C34.1957 32.1896 33.6533 32.268 33.6056 32.2848C33.5578 32.3016 33.8509 31.7239 33.7797 31.6622C33.7085 31.6005 33.0072 32.0732 33.0072 32.0732C33.0072 32.0732 33.1837 31.6109 33.1708 31.4914C33.1579 31.3722 32.0711 32.5493 32.4592 31.9473C32.4832 31.9099 32.9009 31.0161 32.8911 30.9413C32.8813 30.8662 30.9015 33.3659 30.8494 35.2286C30.9309 35.2882 30.7377 35.6641 30.7405 35.9549C30.7433 36.2457 31.2199 36.3484 31.3394 36.8626C31.4591 37.3769 31.3138 38.0936 31.3138 38.0936C31.3138 38.0936 30.6664 37.831 30.6213 37.7807Z" fill="#F3F3F3"/>
<path d="M14.0271 2.4136C14.0271 2.4136 13.8837 2.41077 13.7802 2.4634C13.6765 2.51578 13.5875 2.61305 13.5671 2.75909C13.4641 2.86101 13.3625 2.86308 13.3212 2.90746C13.2799 2.95184 13.2815 2.98538 13.3057 2.98383C13.33 2.98202 13.5457 2.88398 13.6107 2.88423C13.676 2.88449 13.7604 2.91597 13.9356 2.91133C14.1105 2.90694 14.3275 3.15361 14.6642 3.118C15.0009 3.08239 15.9241 2.65098 16.0653 2.62828C16.2064 2.60531 16.2479 2.68943 16.3217 2.70259C16.3958 2.71575 16.5916 2.66982 16.6543 2.67704C16.717 2.68452 16.7849 2.5421 16.764 2.52094C16.7431 2.49978 16.7165 2.51784 16.6868 2.55526C16.6572 2.59267 16.597 2.62183 16.5356 2.61847C16.4742 2.61538 16.4043 2.62879 16.3679 2.61744C16.3318 2.60609 16.3109 2.571 16.3109 2.571C16.3109 2.571 16.539 2.50107 16.6412 2.4585C16.7433 2.41592 16.9784 2.36716 17.1043 2.33981C17.2302 2.31272 17.2847 2.29491 17.4919 2.24589C17.6988 2.19686 17.3272 2.21131 17.2083 2.24537C17.0894 2.27943 17.9733 2.05598 17.9795 1.98916C17.9855 1.92207 17.2553 2.13262 17.1613 2.15868C17.1613 2.15868 17.4821 2.01676 17.4668 1.98451C17.4516 1.95226 16.7201 2.14449 16.6167 2.15507C16.6167 2.15507 16.7413 2.08179 16.708 2.06476C16.6745 2.04773 16.0155 2.23505 16.0155 2.23505C16.0155 2.23505 16.0952 2.20899 16.0913 2.18241C16.0872 2.15584 15.8663 2.19067 15.8663 2.19067C15.8663 2.19067 15.9264 2.16177 15.9184 2.13649C15.9102 2.1112 15.6535 2.09288 15.6821 1.95329C15.711 1.8137 15.7371 1.86556 15.6973 1.72984C15.6576 1.59413 15.6042 1.43028 15.5712 1.35752C15.5381 1.28476 15.5324 1.28192 15.5371 1.22464C15.5417 1.16736 15.4925 1.20193 15.4925 1.20193C15.4925 1.20193 15.5712 1.10182 15.573 1.06415C15.5745 1.02648 15.5239 1.08479 15.5239 1.08479C15.5239 1.08479 15.597 0.809998 15.589 0.728979C15.5459 0.71066 15.4713 0.781357 15.4713 0.781357C15.4713 0.781357 15.5309 0.608482 15.5216 0.537268C15.5123 0.466054 15.4096 0.578553 15.4096 0.578553C15.4096 0.578553 15.4538 0.471216 15.4334 0.338592C15.4029 0.28802 15.3338 0.38968 15.3338 0.38968C15.3338 0.38968 15.3265 0.210871 15.2822 0.160299C15.2277 0.150236 15.1852 0.247767 15.1852 0.247767C15.1852 0.247767 15.171 0.0759252 15.1544 0.0395441C15.0899 0.0699907 15.0069 0.19926 15.0069 0.19926C15.0069 0.19926 14.9715 0.0341254 14.9328 0.000582617C14.891 -0.0136086 14.8518 0.236157 14.8518 0.236157C14.8518 0.236157 14.8203 0.15359 14.8051 0.135271C14.7899 0.116951 14.6136 1.02932 14.6312 1.15368C14.6232 1.10053 14.6505 0.970746 14.6185 0.944169C14.5865 0.917335 14.5277 0.964552 14.5277 0.964552C14.5277 0.964552 14.5553 0.806902 14.5009 0.796839C14.4464 0.786776 14.4003 0.815674 14.4003 0.815674C14.4003 0.815674 14.3997 0.657765 14.3791 0.636865C14.3582 0.615707 14.2643 0.6975 14.2643 0.6975C14.2643 0.6975 14.24 0.552234 14.2096 0.515595C14.1791 0.478955 14.0739 0.541396 14.0739 0.541396C14.0739 0.541396 14.0679 0.380649 14.0499 0.354073C14.0318 0.327497 13.9012 0.439736 13.8914 0.452121C13.8816 0.464764 13.862 0.261959 13.8326 0.257573C13.8032 0.253186 13.6971 0.497017 13.6971 0.497017C13.6971 0.497017 13.6659 0.344526 13.6424 0.315112C13.619 0.285697 13.5292 0.781098 13.5307 0.556103C13.5307 0.54217 13.4907 0.23461 13.4755 0.21629C13.4603 0.197971 13.3568 1.19497 13.6571 1.69785C13.6889 1.69991 13.701 1.83228 13.7508 1.90891C13.8006 1.98554 13.9443 1.93239 14.0628 2.04876C14.1812 2.16487 14.2638 2.37954 14.2638 2.37954C14.2638 2.37954 14.0475 2.41954 14.0271 2.4136Z" fill="#F3F3F3"/>
<path d="M5.61279 48.8871C5.61279 48.8871 5.44765 48.7778 5.28794 48.7618C5.12822 48.746 4.95225 48.7932 4.82014 48.9483C4.62456 48.9906 4.50458 48.9179 4.42357 48.939C4.34255 48.9602 4.31958 49.0004 4.349 49.0164C4.37841 49.0324 4.70274 49.0778 4.7786 49.1266C4.8542 49.1754 4.9298 49.2744 5.13725 49.3991C5.3447 49.5237 5.41463 49.9721 5.83365 50.1804C6.25268 50.3886 7.64884 50.57 7.83048 50.6482C8.01213 50.7261 7.99794 50.8548 8.07457 50.925C8.1512 50.9949 8.41361 51.0868 8.48147 51.142C8.54933 51.1972 8.73382 51.0814 8.7253 51.0414C8.71653 51.0014 8.67215 51.0027 8.60997 51.0243C8.54778 51.0463 8.45593 51.0352 8.38678 50.9862C8.31737 50.9369 8.22603 50.9007 8.19223 50.8608C8.15843 50.8205 8.16023 50.7643 8.16023 50.7643C8.16023 50.7643 8.47786 50.852 8.6288 50.878C8.77949 50.9041 9.08963 51.0215 9.25657 51.0829C9.42351 51.1446 9.5004 51.1642 9.77803 51.2607C10.0557 51.3572 9.61161 51.0984 9.44776 51.0501C9.28366 51.0019 10.4804 51.3967 10.5371 51.3231C10.5939 51.2496 9.58606 50.9534 9.45757 50.9142C9.45757 50.9142 9.93672 50.9867 9.94291 50.9376C9.9491 50.8889 8.95339 50.5707 8.8249 50.5062C8.8249 50.5062 9.02461 50.5132 8.99829 50.4688C8.97197 50.4242 8.06477 50.154 8.06477 50.154C8.06477 50.154 8.17701 50.1827 8.19197 50.1489C8.20694 50.1148 7.92363 49.992 7.92363 49.992C7.92363 49.992 8.01523 50.0028 8.02451 49.9675C8.03355 49.9321 7.74766 49.72 7.88467 49.5789C8.02168 49.4378 8.01368 49.5175 8.06812 49.3299C8.12256 49.1423 8.18165 48.9117 8.19713 48.8023C8.21261 48.6929 8.20823 48.6854 8.25596 48.6219C8.3037 48.5587 8.22087 48.5626 8.22087 48.5626C8.22087 48.5626 8.38704 48.5042 8.41671 48.4617C8.44664 48.4188 8.34421 48.4493 8.34421 48.4493C8.34421 48.4493 8.63293 48.183 8.68376 48.0826C8.64712 48.0292 8.50779 48.0563 8.50779 48.0563C8.50779 48.0563 8.70569 47.8992 8.74749 47.8091C8.78955 47.7191 8.58649 47.774 8.58649 47.774C8.58649 47.774 8.7173 47.6817 8.79239 47.5119C8.79445 47.4306 8.63861 47.4977 8.63861 47.4977C8.63861 47.4977 8.76272 47.2838 8.74852 47.1919C8.69253 47.1398 8.57075 47.2219 8.57075 47.2219C8.57075 47.2219 8.68144 47.0108 8.68918 46.9561C8.59165 46.9437 8.39865 47.0327 8.39865 47.0327C8.39865 47.0327 8.47992 46.8142 8.45954 46.7461C8.42135 46.6986 8.19042 46.9605 8.19042 46.9605C8.19042 46.9605 8.21493 46.8408 8.21055 46.8083C8.20642 46.7758 7.3245 47.7088 7.25251 47.8667C7.28245 47.7988 7.41068 47.6677 7.39314 47.613C7.37559 47.5581 7.27212 47.5694 7.27212 47.5694C7.27212 47.5694 7.421 47.4061 7.36527 47.354C7.30928 47.3019 7.23394 47.3013 7.23394 47.3013C7.23394 47.3013 7.35056 47.1171 7.34179 47.0771C7.33302 47.0371 7.16272 47.0627 7.16272 47.0627C7.16272 47.0627 7.24219 46.8751 7.23368 46.8101C7.22516 46.7448 7.05642 46.7394 7.05642 46.7394C7.05642 46.7394 7.16866 46.5477 7.16737 46.5033C7.16608 46.4589 6.9305 46.493 6.90986 46.5002C6.88922 46.5074 7.01642 46.2566 6.98546 46.2298C6.9545 46.2029 6.65003 46.4083 6.65003 46.4083C6.65003 46.4083 6.72667 46.2076 6.72099 46.1557C6.71531 46.1039 6.24339 46.6153 6.41188 46.3536C6.4222 46.3374 6.60359 45.9493 6.59946 45.9165C6.59508 45.884 5.73535 46.9698 5.71264 47.7787C5.74799 47.8045 5.66413 47.9678 5.66542 48.0942C5.66671 48.2207 5.87365 48.2653 5.92551 48.4885C5.97737 48.7117 5.91441 49.0231 5.91441 49.0231C5.91441 49.0231 5.6324 48.9091 5.61279 48.8871Z" fill="#F3F3F3"/>
<path d="M59.0354 41.8855C59.0354 41.8855 58.9376 41.8207 58.8429 41.8112C58.7482 41.8019 58.644 41.8298 58.5658 41.9219C58.45 41.9469 58.379 41.9038 58.331 41.9165C58.283 41.9291 58.2694 41.9528 58.2869 41.9624C58.3044 41.9719 58.4964 41.9988 58.5413 42.0277C58.5862 42.0566 58.6308 42.1154 58.7537 42.1892C58.8765 42.263 58.918 42.5285 59.1662 42.6518C59.4145 42.7752 60.2414 42.8828 60.349 42.9289C60.4566 42.9751 60.4483 43.0515 60.4935 43.0928C60.5389 43.1343 60.6942 43.1885 60.7345 43.2213C60.7747 43.254 60.8839 43.1854 60.8787 43.1617C60.8736 43.1379 60.8472 43.1387 60.8104 43.1516C60.7735 43.1645 60.7193 43.1581 60.6782 43.1289C60.6372 43.0997 60.583 43.0783 60.5629 43.0546C60.5428 43.0309 60.5441 42.9976 60.5441 42.9976C60.5441 42.9976 60.7322 43.0494 60.8217 43.0649C60.9112 43.0804 61.0947 43.1498 61.1935 43.1864C61.2923 43.2231 61.338 43.2347 61.5024 43.2917C61.667 43.3487 61.4038 43.1955 61.3068 43.1668C61.2098 43.1382 61.9183 43.3722 61.9518 43.3284C61.9854 43.2847 61.3886 43.1093 61.3125 43.0861C61.3125 43.0861 61.5963 43.1289 61.5999 43.1C61.6035 43.0711 61.0139 42.8828 60.9378 42.8446C60.9378 42.8446 61.0562 42.8487 61.0405 42.8224C61.025 42.7961 60.4876 42.6358 60.4876 42.6358C60.4876 42.6358 60.5541 42.6529 60.5629 42.6327C60.5717 42.6126 60.404 42.5398 60.404 42.5398C60.404 42.5398 60.4584 42.5463 60.4636 42.5254C60.469 42.5045 60.2997 42.3788 60.3807 42.2952C60.462 42.2116 60.4574 42.2589 60.4894 42.1477C60.5216 42.0364 60.5565 41.9 60.5657 41.8352C60.5748 41.7704 60.5722 41.766 60.6006 41.7284C60.6287 41.691 60.5797 41.6933 60.5797 41.6933C60.5797 41.6933 60.678 41.6587 60.6958 41.6334C60.7136 41.6081 60.653 41.6262 60.653 41.6262C60.653 41.6262 60.824 41.4685 60.8542 41.4092C60.8325 41.3775 60.75 41.3937 60.75 41.3937C60.75 41.3937 60.8671 41.3006 60.8919 41.2472C60.9167 41.1937 60.7964 41.2265 60.7964 41.2265C60.7964 41.2265 60.8738 41.1718 60.9185 41.0712C60.9195 41.0229 60.8274 41.0627 60.8274 41.0627C60.8274 41.0627 60.9009 40.936 60.8924 40.8815C60.8594 40.8506 60.7871 40.8993 60.7871 40.8993C60.7871 40.8993 60.8527 40.7745 60.8573 40.7419C60.7995 40.7345 60.6852 40.7874 60.6852 40.7874C60.6852 40.7874 60.7335 40.6578 60.7213 40.6176C60.6986 40.5895 60.5619 40.7445 60.5619 40.7445C60.5619 40.7445 60.5763 40.6736 60.5737 40.6542C60.5712 40.6349 60.0489 41.1876 60.0064 41.2812C60.0242 41.241 60.1 41.1633 60.0897 41.1308C60.0794 41.0983 60.018 41.105 60.018 41.105C60.018 41.105 60.1062 41.0082 60.0732 40.9773C60.0402 40.9463 59.9953 40.946 59.9953 40.946C59.9953 40.946 60.0642 40.8369 60.0592 40.8132C60.0541 40.7894 59.9532 40.8046 59.9532 40.8046C59.9532 40.8046 60.0004 40.6937 59.9953 40.655C59.9901 40.6163 59.8902 40.6132 59.8902 40.6132C59.8902 40.6132 59.9566 40.4997 59.956 40.4733C59.9553 40.447 59.8159 40.4672 59.8035 40.4715C59.7912 40.4759 59.8668 40.3273 59.8484 40.3113C59.8301 40.2953 59.6498 40.4171 59.6498 40.4171C59.6498 40.4171 59.6952 40.2982 59.6918 40.2674C59.6885 40.2367 59.409 40.5397 59.5089 40.3846C59.5151 40.375 59.6224 40.1451 59.6201 40.1258C59.6175 40.1064 59.1082 40.7494 59.095 41.2286C59.1159 41.2438 59.0664 41.3406 59.0672 41.4154C59.0679 41.4902 59.1905 41.5165 59.2212 41.6489C59.2519 41.7813 59.2147 41.9655 59.2147 41.9655C59.2147 41.9655 59.0473 41.8984 59.0354 41.8855Z" fill="#F3F3F3"/>
<path d="M140.455 73.2207C140.455 73.2207 140.357 73.1559 140.263 73.1464C140.168 73.1371 140.064 73.165 139.986 73.2571C139.87 73.2821 139.799 73.239 139.751 73.2517C139.703 73.2643 139.689 73.288 139.707 73.2976C139.724 73.3071 139.916 73.334 139.961 73.3629C140.006 73.3918 140.051 73.4506 140.173 73.5241C140.296 73.5979 140.338 73.8634 140.586 73.9868C140.834 74.1101 141.661 74.2177 141.769 74.2639C141.876 74.3101 141.868 74.3864 141.913 74.4277C141.959 74.4693 142.114 74.5235 142.154 74.5562C142.194 74.589 142.304 74.5204 142.299 74.4966C142.293 74.4729 142.267 74.4737 142.23 74.4866C142.193 74.4995 142.139 74.493 142.098 74.4639C142.057 74.4347 142.003 74.4133 141.982 74.3895C141.962 74.3658 141.963 74.3325 141.963 74.3325C141.963 74.3325 142.151 74.3844 142.241 74.3999C142.33 74.4153 142.514 74.4848 142.613 74.5214C142.712 74.558 142.757 74.5696 142.922 74.6267C143.086 74.6837 142.823 74.5304 142.726 74.5018C142.629 74.4731 143.338 74.7069 143.371 74.6633C143.405 74.6197 142.808 74.4442 142.732 74.421C142.732 74.421 143.016 74.4639 143.019 74.435C143.023 74.4061 142.433 74.2177 142.357 74.1795C142.357 74.1795 142.476 74.1836 142.46 74.1573C142.444 74.131 141.907 73.9708 141.907 73.9708C141.907 73.9708 141.973 73.9878 141.982 73.9677C141.991 73.9476 141.823 73.8748 141.823 73.8748C141.823 73.8748 141.877 73.8812 141.883 73.8603C141.888 73.8394 141.719 73.7138 141.8 73.6302C141.881 73.5466 141.877 73.5938 141.909 73.4826C141.941 73.3714 141.976 73.2349 141.985 73.1701C141.994 73.1054 141.991 73.101 142.02 73.0633C142.048 73.0259 141.999 73.0282 141.999 73.0282C141.999 73.0282 142.097 72.9936 142.115 72.9684C142.133 72.9431 142.072 72.9611 142.072 72.9611C142.072 72.9611 142.243 72.8035 142.273 72.7441C142.252 72.7124 142.169 72.7287 142.169 72.7287C142.169 72.7287 142.286 72.6355 142.311 72.5821C142.336 72.5287 142.216 72.5615 142.216 72.5615C142.216 72.5615 142.293 72.5068 142.337 72.4061C142.339 72.3579 142.246 72.3976 142.246 72.3976C142.246 72.3976 142.32 72.2709 142.311 72.2165C142.278 72.1855 142.206 72.2343 142.206 72.2343C142.206 72.2343 142.272 72.1094 142.276 72.0769C142.219 72.0694 142.104 72.1223 142.104 72.1223C142.104 72.1223 142.152 71.9928 142.14 71.9525C142.118 71.9244 141.981 72.0795 141.981 72.0795C141.981 72.0795 141.995 72.0085 141.993 71.9892C141.99 71.9698 141.468 72.5225 141.425 72.6162C141.443 72.5759 141.519 72.4982 141.509 72.466C141.498 72.4335 141.437 72.4402 141.437 72.4402C141.437 72.4402 141.525 72.3434 141.492 72.3125C141.459 72.2815 141.414 72.2812 141.414 72.2812C141.414 72.2812 141.483 72.1721 141.478 72.1484C141.473 72.1246 141.372 72.1398 141.372 72.1398C141.372 72.1398 141.419 72.0289 141.414 71.9902C141.409 71.9515 141.309 71.9484 141.309 71.9484C141.309 71.9484 141.376 71.8349 141.375 71.8085C141.374 71.7822 141.235 71.8024 141.223 71.8067C141.21 71.8111 141.286 71.6625 141.267 71.6465C141.249 71.6305 141.069 71.7523 141.069 71.7523C141.069 71.7523 141.114 71.6334 141.111 71.6026C141.107 71.5719 140.828 71.8749 140.928 71.7198C140.934 71.7102 141.041 71.4803 141.039 71.461C141.037 71.4416 140.527 72.0849 140.514 72.564C140.535 72.5793 140.485 72.676 140.486 72.7508C140.487 72.8257 140.609 72.852 140.64 72.9844C140.671 73.1167 140.633 73.3009 140.633 73.3009C140.633 73.3009 140.467 73.2336 140.455 73.2207Z" fill="#F3F3F3"/>
<path d="M91.8532 71.7886C91.8532 71.7886 91.7258 71.704 91.6024 71.6919C91.4791 71.6798 91.3434 71.7161 91.2414 71.8359C91.0905 71.8684 90.9979 71.8124 90.9354 71.8286C90.873 71.8449 90.8552 71.8761 90.8779 71.8885C90.9006 71.9009 91.1509 71.9357 91.2095 71.9734C91.2678 72.0111 91.3261 72.0874 91.4861 72.1837C91.6463 72.2799 91.7 72.6259 92.0235 72.7864C92.3471 72.9472 93.4243 73.087 93.5644 73.1474C93.7045 73.2075 93.6937 73.3068 93.7528 73.361C93.8119 73.415 94.0144 73.4859 94.0668 73.5285C94.1192 73.5711 94.2616 73.4818 94.2549 73.4508C94.2482 73.4199 94.2139 73.4209 94.1659 73.4377C94.1179 73.4544 94.0469 73.4462 93.9935 73.408C93.9401 73.3701 93.8694 73.3422 93.8433 73.3112C93.8173 73.2803 93.8186 73.2369 93.8186 73.2369C93.8186 73.2369 94.0637 73.3045 94.1801 73.3246C94.2964 73.3448 94.5359 73.4353 94.6646 73.4828C94.7934 73.5303 94.8527 73.5455 95.0671 73.6201C95.2815 73.6944 94.9389 73.4947 94.8122 73.4575C94.6855 73.4201 95.609 73.7248 95.6528 73.6681C95.6967 73.6113 94.919 73.3827 94.8197 73.3525C94.8197 73.3525 95.1894 73.4085 95.1943 73.3708C95.1992 73.3332 94.4306 73.0875 94.3315 73.038C94.3315 73.038 94.4858 73.0434 94.4654 73.0091C94.445 72.9748 93.745 72.766 93.745 72.766C93.745 72.766 93.8317 72.7882 93.8433 72.7619C93.8549 72.7356 93.6361 72.6406 93.6361 72.6406C93.6361 72.6406 93.7068 72.6491 93.7141 72.6218C93.7213 72.5944 93.5004 72.4309 93.6062 72.322C93.712 72.2128 93.7058 72.2745 93.7479 72.1297C93.7899 71.985 93.8356 71.807 93.8475 71.7226C93.8593 71.6382 93.856 71.6323 93.8929 71.5835C93.9298 71.5348 93.8658 71.5376 93.8658 71.5376C93.8658 71.5376 93.994 71.4927 94.017 71.4597C94.0399 71.4266 93.961 71.4501 93.961 71.4501C93.961 71.4501 94.1837 71.2447 94.2231 71.1673C94.1948 71.126 94.0874 71.1472 94.0874 71.1472C94.0874 71.1472 94.2399 71.0259 94.2724 70.9563C94.3049 70.8869 94.1481 70.9292 94.1481 70.9292C94.1481 70.9292 94.2489 70.8577 94.3067 70.7269C94.3083 70.6642 94.1881 70.7158 94.1881 70.7158C94.1881 70.7158 94.2838 70.5507 94.2729 70.48C94.2299 70.4397 94.1357 70.5032 94.1357 70.5032C94.1357 70.5032 94.2211 70.3404 94.227 70.298C94.1517 70.2885 94.0028 70.3571 94.0028 70.3571C94.0028 70.3571 94.0655 70.1884 94.0498 70.1358C94.0203 70.0991 93.8421 70.3014 93.8421 70.3014C93.8421 70.3014 93.8609 70.209 93.8575 70.1837C93.8542 70.1585 93.1738 70.8786 93.1183 71.0006C93.1415 70.9483 93.2403 70.8471 93.2269 70.8048C93.2135 70.7625 93.1335 70.7713 93.1335 70.7713C93.1335 70.7713 93.2486 70.6451 93.2052 70.6048C93.1622 70.5646 93.1038 70.5643 93.1038 70.5643C93.1038 70.5643 93.1939 70.4222 93.1872 70.3912C93.1805 70.3602 93.0492 70.3801 93.0492 70.3801C93.0492 70.3801 93.1106 70.2354 93.1041 70.185C93.0977 70.1347 92.9674 70.1306 92.9674 70.1306C92.9674 70.1306 93.0538 69.9828 93.053 69.9484C93.052 69.9141 92.8703 69.9404 92.8543 69.9461C92.8383 69.9518 92.9366 69.758 92.9127 69.7374C92.8889 69.7167 92.6536 69.8752 92.6536 69.8752C92.6536 69.8752 92.7127 69.7201 92.7083 69.6801C92.7039 69.6401 92.3396 70.0346 92.4699 69.8328C92.4779 69.8202 92.618 69.5206 92.6146 69.4956C92.6113 69.4706 91.9477 70.3084 91.9304 70.9328C91.9577 70.9527 91.8929 71.0788 91.894 71.1764C91.895 71.2739 92.0547 71.3082 92.0947 71.4806C92.135 71.6529 92.0862 71.8931 92.0862 71.8931C92.0862 71.8931 91.8682 71.8057 91.8532 71.7886Z" fill="#F3F3F3"/>
</svg>
