<svg width="173" height="61" viewBox="0 0 173 61" fill="none" xmlns="http://www.w3.org/2000/svg">
<path d="M163.356 40.7677V20.5893C166.142 20.5893 168.4 18.331 168.4 15.5449V10.3517C168.4 7.64756 166.208 5.45551 163.504 5.45551H9.49602C6.79191 5.45551 4.59985 7.64756 4.59985 10.3517V15.5449C4.59985 18.331 6.8582 20.5893 9.64434 20.5893V40.7677C6.8582 40.7677 4.59985 43.026 4.59985 45.8121V51.0053C4.59985 53.7094 6.79191 55.9015 9.49602 55.9015H163.504C166.208 55.9015 168.4 53.7094 168.4 51.0053V45.8121C168.4 43.0264 166.142 40.7677 163.356 40.7677Z" fill="url(#paint0_linear_292_989)"/>
<path d="M163.504 5.45544C166.208 5.45544 168.4 7.6475 168.4 10.3516V15.5448C168.4 18.3309 166.141 20.5893 163.356 20.5893V40.7676C166.142 40.7676 168.4 43.026 168.4 45.8121V51.0053C168.4 53.7094 166.208 55.9014 163.504 55.9014H9.49565C6.79154 55.9014 4.59948 53.7094 4.59948 51.0053V45.8121C4.59948 43.026 6.85783 40.7676 9.64397 40.7676V20.5893C6.85783 20.5893 4.59948 18.3309 4.59948 15.5448V10.3516C4.59948 7.6475 6.79154 5.45544 9.49565 5.45544H163.504ZM163.504 0.855957H9.49565C4.25952 0.855957 0 5.11586 0 10.3516V15.5448C0 19.1979 2.04217 22.3834 5.04449 24.0197V37.3371C2.04179 38.9734 0 42.1586 0 45.8121V51.0053C0 56.241 4.25991 60.5009 9.49565 60.5009H163.504C168.74 60.5009 173 56.241 173 51.0053V45.8121C173 42.1589 170.958 38.9734 167.956 37.3371V24.0197C170.958 22.3834 173 19.1983 173 15.5448V10.3516C173 5.11586 168.74 0.855957 163.504 0.855957Z" fill="#AF2F28"/>
<g opacity="0.5">
<mask id="mask0_292_989" style="mask-type:luminance" maskUnits="userSpaceOnUse" x="4" y="5" width="165" height="51">
<path d="M163.356 40.7677V20.5893C166.142 20.5893 168.4 18.331 168.4 15.5449V10.3517C168.4 7.64756 166.208 5.45551 163.504 5.45551H9.49602C6.79191 5.45551 4.59985 7.64756 4.59985 10.3517V15.5449C4.59985 18.331 6.8582 20.5893 9.64434 20.5893V40.7677C6.8582 40.7677 4.59985 43.026 4.59985 45.8121V51.0053C4.59985 53.7094 6.79191 55.9015 9.49602 55.9015H163.504C166.208 55.9015 168.4 53.7094 168.4 51.0053V45.8121C168.4 43.0264 166.142 40.7677 163.356 40.7677Z" fill="white"/>
</mask>
<g mask="url(#mask0_292_989)">
<path d="M0.614258 29.1179V25.2762H40.1537V35.0524H67.7885V22.6319H115.657V39.1555H145.496V28.9109H177.846V32.7527H149.338V42.9973H111.815V26.4736H71.6303V38.8941H36.312V29.1179H0.614258Z" fill="white"/>
</g>
</g>
<mask id="path-5-outside-1_292_989" maskUnits="userSpaceOnUse" x="25" y="16" width="123" height="33" fill="black">
<rect fill="white" x="25" y="16" width="123" height="33"/>
<path d="M39.7329 46.1123C38.3348 46.1123 36.9242 45.975 35.5011 45.7004C34.103 45.4008 32.8047 44.9764 31.6063 44.4271C30.4329 43.8529 29.4842 43.1663 28.7601 42.3674C28.0361 41.5435 27.6741 40.5947 27.6741 39.5212C27.6741 38.148 28.111 37.0495 28.9848 36.2256C29.8587 35.4017 30.8823 35.0147 32.0557 35.0646C32.9795 35.0896 33.9033 35.2893 34.827 35.6638C35.7508 36.0134 36.687 36.3629 37.6358 36.7124C38.6095 37.062 39.5832 37.2367 40.5568 37.2367C41.5305 37.2367 42.2046 37.1119 42.5791 36.8622C42.9536 36.6126 43.1409 36.2755 43.1409 35.8511C43.1409 35.3518 42.8787 34.9398 42.3544 34.6152C41.8301 34.2907 41.1685 34.041 40.3696 33.8662L38.5346 33.4168C36.6371 32.9675 34.9394 32.4681 33.4414 31.9189C31.9434 31.3446 30.7575 30.5956 29.8836 29.6719C29.0348 28.7231 28.6103 27.4623 28.6103 25.8894C28.6103 24.1667 29.0847 22.7686 30.0334 21.695C30.9822 20.5965 32.2679 19.7976 33.8908 19.2983C35.5136 18.7989 37.3237 18.5493 39.321 18.5493C41.3683 18.5493 43.1659 18.7615 44.7138 19.1859C46.2617 19.6103 47.4601 20.222 48.309 21.0209C49.1828 21.8199 49.6197 22.7936 49.6197 23.942C49.6197 25.1654 49.2827 26.1266 48.6086 26.8257C47.9594 27.4998 47.0856 27.8368 45.9871 27.8368C45.263 27.8368 44.5016 27.712 43.7026 27.4623C42.9287 27.2127 42.1048 26.9755 41.2309 26.7508C40.3821 26.5011 39.4708 26.3763 38.4971 26.3763C37.6233 26.3763 36.9617 26.5136 36.5123 26.7882C36.0629 27.0379 35.8382 27.3749 35.8382 27.7994C35.8382 28.3237 36.1378 28.7107 36.737 28.9603C37.3362 29.21 38.3223 29.5096 39.6955 29.8591L41.7927 30.346C43.5154 30.7704 45.0259 31.2822 46.3241 31.8814C47.6224 32.4806 48.6335 33.267 49.3576 34.2407C50.0816 35.2144 50.4436 36.4877 50.4436 38.0606C50.4436 39.9581 49.9942 41.506 49.0954 42.7044C48.1966 43.8778 46.9483 44.7392 45.3504 45.2885C43.7526 45.8377 41.8801 46.1123 39.7329 46.1123ZM55.3042 27.0504C54.0559 27.0504 53.0322 26.6884 52.2333 25.9643C51.4593 25.2403 51.0724 24.2416 51.0724 22.9683C51.0724 21.72 51.4219 20.7213 52.121 19.9724C52.845 19.1984 53.9061 18.8114 55.3042 18.8114H71.4451C72.8432 18.8114 73.8918 19.1984 74.5909 19.9724C75.3149 20.7213 75.6769 21.72 75.6769 22.9683C75.6769 24.2416 75.2774 25.2403 74.4785 25.9643C73.7045 26.6884 72.6934 27.0504 71.4451 27.0504C70.5962 27.0504 69.9096 26.963 69.3853 26.7882C68.886 26.5885 68.4741 26.3638 68.1495 26.1141C67.8249 25.8395 67.5128 25.6148 67.2132 25.44C66.9136 25.2403 66.5391 25.1404 66.0897 25.1404L65.7527 25.8145C65.8526 26.0392 66.0273 26.3638 66.277 26.7882C66.5267 27.1877 66.7638 27.7744 66.9885 28.5484C67.2132 29.2974 67.3256 30.321 67.3256 31.6193V42.4423C67.3256 43.4659 66.9386 44.3148 66.1646 44.9889C65.4156 45.663 64.4919 46 63.3934 46C62.2699 46 61.3211 45.663 60.5472 44.9889C59.7982 44.3148 59.4237 43.4659 59.4237 42.4423V31.6193C59.4237 30.321 59.536 29.2974 59.7607 28.5484C59.9854 27.7744 60.2226 27.1877 60.4723 26.7882C60.7469 26.3638 60.9341 26.0392 61.034 25.8145L60.6595 25.1404C60.2101 25.1404 59.8356 25.2403 59.536 25.44C59.2364 25.6148 58.9243 25.8395 58.5998 26.1141C58.2752 26.3638 57.8633 26.5885 57.3639 26.7882C56.8646 26.963 56.178 27.0504 55.3042 27.0504ZM74.8989 46C73.2262 45.7503 72.1401 44.9889 71.6408 43.7156C71.1415 42.4173 71.2413 40.782 71.9404 38.8096L76.8838 24.7659C77.3332 23.4677 77.845 22.3567 78.4192 21.4329C79.0184 20.5091 79.7549 19.7976 80.6288 19.2983C81.5276 18.7989 82.6386 18.5493 83.9618 18.5493C85.9591 18.5493 87.4571 19.0985 88.4558 20.1971C89.4794 21.2956 90.3283 22.8185 91.0024 24.7659L95.9083 38.8096C96.6074 40.782 96.7322 42.4173 96.2828 43.7156C95.8584 44.9889 94.7973 45.7503 93.0996 46C91.7264 46.1748 90.528 46.0125 89.5044 45.5132C88.5057 45.0138 87.9065 44.2024 87.7068 43.0789C87.557 42.3299 87.532 41.7058 87.6319 41.2064C87.7567 40.7071 87.8691 40.3076 87.9689 40.008C88.0438 39.7584 88.0438 39.5212 87.9689 39.2965C87.919 39.0468 87.7318 38.922 87.4072 38.922H80.4415C80.117 38.922 79.9172 39.0468 79.8423 39.2965C79.7924 39.5212 79.8174 39.7584 79.9172 40.008C80.0171 40.3076 80.117 40.7071 80.2168 41.2064C80.3167 41.7058 80.3042 42.3299 80.1794 43.0789C79.9796 44.2024 79.3929 45.0138 78.4192 45.5132C77.4455 46.0125 76.2721 46.1748 74.8989 46ZM86.6957 33.679L84.7483 27.5747C84.6983 27.325 84.6109 27.1378 84.4861 27.0129C84.3862 26.8631 84.2115 26.7882 83.9618 26.7882C83.7121 26.7882 83.5249 26.8631 83.4001 27.0129C83.3002 27.1378 83.2128 27.325 83.1379 27.5747L81.228 33.679H86.6957ZM116.289 46C115.041 46 114.055 45.6255 113.331 44.8765C112.607 44.1025 112.22 43.1039 112.17 41.8805C112.07 39.7584 111.533 38.2604 110.559 37.3865C109.611 36.4877 108.337 36.0383 106.74 36.0383H105.991V42.0303C105.991 43.3286 105.641 44.3148 104.942 44.9889C104.243 45.663 103.319 46 102.171 46C100.947 46 99.9861 45.663 99.287 44.9889C98.5879 44.3148 98.2384 43.3286 98.2384 42.0303V36.7499C98.2384 34.1034 98.6254 32.0936 99.3993 30.7205C100.198 29.3473 101.209 28.3611 102.433 27.7619L102.246 27.0504H101.646C100.498 27.0504 99.5866 26.6884 98.9125 25.9643C98.2634 25.2153 97.9138 24.2042 97.8639 22.9309C97.8389 21.6826 98.176 20.6714 98.875 19.8975C99.5741 19.1235 100.498 18.7365 101.646 18.7365H111.196C113.867 18.7365 116.027 19.3856 117.675 20.6839C119.323 21.9822 120.147 24.0544 120.147 26.9006C120.147 28.3736 119.897 29.6094 119.398 30.6081C118.898 31.5818 118.262 32.3308 117.488 32.8551C116.714 33.3794 115.902 33.6915 115.053 33.7913V34.2782C116.601 34.6527 117.875 35.4766 118.873 36.7499C119.897 38.0232 120.409 39.7334 120.409 41.8805C120.409 43.2537 120.034 44.2898 119.285 44.9889C118.561 45.663 117.563 46 116.289 46ZM105.803 30.3085C105.803 30.8578 105.903 31.2198 106.103 31.3946C106.303 31.5693 106.677 31.6567 107.226 31.6567H110.747C111.795 31.6567 112.557 31.4195 113.031 30.9452C113.505 30.4708 113.743 29.8092 113.743 28.9603C113.743 28.0865 113.505 27.4124 113.031 26.938C112.557 26.4637 111.795 26.2265 110.747 26.2265H107.226C106.677 26.2265 106.303 26.3014 106.103 26.4512C105.903 26.601 105.803 26.963 105.803 27.5372V30.3085ZM125.596 27.0504C124.347 27.0504 123.324 26.6884 122.525 25.9643C121.751 25.2403 121.364 24.2416 121.364 22.9683C121.364 21.72 121.714 20.7213 122.413 19.9724C123.137 19.1984 124.198 18.8114 125.596 18.8114H141.737C143.135 18.8114 144.183 19.1984 144.882 19.9724C145.607 20.7213 145.969 21.72 145.969 22.9683C145.969 24.2416 145.569 25.2403 144.77 25.9643C143.996 26.6884 142.985 27.0504 141.737 27.0504C140.888 27.0504 140.201 26.963 139.677 26.7882C139.178 26.5885 138.766 26.3638 138.441 26.1141C138.117 25.8395 137.804 25.6148 137.505 25.44C137.205 25.2403 136.831 25.1404 136.381 25.1404L136.044 25.8145C136.144 26.0392 136.319 26.3638 136.569 26.7882C136.818 27.1877 137.055 27.7744 137.28 28.5484C137.505 29.2974 137.617 30.321 137.617 31.6193V42.4423C137.617 43.4659 137.23 44.3148 136.456 44.9889C135.707 45.663 134.784 46 133.685 46C132.561 46 131.613 45.663 130.839 44.9889C130.09 44.3148 129.715 43.4659 129.715 42.4423V31.6193C129.715 30.321 129.828 29.2974 130.052 28.5484C130.277 27.7744 130.514 27.1877 130.764 26.7882C131.039 26.3638 131.226 26.0392 131.326 25.8145L130.951 25.1404C130.502 25.1404 130.127 25.2403 129.828 25.44C129.528 25.6148 129.216 25.8395 128.891 26.1141C128.567 26.3638 128.155 26.5885 127.656 26.7882C127.156 26.963 126.47 27.0504 125.596 27.0504Z"/>
</mask>
<path d="M39.7329 46.1123C38.3348 46.1123 36.9242 45.975 35.5011 45.7004C34.103 45.4008 32.8047 44.9764 31.6063 44.4271C30.4329 43.8529 29.4842 43.1663 28.7601 42.3674C28.0361 41.5435 27.6741 40.5947 27.6741 39.5212C27.6741 38.148 28.111 37.0495 28.9848 36.2256C29.8587 35.4017 30.8823 35.0147 32.0557 35.0646C32.9795 35.0896 33.9033 35.2893 34.827 35.6638C35.7508 36.0134 36.687 36.3629 37.6358 36.7124C38.6095 37.062 39.5832 37.2367 40.5568 37.2367C41.5305 37.2367 42.2046 37.1119 42.5791 36.8622C42.9536 36.6126 43.1409 36.2755 43.1409 35.8511C43.1409 35.3518 42.8787 34.9398 42.3544 34.6152C41.8301 34.2907 41.1685 34.041 40.3696 33.8662L38.5346 33.4168C36.6371 32.9675 34.9394 32.4681 33.4414 31.9189C31.9434 31.3446 30.7575 30.5956 29.8836 29.6719C29.0348 28.7231 28.6103 27.4623 28.6103 25.8894C28.6103 24.1667 29.0847 22.7686 30.0334 21.695C30.9822 20.5965 32.2679 19.7976 33.8908 19.2983C35.5136 18.7989 37.3237 18.5493 39.321 18.5493C41.3683 18.5493 43.1659 18.7615 44.7138 19.1859C46.2617 19.6103 47.4601 20.222 48.309 21.0209C49.1828 21.8199 49.6197 22.7936 49.6197 23.942C49.6197 25.1654 49.2827 26.1266 48.6086 26.8257C47.9594 27.4998 47.0856 27.8368 45.9871 27.8368C45.263 27.8368 44.5016 27.712 43.7026 27.4623C42.9287 27.2127 42.1048 26.9755 41.2309 26.7508C40.3821 26.5011 39.4708 26.3763 38.4971 26.3763C37.6233 26.3763 36.9617 26.5136 36.5123 26.7882C36.0629 27.0379 35.8382 27.3749 35.8382 27.7994C35.8382 28.3237 36.1378 28.7107 36.737 28.9603C37.3362 29.21 38.3223 29.5096 39.6955 29.8591L41.7927 30.346C43.5154 30.7704 45.0259 31.2822 46.3241 31.8814C47.6224 32.4806 48.6335 33.267 49.3576 34.2407C50.0816 35.2144 50.4436 36.4877 50.4436 38.0606C50.4436 39.9581 49.9942 41.506 49.0954 42.7044C48.1966 43.8778 46.9483 44.7392 45.3504 45.2885C43.7526 45.8377 41.8801 46.1123 39.7329 46.1123ZM55.3042 27.0504C54.0559 27.0504 53.0322 26.6884 52.2333 25.9643C51.4593 25.2403 51.0724 24.2416 51.0724 22.9683C51.0724 21.72 51.4219 20.7213 52.121 19.9724C52.845 19.1984 53.9061 18.8114 55.3042 18.8114H71.4451C72.8432 18.8114 73.8918 19.1984 74.5909 19.9724C75.3149 20.7213 75.6769 21.72 75.6769 22.9683C75.6769 24.2416 75.2774 25.2403 74.4785 25.9643C73.7045 26.6884 72.6934 27.0504 71.4451 27.0504C70.5962 27.0504 69.9096 26.963 69.3853 26.7882C68.886 26.5885 68.4741 26.3638 68.1495 26.1141C67.8249 25.8395 67.5128 25.6148 67.2132 25.44C66.9136 25.2403 66.5391 25.1404 66.0897 25.1404L65.7527 25.8145C65.8526 26.0392 66.0273 26.3638 66.277 26.7882C66.5267 27.1877 66.7638 27.7744 66.9885 28.5484C67.2132 29.2974 67.3256 30.321 67.3256 31.6193V42.4423C67.3256 43.4659 66.9386 44.3148 66.1646 44.9889C65.4156 45.663 64.4919 46 63.3934 46C62.2699 46 61.3211 45.663 60.5472 44.9889C59.7982 44.3148 59.4237 43.4659 59.4237 42.4423V31.6193C59.4237 30.321 59.536 29.2974 59.7607 28.5484C59.9854 27.7744 60.2226 27.1877 60.4723 26.7882C60.7469 26.3638 60.9341 26.0392 61.034 25.8145L60.6595 25.1404C60.2101 25.1404 59.8356 25.2403 59.536 25.44C59.2364 25.6148 58.9243 25.8395 58.5998 26.1141C58.2752 26.3638 57.8633 26.5885 57.3639 26.7882C56.8646 26.963 56.178 27.0504 55.3042 27.0504ZM74.8989 46C73.2262 45.7503 72.1401 44.9889 71.6408 43.7156C71.1415 42.4173 71.2413 40.782 71.9404 38.8096L76.8838 24.7659C77.3332 23.4677 77.845 22.3567 78.4192 21.4329C79.0184 20.5091 79.7549 19.7976 80.6288 19.2983C81.5276 18.7989 82.6386 18.5493 83.9618 18.5493C85.9591 18.5493 87.4571 19.0985 88.4558 20.1971C89.4794 21.2956 90.3283 22.8185 91.0024 24.7659L95.9083 38.8096C96.6074 40.782 96.7322 42.4173 96.2828 43.7156C95.8584 44.9889 94.7973 45.7503 93.0996 46C91.7264 46.1748 90.528 46.0125 89.5044 45.5132C88.5057 45.0138 87.9065 44.2024 87.7068 43.0789C87.557 42.3299 87.532 41.7058 87.6319 41.2064C87.7567 40.7071 87.8691 40.3076 87.9689 40.008C88.0438 39.7584 88.0438 39.5212 87.9689 39.2965C87.919 39.0468 87.7318 38.922 87.4072 38.922H80.4415C80.117 38.922 79.9172 39.0468 79.8423 39.2965C79.7924 39.5212 79.8174 39.7584 79.9172 40.008C80.0171 40.3076 80.117 40.7071 80.2168 41.2064C80.3167 41.7058 80.3042 42.3299 80.1794 43.0789C79.9796 44.2024 79.3929 45.0138 78.4192 45.5132C77.4455 46.0125 76.2721 46.1748 74.8989 46ZM86.6957 33.679L84.7483 27.5747C84.6983 27.325 84.6109 27.1378 84.4861 27.0129C84.3862 26.8631 84.2115 26.7882 83.9618 26.7882C83.7121 26.7882 83.5249 26.8631 83.4001 27.0129C83.3002 27.1378 83.2128 27.325 83.1379 27.5747L81.228 33.679H86.6957ZM116.289 46C115.041 46 114.055 45.6255 113.331 44.8765C112.607 44.1025 112.22 43.1039 112.17 41.8805C112.07 39.7584 111.533 38.2604 110.559 37.3865C109.611 36.4877 108.337 36.0383 106.74 36.0383H105.991V42.0303C105.991 43.3286 105.641 44.3148 104.942 44.9889C104.243 45.663 103.319 46 102.171 46C100.947 46 99.9861 45.663 99.287 44.9889C98.5879 44.3148 98.2384 43.3286 98.2384 42.0303V36.7499C98.2384 34.1034 98.6254 32.0936 99.3993 30.7205C100.198 29.3473 101.209 28.3611 102.433 27.7619L102.246 27.0504H101.646C100.498 27.0504 99.5866 26.6884 98.9125 25.9643C98.2634 25.2153 97.9138 24.2042 97.8639 22.9309C97.8389 21.6826 98.176 20.6714 98.875 19.8975C99.5741 19.1235 100.498 18.7365 101.646 18.7365H111.196C113.867 18.7365 116.027 19.3856 117.675 20.6839C119.323 21.9822 120.147 24.0544 120.147 26.9006C120.147 28.3736 119.897 29.6094 119.398 30.6081C118.898 31.5818 118.262 32.3308 117.488 32.8551C116.714 33.3794 115.902 33.6915 115.053 33.7913V34.2782C116.601 34.6527 117.875 35.4766 118.873 36.7499C119.897 38.0232 120.409 39.7334 120.409 41.8805C120.409 43.2537 120.034 44.2898 119.285 44.9889C118.561 45.663 117.563 46 116.289 46ZM105.803 30.3085C105.803 30.8578 105.903 31.2198 106.103 31.3946C106.303 31.5693 106.677 31.6567 107.226 31.6567H110.747C111.795 31.6567 112.557 31.4195 113.031 30.9452C113.505 30.4708 113.743 29.8092 113.743 28.9603C113.743 28.0865 113.505 27.4124 113.031 26.938C112.557 26.4637 111.795 26.2265 110.747 26.2265H107.226C106.677 26.2265 106.303 26.3014 106.103 26.4512C105.903 26.601 105.803 26.963 105.803 27.5372V30.3085ZM125.596 27.0504C124.347 27.0504 123.324 26.6884 122.525 25.9643C121.751 25.2403 121.364 24.2416 121.364 22.9683C121.364 21.72 121.714 20.7213 122.413 19.9724C123.137 19.1984 124.198 18.8114 125.596 18.8114H141.737C143.135 18.8114 144.183 19.1984 144.882 19.9724C145.607 20.7213 145.969 21.72 145.969 22.9683C145.969 24.2416 145.569 25.2403 144.77 25.9643C143.996 26.6884 142.985 27.0504 141.737 27.0504C140.888 27.0504 140.201 26.963 139.677 26.7882C139.178 26.5885 138.766 26.3638 138.441 26.1141C138.117 25.8395 137.804 25.6148 137.505 25.44C137.205 25.2403 136.831 25.1404 136.381 25.1404L136.044 25.8145C136.144 26.0392 136.319 26.3638 136.569 26.7882C136.818 27.1877 137.055 27.7744 137.28 28.5484C137.505 29.2974 137.617 30.321 137.617 31.6193V42.4423C137.617 43.4659 137.23 44.3148 136.456 44.9889C135.707 45.663 134.784 46 133.685 46C132.561 46 131.613 45.663 130.839 44.9889C130.09 44.3148 129.715 43.4659 129.715 42.4423V31.6193C129.715 30.321 129.828 29.2974 130.052 28.5484C130.277 27.7744 130.514 27.1877 130.764 26.7882C131.039 26.3638 131.226 26.0392 131.326 25.8145L130.951 25.1404C130.502 25.1404 130.127 25.2403 129.828 25.44C129.528 25.6148 129.216 25.8395 128.891 26.1141C128.567 26.3638 128.155 26.5885 127.656 26.7882C127.156 26.963 126.47 27.0504 125.596 27.0504Z" fill="white"/>
<path d="M35.5011 45.7004L35.0821 47.656L35.1021 47.6603L35.1221 47.6642L35.5011 45.7004ZM31.6063 44.4271L30.7272 46.2235L30.75 46.2347L30.773 46.2452L31.6063 44.4271ZM28.7601 42.3674L27.2578 43.6876L27.2679 43.6991L27.2782 43.7104L28.7601 42.3674ZM28.9848 36.2256L27.6128 34.7704L27.6128 34.7704L28.9848 36.2256ZM32.0557 35.0646L31.9707 37.0628L31.9862 37.0635L32.0017 37.0639L32.0557 35.0646ZM34.827 35.6638L34.0756 37.5173L34.0973 37.5261L34.1192 37.5344L34.827 35.6638ZM37.6358 36.7124L36.9443 38.5891L36.9522 38.592L36.96 38.5948L37.6358 36.7124ZM42.5791 36.8622L41.4697 35.1981L41.4697 35.1981L42.5791 36.8622ZM42.3544 34.6152L43.4072 32.9147L43.4071 32.9147L42.3544 34.6152ZM40.3696 33.8662L39.8939 35.8088L39.918 35.8147L39.9422 35.82L40.3696 33.8662ZM38.5346 33.4168L39.0103 31.4743L39.0029 31.4724L38.9955 31.4707L38.5346 33.4168ZM33.4414 31.9189L32.7255 33.7863L32.7391 33.7916L32.7529 33.7966L33.4414 31.9189ZM29.8836 29.6719L28.3932 31.0055L28.4116 31.0261L28.4307 31.0463L29.8836 29.6719ZM30.0334 21.695L31.5321 23.0194L31.5396 23.0109L31.5471 23.0023L30.0334 21.695ZM33.8908 19.2983L33.3026 17.3867L33.3026 17.3867L33.8908 19.2983ZM44.7138 19.1859L44.1849 21.1147L44.1849 21.1147L44.7138 19.1859ZM48.309 21.0209L46.9382 22.4773L46.9488 22.4873L46.9594 22.497L48.309 21.0209ZM48.6086 26.8257L47.1689 25.4374L47.1679 25.4384L48.6086 26.8257ZM43.7026 27.4623L43.0886 29.3657L43.0973 29.3686L43.1061 29.3713L43.7026 27.4623ZM41.2309 26.7508L40.6666 28.6695L40.6996 28.6792L40.7329 28.6878L41.2309 26.7508ZM36.5123 26.7882L37.4835 28.5365L37.5198 28.5164L37.5552 28.4948L36.5123 26.7882ZM36.737 28.9603L35.9677 30.8065L35.9677 30.8065L36.737 28.9603ZM39.6955 29.8591L39.2021 31.7973L39.2226 31.8025L39.2432 31.8073L39.6955 29.8591ZM41.7927 30.346L42.2711 28.404L42.2581 28.4008L42.245 28.3978L41.7927 30.346ZM46.3241 31.8814L45.486 33.6973L45.486 33.6973L46.3241 31.8814ZM49.3576 34.2407L47.7526 35.4342L47.7526 35.4342L49.3576 34.2407ZM49.0954 42.7044L50.6832 43.9206L50.6893 43.9125L50.6954 43.9044L49.0954 42.7044ZM45.3504 45.2885L44.7003 43.3971L44.7003 43.3971L45.3504 45.2885ZM39.7329 44.1123C38.4666 44.1123 37.1829 43.988 35.8801 43.7366L35.1221 47.6642C36.6656 47.962 38.2031 48.1123 39.7329 48.1123V44.1123ZM35.9202 43.7448C34.6528 43.4732 33.4947 43.0926 32.4396 42.609L30.773 46.2452C32.1147 46.8602 33.5532 47.3284 35.0821 47.656L35.9202 43.7448ZM32.4854 42.6307C31.4929 42.145 30.7639 41.6001 30.2421 41.0243L27.2782 43.7104C28.2045 44.7325 29.3729 45.5608 30.7272 46.2235L32.4854 42.6307ZM30.2625 41.0471C29.8516 40.5795 29.6741 40.0974 29.6741 39.5212H25.6741C25.6741 41.0921 26.2207 42.5074 27.2578 43.6876L30.2625 41.0471ZM29.6741 39.5212C29.6741 38.6123 29.9428 38.0712 30.3569 37.6808L27.6128 34.7704C26.2793 36.0278 25.6741 37.6838 25.6741 39.5212H29.6741ZM30.3569 37.6808C30.8481 37.2176 31.3499 37.0364 31.9707 37.0628L32.1408 33.0665C30.4147 32.993 28.8692 33.5858 27.6128 34.7704L30.3569 37.6808ZM32.0017 37.0639C32.6679 37.0819 33.3562 37.2257 34.0756 37.5173L35.5784 33.8104C34.4503 33.353 33.291 33.0973 32.1098 33.0654L32.0017 37.0639ZM34.1192 37.5344C35.0486 37.8861 35.9903 38.2376 36.9443 38.5891L38.3272 34.8358C37.3838 34.4882 36.453 34.1407 35.5348 33.7933L34.1192 37.5344ZM36.96 38.5948C38.1369 39.0173 39.3388 39.2367 40.5568 39.2367V35.2367C39.8275 35.2367 39.082 35.1067 38.3115 34.83L36.96 38.5948ZM40.5568 39.2367C41.5605 39.2367 42.776 39.1347 43.6885 38.5263L41.4697 35.1981C41.5942 35.1152 41.6248 35.1402 41.4285 35.1765C41.2499 35.2096 40.9679 35.2367 40.5568 35.2367V39.2367ZM43.6885 38.5263C44.5793 37.9325 45.1409 36.991 45.1409 35.8511H41.1409C41.1409 35.7585 41.1645 35.6087 41.2521 35.4509C41.3372 35.2977 41.4362 35.2205 41.4697 35.1981L43.6885 38.5263ZM45.1409 35.8511C45.1409 34.4901 44.3607 33.505 43.4072 32.9147L41.3017 36.3158C41.3732 36.36 41.3243 36.3472 41.257 36.2414C41.2228 36.1877 41.1914 36.1214 41.1697 36.0459C41.1481 35.9707 41.1409 35.9033 41.1409 35.8511H45.1409ZM43.4071 32.9147C42.6389 32.4392 41.7493 32.1208 40.797 31.9124L39.9422 35.82C40.5877 35.9613 41.0213 36.1422 41.3017 36.3158L43.4071 32.9147ZM40.8453 31.9237L39.0103 31.4743L38.0588 35.3594L39.8939 35.8088L40.8453 31.9237ZM38.9955 31.4707C37.1589 31.0357 35.5393 30.5579 34.1299 30.0411L32.7529 33.7966C34.3395 34.3784 36.1153 34.8992 38.0736 35.363L38.9955 31.4707ZM34.1572 30.0514C32.8677 29.557 31.9582 28.9546 31.3366 28.2975L28.4307 31.0463C29.5568 32.2367 31.019 33.1322 32.7255 33.7863L34.1572 30.0514ZM31.3741 28.3383C30.9259 27.8373 30.6103 27.0911 30.6103 25.8894H26.6103C26.6103 27.8335 27.1437 29.6089 28.3932 31.0055L31.3741 28.3383ZM30.6103 25.8894C30.6103 24.5509 30.969 23.6566 31.5321 23.0194L28.5348 20.3706C27.2004 21.8806 26.6103 23.7826 26.6103 25.8894H30.6103ZM31.5471 23.0023C32.211 22.2335 33.1533 21.6177 34.4789 21.2098L33.3026 17.3867C31.3826 17.9775 29.7533 18.9595 28.5198 20.3878L31.5471 23.0023ZM34.4789 21.2098C35.8811 20.7784 37.4889 20.5493 39.321 20.5493V16.5493C37.1585 16.5493 35.1461 16.8195 33.3026 17.3867L34.4789 21.2098ZM39.321 20.5493C41.2361 20.5493 42.849 20.7484 44.1849 21.1147L45.2426 17.2571C43.4827 16.7745 41.5004 16.5493 39.321 16.5493V20.5493ZM44.1849 21.1147C45.5306 21.4837 46.3998 21.9706 46.9382 22.4773L49.6797 19.5645C48.5204 18.4734 46.9929 17.737 45.2426 17.2571L44.1849 21.1147ZM46.9594 22.497C47.4334 22.9303 47.6197 23.3745 47.6197 23.942H51.6197C51.6197 22.2126 50.9322 20.7094 49.6585 19.5449L46.9594 22.497ZM47.6197 23.942C47.6197 24.7885 47.3963 25.2015 47.1689 25.4374L50.0483 28.2139C51.169 27.0517 51.6197 25.5423 51.6197 23.942H47.6197ZM47.1679 25.4384C46.9614 25.6529 46.6445 25.8368 45.9871 25.8368V29.8368C47.5267 29.8368 48.9575 29.3467 50.0492 28.213L47.1679 25.4384ZM45.9871 25.8368C45.4941 25.8368 44.9345 25.7519 44.2992 25.5534L43.1061 29.3713C44.0686 29.6721 45.032 29.8368 45.9871 29.8368V25.8368ZM44.3166 25.5589C43.5005 25.2956 42.6377 25.0474 41.729 24.8138L40.7329 28.6878C41.5719 28.9035 42.3568 29.1297 43.0886 29.3657L44.3166 25.5589ZM41.7953 24.832C40.7458 24.5234 39.6428 24.3763 38.4971 24.3763V28.3763C39.2988 28.3763 40.0184 28.4789 40.6666 28.6695L41.7953 24.832ZM38.4971 24.3763C37.4719 24.3763 36.3769 24.5271 35.4694 25.0817L37.5552 28.4948C37.5371 28.5058 37.5856 28.4721 37.752 28.4375C37.9168 28.4033 38.1593 28.3763 38.4971 28.3763V24.3763ZM35.541 25.0399C34.6157 25.554 33.8382 26.4832 33.8382 27.7994H37.8382C37.8382 27.9621 37.7883 28.1615 37.6708 28.3377C37.5652 28.496 37.4644 28.5472 37.4835 28.5365L35.541 25.0399ZM33.8382 27.7994C33.8382 28.471 34.0403 29.1375 34.4814 29.7072C34.9017 30.2501 35.4491 30.5904 35.9677 30.8065L37.5062 27.1142C37.4256 27.0806 37.5236 27.1026 37.6443 27.2585C37.7061 27.3383 37.7591 27.4351 37.7943 27.5422C37.829 27.6478 37.8382 27.7379 37.8382 27.7994H33.8382ZM35.9677 30.8065C36.711 31.1161 37.8181 31.445 39.2021 31.7973L40.1889 27.9209C38.8266 27.5742 37.9614 27.3038 37.5062 27.1142L35.9677 30.8065ZM39.2432 31.8073L41.3404 32.2942L42.245 28.3978L40.1478 27.9109L39.2432 31.8073ZM41.3142 32.2879C42.9415 32.6888 44.327 33.1624 45.486 33.6973L47.1622 30.0655C45.7247 29.402 44.0893 28.852 42.2711 28.404L41.3142 32.2879ZM45.486 33.6973C46.5349 34.1814 47.261 34.773 47.7526 35.4342L50.9625 33.0473C50.0061 31.7611 48.7099 30.7798 47.1622 30.0655L45.486 33.6973ZM47.7526 35.4342C48.1532 35.9729 48.4436 36.7901 48.4436 38.0606H52.4436C52.4436 36.1854 52.01 34.456 50.9625 33.0473L47.7526 35.4342ZM48.4436 38.0606C48.4436 39.642 48.0724 40.7351 47.4954 41.5044L50.6954 43.9044C51.9161 42.2769 52.4436 40.2742 52.4436 38.0606H48.4436ZM47.5077 41.4883C46.8811 42.3062 45.9808 42.9569 44.7003 43.3971L46.0006 47.1798C47.9158 46.5215 49.5121 45.4495 50.6832 43.9206L47.5077 41.4883ZM44.7003 43.3971C43.3595 43.858 41.7159 44.1123 39.7329 44.1123V48.1123C42.0442 48.1123 44.1456 47.8175 46.0006 47.1798L44.7003 43.3971ZM52.2333 25.9643L50.867 27.4249L50.8785 27.4357L50.8903 27.4463L52.2333 25.9643ZM52.121 19.9724L50.6604 18.606L50.6588 18.6077L52.121 19.9724ZM74.5909 19.9724L73.1067 21.3129L73.1294 21.3381L73.1529 21.3624L74.5909 19.9724ZM74.4785 25.9643L73.1355 24.4824L73.1238 24.493L73.1122 24.5038L74.4785 25.9643ZM69.3853 26.7882L68.6426 28.6452L68.6971 28.667L68.7529 28.6856L69.3853 26.7882ZM68.1495 26.1141L66.8576 27.6409L66.8932 27.671L66.9301 27.6994L68.1495 26.1141ZM67.2132 25.44L66.1038 27.1041L66.1537 27.1374L66.2055 27.1676L67.2132 25.44ZM66.0897 25.1404V23.1404H64.8537L64.3009 24.246L66.0897 25.1404ZM65.7527 25.8145L63.9638 24.9201L63.5417 25.7643L63.9251 26.6268L65.7527 25.8145ZM66.277 26.7882L64.5531 27.8023L64.5668 27.8254L64.581 27.8482L66.277 26.7882ZM66.9885 28.5484L65.0678 29.106L65.0703 29.1145L65.0729 29.1231L66.9885 28.5484ZM66.1646 44.9889L64.8511 43.4807L64.8388 43.4914L64.8267 43.5023L66.1646 44.9889ZM60.5472 44.9889L59.2092 46.4754L59.2213 46.4863L59.2336 46.497L60.5472 44.9889ZM59.7607 28.5484L61.6764 29.1231L61.6789 29.1145L61.6814 29.106L59.7607 28.5484ZM60.4723 26.7882L58.7931 25.7017L58.7846 25.7149L58.7763 25.7282L60.4723 26.7882ZM61.034 25.8145L62.8616 26.6268L63.2668 25.7152L62.7823 24.8432L61.034 25.8145ZM60.6595 25.1404L62.4078 24.1691L61.8363 23.1404H60.6595V25.1404ZM59.536 25.44L60.5438 27.1676L60.5955 27.1374L60.6454 27.1041L59.536 25.44ZM58.5998 26.1141L59.8192 27.6994L59.8561 27.671L59.8917 27.6409L58.5998 26.1141ZM57.3639 26.7882L58.0246 28.6759L58.066 28.6615L58.1067 28.6452L57.3639 26.7882ZM55.3042 25.0504C54.4688 25.0504 53.9499 24.8209 53.5763 24.4824L50.8903 27.4463C52.1146 28.5558 53.6429 29.0504 55.3042 29.0504V25.0504ZM53.5996 24.5038C53.3103 24.2331 53.0724 23.8086 53.0724 22.9683H49.0724C49.0724 24.6746 49.6084 26.2475 50.867 27.4249L53.5996 24.5038ZM53.0724 22.9683C53.0724 22.11 53.3018 21.6384 53.5831 21.337L50.6588 18.6077C49.542 19.8043 49.0724 21.3301 49.0724 22.9683H53.0724ZM53.5815 21.3387C53.8171 21.0868 54.2744 20.8114 55.3042 20.8114V16.8114C53.5377 16.8114 51.8728 17.31 50.6604 18.606L53.5815 21.3387ZM55.3042 20.8114H71.4451V16.8114H55.3042V20.8114ZM71.4451 20.8114C72.4794 20.8114 72.9038 21.0883 73.1067 21.3129L76.0751 18.6318C74.8798 17.3084 73.207 16.8114 71.4451 16.8114V20.8114ZM73.1529 21.3624C73.4468 21.6665 73.6769 22.1291 73.6769 22.9683H77.6769C77.6769 21.3109 77.183 19.7762 76.0288 18.5823L73.1529 21.3624ZM73.6769 22.9683C73.6769 23.7887 73.4399 24.2065 73.1355 24.4824L75.8216 27.4463C77.115 26.2741 77.6769 24.6946 77.6769 22.9683H73.6769ZM73.1122 24.5038C72.7735 24.8207 72.2822 25.0504 71.4451 25.0504V29.0504C73.1046 29.0504 74.6356 28.5561 75.8448 27.4249L73.1122 24.5038ZM71.4451 25.0504C70.7088 25.0504 70.2596 24.9715 70.0178 24.8909L68.7529 28.6856C69.5597 28.9545 70.4836 29.0504 71.4451 29.0504V25.0504ZM70.1281 24.9313C69.7493 24.7798 69.5105 24.6378 69.3689 24.5289L66.9301 27.6994C67.4376 28.0898 68.0227 28.3972 68.6426 28.6452L70.1281 24.9313ZM69.4414 24.5874C69.0471 24.2538 68.6404 23.9571 68.221 23.7125L66.2055 27.1676C66.3853 27.2725 66.6027 27.4252 66.8576 27.6409L69.4414 24.5874ZM68.3226 23.7759C67.6214 23.3084 66.8358 23.1404 66.0897 23.1404V27.1404C66.1675 27.1404 66.1974 27.1492 66.1923 27.1478C66.1895 27.147 66.1788 27.1439 66.1622 27.1366C66.1455 27.1292 66.1254 27.1185 66.1038 27.1041L68.3226 23.7759ZM64.3009 24.246L63.9638 24.9201L67.5416 26.709L67.8786 26.0349L64.3009 24.246ZM63.9251 26.6268C64.0728 26.9592 64.2951 27.3635 64.5531 27.8023L68.0009 25.7742C67.7596 25.364 67.6323 25.1192 67.5803 25.0023L63.9251 26.6268ZM64.581 27.8482C64.6878 28.0192 64.8636 28.4026 65.0678 29.106L68.9092 27.9907C68.664 27.1462 68.3655 26.3562 67.973 25.7282L64.581 27.8482ZM65.0729 29.1231C65.217 29.6033 65.3256 30.4054 65.3256 31.6193H69.3256C69.3256 30.2366 69.2095 28.9914 68.9042 27.9737L65.0729 29.1231ZM65.3256 31.6193V42.4423H69.3256V31.6193H65.3256ZM65.3256 42.4423C65.3256 42.8858 65.1903 43.1853 64.8511 43.4807L67.4782 46.497C68.6869 45.4443 69.3256 44.046 69.3256 42.4423H65.3256ZM64.8267 43.5023C64.4793 43.8149 64.0461 44 63.3934 44V48C64.9377 48 66.3519 47.511 67.5026 46.4754L64.8267 43.5023ZM63.3934 44C62.7035 44 62.2351 43.8067 61.8607 43.4807L59.2336 46.497C60.4072 47.5192 61.8362 48 63.3934 48V44ZM61.8851 43.5023C61.5651 43.2143 61.4237 42.9092 61.4237 42.4423H57.4237C57.4237 44.0226 58.0313 45.4153 59.2092 46.4754L61.8851 43.5023ZM61.4237 42.4423V31.6193H57.4237V42.4423H61.4237ZM61.4237 31.6193C61.4237 30.4054 61.5323 29.6033 61.6764 29.1231L57.8451 27.9737C57.5397 28.9914 57.4237 30.2366 57.4237 31.6193H61.4237ZM61.6814 29.106C61.8856 28.4026 62.0614 28.0192 62.1683 27.8482L58.7763 25.7282C58.3838 26.3562 58.0852 27.1462 57.84 27.9907L61.6814 29.106ZM62.1514 27.8747C62.4366 27.434 62.6952 27.0013 62.8616 26.6268L59.2064 25.0023C59.1731 25.0772 59.0572 25.2936 58.7931 25.7017L62.1514 27.8747ZM62.7823 24.8432L62.4078 24.1691L58.9112 26.1117L59.2857 26.7858L62.7823 24.8432ZM60.6595 23.1404C59.9134 23.1404 59.1279 23.3084 58.4266 23.7759L60.6454 27.1041C60.6238 27.1185 60.6038 27.1292 60.587 27.1366C60.5705 27.1439 60.5598 27.147 60.5569 27.1478C60.5518 27.1492 60.5818 27.1404 60.6595 27.1404V23.1404ZM58.5283 23.7125C58.1089 23.9571 57.7021 24.2538 57.3079 24.5874L59.8917 27.6409C60.1465 27.4252 60.364 27.2725 60.5438 27.1676L58.5283 23.7125ZM57.3804 24.5289C57.2387 24.6378 56.9999 24.7798 56.6211 24.9313L58.1067 28.6452C58.7266 28.3972 59.3117 28.0898 59.8192 27.6994L57.3804 24.5289ZM56.7032 24.9005C56.5097 24.9682 56.0798 25.0504 55.3042 25.0504V29.0504C56.2762 29.0504 57.2195 28.9577 58.0246 28.6759L56.7032 24.9005ZM74.8989 46L74.6037 47.9781L74.625 47.9813L74.6464 47.984L74.8989 46ZM71.6408 43.7156L69.7741 44.4335L69.7789 44.4457L71.6408 43.7156ZM71.9404 38.8096L73.8255 39.4778L73.8269 39.4737L71.9404 38.8096ZM76.8838 24.7659L78.7704 25.43L78.7738 25.4202L76.8838 24.7659ZM78.4192 21.4329L76.7413 20.3445L76.7308 20.3607L76.7207 20.377L78.4192 21.4329ZM80.6288 19.2983L79.6575 17.5499L79.647 17.5558L79.6365 17.5618L80.6288 19.2983ZM88.4558 20.1971L86.9759 21.5424L86.9842 21.5515L86.9926 21.5605L88.4558 20.1971ZM91.0024 24.7659L89.1124 25.4202L89.1143 25.4255L91.0024 24.7659ZM95.9083 38.8096L94.0202 39.4692L94.0232 39.4778L95.9083 38.8096ZM96.2828 43.7156L94.3928 43.0613L94.3891 43.0722L94.3854 43.0831L96.2828 43.7156ZM93.0996 46L93.3521 47.984L93.3714 47.9815L93.3906 47.9787L93.0996 46ZM89.5044 45.5132L88.61 47.302L88.6187 47.3064L88.6275 47.3107L89.5044 45.5132ZM87.7068 43.0789L89.6759 42.7288L89.6722 42.7077L89.668 42.6867L87.7068 43.0789ZM87.6319 41.2064L85.6916 40.7213L85.6801 40.7675L85.6707 40.8142L87.6319 41.2064ZM87.9689 40.008L89.8663 40.6405L89.8759 40.6117L89.8846 40.5827L87.9689 40.008ZM87.9689 39.2965L86.0078 39.6887L86.0322 39.8108L86.0716 39.9289L87.9689 39.2965ZM79.8423 39.2965L77.9267 38.7218L77.9058 38.7915L77.89 38.8626L79.8423 39.2965ZM79.9172 40.008L81.8146 39.3756L81.796 39.3198L81.7742 39.2652L79.9172 40.008ZM80.2168 41.2064L82.178 40.8142L82.178 40.8142L80.2168 41.2064ZM80.1794 43.0789L82.1485 43.429L82.1504 43.4184L82.1522 43.4077L80.1794 43.0789ZM78.4192 45.5132L79.3319 47.2928L79.3319 47.2928L78.4192 45.5132ZM86.6957 33.679V35.679H89.433L88.601 33.0711L86.6957 33.679ZM84.7483 27.5747L82.7871 27.9669L82.809 28.0763L82.8429 28.1825L84.7483 27.5747ZM84.4861 27.0129L82.822 28.1223L82.9319 28.2871L83.0719 28.4271L84.4861 27.0129ZM83.4001 27.0129L81.8636 25.7325L81.8508 25.7479L81.8383 25.7635L83.4001 27.0129ZM83.1379 27.5747L85.0467 28.1719L85.0502 28.1607L85.0536 28.1494L83.1379 27.5747ZM81.228 33.679L79.3192 33.0818L78.5066 35.679H81.228V33.679ZM75.1942 44.0219C74.0334 43.8487 73.6757 43.4264 73.5028 42.9854L69.7789 44.4457C70.6046 46.5513 72.419 47.652 74.6037 47.9781L75.1942 44.0219ZM73.5075 42.9976C73.2475 42.3215 73.2082 41.2195 73.8255 39.4778L70.0553 38.1415C69.2745 40.3445 69.0355 42.5131 69.7741 44.4335L73.5075 42.9976ZM73.8269 39.4737L78.7703 25.43L74.9973 24.1019L70.0539 38.1456L73.8269 39.4737ZM78.7738 25.4202C79.1866 24.2276 79.6395 23.2583 80.1178 22.4888L76.7207 20.377C76.0505 21.4551 75.4798 22.7078 74.9938 24.1117L78.7738 25.4202ZM80.0972 22.5213C80.5394 21.8395 81.0496 21.3613 81.6211 21.0347L79.6365 17.5618C78.4603 18.2339 77.4975 19.1788 76.7413 20.3445L80.0972 22.5213ZM81.6001 21.0466C82.1284 20.753 82.8833 20.5493 83.9618 20.5493V16.5493C82.3938 16.5493 80.9267 16.8448 79.6575 17.5499L81.6001 21.0466ZM83.9618 20.5493C85.5991 20.5493 86.4744 20.9907 86.9759 21.5424L89.9357 18.8517C88.4398 17.2063 86.3192 16.5493 83.9618 16.5493V20.5493ZM86.9926 21.5605C87.7692 22.394 88.4976 23.6442 89.1124 25.4202L92.8924 24.1117C92.1589 21.9929 91.1896 20.1972 89.919 18.8336L86.9926 21.5605ZM89.1143 25.4255L94.0202 39.4692L97.7964 38.15L92.8905 24.1064L89.1143 25.4255ZM94.0232 39.4778C94.6462 41.2355 94.6339 42.3651 94.3928 43.0613L98.1728 44.3698C98.8306 42.4695 98.5685 40.3284 97.7934 38.1415L94.0232 39.4778ZM94.3854 43.0831C94.2693 43.4314 94.0062 43.8452 92.8086 44.0213L93.3906 47.9787C95.5884 47.6555 97.4474 46.5463 98.1802 44.348L94.3854 43.0831ZM92.8471 44.016C91.7765 44.1523 90.9856 44.0104 90.3812 43.7156L88.6275 47.3107C90.0705 48.0146 91.6764 48.1973 93.3521 47.984L92.8471 44.016ZM90.3988 43.7243C89.9802 43.515 89.7679 43.246 89.6759 42.7288L85.7377 43.429C86.0452 45.1588 87.0313 46.5127 88.61 47.302L90.3988 43.7243ZM89.668 42.6867C89.5465 42.0794 89.5642 41.7431 89.5931 41.5986L85.6707 40.8142C85.4999 41.6684 85.5675 42.5805 85.7456 43.4711L89.668 42.6867ZM89.5722 41.6915C89.6913 41.2152 89.7895 40.871 89.8663 40.6405L86.0716 39.3756C85.9487 39.7442 85.8222 40.199 85.6916 40.7213L89.5722 41.6915ZM89.8846 40.5827C90.0654 39.9799 90.0846 39.3188 89.8663 38.664L86.0716 39.9289C86.041 39.8371 86.0251 39.739 86.0251 39.6429C86.0251 39.5486 86.0403 39.4766 86.0533 39.4333L89.8846 40.5827ZM89.9301 38.9042C89.816 38.3337 89.4948 37.7478 88.9005 37.3515C88.3629 36.9931 87.798 36.922 87.4072 36.922V40.922C87.341 40.922 87.032 40.9133 86.6817 40.6797C86.2745 40.4083 86.072 40.0095 86.0078 39.6887L89.9301 38.9042ZM87.4072 36.922H80.4415V40.922H87.4072V36.922ZM80.4415 36.922C80.0408 36.922 79.5047 36.9969 78.9883 37.3196C78.4316 37.6676 78.0877 38.1851 77.9267 38.7218L81.758 39.8712C81.6719 40.1582 81.4653 40.4885 81.1083 40.7116C80.7917 40.9095 80.5177 40.922 80.4415 40.922V36.922ZM77.89 38.8626C77.7388 39.5429 77.8367 40.1919 78.0603 40.7508L81.7742 39.2652C81.784 39.2899 81.8036 39.3475 81.8126 39.4335C81.8219 39.5221 81.8183 39.6241 81.7947 39.7303L77.89 38.8626ZM78.0199 40.6405C78.0826 40.8287 78.1635 41.1379 78.2557 41.5987L82.178 40.8142C82.0704 40.2763 81.9516 39.7865 81.8146 39.3756L78.0199 40.6405ZM78.2557 41.5986C78.2907 41.7738 78.3093 42.1341 78.2066 42.7501L82.1522 43.4077C82.2992 42.5257 82.3427 41.6377 82.178 40.8142L78.2557 41.5986ZM78.2103 42.7288C78.1145 43.2677 77.8968 43.5334 77.5066 43.7335L79.3319 47.2928C80.889 46.4942 81.8448 45.1371 82.1485 43.429L78.2103 42.7288ZM77.5066 43.7335C76.9764 44.0054 76.2306 44.1534 75.1515 44.016L74.6464 47.984C76.3136 48.1962 77.9146 48.0196 79.3319 47.2928L77.5066 43.7335ZM88.601 33.0711L86.6536 26.9668L82.8429 28.1825L84.7903 34.2869L88.601 33.0711ZM86.7094 27.1824C86.6147 26.7087 86.4025 26.1008 85.9003 25.5987L83.0719 28.4271C82.944 28.2993 82.8713 28.1751 82.8329 28.0928C82.8138 28.0517 82.8023 28.0193 82.7958 27.9988C82.7925 27.9883 82.7903 27.9804 82.789 27.9751C82.7877 27.9699 82.7871 27.9671 82.7871 27.9669L86.7094 27.1824ZM86.1502 25.9035C85.5462 24.9975 84.5977 24.7882 83.9618 24.7882V28.7882C83.8965 28.7882 83.7187 28.7797 83.4923 28.6827C83.2441 28.5763 82.9996 28.3888 82.822 28.1223L86.1502 25.9035ZM83.9618 24.7882C83.2983 24.7882 82.4702 25.0047 81.8636 25.7325L84.9365 28.2933C84.7789 28.4824 84.5806 28.6199 84.3769 28.7014C84.1854 28.778 84.0329 28.7882 83.9618 28.7882V24.7882ZM81.8383 25.7635C81.509 26.1752 81.3302 26.6402 81.2223 27L85.0536 28.1494C85.07 28.0945 85.0782 28.0795 85.072 28.0928C85.0684 28.1004 85.0591 28.1196 85.0425 28.1472C85.026 28.1748 84.9998 28.2148 84.9618 28.2623L81.8383 25.7635ZM81.2292 26.9775L79.3192 33.0818L83.1367 34.2762L85.0467 28.1719L81.2292 26.9775ZM81.228 35.679H86.6957V31.679H81.228V35.679ZM113.331 44.8765L111.87 46.2428L111.881 46.2548L111.893 46.2665L113.331 44.8765ZM112.17 41.8805L114.168 41.7989L114.168 41.7865L112.17 41.8805ZM110.559 37.3865L109.184 38.8384L109.203 38.857L109.224 38.875L110.559 37.3865ZM105.991 36.0383V34.0383H103.991V36.0383H105.991ZM104.942 44.9889L103.554 43.5492L103.554 43.5492L104.942 44.9889ZM99.287 44.9889L100.675 43.5492L100.675 43.5492L99.287 44.9889ZM99.3993 30.7205L97.6706 29.7147L97.6638 29.7265L97.657 29.7384L99.3993 30.7205ZM102.433 27.7619L103.313 29.558L104.784 28.8374L104.367 27.2529L102.433 27.7619ZM102.246 27.0504L104.18 26.5414L103.787 25.0504H102.246V27.0504ZM98.9125 25.9643L97.4011 27.2742L97.4244 27.3011L97.4487 27.3272L98.9125 25.9643ZM97.8639 22.9309L95.8643 22.9709L95.8647 22.9901L95.8654 23.0093L97.8639 22.9309ZM117.675 20.6839L118.913 19.1129L118.913 19.1129L117.675 20.6839ZM119.398 30.6081L121.177 31.5207L121.182 31.5117L121.186 31.5025L119.398 30.6081ZM117.488 32.8551L116.366 31.1993L116.366 31.1993L117.488 32.8551ZM115.053 33.7913L114.82 31.805L113.053 32.0128V33.7913H115.053ZM115.053 34.2782H113.053V35.852L114.583 36.2221L115.053 34.2782ZM118.873 36.7499L117.3 37.9842L117.307 37.9936L117.315 38.003L118.873 36.7499ZM119.285 44.9889L120.648 46.4526L120.65 46.451L119.285 44.9889ZM106.103 31.3946L104.786 32.8997L104.786 32.8997L106.103 31.3946ZM113.031 26.938L111.617 28.3522L111.617 28.3522L113.031 26.938ZM106.103 26.4512L104.903 24.8512L104.903 24.8512L106.103 26.4512ZM116.289 44C115.467 44 115.042 43.7696 114.769 43.4865L111.893 46.2665C113.067 47.4814 114.614 48 116.289 48V44ZM114.791 43.5102C114.445 43.1398 114.202 42.6222 114.168 41.799L110.171 41.9621C110.238 43.5855 110.769 45.0653 111.87 46.2428L114.791 43.5102ZM114.168 41.7865C114.058 39.4493 113.455 37.2978 111.895 35.898L109.224 38.875C109.611 39.2229 110.082 40.0674 110.172 41.9745L114.168 41.7865ZM111.935 35.9346C110.536 34.6091 108.729 34.0383 106.74 34.0383V38.0383C107.946 38.0383 108.686 38.3664 109.184 38.8384L111.935 35.9346ZM106.74 34.0383H105.991V38.0383H106.74V34.0383ZM103.991 36.0383V42.0303H107.991V36.0383H103.991ZM103.991 42.0303C103.991 42.9754 103.743 43.3661 103.554 43.5492L106.33 46.4285C107.538 45.2634 107.991 43.6817 107.991 42.0303H103.991ZM103.554 43.5492C103.294 43.7993 102.902 44 102.171 44V48C103.736 48 105.191 47.5266 106.33 46.4285L103.554 43.5492ZM102.171 44C101.324 44 100.911 43.7766 100.675 43.5492L97.8987 46.4285C99.061 47.5493 100.57 48 102.171 48V44ZM100.675 43.5492C100.485 43.3661 100.238 42.9754 100.238 42.0303H96.2384C96.2384 43.6817 96.6904 45.2634 97.8987 46.4285L100.675 43.5492ZM100.238 42.0303V36.7499H96.2384V42.0303H100.238ZM100.238 36.7499C100.238 34.2414 100.615 32.6367 101.142 31.7025L97.657 29.7384C96.6357 31.5505 96.2384 33.9655 96.2384 36.7499H100.238ZM101.128 31.7262C101.762 30.6365 102.5 29.956 103.313 29.558L101.553 25.9658C99.9189 26.7662 98.6345 28.0581 97.6706 29.7147L101.128 31.7262ZM104.367 27.2529L104.18 26.5414L100.311 27.5594L100.499 28.2709L104.367 27.2529ZM102.246 25.0504H101.646V29.0504H102.246V25.0504ZM101.646 25.0504C100.955 25.0504 100.61 24.8528 100.376 24.6015L97.4487 27.3272C98.563 28.524 100.04 29.0504 101.646 29.0504V25.0504ZM100.424 24.6545C100.148 24.3365 99.8997 23.8034 99.8624 22.8525L95.8654 23.0093C95.928 24.605 96.3785 26.0942 97.4011 27.2742L100.424 24.6545ZM99.8635 22.8909C99.8466 22.0451 100.067 21.5619 100.359 21.238L97.3908 18.5569C96.2853 19.7809 95.8313 21.32 95.8643 22.9709L99.8635 22.8909ZM100.359 21.238C100.638 20.9291 101 20.7365 101.646 20.7365V16.7365C99.9961 16.7365 98.5099 17.3179 97.3908 18.5569L100.359 21.238ZM101.646 20.7365H111.196V16.7365H101.646V20.7365ZM111.196 20.7365C113.543 20.7365 115.229 21.3029 116.437 22.2549L118.913 19.1129C116.825 17.4684 114.192 16.7365 111.196 16.7365V20.7365ZM116.437 22.2549C117.446 23.0497 118.147 24.4336 118.147 26.9006H122.147C122.147 23.6751 121.199 20.9146 118.913 19.1129L116.437 22.2549ZM118.147 26.9006C118.147 28.1582 117.932 29.0669 117.609 29.7137L121.186 31.5025C121.862 30.152 122.147 28.589 122.147 26.9006H118.147ZM117.618 29.6955C117.246 30.4213 116.818 30.8933 116.366 31.1993L118.609 34.5109C119.706 33.7683 120.551 32.7423 121.177 31.5207L117.618 29.6955ZM116.366 31.1993C115.832 31.561 115.321 31.746 114.82 31.805L115.287 35.7776C116.483 35.6369 117.595 35.1978 118.609 34.5109L116.366 31.1993ZM113.053 33.7913V34.2782H117.053V33.7913H113.053ZM114.583 36.2221C115.686 36.489 116.574 37.0586 117.3 37.9842L120.447 35.5156C119.176 33.8946 117.516 32.8164 115.524 32.3343L114.583 36.2221ZM117.315 38.003C117.974 38.823 118.409 40.045 118.409 41.8805H122.409C122.409 39.4218 121.82 37.2234 120.432 35.4968L117.315 38.003ZM118.409 41.8805C118.409 42.896 118.14 43.3219 117.921 43.5267L120.65 46.451C121.928 45.2576 122.409 43.6114 122.409 41.8805H118.409ZM117.922 43.5251C117.665 43.7643 117.207 44 116.289 44V48C117.918 48 119.457 47.5616 120.648 46.4526L117.922 43.5251ZM103.803 30.3085C103.803 30.688 103.836 31.1098 103.95 31.5238C104.063 31.932 104.293 32.4684 104.786 32.8997L107.42 29.8894C107.713 30.146 107.793 30.4139 107.806 30.4601C107.82 30.5121 107.803 30.4783 107.803 30.3085H103.803ZM104.786 32.8997C105.58 33.5948 106.627 33.6567 107.226 33.6567V29.6567C107.141 29.6567 107.078 29.6533 107.036 29.6492C106.992 29.6451 106.978 29.6412 106.988 29.6435C106.997 29.6455 107.044 29.6571 107.116 29.6899C107.188 29.7229 107.299 29.7838 107.42 29.8894L104.786 32.8997ZM107.226 33.6567H110.747V29.6567H107.226V33.6567ZM110.747 33.6567C112.035 33.6567 113.431 33.3735 114.445 32.3594L111.617 29.5309C111.682 29.4656 111.555 29.6567 110.747 29.6567V33.6567ZM114.445 32.3594C115.388 31.4168 115.743 30.1915 115.743 28.9603H111.743C111.743 29.4268 111.623 29.5248 111.617 29.5309L114.445 32.3594ZM115.743 28.9603C115.743 27.7232 115.398 26.4769 114.445 25.5238L111.617 28.3522C111.629 28.3641 111.652 28.3897 111.678 28.4632C111.707 28.5455 111.743 28.7009 111.743 28.9603H115.743ZM114.445 25.5238C113.431 24.5097 112.035 24.2265 110.747 24.2265V28.2265C111.555 28.2265 111.682 28.4176 111.617 28.3522L114.445 25.5238ZM110.747 24.2265H107.226V28.2265H110.747V24.2265ZM107.226 24.2265C106.872 24.2265 106.5 24.2497 106.141 24.3215C105.802 24.3894 105.335 24.5274 104.903 24.8512L107.303 28.0512C107.179 28.144 107.073 28.1924 107.014 28.2154C106.955 28.2386 106.921 28.2448 106.926 28.2438C106.929 28.2431 106.955 28.2383 107.009 28.234C107.062 28.2297 107.133 28.2265 107.226 28.2265V24.2265ZM104.903 24.8512C104.31 25.296 104.061 25.9004 103.95 26.3032C103.834 26.7232 103.803 27.1546 103.803 27.5372H107.803C107.803 27.3457 107.822 27.3089 107.806 27.3669C107.795 27.4077 107.696 27.7561 107.303 28.0512L104.903 24.8512ZM103.803 27.5372V30.3085H107.803V27.5372H103.803ZM122.525 25.9643L121.159 27.4249L121.17 27.4357L121.182 27.4463L122.525 25.9643ZM122.413 19.9724L120.952 18.606L120.95 18.6077L122.413 19.9724ZM144.882 19.9724L143.398 21.3129L143.421 21.3381L143.445 21.3624L144.882 19.9724ZM144.77 25.9643L143.427 24.4824L143.415 24.493L143.404 24.5038L144.77 25.9643ZM139.677 26.7882L138.934 28.6452L138.989 28.667L139.044 28.6856L139.677 26.7882ZM138.441 26.1141L137.149 27.6409L137.185 27.671L137.222 27.6994L138.441 26.1141ZM137.505 25.44L136.395 27.1041L136.445 27.1374L136.497 27.1676L137.505 25.44ZM136.381 25.1404V23.1404H135.145L134.593 24.246L136.381 25.1404ZM136.044 25.8145L134.255 24.9201L133.833 25.7643L134.217 26.6268L136.044 25.8145ZM136.569 26.7882L134.845 27.8023L134.858 27.8254L134.873 27.8482L136.569 26.7882ZM137.28 28.5484L135.359 29.106L135.362 29.1145L135.365 29.1231L137.28 28.5484ZM136.456 44.9889L135.143 43.4807L135.13 43.4914L135.118 43.5023L136.456 44.9889ZM130.839 44.9889L129.501 46.4754L129.513 46.4863L129.525 46.497L130.839 44.9889ZM130.052 28.5484L131.968 29.1231L131.971 29.1145L131.973 29.106L130.052 28.5484ZM130.764 26.7882L129.085 25.7017L129.076 25.7149L129.068 25.7282L130.764 26.7882ZM131.326 25.8145L133.153 26.6268L133.558 25.7152L133.074 24.8432L131.326 25.8145ZM130.951 25.1404L132.699 24.1691L132.128 23.1404H130.951V25.1404ZM129.828 25.44L130.835 27.1676L130.887 27.1374L130.937 27.1041L129.828 25.44ZM128.891 26.1141L130.111 27.6994L130.148 27.671L130.183 27.6409L128.891 26.1141ZM127.656 26.7882L128.316 28.6759L128.358 28.6615L128.398 28.6452L127.656 26.7882ZM125.596 25.0504C124.76 25.0504 124.241 24.8209 123.868 24.4824L121.182 27.4463C122.406 28.5558 123.935 29.0504 125.596 29.0504V25.0504ZM123.891 24.5038C123.602 24.2331 123.364 23.8086 123.364 22.9683H119.364C119.364 24.6746 119.9 26.2475 121.159 27.4249L123.891 24.5038ZM123.364 22.9683C123.364 22.11 123.593 21.6384 123.875 21.337L120.95 18.6077C119.834 19.8043 119.364 21.3301 119.364 22.9683H123.364ZM123.873 21.3387C124.109 21.0868 124.566 20.8114 125.596 20.8114V16.8114C123.829 16.8114 122.164 17.31 120.952 18.606L123.873 21.3387ZM125.596 20.8114H141.737V16.8114H125.596V20.8114ZM141.737 20.8114C142.771 20.8114 143.195 21.0883 143.398 21.3129L146.367 18.6318C145.171 17.3084 143.499 16.8114 141.737 16.8114V20.8114ZM143.445 21.3624C143.738 21.6665 143.969 22.1291 143.969 22.9683H147.969C147.969 21.3109 147.475 19.7762 146.32 18.5823L143.445 21.3624ZM143.969 22.9683C143.969 23.7887 143.732 24.2065 143.427 24.4824L146.113 27.4463C147.407 26.2741 147.969 24.6946 147.969 22.9683H143.969ZM143.404 24.5038C143.065 24.8207 142.574 25.0504 141.737 25.0504V29.0504C143.396 29.0504 144.927 28.5561 146.136 27.4249L143.404 24.5038ZM141.737 25.0504C141 25.0504 140.551 24.9715 140.309 24.8909L139.044 28.6856C139.851 28.9545 140.775 29.0504 141.737 29.0504V25.0504ZM140.42 24.9313C140.041 24.7798 139.802 24.6378 139.661 24.5289L137.222 27.6994C137.729 28.0898 138.314 28.3972 138.934 28.6452L140.42 24.9313ZM139.733 24.5874C139.339 24.2538 138.932 23.9571 138.513 23.7125L136.497 27.1676C136.677 27.2725 136.894 27.4252 137.149 27.6409L139.733 24.5874ZM138.614 23.7759C137.913 23.3084 137.127 23.1404 136.381 23.1404V27.1404C136.459 27.1404 136.489 27.1492 136.484 27.1478C136.481 27.147 136.47 27.1439 136.454 27.1366C136.437 27.1292 136.417 27.1185 136.395 27.1041L138.614 23.7759ZM134.593 24.246L134.255 24.9201L137.833 26.709L138.17 26.0349L134.593 24.246ZM134.217 26.6268C134.364 26.9592 134.587 27.3635 134.845 27.8023L138.292 25.7742C138.051 25.364 137.924 25.1192 137.872 25.0023L134.217 26.6268ZM134.873 27.8482C134.979 28.0192 135.155 28.4026 135.359 29.106L139.201 27.9907C138.956 27.1462 138.657 26.3562 138.265 25.7282L134.873 27.8482ZM135.365 29.1231C135.509 29.6033 135.617 30.4054 135.617 31.6193H139.617C139.617 30.2366 139.501 28.9914 139.196 27.9737L135.365 29.1231ZM135.617 31.6193V42.4423H139.617V31.6193H135.617ZM135.617 42.4423C135.617 42.8858 135.482 43.1853 135.143 43.4807L137.77 46.497C138.979 45.4443 139.617 44.046 139.617 42.4423H135.617ZM135.118 43.5023C134.771 43.8149 134.338 44 133.685 44V48C135.229 48 136.644 47.511 137.794 46.4754L135.118 43.5023ZM133.685 44C132.995 44 132.527 43.8067 132.152 43.4807L129.525 46.497C130.699 47.5192 132.128 48 133.685 48V44ZM132.177 43.5023C131.857 43.2143 131.715 42.9092 131.715 42.4423H127.715C127.715 44.0226 128.323 45.4153 129.501 46.4754L132.177 43.5023ZM131.715 42.4423V31.6193H127.715V42.4423H131.715ZM131.715 31.6193C131.715 30.4054 131.824 29.6033 131.968 29.1231L128.137 27.9737C127.831 28.9914 127.715 30.2366 127.715 31.6193H131.715ZM131.973 29.106C132.177 28.4026 132.353 28.0192 132.46 27.8482L129.068 25.7282C128.675 26.3562 128.377 27.1462 128.132 27.9907L131.973 29.106ZM132.443 27.8747C132.728 27.434 132.987 27.0013 133.153 26.6268L129.498 25.0023C129.465 25.0772 129.349 25.2936 129.085 25.7017L132.443 27.8747ZM133.074 24.8432L132.699 24.1691L129.203 26.1117L129.577 26.7858L133.074 24.8432ZM130.951 23.1404C130.205 23.1404 129.42 23.3084 128.718 23.7759L130.937 27.1041C130.915 27.1185 130.895 27.1292 130.879 27.1366C130.862 27.1439 130.851 27.147 130.849 27.1478C130.843 27.1492 130.873 27.1404 130.951 27.1404V23.1404ZM128.82 23.7125C128.4 23.9571 127.994 24.2538 127.6 24.5874L130.183 27.6409C130.438 27.4252 130.656 27.2725 130.835 27.1676L128.82 23.7125ZM127.672 24.5289C127.53 24.6378 127.292 24.7798 126.913 24.9313L128.398 28.6452C129.018 28.3972 129.603 28.0898 130.111 27.6994L127.672 24.5289ZM126.995 24.9005C126.801 24.9682 126.371 25.0504 125.596 25.0504V29.0504C126.568 29.0504 127.511 28.9577 128.316 28.6759L126.995 24.9005Z" fill="#AF2F28" mask="url(#path-5-outside-1_292_989)"/>
<defs>
<linearGradient id="paint0_linear_292_989" x1="86.5001" y1="55.9017" x2="86.5001" y2="5.45558" gradientUnits="userSpaceOnUse">
<stop stop-color="#D83E31"/>
<stop offset="0.095" stop-color="#DC4734"/>
<stop offset="1" stop-color="#FF9753"/>
</linearGradient>
</defs>
</svg>
