<svg width="82" height="87" viewBox="0 0 82 87" fill="none" xmlns="http://www.w3.org/2000/svg">
<path d="M77.553 56.1861V23.868C78.9495 23.868 80.0816 23.0856 80.0816 22.1205V4.81773C80.0816 2.69733 77.5943 0.978394 74.5262 0.978394H7.46838C4.40022 0.978394 1.91309 2.69733 1.91309 4.81765V22.1205C1.91309 23.0856 3.04517 23.868 4.44163 23.868L4.44175 56.1861C3.04528 56.1861 1.91309 56.9685 1.91309 57.9336V75.2365C1.91309 77.3569 4.40034 79.0758 7.4685 79.0758H74.5264C77.5945 79.0758 80.0817 77.357 80.0817 75.2366V57.9336C80.0816 56.9685 78.9495 56.1861 77.553 56.1861Z" fill="url(#paint0_linear_292_988)"/>
<g opacity="0.5">
<path d="M74.5262 0.978394H7.46838C4.40022 0.978394 1.91309 2.69725 1.91309 4.81773V5.63827C1.91309 3.51779 4.40034 1.79893 7.46838 1.79893H74.5263C77.5945 1.79893 80.0817 3.51795 80.0817 5.63827V4.81773C80.0816 2.69725 77.5943 0.978394 74.5262 0.978394Z" fill="white"/>
</g>
<path d="M74.5261 0.978382C77.5943 0.978382 80.0815 2.69732 80.0815 4.81772V22.1206C80.0815 23.0857 78.9494 23.868 77.553 23.868V56.1862C78.9494 56.1862 80.0815 56.9686 80.0815 57.9336V75.2365C80.0815 77.3569 77.5944 79.0758 74.5262 79.0758H7.4683C4.40014 79.0758 1.91289 77.3569 1.91289 75.2365V57.9336C1.91289 56.9685 3.04497 56.1862 4.44143 56.1862H4.44155V23.868H4.44143C3.04497 23.868 1.91289 23.0856 1.91289 22.1205V4.81772C1.91289 2.69732 4.40014 0.978465 7.46818 0.978465H74.5261M74.5261 0H7.4683C3.62446 0 0.497314 2.16117 0.497314 4.81764V22.1205C0.497314 23.2788 1.54835 24.2708 3.02586 24.6648L3.02598 55.3892C1.54835 55.7831 0.497314 56.7751 0.497314 57.9334V75.2363C0.497314 77.8928 3.62458 80.054 7.46842 80.054H74.5263C78.3702 80.054 81.4973 77.8929 81.4973 75.2364V57.9336C81.4973 56.7752 80.4464 55.7833 78.9688 55.3893V24.6649C80.4463 24.2708 81.4973 23.2789 81.4973 22.1206V4.81772C81.4972 2.16125 78.3701 0 74.5261 0Z" fill="#AF2F28"/>
<g opacity="0.5">
<mask id="mask0_292_988" style="mask-type:luminance" maskUnits="userSpaceOnUse" x="1" y="0" width="80" height="80">
<path d="M77.553 56.1861V23.868C78.9495 23.868 80.0816 23.0856 80.0816 22.1205V4.81773C80.0816 2.69733 77.5943 0.978394 74.5262 0.978394H7.46838C4.40022 0.978394 1.91309 2.69733 1.91309 4.81765V22.1205C1.91309 23.0856 3.04517 23.868 4.44163 23.868H4.44175V56.1861H4.44163C3.04517 56.1861 1.91309 56.9685 1.91309 57.9336V75.2365C1.91309 77.3569 4.40034 79.0758 7.4685 79.0758H74.5264C77.5945 79.0758 80.0817 77.357 80.0817 75.2366V57.9336C80.0816 56.9685 78.9495 56.1861 77.553 56.1861Z" fill="white"/>
</mask>
<g mask="url(#mask0_292_988)">
<path d="M13.3581 84.2938H10.5267V64.1543H17.732V50.0784H8.57788V25.6966H20.7559V10.498H13.2057V-5.97986H16.0369V8.54121H23.5873V27.6533H11.4093V48.1217H20.5634V66.111H13.3581V84.2938Z" fill="white"/>
</g>
<mask id="mask1_292_988" style="mask-type:luminance" maskUnits="userSpaceOnUse" x="1" y="0" width="80" height="80">
<path d="M77.553 56.1861V23.868C78.9495 23.868 80.0816 23.0856 80.0816 22.1205V4.81773C80.0816 2.69733 77.5943 0.978394 74.5262 0.978394H7.46838C4.40022 0.978394 1.91309 2.69733 1.91309 4.81765V22.1205C1.91309 23.0856 3.04517 23.868 4.44163 23.868H4.44175V56.1861H4.44163C3.04517 56.1861 1.91309 56.9685 1.91309 57.9336V75.2365C1.91309 77.3569 4.40034 79.0758 7.4685 79.0758H74.5264C77.5945 79.0758 80.0817 77.357 80.0817 75.2366V57.9336C80.0816 56.9685 78.9495 56.1861 77.553 56.1861Z" fill="white"/>
</mask>
<g mask="url(#mask1_292_988)">
<path d="M45.1952 87.44H42.3639V53.1335H49.9838V40.1354H34.7439V17.1121H44.5938V-5.30652H47.4252V19.0689H37.5753V38.1787H52.8152V55.0902H45.1952V87.44Z" fill="white"/>
</g>
<mask id="mask2_292_988" style="mask-type:luminance" maskUnits="userSpaceOnUse" x="1" y="0" width="80" height="80">
<path d="M77.553 56.1861V23.868C78.9495 23.868 80.0816 23.0856 80.0816 22.1205V4.81773C80.0816 2.69733 77.5943 0.978394 74.5262 0.978394H7.46838C4.40022 0.978394 1.91309 2.69733 1.91309 4.81765V22.1205C1.91309 23.0856 3.04517 23.868 4.44163 23.868H4.44175V56.1861H4.44163C3.04517 56.1861 1.91309 56.9685 1.91309 57.9336V75.2365C1.91309 77.3569 4.40034 79.0758 7.4685 79.0758H74.5264C77.5945 79.0758 80.0817 77.357 80.0817 75.2366V57.9336C80.0816 56.9685 78.9495 56.1861 77.553 56.1861Z" fill="white"/>
</mask>
<g mask="url(#mask2_292_988)">
<path d="M64.0189 84.2938H61.1875V58.0149H66.1559V38.9311H60.0022V19.0545L64.4876 15.9547V-5.30652H67.319V16.7652L62.8336 19.8651V36.9744H68.9872V59.9716H64.0189V84.2938Z" fill="white"/>
</g>
</g>
<path d="M68.9531 74.4789H13.0408C10.5229 74.4789 8.48169 73.0683 8.48169 71.3281V16.3598C8.48169 14.6197 10.5229 13.209 13.0408 13.209H68.9531C71.471 13.209 73.5122 14.6197 73.5122 16.3598V71.3281C73.5122 73.0683 71.471 74.4789 68.9531 74.4789Z" fill="#FFE7C9"/>
<path d="M68.9531 74.9682H13.0409C10.1367 74.9682 7.77393 73.3353 7.77393 71.3282V16.3599C7.77393 14.3528 10.1367 12.7198 13.0409 12.7198H68.9531C71.8572 12.7198 74.22 14.3528 74.22 16.3599V71.3281C74.22 73.3353 71.8572 74.9682 68.9531 74.9682ZM13.0409 13.6983C10.9174 13.6983 9.18962 14.8923 9.18962 16.36V71.3282C9.18962 72.7959 10.9174 73.9898 13.0409 73.9898H68.9531C71.0766 73.9898 72.8043 72.7958 72.8043 71.3282V16.3599C72.8043 14.8923 71.0766 13.6982 68.9531 13.6982H13.0409V13.6983Z" fill="#AF2F28"/>
<path d="M6.92185 6.08311C8.15531 6.08311 9.15522 5.39207 9.15522 4.53963C9.15522 3.68719 8.15531 2.99615 6.92185 2.99615C5.68839 2.99615 4.68848 3.68719 4.68848 4.53963C4.68848 5.39207 5.68839 6.08311 6.92185 6.08311Z" fill="#AF2F28"/>
<path d="M75.0727 6.08311C76.3062 6.08311 77.3061 5.39207 77.3061 4.53963C77.3061 3.68719 76.3062 2.99615 75.0727 2.99615C73.8393 2.99615 72.8394 3.68719 72.8394 4.53963C72.8394 5.39207 73.8393 6.08311 75.0727 6.08311Z" fill="#AF2F28"/>
<path d="M6.92185 77.5659C8.15531 77.5659 9.15522 76.8749 9.15522 76.0224C9.15522 75.17 8.15531 74.4789 6.92185 74.4789C5.68839 74.4789 4.68848 75.17 4.68848 76.0224C4.68848 76.8749 5.68839 77.5659 6.92185 77.5659Z" fill="#AF2F28"/>
<path d="M75.0727 77.5659C76.3062 77.5659 77.3061 76.8749 77.3061 76.0224C77.3061 75.17 76.3062 74.4789 75.0727 74.4789C73.8393 74.4789 72.8394 75.17 72.8394 76.0224C72.8394 76.8749 73.8393 77.5659 75.0727 77.5659Z" fill="#AF2F28"/>
<mask id="path-16-outside-1_292_988" maskUnits="userSpaceOnUse" x="23.8403" y="2.22375" width="36" height="9" fill="black">
<rect fill="white" x="23.8403" y="2.22375" width="36" height="9"/>
<path d="M26.0493 10.2238C25.7631 10.2238 25.5354 10.1449 25.366 9.98721C25.2024 9.82952 25.1207 9.59882 25.1207 9.29511V8.05984C25.1207 7.44074 25.2141 6.97058 25.401 6.64935C25.5879 6.32812 25.8245 6.09742 26.1106 5.95724L26.0668 5.79079H25.9179C25.6492 5.79079 25.4361 5.7061 25.2784 5.53672C25.1265 5.36151 25.0477 5.12497 25.0418 4.8271C25.036 4.53507 25.1119 4.30145 25.2696 4.12623C25.4331 3.95102 25.6492 3.86341 25.9179 3.86341H28.9842C29.6091 3.86341 29.9216 4.15544 29.9216 4.73949C29.9216 5.00231 29.8457 5.21257 29.6938 5.37027C29.542 5.52796 29.3054 5.60681 28.9842 5.60681H27.2758C27.0597 5.60681 26.9517 5.73238 26.9517 5.98352V6.6143C27.2262 6.53838 27.5124 6.45077 27.8102 6.35148C28.1081 6.25219 28.3943 6.20255 28.6688 6.20255C28.9608 6.20255 29.1857 6.27555 29.3434 6.42157C29.5069 6.56174 29.5887 6.77784 29.5887 7.06986C29.5887 7.35605 29.5069 7.57215 29.3434 7.71816C29.1857 7.85834 28.9608 7.93134 28.6688 7.93718C28.3943 7.94303 28.1052 7.89922 27.8015 7.80577C27.5036 7.70648 27.2174 7.61888 26.9429 7.54295L26.9342 9.29511C26.9342 9.59882 26.8524 9.82952 26.6889 9.98721C26.5312 10.1449 26.318 10.2238 26.0493 10.2238ZM30.3139 4.69569C30.3139 4.42702 30.3956 4.21968 30.5592 4.07367C30.7285 3.92182 30.9446 3.84589 31.2075 3.84589C31.482 3.84589 31.701 3.92182 31.8645 4.07367C32.028 4.21968 32.1098 4.42702 32.1098 4.69569V8.42779C32.1098 8.53876 32.139 8.61761 32.1974 8.66433C32.2558 8.70522 32.3522 8.68769 32.4865 8.61177C32.7786 8.44239 33.0385 8.30806 33.2662 8.20877C33.494 8.10364 33.7452 8.05108 34.0197 8.05108C34.3993 8.05108 34.6855 8.15036 34.8782 8.34894C35.071 8.54752 35.1673 8.80742 35.1673 9.12865C35.1673 9.47325 35.0622 9.73899 34.8519 9.92589C34.6475 10.1128 34.3175 10.2062 33.862 10.2062H32.0573C31.6718 10.2062 31.3505 10.1624 31.0936 10.0748C30.8366 9.98137 30.6409 9.81492 30.5066 9.57546C30.3781 9.33599 30.3139 8.98848 30.3139 8.53292V4.69569ZM37.8748 10.25C37.2498 10.25 36.7213 10.1128 36.2891 9.83828C35.8569 9.56377 35.5298 9.18414 35.3079 8.69937C35.0859 8.21461 34.9749 7.65684 34.9749 7.02606C34.9749 6.40112 35.0859 5.84627 35.3079 5.36151C35.5298 4.8709 35.8569 4.48835 36.2891 4.21384C36.7213 3.9335 37.2498 3.79332 37.8748 3.79332C38.4997 3.79332 39.0254 3.9335 39.4517 4.21384C39.8839 4.48835 40.211 4.8709 40.4329 5.36151C40.6549 5.84627 40.7658 6.40112 40.7658 7.02606C40.7658 7.65684 40.6549 8.21461 40.4329 8.69937C40.211 9.18414 39.8839 9.56377 39.4517 9.83828C39.0254 10.1128 38.4997 10.25 37.8748 10.25ZM36.0788 6.88589C36.0788 7.06694 36.1226 7.23924 36.2102 7.40278C36.2978 7.56047 36.4701 7.68896 36.7271 7.78825C36.9841 7.8817 37.3666 7.92842 37.8748 7.92842C38.3829 7.92842 38.7625 7.8817 39.0137 7.78825C39.2707 7.68896 39.443 7.56047 39.5306 7.40278C39.6182 7.23924 39.662 7.06694 39.662 6.88589C39.662 6.69899 39.6182 6.53254 39.5306 6.38652C39.443 6.23467 39.2707 6.11494 39.0137 6.02733C38.7625 5.93388 38.3829 5.88716 37.8748 5.88716C37.3666 5.88716 36.9841 5.93388 36.7271 6.02733C36.4701 6.11494 36.2978 6.23467 36.2102 6.38652C36.1226 6.53254 36.0788 6.69899 36.0788 6.88589ZM44.0176 10.25C43.3927 10.25 42.8641 10.1128 42.4319 9.83828C41.9997 9.56377 41.6726 9.18414 41.4507 8.69937C41.2287 8.21461 41.1178 7.65684 41.1178 7.02606C41.1178 6.40112 41.2287 5.84627 41.4507 5.36151C41.6726 4.8709 41.9997 4.48835 42.4319 4.21384C42.8641 3.9335 43.3927 3.79332 44.0176 3.79332C44.6425 3.79332 45.1682 3.9335 45.5945 4.21384C46.0267 4.48835 46.3538 4.8709 46.5758 5.36151C46.7977 5.84627 46.9087 6.40112 46.9087 7.02606C46.9087 7.65684 46.7977 8.21461 46.5758 8.69937C46.3538 9.18414 46.0267 9.56377 45.5945 9.83828C45.1682 10.1128 44.6425 10.25 44.0176 10.25ZM42.2216 6.88589C42.2216 7.06694 42.2654 7.23924 42.353 7.40278C42.4407 7.56047 42.6129 7.68896 42.8699 7.78825C43.1269 7.8817 43.5095 7.92842 44.0176 7.92842C44.5257 7.92842 44.9054 7.8817 45.1565 7.78825C45.4135 7.68896 45.5858 7.56047 45.6734 7.40278C45.761 7.23924 45.8048 7.06694 45.8048 6.88589C45.8048 6.69899 45.761 6.53254 45.6734 6.38652C45.5858 6.23467 45.4135 6.11494 45.1565 6.02733C44.9054 5.93388 44.5257 5.88716 44.0176 5.88716C43.5095 5.88716 43.1269 5.93388 42.8699 6.02733C42.6129 6.11494 42.4407 6.23467 42.353 6.38652C42.2654 6.53254 42.2216 6.69899 42.2216 6.88589ZM51.5544 10.2238C51.2624 10.2238 51.0317 10.1361 50.8623 9.96093C50.6929 9.77987 50.6024 9.54625 50.5907 9.26007C50.5674 8.76362 50.4418 8.41319 50.214 8.20877C49.9921 7.99851 49.6942 7.89338 49.3204 7.89338H49.1452V9.29511C49.1452 9.59882 49.0634 9.82952 48.8999 9.98721C48.7364 10.1449 48.5203 10.2238 48.2516 10.2238C47.9654 10.2238 47.7406 10.1449 47.577 9.98721C47.4135 9.82952 47.3317 9.59882 47.3317 9.29511V8.05984C47.3317 7.44074 47.4222 6.97058 47.6033 6.64935C47.7902 6.32812 48.0267 6.09742 48.3129 5.95724L48.2691 5.79079H48.1289C47.8603 5.79079 47.6471 5.7061 47.4894 5.53672C47.3376 5.36151 47.2558 5.12497 47.2441 4.8271C47.2383 4.53507 47.3171 4.29853 47.4806 4.11747C47.6442 3.93642 47.8603 3.84589 48.1289 3.84589H50.363C50.9879 3.84589 51.4931 3.99774 51.8786 4.30145C52.264 4.60516 52.4568 5.08992 52.4568 5.75574C52.4568 6.10034 52.3984 6.38944 52.2816 6.62306C52.1648 6.85084 52.0158 7.02606 51.8348 7.14871C51.6537 7.27136 51.4639 7.34437 51.2653 7.36773V7.48162C51.6274 7.56923 51.9253 7.76197 52.1589 8.05984C52.3984 8.3577 52.5181 8.75778 52.5181 9.26007C52.5181 9.5813 52.4305 9.82368 52.2553 9.98721C52.0859 10.1449 51.8523 10.2238 51.5544 10.2238ZM49.1014 6.55298C49.1014 6.68147 49.1248 6.76616 49.1715 6.80704C49.2182 6.84792 49.3058 6.86837 49.4343 6.86837H50.2578C50.5031 6.86837 50.6813 6.81288 50.7922 6.70191C50.9032 6.59094 50.9587 6.43617 50.9587 6.23759C50.9587 6.03317 50.9032 5.87548 50.7922 5.76451C50.6813 5.65353 50.5031 5.59805 50.2578 5.59805H49.4343C49.3058 5.59805 49.2182 5.61557 49.1715 5.65061C49.1248 5.68566 49.1014 5.77035 49.1014 5.90468V6.55298ZM55.7013 10.25C55.3742 10.25 55.0442 10.2179 54.7113 10.1537C54.3843 10.0836 54.0805 9.98429 53.8002 9.8558C53.5257 9.72147 53.3038 9.56085 53.1344 9.37396C52.965 9.18122 52.8803 8.95928 52.8803 8.70814C52.8803 8.38691 52.9825 8.12992 53.1869 7.93718C53.3914 7.74445 53.6308 7.65392 53.9053 7.6656C54.1214 7.67144 54.3375 7.71816 54.5536 7.80577C54.7697 7.88754 54.9888 7.96931 55.2107 8.05108C55.4385 8.13284 55.6663 8.17373 55.894 8.17373C56.1218 8.17373 56.2795 8.14452 56.3671 8.08612C56.4547 8.02771 56.4985 7.94887 56.4985 7.84958C56.4985 7.73277 56.4372 7.6364 56.3146 7.56047C56.1919 7.48454 56.0371 7.42614 55.8502 7.38525L55.421 7.28012C54.9771 7.17499 54.5799 7.05818 54.2295 6.92969C53.879 6.79536 53.6016 6.62014 53.3972 6.40404C53.1986 6.1821 53.0993 5.88716 53.0993 5.5192C53.0993 5.11621 53.2103 4.78914 53.4322 4.53799C53.6542 4.28101 53.955 4.09411 54.3346 3.9773C54.7142 3.86049 55.1377 3.80208 55.6049 3.80208C56.0839 3.80208 56.5044 3.85173 56.8665 3.95102C57.2286 4.05031 57.5089 4.1934 57.7075 4.3803C57.9119 4.56719 58.0141 4.79498 58.0141 5.06364C58.0141 5.34983 57.9353 5.57469 57.7776 5.73822C57.6258 5.89592 57.4213 5.97476 57.1644 5.97476C56.995 5.97476 56.8168 5.94556 56.6299 5.88716C56.4489 5.82875 56.2561 5.77327 56.0517 5.7207C55.8531 5.6623 55.64 5.63309 55.4122 5.63309C55.2078 5.63309 55.053 5.66522 54.9479 5.72946C54.8427 5.78787 54.7902 5.86671 54.7902 5.966C54.7902 6.08865 54.8603 6.17918 55.0004 6.23759C55.1406 6.29599 55.3713 6.36608 55.6925 6.44785L56.1831 6.56174C56.5861 6.66103 56.9395 6.78076 57.2432 6.92093C57.5469 7.0611 57.7834 7.24508 57.9528 7.47286C58.1222 7.70064 58.2069 7.99851 58.2069 8.36646C58.2069 8.81034 58.1018 9.17246 57.8915 9.4528C57.6812 9.72731 57.3892 9.92881 57.0154 10.0573C56.6416 10.1858 56.2036 10.25 55.7013 10.25Z"/>
</mask>
<path d="M26.0493 10.2238C25.7631 10.2238 25.5354 10.1449 25.366 9.98721C25.2024 9.82952 25.1207 9.59882 25.1207 9.29511V8.05984C25.1207 7.44074 25.2141 6.97058 25.401 6.64935C25.5879 6.32812 25.8245 6.09742 26.1106 5.95724L26.0668 5.79079H25.9179C25.6492 5.79079 25.4361 5.7061 25.2784 5.53672C25.1265 5.36151 25.0477 5.12497 25.0418 4.8271C25.036 4.53507 25.1119 4.30145 25.2696 4.12623C25.4331 3.95102 25.6492 3.86341 25.9179 3.86341H28.9842C29.6091 3.86341 29.9216 4.15544 29.9216 4.73949C29.9216 5.00231 29.8457 5.21257 29.6938 5.37027C29.542 5.52796 29.3054 5.60681 28.9842 5.60681H27.2758C27.0597 5.60681 26.9517 5.73238 26.9517 5.98352V6.6143C27.2262 6.53838 27.5124 6.45077 27.8102 6.35148C28.1081 6.25219 28.3943 6.20255 28.6688 6.20255C28.9608 6.20255 29.1857 6.27555 29.3434 6.42157C29.5069 6.56174 29.5887 6.77784 29.5887 7.06986C29.5887 7.35605 29.5069 7.57215 29.3434 7.71816C29.1857 7.85834 28.9608 7.93134 28.6688 7.93718C28.3943 7.94303 28.1052 7.89922 27.8015 7.80577C27.5036 7.70648 27.2174 7.61888 26.9429 7.54295L26.9342 9.29511C26.9342 9.59882 26.8524 9.82952 26.6889 9.98721C26.5312 10.1449 26.318 10.2238 26.0493 10.2238ZM30.3139 4.69569C30.3139 4.42702 30.3956 4.21968 30.5592 4.07367C30.7285 3.92182 30.9446 3.84589 31.2075 3.84589C31.482 3.84589 31.701 3.92182 31.8645 4.07367C32.028 4.21968 32.1098 4.42702 32.1098 4.69569V8.42779C32.1098 8.53876 32.139 8.61761 32.1974 8.66433C32.2558 8.70522 32.3522 8.68769 32.4865 8.61177C32.7786 8.44239 33.0385 8.30806 33.2662 8.20877C33.494 8.10364 33.7452 8.05108 34.0197 8.05108C34.3993 8.05108 34.6855 8.15036 34.8782 8.34894C35.071 8.54752 35.1673 8.80742 35.1673 9.12865C35.1673 9.47325 35.0622 9.73899 34.8519 9.92589C34.6475 10.1128 34.3175 10.2062 33.862 10.2062H32.0573C31.6718 10.2062 31.3505 10.1624 31.0936 10.0748C30.8366 9.98137 30.6409 9.81492 30.5066 9.57546C30.3781 9.33599 30.3139 8.98848 30.3139 8.53292V4.69569ZM37.8748 10.25C37.2498 10.25 36.7213 10.1128 36.2891 9.83828C35.8569 9.56377 35.5298 9.18414 35.3079 8.69937C35.0859 8.21461 34.9749 7.65684 34.9749 7.02606C34.9749 6.40112 35.0859 5.84627 35.3079 5.36151C35.5298 4.8709 35.8569 4.48835 36.2891 4.21384C36.7213 3.9335 37.2498 3.79332 37.8748 3.79332C38.4997 3.79332 39.0254 3.9335 39.4517 4.21384C39.8839 4.48835 40.211 4.8709 40.4329 5.36151C40.6549 5.84627 40.7658 6.40112 40.7658 7.02606C40.7658 7.65684 40.6549 8.21461 40.4329 8.69937C40.211 9.18414 39.8839 9.56377 39.4517 9.83828C39.0254 10.1128 38.4997 10.25 37.8748 10.25ZM36.0788 6.88589C36.0788 7.06694 36.1226 7.23924 36.2102 7.40278C36.2978 7.56047 36.4701 7.68896 36.7271 7.78825C36.9841 7.8817 37.3666 7.92842 37.8748 7.92842C38.3829 7.92842 38.7625 7.8817 39.0137 7.78825C39.2707 7.68896 39.443 7.56047 39.5306 7.40278C39.6182 7.23924 39.662 7.06694 39.662 6.88589C39.662 6.69899 39.6182 6.53254 39.5306 6.38652C39.443 6.23467 39.2707 6.11494 39.0137 6.02733C38.7625 5.93388 38.3829 5.88716 37.8748 5.88716C37.3666 5.88716 36.9841 5.93388 36.7271 6.02733C36.4701 6.11494 36.2978 6.23467 36.2102 6.38652C36.1226 6.53254 36.0788 6.69899 36.0788 6.88589ZM44.0176 10.25C43.3927 10.25 42.8641 10.1128 42.4319 9.83828C41.9997 9.56377 41.6726 9.18414 41.4507 8.69937C41.2287 8.21461 41.1178 7.65684 41.1178 7.02606C41.1178 6.40112 41.2287 5.84627 41.4507 5.36151C41.6726 4.8709 41.9997 4.48835 42.4319 4.21384C42.8641 3.9335 43.3927 3.79332 44.0176 3.79332C44.6425 3.79332 45.1682 3.9335 45.5945 4.21384C46.0267 4.48835 46.3538 4.8709 46.5758 5.36151C46.7977 5.84627 46.9087 6.40112 46.9087 7.02606C46.9087 7.65684 46.7977 8.21461 46.5758 8.69937C46.3538 9.18414 46.0267 9.56377 45.5945 9.83828C45.1682 10.1128 44.6425 10.25 44.0176 10.25ZM42.2216 6.88589C42.2216 7.06694 42.2654 7.23924 42.353 7.40278C42.4407 7.56047 42.6129 7.68896 42.8699 7.78825C43.1269 7.8817 43.5095 7.92842 44.0176 7.92842C44.5257 7.92842 44.9054 7.8817 45.1565 7.78825C45.4135 7.68896 45.5858 7.56047 45.6734 7.40278C45.761 7.23924 45.8048 7.06694 45.8048 6.88589C45.8048 6.69899 45.761 6.53254 45.6734 6.38652C45.5858 6.23467 45.4135 6.11494 45.1565 6.02733C44.9054 5.93388 44.5257 5.88716 44.0176 5.88716C43.5095 5.88716 43.1269 5.93388 42.8699 6.02733C42.6129 6.11494 42.4407 6.23467 42.353 6.38652C42.2654 6.53254 42.2216 6.69899 42.2216 6.88589ZM51.5544 10.2238C51.2624 10.2238 51.0317 10.1361 50.8623 9.96093C50.6929 9.77987 50.6024 9.54625 50.5907 9.26007C50.5674 8.76362 50.4418 8.41319 50.214 8.20877C49.9921 7.99851 49.6942 7.89338 49.3204 7.89338H49.1452V9.29511C49.1452 9.59882 49.0634 9.82952 48.8999 9.98721C48.7364 10.1449 48.5203 10.2238 48.2516 10.2238C47.9654 10.2238 47.7406 10.1449 47.577 9.98721C47.4135 9.82952 47.3317 9.59882 47.3317 9.29511V8.05984C47.3317 7.44074 47.4222 6.97058 47.6033 6.64935C47.7902 6.32812 48.0267 6.09742 48.3129 5.95724L48.2691 5.79079H48.1289C47.8603 5.79079 47.6471 5.7061 47.4894 5.53672C47.3376 5.36151 47.2558 5.12497 47.2441 4.8271C47.2383 4.53507 47.3171 4.29853 47.4806 4.11747C47.6442 3.93642 47.8603 3.84589 48.1289 3.84589H50.363C50.9879 3.84589 51.4931 3.99774 51.8786 4.30145C52.264 4.60516 52.4568 5.08992 52.4568 5.75574C52.4568 6.10034 52.3984 6.38944 52.2816 6.62306C52.1648 6.85084 52.0158 7.02606 51.8348 7.14871C51.6537 7.27136 51.4639 7.34437 51.2653 7.36773V7.48162C51.6274 7.56923 51.9253 7.76197 52.1589 8.05984C52.3984 8.3577 52.5181 8.75778 52.5181 9.26007C52.5181 9.5813 52.4305 9.82368 52.2553 9.98721C52.0859 10.1449 51.8523 10.2238 51.5544 10.2238ZM49.1014 6.55298C49.1014 6.68147 49.1248 6.76616 49.1715 6.80704C49.2182 6.84792 49.3058 6.86837 49.4343 6.86837H50.2578C50.5031 6.86837 50.6813 6.81288 50.7922 6.70191C50.9032 6.59094 50.9587 6.43617 50.9587 6.23759C50.9587 6.03317 50.9032 5.87548 50.7922 5.76451C50.6813 5.65353 50.5031 5.59805 50.2578 5.59805H49.4343C49.3058 5.59805 49.2182 5.61557 49.1715 5.65061C49.1248 5.68566 49.1014 5.77035 49.1014 5.90468V6.55298ZM55.7013 10.25C55.3742 10.25 55.0442 10.2179 54.7113 10.1537C54.3843 10.0836 54.0805 9.98429 53.8002 9.8558C53.5257 9.72147 53.3038 9.56085 53.1344 9.37396C52.965 9.18122 52.8803 8.95928 52.8803 8.70814C52.8803 8.38691 52.9825 8.12992 53.1869 7.93718C53.3914 7.74445 53.6308 7.65392 53.9053 7.6656C54.1214 7.67144 54.3375 7.71816 54.5536 7.80577C54.7697 7.88754 54.9888 7.96931 55.2107 8.05108C55.4385 8.13284 55.6663 8.17373 55.894 8.17373C56.1218 8.17373 56.2795 8.14452 56.3671 8.08612C56.4547 8.02771 56.4985 7.94887 56.4985 7.84958C56.4985 7.73277 56.4372 7.6364 56.3146 7.56047C56.1919 7.48454 56.0371 7.42614 55.8502 7.38525L55.421 7.28012C54.9771 7.17499 54.5799 7.05818 54.2295 6.92969C53.879 6.79536 53.6016 6.62014 53.3972 6.40404C53.1986 6.1821 53.0993 5.88716 53.0993 5.5192C53.0993 5.11621 53.2103 4.78914 53.4322 4.53799C53.6542 4.28101 53.955 4.09411 54.3346 3.9773C54.7142 3.86049 55.1377 3.80208 55.6049 3.80208C56.0839 3.80208 56.5044 3.85173 56.8665 3.95102C57.2286 4.05031 57.5089 4.1934 57.7075 4.3803C57.9119 4.56719 58.0141 4.79498 58.0141 5.06364C58.0141 5.34983 57.9353 5.57469 57.7776 5.73822C57.6258 5.89592 57.4213 5.97476 57.1644 5.97476C56.995 5.97476 56.8168 5.94556 56.6299 5.88716C56.4489 5.82875 56.2561 5.77327 56.0517 5.7207C55.8531 5.6623 55.64 5.63309 55.4122 5.63309C55.2078 5.63309 55.053 5.66522 54.9479 5.72946C54.8427 5.78787 54.7902 5.86671 54.7902 5.966C54.7902 6.08865 54.8603 6.17918 55.0004 6.23759C55.1406 6.29599 55.3713 6.36608 55.6925 6.44785L56.1831 6.56174C56.5861 6.66103 56.9395 6.78076 57.2432 6.92093C57.5469 7.0611 57.7834 7.24508 57.9528 7.47286C58.1222 7.70064 58.2069 7.99851 58.2069 8.36646C58.2069 8.81034 58.1018 9.17246 57.8915 9.4528C57.6812 9.72731 57.3892 9.92881 57.0154 10.0573C56.6416 10.1858 56.2036 10.25 55.7013 10.25Z" fill="white"/>
<path d="M25.366 9.98721L24.8547 10.5174L24.8642 10.5262L25.366 9.98721ZM25.401 6.64935L26.0376 7.01969L26.0376 7.01969L25.401 6.64935ZM26.1106 5.95724L26.4346 6.6186L26.9764 6.35324L26.8228 5.76983L26.1106 5.95724ZM26.0668 5.79079L26.779 5.60337L26.6345 5.05436H26.0668V5.79079ZM25.2784 5.53672L24.7219 6.01903L24.7305 6.02894L24.7394 6.03854L25.2784 5.53672ZM25.0418 4.8271L25.7781 4.81266L25.7781 4.81237L25.0418 4.8271ZM25.2696 4.12623L24.7312 3.62367L24.7222 3.63359L25.2696 4.12623ZM26.9517 6.6143H26.2153V7.58207L27.148 7.32408L26.9517 6.6143ZM27.8102 6.35148L27.5774 5.65284L27.5774 5.65284L27.8102 6.35148ZM29.3434 6.42157L28.8431 6.96193L28.8534 6.97152L28.8641 6.9807L29.3434 6.42157ZM29.3434 7.71816L29.8326 8.26858L29.8339 8.26749L29.3434 7.71816ZM28.6688 7.93718L28.6541 7.20091L28.6531 7.20093L28.6688 7.93718ZM27.8015 7.80577L27.5686 8.50441L27.5767 8.50711L27.5849 8.50963L27.8015 7.80577ZM26.9429 7.54295L27.1392 6.83317L26.2113 6.57651L26.2065 7.53927L26.9429 7.54295ZM26.9342 9.29511L26.1977 9.29143V9.29511H26.9342ZM26.6889 9.98721L26.1776 9.45701L26.1681 9.46648L26.6889 9.98721ZM26.0493 9.48733C25.9031 9.48733 25.8705 9.45071 25.8678 9.44823L24.8642 10.5262C25.2003 10.8391 25.6231 10.9602 26.0493 10.9602V9.48733ZM25.8772 9.4571C25.8838 9.46353 25.8819 9.46616 25.8761 9.4499C25.8691 9.42997 25.8571 9.38255 25.8571 9.29511H24.3843C24.3843 9.72885 24.5038 10.1788 24.8548 10.5173L25.8772 9.4571ZM25.8571 9.29511V8.05984H24.3843V9.29511H25.8571ZM25.8571 8.05984C25.8571 7.49395 25.9462 7.17675 26.0376 7.01969L24.7645 6.279C24.4821 6.76441 24.3843 7.38752 24.3843 8.05984H25.8571ZM26.0376 7.01969C26.1637 6.80281 26.2996 6.68469 26.4346 6.6186L25.7867 5.29589C25.3493 5.51014 25.0121 5.85342 24.7645 6.279L26.0376 7.01969ZM26.8228 5.76983L26.779 5.60337L25.3547 5.9782L25.3985 6.14466L26.8228 5.76983ZM26.0668 5.05436H25.9179V6.52721H26.0668V5.05436ZM25.9179 5.05436C25.861 5.05436 25.835 5.04549 25.8284 5.04287C25.8249 5.04147 25.8236 5.04057 25.8232 5.04033C25.8229 5.04009 25.821 5.03878 25.8174 5.03491L24.7394 6.03854C25.0592 6.38199 25.4808 6.52721 25.9179 6.52721V5.05436ZM25.8349 5.05442C25.8247 5.0427 25.7816 4.98835 25.7781 4.81266L24.3055 4.84154C24.3138 5.26158 24.4283 5.68032 24.7219 6.01903L25.8349 5.05442ZM25.7781 4.81237C25.7751 4.66043 25.8126 4.62377 25.817 4.61888L24.7222 3.63359C24.4112 3.97914 24.2969 4.40971 24.3056 4.84182L25.7781 4.81237ZM25.808 4.62871C25.8187 4.61718 25.8251 4.61401 25.831 4.61159C25.8388 4.60842 25.8641 4.59984 25.9179 4.59984V3.12698C25.4724 3.12698 25.0516 3.28048 24.7312 3.62376L25.808 4.62871ZM25.9179 4.59984H28.9842V3.12698H25.9179V4.59984ZM28.9842 4.59984C29.1951 4.59984 29.2161 4.6501 29.1844 4.62046C29.1693 4.60634 29.1663 4.59493 29.1694 4.6036C29.1739 4.61633 29.1852 4.65713 29.1852 4.73949H30.658C30.658 4.32071 30.5436 3.87483 30.1901 3.5444C29.8459 3.22273 29.3983 3.12698 28.9842 3.12698V4.59984ZM29.1852 4.73949C29.1852 4.80028 29.1764 4.83198 29.172 4.84418C29.1684 4.8541 29.166 4.85675 29.1634 4.85945L30.2243 5.88108C30.534 5.55944 30.658 5.15217 30.658 4.73949H29.1852ZM29.1634 4.85945C29.1808 4.8413 29.1908 4.84198 29.1696 4.84904C29.1445 4.85741 29.0873 4.87038 28.9842 4.87038V6.34324C29.4118 6.34324 29.8798 6.23882 30.2243 5.88108L29.1634 4.85945ZM28.9842 4.87038H27.2758V6.34324H28.9842V4.87038ZM27.2758 4.87038C27.023 4.87038 26.7082 4.94901 26.4745 5.22066C26.259 5.47113 26.2153 5.76927 26.2153 5.98352H27.6881C27.6881 5.94663 27.6984 6.05642 27.5909 6.18132C27.4652 6.32739 27.3126 6.34324 27.2758 6.34324V4.87038ZM26.2153 5.98352V6.6143H27.6881V5.98352H26.2153ZM27.148 7.32408C27.436 7.24443 27.7344 7.15303 28.0431 7.05011L27.5774 5.65284C27.2904 5.74851 27.0164 5.83232 26.7554 5.90453L27.148 7.32408ZM28.0431 7.05011C28.2765 6.97232 28.4839 6.93897 28.6688 6.93897V5.46612C28.3047 5.46612 27.9397 5.53206 27.5774 5.65284L28.0431 7.05011ZM28.6688 6.93897C28.755 6.93897 28.805 6.94992 28.8291 6.95773C28.8502 6.96461 28.8501 6.96841 28.8431 6.96193L29.8437 5.88121C29.5074 5.56975 29.0788 5.46612 28.6688 5.46612V6.93897ZM28.8641 6.9807C28.8564 6.97411 28.8495 6.96628 28.8442 6.95856C28.839 6.95105 28.8377 6.94705 28.8386 6.94939C28.8409 6.95542 28.8523 6.99038 28.8523 7.06986H30.3251C30.3251 6.6434 30.202 6.18758 29.8226 5.86243L28.8641 6.9807ZM28.8523 7.06986C28.8523 7.14441 28.8415 7.17841 28.8386 7.18596C28.8373 7.1893 28.8377 7.18738 28.841 7.18249C28.8444 7.17746 28.8487 7.17259 28.8529 7.16884L29.8339 8.26749C30.1982 7.94214 30.3251 7.49792 30.3251 7.06986H28.8523ZM28.8541 7.16775C28.8701 7.15353 28.8379 7.19723 28.6541 7.20091L28.6835 8.67346C29.0837 8.66546 29.5012 8.56315 29.8326 8.26858L28.8541 7.16775ZM28.6531 7.20093C28.4685 7.20485 28.2582 7.17579 28.0181 7.10191L27.5849 8.50963C27.9522 8.62265 28.3201 8.6812 28.6845 8.67344L28.6531 7.20093ZM28.0344 7.10714C27.7256 7.00422 27.4272 6.91282 27.1392 6.83317L26.7466 8.25272C27.0077 8.32493 27.2816 8.40874 27.5686 8.50441L28.0344 7.10714ZM26.2065 7.53927L26.1977 9.29143L27.6706 9.29879L27.6793 7.54663L26.2065 7.53927ZM26.1977 9.29511C26.1977 9.38255 26.1858 9.42997 26.1787 9.4499C26.173 9.46616 26.171 9.46353 26.1777 9.4571L27.2 10.5173C27.5511 10.1788 27.6706 9.72885 27.6706 9.29511H26.1977ZM26.1681 9.46648C26.1659 9.46873 26.1642 9.47063 26.1552 9.47392C26.1438 9.47815 26.112 9.48733 26.0493 9.48733V10.9602C26.4706 10.9602 26.8863 10.8313 27.2096 10.5079L26.1681 9.46648ZM30.5592 4.07367L31.0496 4.623L31.0508 4.62199L30.5592 4.07367ZM31.8645 4.07367L31.3634 4.61332L31.3687 4.61821L31.374 4.623L31.8645 4.07367ZM32.1974 8.66433L31.7374 9.23938L31.7558 9.25411L31.7751 9.26763L32.1974 8.66433ZM32.4865 8.61177L32.8489 9.25291L32.856 9.2488L32.4865 8.61177ZM33.2662 8.20877L33.5605 8.88385L33.5677 8.88071L33.5748 8.87741L33.2662 8.20877ZM34.8782 8.34894L35.4067 7.83604L35.4067 7.83604L34.8782 8.34894ZM34.8519 9.92589L34.3626 9.37542L34.355 9.38238L34.8519 9.92589ZM31.0936 10.0748L30.8419 10.7669L30.8489 10.7695L30.8559 10.7719L31.0936 10.0748ZM30.5066 9.57546L29.8576 9.92371L29.8643 9.93575L30.5066 9.57546ZM31.0503 4.69569C31.0503 4.63532 31.0595 4.6108 31.0603 4.60885C31.0606 4.60795 31.0597 4.61047 31.0568 4.61464C31.0539 4.61885 31.051 4.62177 31.0496 4.623L30.0687 3.52434C29.7141 3.8409 29.5774 4.26846 29.5774 4.69569H31.0503ZM31.0508 4.62199C31.0642 4.60991 31.096 4.58231 31.2075 4.58231V3.10946C30.7932 3.10946 30.3928 3.23372 30.0676 3.52535L31.0508 4.62199ZM31.2075 4.58231C31.2773 4.58231 31.3172 4.592 31.3364 4.59864C31.3532 4.60446 31.3594 4.60961 31.3634 4.61332L32.3656 3.53402C32.0362 3.22813 31.6229 3.10946 31.2075 3.10946V4.58231ZM31.374 4.623C31.3727 4.62177 31.3698 4.61885 31.3669 4.61464C31.364 4.61047 31.3631 4.60795 31.3634 4.60886C31.3642 4.6108 31.3734 4.63532 31.3734 4.69569H32.8462C32.8462 4.26846 32.7095 3.8409 32.355 3.52434L31.374 4.623ZM31.3734 4.69569V8.42779H32.8462V4.69569H31.3734ZM31.3734 8.42779C31.3734 8.65109 31.4327 8.99565 31.7374 9.23938L32.6575 8.08928C32.8453 8.23957 32.8462 8.42643 32.8462 8.42779H31.3734ZM31.7751 9.26763C32.0181 9.4377 32.2776 9.43687 32.4452 9.4064C32.6072 9.37695 32.7464 9.31081 32.8489 9.25287L32.1242 7.97066C32.0923 7.98865 32.1161 7.96924 32.1818 7.95731C32.253 7.94435 32.4352 7.93184 32.6197 8.06103L31.7751 9.26763ZM32.856 9.2488C33.1317 9.0889 33.3658 8.96874 33.5605 8.88385L32.972 7.53369C32.7112 7.64738 32.4254 7.79588 32.1171 7.97474L32.856 9.2488ZM33.5748 8.87741C33.6971 8.82101 33.8416 8.7875 34.0197 8.7875V7.31465C33.6488 7.31465 33.291 7.38627 32.9576 7.54013L33.5748 8.87741ZM34.0197 8.7875C34.2762 8.7875 34.341 8.85281 34.3498 8.86184L35.4067 7.83604C35.03 7.44792 34.5224 7.31465 34.0197 7.31465V8.7875ZM34.3498 8.86184C34.3877 8.90092 34.4309 8.96579 34.4309 9.12865H35.9038C35.9038 8.64906 35.7542 8.19412 35.4067 7.83604L34.3498 8.86184ZM34.4309 9.12865C34.4309 9.31417 34.3811 9.35912 34.3627 9.37548L35.3412 10.4763C35.7433 10.1189 35.9038 9.63232 35.9038 9.12865H34.4309ZM34.355 9.38238C34.3507 9.38635 34.2449 9.46981 33.862 9.46981V10.9427C34.3901 10.9427 34.9444 10.8392 35.3489 10.4694L34.355 9.38238ZM33.862 9.46981H32.0573V10.9427H33.862V9.46981ZM32.0573 9.46981C31.7215 9.46981 31.4869 9.43088 31.3312 9.37779L30.8559 10.7719C31.2142 10.894 31.622 10.9427 32.0573 10.9427V9.46981ZM31.3452 9.38273C31.2547 9.34982 31.1973 9.30152 31.1489 9.21516L29.8643 9.93575C30.0845 10.3283 30.4184 10.6129 30.8419 10.7669L31.3452 9.38273ZM31.1555 9.22726C31.111 9.14428 31.0503 8.93925 31.0503 8.53292H29.5774C29.5774 9.03771 29.6452 9.52771 29.8577 9.92365L31.1555 9.22726ZM31.0503 8.53292V4.69569H29.5774V8.53292H31.0503ZM36.2891 9.83828L36.6839 9.21664L36.6839 9.21664L36.2891 9.83828ZM35.3079 8.69937L35.9774 8.39282L35.9774 8.39282L35.3079 8.69937ZM35.3079 5.36151L35.9774 5.66807L35.9788 5.66504L35.3079 5.36151ZM36.2891 4.21384L36.6839 4.83551L36.6898 4.83167L36.2891 4.21384ZM39.4517 4.21384L39.0471 4.82924L39.0569 4.83548L39.4517 4.21384ZM40.4329 5.36151L39.762 5.66504L39.7633 5.66807L40.4329 5.36151ZM40.4329 8.69937L39.7633 8.39282L39.7633 8.39282L40.4329 8.69937ZM39.4517 9.83828L39.0569 9.21663L39.0531 9.21909L39.4517 9.83828ZM36.2102 7.40278L35.561 7.75057L35.5665 7.76042L36.2102 7.40278ZM36.7271 7.78825L36.4617 8.47519L36.4685 8.47783L36.4754 8.48034L36.7271 7.78825ZM39.0137 7.78825L39.2705 8.4785L39.2791 8.47519L39.0137 7.78825ZM39.5306 7.40278L40.1744 7.76046L40.1797 7.75053L39.5306 7.40278ZM39.5306 6.38652L38.8926 6.75458L38.8991 6.76541L39.5306 6.38652ZM39.0137 6.02733L38.7569 6.71752L38.7664 6.72108L38.776 6.72436L39.0137 6.02733ZM36.7271 6.02733L36.9647 6.72436L36.9718 6.72196L36.9788 6.71942L36.7271 6.02733ZM36.2102 6.38652L36.8418 6.76547L36.8481 6.75453L36.2102 6.38652ZM37.8748 9.51361C37.3587 9.51361 36.9744 9.40113 36.6839 9.21664L35.8942 10.4599C36.4682 10.8244 37.141 10.9865 37.8748 10.9865V9.51361ZM36.6839 9.21664C36.3769 9.02167 36.1427 8.75385 35.9774 8.39282L34.6383 9.00593C34.9169 9.61443 35.3368 10.1059 35.8942 10.4599L36.6839 9.21664ZM35.9774 8.39282C35.8069 8.02026 35.7114 7.57018 35.7114 7.02606H34.2385C34.2385 7.74349 34.365 8.40896 34.6383 9.00593L35.9774 8.39282ZM35.7114 7.02606C35.7114 6.48887 35.8065 6.04147 35.9774 5.66807L34.6383 5.05495C34.3653 5.65107 34.2385 6.31337 34.2385 7.02606H35.7114ZM35.9788 5.66504C36.1449 5.29799 36.3792 5.02902 36.6839 4.83548L35.8942 3.5922C35.3346 3.94767 34.9147 4.44382 34.6369 5.05798L35.9788 5.66504ZM36.6898 4.83167C36.9794 4.64384 37.3615 4.52975 37.8748 4.52975V3.0569C37.1382 3.0569 36.4631 3.22315 35.8883 3.59601L36.6898 4.83167ZM37.8748 4.52975C38.3884 4.52975 38.7655 4.64398 39.0471 4.82917L39.8563 3.59852C39.2852 3.22301 38.611 3.0569 37.8748 3.0569V4.52975ZM39.0569 4.83548C39.3616 5.02902 39.5959 5.29799 39.762 5.66504L41.1039 5.05798C40.8261 4.44382 40.4062 3.94767 39.8465 3.5922L39.0569 4.83548ZM39.7633 5.66807C39.9343 6.04147 40.0294 6.48887 40.0294 7.02606H41.5023C41.5023 6.31337 41.3754 5.65107 41.1025 5.05495L39.7633 5.66807ZM40.0294 7.02606C40.0294 7.57018 39.9339 8.02026 39.7633 8.39282L41.1025 9.00593C41.3758 8.40896 41.5023 7.74349 41.5023 7.02606H40.0294ZM39.7633 8.39282C39.598 8.75385 39.3639 9.02167 39.0569 9.21664L39.8465 10.4599C40.404 10.1059 40.8239 9.61443 41.1025 9.00593L39.7633 8.39282ZM39.0531 9.21909C38.7705 9.40099 38.3913 9.51361 37.8748 9.51361V10.9865C38.6081 10.9865 39.2802 10.8246 39.8504 10.4575L39.0531 9.21909ZM35.3424 6.88589C35.3424 7.19136 35.4176 7.48278 35.5611 7.75053L36.8594 7.05502C36.8276 6.9957 36.8152 6.94253 36.8152 6.88589H35.3424ZM35.5665 7.76042C35.772 8.13038 36.125 8.3451 36.4617 8.47519L36.9925 7.10131C36.9098 7.06937 36.8653 7.04194 36.8454 7.02708C36.827 7.01338 36.8384 7.01715 36.854 7.04514L35.5665 7.76042ZM36.4754 8.48034C36.8552 8.61842 37.3414 8.66485 37.8748 8.66485V7.192C37.3919 7.192 37.113 7.14498 36.9788 7.09616L36.4754 8.48034ZM37.8748 8.66485C38.4065 8.66485 38.8932 8.61883 39.2705 8.47844L38.7569 7.09806C38.6318 7.14457 38.3593 7.192 37.8748 7.192V8.66485ZM39.2791 8.47519C39.6158 8.3451 39.9688 8.13038 40.1743 7.76041L38.8868 7.04514C38.9024 7.01715 38.9137 7.01338 38.8954 7.02708C38.8755 7.04193 38.8309 7.06937 38.7483 7.10131L39.2791 8.47519ZM40.1797 7.75053C40.3231 7.48278 40.3984 7.19136 40.3984 6.88589H38.9255C38.9255 6.94253 38.9132 6.9957 38.8814 7.05502L40.1797 7.75053ZM40.3984 6.88589C40.3984 6.57895 40.3249 6.2791 40.162 6.00763L38.8991 6.76541C38.9114 6.78598 38.9255 6.81903 38.9255 6.88589H40.3984ZM40.1684 6.01851C39.9539 5.64672 39.5885 5.44524 39.2513 5.33029L38.776 6.72436C38.8576 6.75217 38.8992 6.77634 38.9154 6.78758C38.9297 6.79755 38.9127 6.78927 38.8927 6.75453L40.1684 6.01851ZM39.2705 5.33713C38.8932 5.19675 38.4065 5.15073 37.8748 5.15073V6.62358C38.3593 6.62358 38.6318 6.67101 38.7569 6.71752L39.2705 5.33713ZM37.8748 5.15073C37.3414 5.15073 36.8552 5.19716 36.4754 5.33524L36.9788 6.71942C37.113 6.6706 37.3919 6.62358 37.8748 6.62358V5.15073ZM36.4895 5.33029C36.1523 5.44524 35.7868 5.64672 35.5723 6.01851L36.8481 6.75453C36.8281 6.78927 36.811 6.79755 36.8254 6.78758C36.8416 6.77634 36.8832 6.75217 36.9647 6.72436L36.4895 5.33029ZM35.5787 6.00763C35.4159 6.2791 35.3424 6.57895 35.3424 6.88589H36.8152C36.8152 6.81903 36.8294 6.78598 36.8417 6.76541L35.5787 6.00763ZM42.4319 9.83828L42.8267 9.21664L42.8267 9.21664L42.4319 9.83828ZM41.4507 8.69937L42.1203 8.39282L42.1203 8.39282L41.4507 8.69937ZM41.4507 5.36151L42.1203 5.66807L42.1216 5.66504L41.4507 5.36151ZM42.4319 4.21384L42.8267 4.83551L42.8326 4.83167L42.4319 4.21384ZM45.5945 4.21384L45.1899 4.82924L45.1997 4.83548L45.5945 4.21384ZM46.5758 5.36151L45.9048 5.66504L45.9062 5.66807L46.5758 5.36151ZM46.5758 8.69937L45.9062 8.39282L45.9062 8.39282L46.5758 8.69937ZM45.5945 9.83828L45.1997 9.21663L45.1959 9.21909L45.5945 9.83828ZM42.353 7.40278L41.7038 7.75057L41.7093 7.76042L42.353 7.40278ZM42.8699 7.78825L42.6045 8.47519L42.6114 8.47783L42.6183 8.48034L42.8699 7.78825ZM45.1565 7.78825L45.4133 8.4785L45.4219 8.47519L45.1565 7.78825ZM45.6734 7.40278L46.3172 7.76046L46.3225 7.75053L45.6734 7.40278ZM45.6734 6.38652L45.0354 6.75458L45.0419 6.76541L45.6734 6.38652ZM45.1565 6.02733L44.8997 6.71752L44.9092 6.72108L44.9189 6.72436L45.1565 6.02733ZM42.8699 6.02733L43.1076 6.72436L43.1146 6.72196L43.1216 6.71942L42.8699 6.02733ZM42.353 6.38652L42.9846 6.76547L42.9909 6.75453L42.353 6.38652ZM44.0176 9.51361C43.5015 9.51361 43.1172 9.40113 42.8267 9.21664L42.0371 10.4599C42.611 10.8244 43.2838 10.9865 44.0176 10.9865V9.51361ZM42.8267 9.21664C42.5197 9.02167 42.2856 8.75385 42.1203 8.39282L40.7811 9.00593C41.0597 9.61443 41.4796 10.1059 42.0371 10.4599L42.8267 9.21664ZM42.1203 8.39282C41.9497 8.02026 41.8542 7.57018 41.8542 7.02606H40.3813C40.3813 7.74349 40.5078 8.40896 40.7811 9.00593L42.1203 8.39282ZM41.8542 7.02606C41.8542 6.48887 41.9493 6.04147 42.1203 5.66807L40.7811 5.05495C40.5082 5.65107 40.3813 6.31337 40.3813 7.02606H41.8542ZM42.1216 5.66504C42.2877 5.29799 42.522 5.02902 42.8267 4.83548L42.0371 3.5922C41.4774 3.94767 41.0576 4.44382 40.7797 5.05798L42.1216 5.66504ZM42.8326 4.83167C43.1222 4.64384 43.5043 4.52975 44.0176 4.52975V3.0569C43.281 3.0569 42.606 3.22315 42.0311 3.59601L42.8326 4.83167ZM44.0176 4.52975C44.5313 4.52975 44.9083 4.64398 45.1899 4.82917L45.9991 3.59852C45.4281 3.22301 44.7538 3.0569 44.0176 3.0569V4.52975ZM45.1997 4.83548C45.5044 5.02902 45.7387 5.29799 45.9048 5.66504L47.2467 5.05798C46.9689 4.44382 46.549 3.94767 45.9894 3.5922L45.1997 4.83548ZM45.9062 5.66807C46.0771 6.04147 46.1722 6.48887 46.1722 7.02606H47.6451C47.6451 6.31337 47.5183 5.65107 47.2453 5.05495L45.9062 5.66807ZM46.1722 7.02606C46.1722 7.57018 46.0767 8.02026 45.9062 8.39282L47.2453 9.00593C47.5187 8.40896 47.6451 7.74349 47.6451 7.02606H46.1722ZM45.9062 8.39282C45.7409 8.75385 45.5067 9.02167 45.1997 9.21664L45.9894 10.4599C46.5468 10.1059 46.9668 9.61443 47.2453 9.00593L45.9062 8.39282ZM45.1959 9.21909C44.9134 9.40099 44.5341 9.51361 44.0176 9.51361V10.9865C44.751 10.9865 45.423 10.8246 45.9932 10.4575L45.1959 9.21909ZM41.4852 6.88589C41.4852 7.19136 41.5605 7.48278 41.7039 7.75053L43.0022 7.05502C42.9704 6.9957 42.9581 6.94253 42.9581 6.88589H41.4852ZM41.7093 7.76042C41.9148 8.13038 42.2678 8.3451 42.6045 8.47519L43.1353 7.10131C43.0527 7.06937 43.0082 7.04194 42.9882 7.02708C42.9699 7.01338 42.9813 7.01715 42.9968 7.04514L41.7093 7.76042ZM42.6183 8.48034C42.998 8.61842 43.4842 8.66485 44.0176 8.66485V7.192C43.5347 7.192 43.2558 7.14498 43.1216 7.09616L42.6183 8.48034ZM44.0176 8.66485C44.5493 8.66485 45.036 8.61883 45.4133 8.47844L44.8997 7.09806C44.7747 7.14457 44.5021 7.192 44.0176 7.192V8.66485ZM45.4219 8.47519C45.7586 8.3451 46.1116 8.13038 46.3171 7.76041L45.0296 7.04514C45.0452 7.01715 45.0566 7.01338 45.0382 7.02708C45.0183 7.04193 44.9738 7.06937 44.8911 7.10131L45.4219 8.47519ZM46.3225 7.75053C46.466 7.48278 46.5412 7.19136 46.5412 6.88589H45.0684C45.0684 6.94253 45.056 6.9957 45.0242 7.05502L46.3225 7.75053ZM46.5412 6.88589C46.5412 6.57895 46.4677 6.2791 46.3049 6.00763L45.0419 6.76541C45.0543 6.78598 45.0684 6.81903 45.0684 6.88589H46.5412ZM46.3113 6.01851C46.0968 5.64672 45.7313 5.44524 45.3941 5.33029L44.9189 6.72436C45.0005 6.75217 45.0421 6.77634 45.0582 6.78758C45.0726 6.79755 45.0555 6.78927 45.0355 6.75453L46.3113 6.01851ZM45.4133 5.33713C45.036 5.19675 44.5493 5.15073 44.0176 5.15073V6.62358C44.5021 6.62358 44.7747 6.67101 44.8997 6.71752L45.4133 5.33713ZM44.0176 5.15073C43.4842 5.15073 42.998 5.19716 42.6183 5.33524L43.1216 6.71942C43.2558 6.6706 43.5347 6.62358 44.0176 6.62358V5.15073ZM42.6323 5.33029C42.2951 5.44524 41.9297 5.64672 41.7152 6.01851L42.9909 6.75453C42.9709 6.78927 42.9539 6.79755 42.9682 6.78758C42.9844 6.77634 43.026 6.75217 43.1076 6.72436L42.6323 5.33029ZM41.7216 6.00763C41.5587 6.2791 41.4852 6.57895 41.4852 6.88589H42.9581C42.9581 6.81903 42.9722 6.78598 42.9845 6.76541L41.7216 6.00763ZM50.8623 9.96093L50.3245 10.4641L50.3328 10.4728L50.8623 9.96093ZM50.5907 9.26007L51.3266 9.23003L51.3263 9.22545L50.5907 9.26007ZM50.214 8.20877L49.7075 8.74338L49.7148 8.75021L49.7222 8.75685L50.214 8.20877ZM49.1452 7.89338V7.15696H48.4088V7.89338H49.1452ZM48.8999 9.98721L48.3887 9.4571L48.3887 9.4571L48.8999 9.98721ZM47.577 9.98721L48.0882 9.4571L48.0882 9.4571L47.577 9.98721ZM47.6033 6.64935L46.9667 6.27897L46.9618 6.28775L47.6033 6.64935ZM48.3129 5.95724L48.6369 6.6186L49.1786 6.35324L49.0251 5.76983L48.3129 5.95724ZM48.2691 5.79079L48.9813 5.60337L48.8368 5.05436H48.2691V5.79079ZM47.4894 5.53672L46.9329 6.01903L46.9415 6.02894L46.9504 6.03854L47.4894 5.53672ZM47.2441 4.8271L46.5077 4.84183L46.5082 4.85596L47.2441 4.8271ZM51.8786 4.30145L52.3343 3.72299L52.3343 3.72299L51.8786 4.30145ZM52.2816 6.62306L52.9369 6.95913L52.9402 6.9524L52.2816 6.62306ZM51.8348 7.14871L51.4217 6.53901L51.4217 6.53901L51.8348 7.14871ZM51.2653 7.36773L51.1793 6.63635L50.5289 6.71287V7.36773H51.2653ZM51.2653 7.48162H50.5289V8.06113L51.0921 8.1974L51.2653 7.48162ZM52.1589 8.05984L51.5794 8.51435L51.585 8.52125L52.1589 8.05984ZM52.2553 9.98721L52.7571 10.5262L52.7578 10.5256L52.2553 9.98721ZM49.1715 6.80704L48.6865 7.36126L48.6865 7.36126L49.1715 6.80704ZM50.7922 5.76451L50.2715 6.28524L50.2715 6.28524L50.7922 5.76451ZM49.1715 5.65061L48.7296 5.06147L48.7296 5.06147L49.1715 5.65061ZM51.5544 9.48733C51.4194 9.48733 51.3954 9.45277 51.3918 9.4491L50.3328 10.4728C50.668 10.8195 51.1054 10.9602 51.5544 10.9602V9.48733ZM51.4001 9.45784C51.3697 9.42537 51.3322 9.3689 51.3265 9.23003L49.8549 9.2901C49.8726 9.7236 50.0161 10.1344 50.3245 10.464L51.4001 9.45784ZM51.3263 9.22545C51.2993 8.64983 51.1495 8.05876 50.7059 7.66069L49.7222 8.75685C49.7341 8.76761 49.8355 8.87741 49.8551 9.29468L51.3263 9.22545ZM50.7205 7.67416C50.3327 7.30677 49.8384 7.15696 49.3204 7.15696V8.62981C49.5501 8.62981 49.6515 8.69025 49.7075 8.74338L50.7205 7.67416ZM49.3204 7.15696H49.1452V8.62981H49.3204V7.15696ZM48.4088 7.89338V9.29511H49.8816V7.89338H48.4088ZM48.4088 9.29511C48.4088 9.38255 48.3968 9.42997 48.3898 9.4499C48.384 9.46616 48.3821 9.46353 48.3887 9.4571L49.4111 10.5173C49.7621 10.1788 49.8816 9.72885 49.8816 9.29511H48.4088ZM48.3887 9.4571C48.3871 9.45867 48.3668 9.48733 48.2516 9.48733V10.9602C48.6737 10.9602 49.0856 10.8311 49.4111 10.5173L48.3887 9.4571ZM48.2516 9.48733C48.1753 9.48733 48.1322 9.47675 48.112 9.46968C48.0946 9.46356 48.09 9.45881 48.0882 9.4571L47.0658 10.5173C47.3999 10.8395 47.8266 10.9602 48.2516 10.9602V9.48733ZM48.0882 9.4571C48.0949 9.46353 48.0929 9.46616 48.0872 9.4499C48.0801 9.42997 48.0681 9.38255 48.0681 9.29511H46.5953C46.5953 9.72885 46.7148 10.1788 47.0658 10.5173L48.0882 9.4571ZM48.0681 9.29511V8.05984H46.5953V9.29511H48.0681ZM48.0681 8.05984C48.0681 7.49154 48.1549 7.17055 48.2448 7.01094L46.9618 6.28775C46.6896 6.7706 46.5953 7.38994 46.5953 8.05984H48.0681ZM48.2398 7.01969C48.366 6.80281 48.5019 6.68469 48.6369 6.6186L47.989 5.29589C47.5516 5.51014 47.2144 5.85342 46.9668 6.279L48.2398 7.01969ZM49.0251 5.76983L48.9813 5.60337L47.5569 5.9782L47.6007 6.14466L49.0251 5.76983ZM48.2691 5.05436H48.1289V6.52721H48.2691V5.05436ZM48.1289 5.05436C48.072 5.05436 48.046 5.04549 48.0394 5.04287C48.0359 5.04147 48.0346 5.04057 48.0343 5.04033C48.0339 5.04009 48.032 5.03878 48.0284 5.03491L46.9504 6.03854C47.2702 6.38199 47.6918 6.52721 48.1289 6.52721V5.05436ZM48.0459 5.05442C48.0316 5.03789 47.987 4.97737 47.98 4.79824L46.5082 4.85596C46.5246 5.27256 46.6435 5.68512 46.9329 6.01903L48.0459 5.05442ZM47.9804 4.81237C47.9775 4.66856 48.0133 4.62642 48.0272 4.61109L46.9341 3.62386C46.6209 3.97064 46.499 4.40159 46.5078 4.84182L47.9804 4.81237ZM48.0272 4.61109C48.0394 4.59754 48.0459 4.59469 48.0499 4.59302C48.0556 4.59064 48.0781 4.58231 48.1289 4.58231V3.10946C47.6755 3.10946 47.2523 3.27157 46.9341 3.62386L48.0272 4.61109ZM48.1289 4.58231H50.363V3.10946H48.1289V4.58231ZM50.363 4.58231C50.8684 4.58231 51.1992 4.7037 51.4228 4.87991L52.3343 3.72299C51.787 3.29178 51.1073 3.10946 50.363 3.10946V4.58231ZM51.4228 4.87991C51.573 4.99824 51.7204 5.22957 51.7204 5.75574H53.1932C53.1932 4.95028 52.9551 4.21208 52.3343 3.72299L51.4228 4.87991ZM51.7204 5.75574C51.7204 6.02103 51.6749 6.18965 51.6229 6.29372L52.9402 6.9524C53.1218 6.58923 53.1932 6.17964 53.1932 5.75574H51.7204ZM51.6263 6.28702C51.5563 6.42354 51.4841 6.49676 51.4217 6.53901L52.2478 7.75841C52.5475 7.55536 52.7732 7.27815 52.9369 6.95911L51.6263 6.28702ZM51.4217 6.53901C51.329 6.60182 51.25 6.62803 51.1793 6.63635L51.3514 8.09911C51.6778 8.06071 51.9784 7.9409 52.2478 7.75841L51.4217 6.53901ZM50.5289 7.36773V7.48162H52.0017V7.36773H50.5289ZM51.0921 8.1974C51.2905 8.24539 51.4463 8.34447 51.5795 8.51431L52.7384 7.60536C52.4043 7.17946 51.9643 6.89307 51.4385 6.76585L51.0921 8.1974ZM51.585 8.52125C51.6902 8.6522 51.7817 8.87251 51.7817 9.26007H53.2545C53.2545 8.64305 53.1065 8.06321 52.7329 7.59842L51.585 8.52125ZM51.7817 9.26007C51.7817 9.35553 51.7685 9.40855 51.7598 9.43245C51.7526 9.45238 51.7488 9.4526 51.7528 9.44885L52.7578 10.5256C53.128 10.1801 53.2545 9.71301 53.2545 9.26007H51.7817ZM51.7535 9.44823C51.7502 9.45125 51.7419 9.45864 51.7175 9.46686C51.6905 9.47599 51.6394 9.48733 51.5544 9.48733V10.9602C51.9832 10.9602 52.4157 10.844 52.7571 10.5262L51.7535 9.44823ZM48.365 6.55298C48.365 6.65584 48.3737 6.78056 48.409 6.9087C48.4438 7.0347 48.5184 7.21417 48.6865 7.36126L49.6564 6.25282C49.7778 6.35903 49.8174 6.47571 49.8288 6.51703C49.8408 6.56048 49.8378 6.57861 49.8378 6.55298H48.365ZM48.6865 7.36126C48.9522 7.59372 49.2872 7.60479 49.4343 7.60479V6.13194C49.4046 6.13194 49.4107 6.12914 49.4396 6.13587C49.4642 6.14161 49.5572 6.16603 49.6564 6.25282L48.6865 7.36126ZM49.4343 7.60479H50.2578V6.13194H49.4343V7.60479ZM50.2578 7.60479C50.5916 7.60479 51.0032 7.53236 51.313 7.22264L50.2715 6.18118C50.2923 6.16043 50.3126 6.14596 50.329 6.13653C50.3449 6.12734 50.3552 6.12401 50.3564 6.12364C50.3574 6.12334 50.3505 6.12555 50.3335 6.12778C50.3166 6.13 50.2918 6.13194 50.2578 6.13194V7.60479ZM51.313 7.22264C51.5963 6.93928 51.6951 6.57696 51.6951 6.23759H50.2223C50.2223 6.26924 50.2178 6.27106 50.2238 6.25409C50.227 6.24538 50.2323 6.2333 50.241 6.21955C50.2496 6.2057 50.26 6.19264 50.2715 6.18118L51.313 7.22264ZM51.6951 6.23759C51.6951 5.89941 51.6002 5.53101 51.313 5.24377L50.2715 6.28524C50.2589 6.27261 50.2479 6.25863 50.239 6.24435C50.2303 6.23021 50.2252 6.21827 50.2224 6.21043C50.2171 6.19547 50.2223 6.20072 50.2223 6.23759H51.6951ZM51.313 5.24377C51.0032 4.93406 50.5916 4.86162 50.2578 4.86162V6.33448C50.2918 6.33448 50.3166 6.33642 50.3335 6.33864C50.3505 6.34086 50.3574 6.34308 50.3564 6.34277C50.3552 6.3424 50.3449 6.33907 50.329 6.32988C50.3126 6.32045 50.2923 6.30599 50.2715 6.28524L51.313 5.24377ZM50.2578 4.86162H49.4343V6.33448H50.2578V4.86162ZM49.4343 4.86162C49.3407 4.86162 49.2348 4.86766 49.1278 4.88907C49.0279 4.90904 48.8752 4.95231 48.7296 5.06147L49.6133 6.23976C49.5611 6.27896 49.5138 6.30118 49.4825 6.31341C49.451 6.32575 49.4275 6.33115 49.4167 6.33332C49.3972 6.3372 49.3994 6.33448 49.4343 6.33448V4.86162ZM48.7296 5.06147C48.5246 5.21522 48.4432 5.42057 48.409 5.54458C48.3731 5.67493 48.365 5.80233 48.365 5.90468H49.8378C49.8378 5.87269 49.8414 5.89058 49.8288 5.93625C49.818 5.97556 49.7716 6.12105 49.6133 6.23976L48.7296 5.06147ZM48.365 5.90468V6.55298H49.8378V5.90468H48.365ZM54.7113 10.1537L54.557 10.8737L54.5644 10.8753L54.5718 10.8768L54.7113 10.1537ZM53.8002 9.8558L53.4765 10.5173L53.4849 10.5214L53.4934 10.5253L53.8002 9.8558ZM53.1344 9.37396L52.5811 9.86014L52.5887 9.86848L53.1344 9.37396ZM53.1869 7.93718L52.6817 7.40137L52.6817 7.40137L53.1869 7.93718ZM53.9053 7.6656L53.874 8.40145L53.8854 8.40176L53.9053 7.6656ZM54.5536 7.80577L54.277 8.48825L54.2849 8.49149L54.293 8.49454L54.5536 7.80577ZM55.2107 8.05108L54.9561 8.74212L54.9619 8.7442L55.2107 8.05108ZM56.3671 8.08612L55.9586 7.47337L55.9586 7.47338L56.3671 8.08612ZM56.3146 7.56047L56.7022 6.93431L56.7022 6.93431L56.3146 7.56047ZM55.8502 7.38525L55.6751 8.10054L55.6839 8.10272L55.6929 8.10467L55.8502 7.38525ZM55.421 7.28012L55.5961 6.56482L55.5907 6.56352L55.421 7.28012ZM54.2295 6.92969L53.9659 7.6174L53.976 7.6211L54.2295 6.92969ZM53.3972 6.40404L52.8484 6.89509L52.8552 6.9027L52.8622 6.91012L53.3972 6.40404ZM53.4322 4.53799L53.9841 5.02568L53.9896 5.01933L53.4322 4.53799ZM54.3346 3.9773L54.118 3.27344L54.118 3.27344L54.3346 3.9773ZM56.8665 3.95102L56.6717 4.66123L56.6717 4.66123L56.8665 3.95102ZM57.7075 4.3803L57.2027 4.91662L57.2106 4.9238L57.7075 4.3803ZM57.7776 5.73822L57.2475 5.22704L57.2471 5.22741L57.7776 5.73822ZM56.6299 5.88716L56.4038 6.58805L56.4103 6.59006L56.6299 5.88716ZM56.0517 5.7207L55.8439 6.4272L55.8561 6.43077L55.8683 6.43392L56.0517 5.7207ZM54.9479 5.72946L55.3055 6.37321L55.3189 6.3658L55.3319 6.35784L54.9479 5.72946ZM55.0004 6.23759L54.7172 6.91737L54.7172 6.91737L55.0004 6.23759ZM55.6925 6.44785L55.5109 7.16152L55.5184 7.16344L55.526 7.1652L55.6925 6.44785ZM56.1831 6.56174L56.3593 5.84663L56.3497 5.84439L56.1831 6.56174ZM57.2432 6.92093L56.9346 7.58958L56.9346 7.58958L57.2432 6.92093ZM57.9528 7.47286L57.3619 7.91229L57.3619 7.91229L57.9528 7.47286ZM57.8915 9.4528L58.4762 9.90063L58.4806 9.89466L57.8915 9.4528ZM57.0154 10.0573L56.776 9.36087L56.776 9.36087L57.0154 10.0573ZM55.7013 9.51361C55.4227 9.51361 55.1395 9.48628 54.8509 9.43058L54.5718 10.8768C54.949 10.9495 55.3257 10.9865 55.7013 10.9865V9.51361ZM54.8656 9.43359C54.5867 9.37382 54.3346 9.29065 54.107 9.18634L53.4934 10.5253C53.8265 10.6779 54.1818 10.7933 54.557 10.8737L54.8656 9.43359ZM54.1239 9.19433C53.916 9.0926 53.775 8.98414 53.6801 8.87943L52.5887 9.86848C52.8326 10.1376 53.1354 10.3503 53.4765 10.5173L54.1239 9.19433ZM53.6876 8.88783C53.6335 8.82629 53.6167 8.77614 53.6167 8.70814H52.1439C52.1439 9.14242 52.2965 9.53615 52.5812 9.86008L53.6876 8.88783ZM53.6167 8.70814C53.6167 8.55785 53.657 8.50614 53.6921 8.473L52.6817 7.40137C52.3081 7.75371 52.1439 8.21597 52.1439 8.70814H53.6167ZM53.6921 8.473C53.7557 8.41309 53.803 8.39834 53.874 8.40136L53.9366 6.92984C53.4587 6.9095 53.027 7.07581 52.6817 7.40137L53.6921 8.473ZM53.8854 8.40176C54.0067 8.40503 54.1361 8.43114 54.277 8.48825L54.8303 7.1233C54.539 7.00519 54.2361 6.93785 53.9252 6.92944L53.8854 8.40176ZM54.293 8.49454C54.5112 8.57709 54.7322 8.6596 54.9561 8.74209L55.4653 7.36006C55.2453 7.27901 55.0283 7.19799 54.8142 7.117L54.293 8.49454ZM54.9619 8.7442C55.2645 8.85282 55.5763 8.91015 55.894 8.91015V7.4373C55.7562 7.4373 55.6125 7.41287 55.4595 7.35796L54.9619 8.7442ZM55.894 8.91015C56.1329 8.91015 56.4899 8.88935 56.7756 8.69886L55.9586 7.47338C55.997 7.4478 56.0273 7.43566 56.0406 7.43092C56.0542 7.42606 56.0583 7.42599 56.049 7.42771C56.0402 7.42935 56.0231 7.43188 55.9961 7.43393C55.9693 7.43596 55.9356 7.4373 55.894 7.4373V8.91015ZM56.7756 8.69886C57.0533 8.51372 57.235 8.21232 57.235 7.84958H55.7621C55.7621 7.78698 55.7771 7.70628 55.8219 7.62554C55.8658 7.54651 55.9211 7.49836 55.9586 7.47337L56.7756 8.69886ZM57.235 7.84958C57.235 7.41548 56.9829 7.10808 56.7022 6.93431L55.9269 8.18663C55.9181 8.18113 55.8736 8.15168 55.8312 8.08506C55.7849 8.01229 55.7621 7.92788 55.7621 7.84958H57.235ZM56.7022 6.93431C56.4897 6.80279 56.251 6.71908 56.0076 6.66584L55.6929 8.10467C55.8233 8.13319 55.8941 8.1663 55.9269 8.18663L56.7022 6.93431ZM56.0254 6.66997L55.5961 6.56484L55.2458 7.99541L55.6751 8.10054L56.0254 6.66997ZM55.5907 6.56352C55.1692 6.46371 54.8008 6.35481 54.483 6.23828L53.976 7.6211C54.359 7.76156 54.7849 7.88628 55.2512 7.99673L55.5907 6.56352ZM54.4931 6.24206C54.2194 6.13715 54.0437 6.01588 53.9322 5.89797L52.8622 6.91012C53.1595 7.2244 53.5387 7.45357 53.9659 7.61733L54.4931 6.24206ZM53.946 5.913C53.895 5.85593 53.8358 5.75047 53.8358 5.5192H52.3629C52.3629 6.02384 52.5023 6.50827 52.8484 6.89509L53.946 5.913ZM53.8358 5.5192C53.8358 5.25765 53.9041 5.1161 53.9841 5.02565L52.8804 4.05033C52.5165 4.46217 52.3629 4.97476 52.3629 5.5192H53.8358ZM53.9896 5.01933C54.1067 4.88377 54.281 4.7643 54.5512 4.68116L54.118 3.27344C53.629 3.42392 53.2017 3.67825 52.8749 4.05665L53.9896 5.01933ZM54.5512 4.68116C54.8496 4.58935 55.1985 4.53851 55.6049 4.53851V3.06566C55.0769 3.06566 54.5789 3.13163 54.118 3.27344L54.5512 4.68116ZM55.6049 4.53851C56.0352 4.53851 56.3877 4.58335 56.6717 4.66123L57.0612 3.24081C56.621 3.12011 56.1325 3.06566 55.6049 3.06566V4.53851ZM56.6717 4.66123C56.9594 4.7401 57.1185 4.83725 57.2028 4.91656L58.2122 3.84403C57.8994 3.54955 57.4978 3.36052 57.0612 3.24081L56.6717 4.66123ZM57.2106 4.9238C57.2678 4.97608 57.2777 5.00888 57.2777 5.06364H58.7506C58.7506 4.58107 58.5561 4.15831 58.2044 3.83679L57.2106 4.9238ZM57.2777 5.06364C57.2777 5.13994 57.2671 5.18307 57.2601 5.20325C57.254 5.22069 57.2492 5.22527 57.2475 5.22704L58.3077 6.2494C58.6299 5.91532 58.7506 5.48862 58.7506 5.06364H57.2777ZM57.2471 5.22741C57.2455 5.22914 57.2453 5.22898 57.2465 5.22819C57.2477 5.22741 57.2478 5.22763 57.2454 5.22854C57.241 5.23024 57.2176 5.23834 57.1644 5.23834V6.71119C57.5837 6.71119 57.9932 6.57597 58.3081 6.24904L57.2471 5.22741ZM57.1644 5.23834C57.08 5.23834 56.9762 5.22383 56.8496 5.18425L56.4103 6.59006C56.6574 6.66729 56.9099 6.71119 57.1644 6.71119V5.23834ZM56.856 5.18629C56.6594 5.12288 56.4524 5.06334 56.2351 5.00748L55.8683 6.43392C56.0599 6.48319 56.2383 6.53462 56.4039 6.58802L56.856 5.18629ZM56.2595 5.0142C55.9871 4.93407 55.7033 4.89667 55.4122 4.89667V6.36952C55.5766 6.36952 55.7192 6.39053 55.8439 6.4272L56.2595 5.0142ZM55.4122 4.89667C55.152 4.89667 54.8377 4.93375 54.5639 5.10108L55.3319 6.35784C55.2951 6.38034 55.2756 6.38174 55.2924 6.37824C55.3087 6.37486 55.3465 6.36952 55.4122 6.36952V4.89667ZM54.5902 5.08571C54.3099 5.24146 54.0537 5.53838 54.0537 5.966H55.5266C55.5266 6.05442 55.5007 6.15339 55.4423 6.2409C55.3884 6.32182 55.3286 6.36038 55.3055 6.37321L54.5902 5.08571ZM54.0537 5.966C54.0537 6.17811 54.1181 6.39291 54.2604 6.57671C54.3951 6.75062 54.5665 6.85456 54.7172 6.91737L55.2837 5.55781C55.2942 5.56221 55.3605 5.59168 55.425 5.67507C55.4973 5.76834 55.5266 5.87655 55.5266 5.966H54.0537ZM54.7172 6.91737C54.9104 6.99787 55.1856 7.07873 55.5109 7.16152L55.8742 5.73418C55.557 5.65343 55.3708 5.59412 55.2837 5.55781L54.7172 6.91737ZM55.526 7.1652L56.0166 7.27909L56.3497 5.84439L55.8591 5.7305L55.526 7.1652ZM56.007 7.27678C56.3748 7.36741 56.6822 7.47307 56.9346 7.58958L57.5518 6.25229C57.1968 6.08844 56.7974 5.95464 56.3593 5.84669L56.007 7.27678ZM56.9346 7.58958C57.1465 7.68737 57.2781 7.79959 57.3619 7.91229L58.5438 7.03343C58.2888 6.69057 57.9473 6.43484 57.5518 6.25229L56.9346 7.58958ZM57.3619 7.91229C57.4121 7.9799 57.4705 8.10983 57.4705 8.36646H58.9433C58.9433 7.88719 58.8323 7.42138 58.5438 7.03343L57.3619 7.91229ZM57.4705 8.36646C57.4705 8.69395 57.3941 8.88861 57.3024 9.01095L58.4806 9.89466C58.8094 9.4563 58.9433 8.92674 58.9433 8.36646H57.4705ZM57.3069 9.005C57.1969 9.14862 57.033 9.27254 56.776 9.36087L57.2548 10.7537C57.7455 10.5851 58.1656 10.306 58.4761 9.90061L57.3069 9.005ZM56.776 9.36087C56.4969 9.45682 56.1431 9.51361 55.7013 9.51361V10.9865C56.264 10.9865 56.7863 10.9148 57.2548 10.7537L56.776 9.36087Z" fill="#AF2F28" mask="url(#path-16-outside-1_292_988)"/>
<path d="M46.4019 84.6811H35.3939C33.4647 84.6811 31.9009 83.1173 31.9009 81.1881V70.18C31.9009 68.2509 33.4648 66.6871 35.3939 66.6871H46.4019C48.3311 66.6871 49.8949 68.251 49.8949 70.18V81.1881C49.8949 83.1173 48.3311 84.6811 46.4019 84.6811Z" fill="url(#paint1_linear_292_988)"/>
<path opacity="0.5" d="M46.402 66.6871H35.3938C33.4647 66.6871 31.9009 68.251 31.9009 70.1802V70.9784C31.9009 69.0489 33.4647 67.4853 35.3938 67.4853H46.402C48.3312 67.4853 49.8951 69.0489 49.8951 70.9784V70.1802C49.895 68.251 48.3311 66.6871 46.402 66.6871Z" fill="white"/>
<path d="M46.4021 66.6869C48.3313 66.6869 49.8951 68.2509 49.8951 70.1799V81.1881C49.8951 83.1173 48.3313 84.6811 46.4021 84.6811H35.394C33.4649 84.6811 31.9011 83.1173 31.9011 81.1881V70.1799C31.9011 68.2507 33.465 66.6869 35.394 66.6869H46.4021ZM46.4021 65H35.394C32.5377 65 30.2141 67.3238 30.2141 70.1799V81.1881C30.2141 84.0444 32.5379 86.368 35.394 86.368H46.4021C49.2584 86.368 51.582 84.0443 51.582 81.1881V70.1799C51.582 67.3238 49.2582 65 46.4021 65Z" fill="#AF2F28"/>
<path d="M45.3682 82.1417H36.4279C35.3303 82.1417 34.4404 81.2518 34.4404 80.1543V71.2141C34.4404 70.1164 35.3303 69.2267 36.4279 69.2267H45.3682C46.4659 69.2267 47.3557 70.1166 47.3557 71.2141V80.1543C47.3557 81.2518 46.4659 82.1417 45.3682 82.1417Z" fill="#FFE7C9"/>
<path d="M42.8799 71.6967L40.8915 73.6852L38.9094 71.7032C38.2982 71.0919 37.307 71.0919 36.6957 71.7032C36.0845 72.3144 36.0845 73.3056 36.6957 73.9168L38.6778 75.8989L36.7019 77.8747C36.0907 78.486 36.0907 79.4773 36.7021 80.0887C37.3133 80.6999 38.3045 80.6999 38.9158 80.0887L40.8916 78.1129L42.8736 80.0949C43.4851 80.7064 44.4761 80.7061 45.0873 80.0949C45.6987 79.4835 45.6988 78.4926 45.0873 77.881L43.1053 75.899L45.0938 73.9105C45.7052 73.2992 45.705 72.3081 45.0938 71.6968C44.4824 71.0854 43.4913 71.0853 42.8799 71.6967Z" fill="#AF2F28"/>
<defs>
<linearGradient id="paint0_linear_292_988" x1="40.9973" y1="79.0757" x2="40.9973" y2="0.978412" gradientUnits="userSpaceOnUse">
<stop stop-color="#D83E31"/>
<stop offset="0.095" stop-color="#DC4734"/>
<stop offset="1" stop-color="#FF9753"/>
</linearGradient>
<linearGradient id="paint1_linear_292_988" x1="40.8978" y1="84.6811" x2="40.8978" y2="66.6869" gradientUnits="userSpaceOnUse">
<stop stop-color="#D83E31"/>
<stop offset="0.095" stop-color="#DC4734"/>
<stop offset="1" stop-color="#FF9753"/>
</linearGradient>
</defs>
</svg>
