<svg width="41" height="33" viewBox="0 0 41 33" fill="none" xmlns="http://www.w3.org/2000/svg">
<path d="M28.3736 1.10837C24.1012 1.44317 21.771 3.70825 20.5014 5.98518C19.2318 3.70973 16.9015 1.44317 12.6291 1.10837C4.80432 0.496542 -1.93759 7.28882 1.88742 17.8824C5.17764 26.9916 17.1963 31.4773 20.5014 32.5558C23.8064 31.4773 35.8251 26.9916 39.1153 17.8824C42.9404 7.28882 36.1969 0.496542 28.3736 1.10837Z" fill="#E53625"/>
<path d="M20.4999 32.8344C20.4703 32.8344 20.4421 32.8299 20.414 32.821C16.8438 31.6552 4.93467 27.1398 1.6252 17.9773C-0.823578 11.1968 1.27559 6.94964 2.74515 5.02232C4.9806 2.08912 8.68265 0.521786 12.6499 0.832883C16.1016 1.1025 18.8052 2.69206 20.4999 5.4386C22.1946 2.69206 24.8997 1.1025 28.3514 0.832883C32.3186 0.521786 36.0192 2.08912 38.2561 5.02232C39.7257 6.94964 41.8248 11.1968 39.3761 17.9773C37.9524 21.9208 34.7837 25.4495 29.9602 28.4672C26.0537 30.91 22.1043 32.3262 20.5873 32.821C20.5591 32.8299 20.5295 32.8344 20.4999 32.8344ZM11.6618 1.34842C8.24712 1.34842 5.12874 2.80909 3.18661 5.3586C0.767461 8.53327 0.398594 12.9479 2.14814 17.7891C3.52882 21.6127 6.62052 25.0481 11.3359 27.9976C15.1194 30.3634 18.9444 31.7529 20.5014 32.2655C22.0583 31.7529 25.8833 30.3634 29.6669 27.9976C34.3822 25.0481 37.4739 21.6141 38.8546 17.7891C40.6027 12.9479 40.2338 8.53327 37.8161 5.3586C35.6947 2.57503 32.1734 1.08917 28.3958 1.38545C24.9189 1.65803 22.3457 3.25055 20.7443 6.12005C20.6954 6.20745 20.6021 6.26226 20.5029 6.26226C20.4021 6.26226 20.3103 6.20745 20.2614 6.12005C18.66 3.25055 16.0853 1.65655 12.6099 1.38545C12.2899 1.36027 11.9744 1.34842 11.6618 1.34842Z" fill="#721011"/>
<path d="M28.3736 1.10837C24.1012 1.44317 21.771 3.70825 20.5014 5.98518C19.2318 3.70973 16.9015 1.44317 12.6291 1.10837C4.80432 0.496542 -1.93759 7.28882 1.88742 17.8824C5.17764 26.9916 17.1963 31.4773 20.5014 32.5558C23.8064 31.4773 35.8251 26.9916 39.1153 17.8824C42.9404 7.28882 36.1969 0.496542 28.3736 1.10837ZM36.6369 17.3017C33.7852 25.1991 23.365 29.0878 20.5014 30.0226C17.6363 29.0878 7.21755 25.1991 4.36583 17.3017C1.04895 8.11693 6.8946 2.2298 13.6765 2.76014C17.38 3.04902 19.4007 5.01485 20.5014 6.98809C21.6021 5.01485 23.6227 3.0505 27.3263 2.76014C34.1082 2.2298 39.9538 8.11693 36.6369 17.3017Z" fill="#CD3221"/>
<path d="M6.38795 16.8499C6.71534 17.1639 7.06199 17.4588 7.42493 17.7313C8.1612 18.2839 8.97746 18.7979 9.84557 19.1135C11.761 19.8098 13.7817 19.395 15.6127 18.6483C16.9682 18.0958 18.2763 17.4054 19.5414 16.6706C21.808 15.3537 24.0064 13.9197 26.3367 12.7123C28.5869 11.5464 31.0668 10.4472 33.6385 10.3569C34.5066 10.3272 35.3792 10.4324 36.1969 10.7154C36.1777 10.5687 36.154 10.4206 36.1273 10.2695C35.4133 6.34074 31.2209 4.13344 27.4951 4.28158C27.3722 4.28602 27.2492 4.29343 27.1263 4.3038C23.556 4.58231 21.608 6.47703 20.5473 8.37917C19.4866 6.47703 17.5385 4.58231 13.9683 4.3038C10.727 4.05048 7.57752 5.37931 5.94796 7.92734C5.34206 8.87396 4.94653 9.98947 4.83394 11.2531C4.65913 13.2189 5.26208 15.2277 6.38203 16.8425C6.38203 16.8425 6.38647 16.8469 6.38795 16.8499Z" fill="#D75737"/>
<path opacity="0.87" d="M16.6527 5.94967C16.189 5.22674 14.8928 5.00008 14.158 4.9349C12.4766 4.7838 10.7285 5.10674 9.25301 5.94078C7.61309 6.86666 6.21019 8.46363 5.68281 10.2902C5.23246 11.8516 5.23098 14.0249 6.61165 15.1418C6.69017 15.2055 6.81016 15.1374 6.86941 15.0841C7.0457 14.927 7.09903 14.6737 7.11977 14.4485C7.14496 14.1893 7.13014 13.9271 7.11977 13.6678C7.09607 13.0264 7.25903 12.3894 7.5079 11.8012C7.78937 11.1346 8.23676 10.5702 8.73896 10.0547C9.2219 9.55987 9.76409 9.12582 10.3493 8.75843C12.0381 7.69626 13.6024 7.66366 15.5135 7.48441C16.0334 7.43553 16.7949 7.23998 16.823 6.59557C16.8334 6.34521 16.7697 6.13188 16.6527 5.94967Z" fill="white"/>
<path opacity="0.87" d="M26.6285 5.05347C26.6166 5.05199 26.6048 5.05051 26.5944 5.04902C25.5426 4.92755 23.2968 5.62085 22.9546 6.74524C22.762 7.37929 23.4464 7.51558 23.9308 7.49928C24.7323 7.47262 27.7899 6.67265 27.1055 5.36012C27.0151 5.1868 26.824 5.08458 26.6285 5.05347Z" fill="white"/>
<path opacity="0.87" d="M11.7373 17.2899C11.6736 16.9996 11.4396 16.7433 11.1537 16.6603C11.004 16.6174 10.8663 16.687 10.7611 16.7937C10.644 16.8337 10.5492 16.9329 10.5152 17.0529C10.4737 17.1951 10.4811 17.3492 10.5181 17.4914C10.5537 17.6277 10.6159 17.767 10.7166 17.8692C10.8366 17.9906 10.9951 18.0455 11.167 18.0366C11.3714 18.0262 11.5744 17.9269 11.6766 17.7433C11.7536 17.6025 11.7714 17.447 11.7373 17.2899Z" fill="white"/>
</svg>
