<svg width="216" height="75" viewBox="0 0 216 75" fill="none" xmlns="http://www.w3.org/2000/svg">
<path d="M203.644 50.3999V25.245C207.117 25.245 209.933 22.4297 209.933 18.9564V12.4825C209.933 9.11146 207.2 6.37878 203.829 6.37878H11.8381C8.46705 6.37878 5.73438 9.11146 5.73438 12.4825V18.9564C5.73438 22.4297 8.5497 25.245 12.023 25.245V50.3999C8.5497 50.3999 5.73438 53.2152 5.73438 56.6885V63.1624C5.73438 66.5335 8.46705 69.2661 11.8381 69.2661H203.829C207.2 69.2661 209.933 66.5335 209.933 63.1624V56.6885C209.933 53.2157 207.117 50.3999 203.644 50.3999Z" fill="url(#paint0_linear_312_562)"/>
<path d="M203.829 6.37886C207.2 6.37886 209.932 9.11154 209.932 12.4826V18.9565C209.932 22.4298 207.116 25.2451 203.644 25.2451V50.4C207.117 50.4 209.932 53.2153 209.932 56.6886V63.1625C209.932 66.5335 207.2 69.2662 203.829 69.2662H11.8375C8.46652 69.2662 5.73384 66.5335 5.73384 63.1625V56.6886C5.73384 53.2153 8.54916 50.4 12.0224 50.4V25.2451C8.54916 25.2451 5.73384 22.4298 5.73384 18.9565V12.4826C5.73384 9.11154 8.46652 6.37886 11.8375 6.37886H203.829ZM203.829 0.64502H11.8375C5.31004 0.64502 0 5.95554 0 12.4826V18.9565C0 23.5106 2.54583 27.4818 6.28859 29.5216V46.1234C2.54535 48.1633 0 52.134 0 56.6886V63.1625C0 69.6895 5.31051 75.0001 11.8375 75.0001H203.829C210.356 75.0001 215.667 69.6895 215.667 63.1625V56.6886C215.667 52.1345 213.121 48.1633 209.378 46.1234V29.5216C213.121 27.4818 215.667 23.5111 215.667 18.9565V12.4826C215.666 5.95554 210.356 0.64502 203.829 0.64502Z" fill="#AF2F28"/>
<g opacity="0.5">
<mask id="mask0_312_562" style="mask-type:luminance" maskUnits="userSpaceOnUse" x="5" y="6" width="205" height="64">
<path d="M203.644 50.3999V25.245C207.117 25.245 209.933 22.4297 209.933 18.9564V12.4825C209.933 9.11146 207.2 6.37878 203.829 6.37878H11.8381C8.46705 6.37878 5.73438 9.11146 5.73438 12.4825V18.9564C5.73438 22.4297 8.5497 25.245 12.023 25.245V50.3999C8.5497 50.3999 5.73438 53.2152 5.73438 56.6885V63.1624C5.73438 66.5335 8.46705 69.2661 11.8381 69.2661H203.829C207.2 69.2661 209.933 66.5335 209.933 63.1624V56.6885C209.933 53.2157 207.117 50.3999 203.644 50.3999Z" fill="white"/>
</mask>
<g mask="url(#mask0_312_562)">
<path d="M0.765625 35.8771V31.0879H50.0566V43.2752H84.5069V27.7914H144.181V48.3902H181.379V35.619H221.708V40.4082H186.168V53.1794H139.392V32.5805H89.2961V48.0643H45.2674V35.8771H0.765625Z" fill="white"/>
</g>
</g>
<mask id="path-5-outside-1_312_562" maskUnits="userSpaceOnUse" x="31.3333" y="20.7793" width="155" height="36" fill="black">
<rect fill="white" x="31.3333" y="20.7793" width="155" height="36"/>
<path d="M40.058 40.3131V44.3533C40.058 45.4737 39.7563 46.3248 39.153 46.9066C38.5712 47.4884 37.7955 47.7793 36.8259 47.7793H36.7936C35.7377 47.7793 34.8974 47.4884 34.2725 46.9066C33.6692 46.3248 33.3675 45.4737 33.3675 44.3533V39.796C33.3675 37.512 33.7123 35.7774 34.4018 34.5923C35.0913 33.4072 35.964 32.5561 37.0198 32.0389L36.8582 31.4248H36.3087C35.3176 31.4248 34.5311 31.1124 33.9493 30.4875C33.3891 29.8411 33.0982 28.9684 33.0766 27.8695C33.0551 26.7921 33.3352 25.9195 33.917 25.2515C34.5203 24.5835 35.3176 24.2495 36.3087 24.2495H44.8092C46.9855 24.2495 48.7524 24.9067 50.1098 26.2211C51.4889 27.514 52.1784 29.561 52.1784 32.3621C52.1784 34.3876 51.8229 35.9821 51.1118 37.1457C50.4007 38.3092 49.4634 39.128 48.2999 39.6021C47.1363 40.0761 45.8758 40.3131 44.5183 40.3131H40.058ZM39.6378 34.0752C39.6378 34.5492 39.724 34.8616 39.8964 35.0125C40.0903 35.1633 40.4243 35.2387 40.8983 35.2387H43.9042C44.8092 35.2387 45.4664 35.034 45.8758 34.6246C46.2852 34.1937 46.4899 33.5903 46.4899 32.8146C46.4899 32.0389 46.2852 31.4464 45.8758 31.037C45.4664 30.6276 44.8092 30.4229 43.9042 30.4229H40.8983C40.4243 30.4229 40.0903 30.4875 39.8964 30.6168C39.724 30.7461 39.6378 31.0585 39.6378 31.5541V34.0752ZM56.571 47.7793C55.5152 47.7793 54.718 47.4992 54.1793 46.9389C53.6621 46.3787 53.4036 45.6784 53.4036 44.8381V26.0919C53.4036 25.1653 53.6621 24.4004 54.1793 23.7971C54.718 23.1722 55.5152 22.8597 56.571 22.8597C57.5191 22.8597 58.2517 23.1722 58.7689 23.7971C59.286 24.4004 59.5446 25.1438 59.5446 26.0272V44.8381C59.5446 45.6784 59.286 46.3787 58.7689 46.9389C58.2517 47.4992 57.5191 47.7793 56.571 47.7793ZM65.9548 47.7793C64.3602 47.7793 63.1105 47.3483 62.2055 46.4865C61.3221 45.6246 60.8803 44.4179 60.8803 42.8665C60.8803 41.3151 61.3975 40.1946 62.4318 39.5051C63.466 38.794 64.7912 38.4385 66.4072 38.4385C67.3553 38.4385 68.2172 38.5031 68.9929 38.6324C69.7686 38.7617 70.4689 38.9449 71.0938 39.1819H71.1908V38.6971C71.1908 38.2015 71.0076 37.8136 70.6413 37.5335C70.275 37.2318 69.8117 37.0918 69.2515 37.1133C68.7128 37.1133 68.2496 37.1457 67.8617 37.2103C67.4954 37.2749 67.0321 37.3827 66.4719 37.5335C65.4376 37.7921 64.5434 37.7705 63.7892 37.4689C63.0351 37.1672 62.5179 36.5747 62.2378 35.6912C61.9793 34.7647 62.0331 33.989 62.3994 33.3641C62.7873 32.7392 63.3691 32.2544 64.1448 31.9096C64.8127 31.5864 65.5561 31.3171 66.3749 31.1016C67.2153 30.8861 68.1203 30.7784 69.0899 30.7784C71.9126 30.7784 73.9812 31.4679 75.2955 32.847C76.6315 34.2044 77.2995 36.4885 77.2995 39.699V44.7088C77.2995 45.5922 77.0301 46.3248 76.4914 46.9066C75.9527 47.4884 75.2094 47.7793 74.2613 47.7793C73.227 47.7793 72.4513 47.4884 71.9342 46.9066C71.4386 46.3248 71.1908 45.6138 71.1908 44.7734V44.0301H70.5443C70.5443 44.5903 70.4366 45.1613 70.2211 45.7431C70.0272 46.3248 69.607 46.8097 68.9606 47.1975C68.3357 47.5854 67.3338 47.7793 65.9548 47.7793ZM66.278 40.701C66.278 41.0673 66.4072 41.3259 66.6658 41.4767C66.9459 41.6275 67.5385 41.7029 68.4435 41.7029C69.2623 41.7029 69.8333 41.6275 70.1565 41.4767C70.4797 41.3259 70.6413 41.0673 70.6413 40.701C70.6413 40.3562 70.4797 40.1192 70.1565 39.9899C69.8333 39.8391 69.2623 39.7637 68.4435 39.7637C67.5385 39.7637 66.9459 39.8391 66.6658 39.9899C66.4072 40.1192 66.278 40.3562 66.278 40.701ZM84.4227 54.4374C82.979 54.4374 81.7939 54.2004 80.8674 53.7264C79.9624 53.2523 79.2513 52.6275 78.7342 51.8518C78.3033 51.1838 78.0555 50.4835 77.9908 49.7509C77.9477 49.0183 78.0878 48.3395 78.411 47.7147C78.7342 47.0682 79.219 46.5726 79.8654 46.2279C80.5334 45.8616 81.2014 45.7215 81.8694 45.8077C82.5373 45.8724 83.1514 46.1201 83.7117 46.5511C84.2719 46.9605 84.7028 47.4992 85.0045 48.1671C85.3277 48.8782 85.6509 49.3954 85.9741 49.7186C86.3189 50.0633 86.7606 50.1387 87.2993 49.9448C87.8164 49.7724 87.9996 49.2984 87.8488 48.5227C87.7195 47.747 87.4394 46.8312 87.0084 45.7754H85.8125C84.886 45.7754 83.9594 45.4414 83.0329 44.7734C82.1064 44.1055 81.3307 43.0496 80.7058 41.606L78.0555 35.465C77.6461 34.4953 77.603 33.6011 77.9262 32.7823C78.2709 31.9635 78.885 31.371 79.7685 31.0047C80.5873 30.6383 81.3953 30.6168 82.1926 30.94C82.9898 31.2632 83.6147 31.9527 84.0672 33.0086L86.5236 38.7294C86.933 39.6559 87.3747 40.3239 87.8488 40.7333C88.3443 41.1427 88.8615 41.2073 89.4002 40.9272C89.8742 40.6687 90.1328 40.3131 90.1759 39.8606C90.219 39.3866 89.9927 38.8156 89.4971 38.1476C89.2817 37.846 89.0231 37.512 88.7214 37.1457C88.4413 36.7794 88.1827 36.3592 87.9457 35.8851C87.7302 35.3895 87.6225 34.8401 87.6225 34.2368C87.6225 33.224 87.9673 32.3945 88.6568 31.748C89.3463 31.0801 90.2513 30.7461 91.3718 30.7461C92.3845 30.7461 93.1925 31.0693 93.7958 31.7157C94.4207 32.3621 94.7331 33.2025 94.7331 34.2368C94.7331 34.9694 94.647 35.7774 94.4746 36.6608C94.3022 37.5443 94.1083 38.3631 93.8928 39.1172L91.5657 47.6177C91.2209 48.889 90.7684 50.0418 90.2082 51.076C89.648 52.1103 88.9046 52.9291 87.978 53.5324C87.0515 54.1358 85.8664 54.4374 84.4227 54.4374ZM104.636 47.7793C103.193 47.5638 102.255 46.9066 101.824 45.8077C101.393 44.6872 101.48 43.2759 102.083 41.5736L106.349 29.4532C106.737 28.3328 107.179 27.3739 107.674 26.5767C108.192 25.7794 108.827 25.1653 109.581 24.7344C110.357 24.3034 111.316 24.0879 112.458 24.0879C114.182 24.0879 115.475 24.562 116.337 25.5101C117.22 26.4582 117.953 27.7725 118.534 29.4532L122.768 41.5736C123.372 43.2759 123.479 44.6872 123.092 45.8077C122.725 46.9066 121.81 47.5638 120.344 47.7793C119.159 47.9301 118.125 47.7901 117.241 47.3591C116.38 46.9282 115.862 46.2279 115.69 45.2583C115.561 44.6118 115.539 44.0731 115.625 43.6422C115.733 43.2113 115.83 42.8665 115.916 42.6079C115.981 42.3924 115.981 42.1877 115.916 41.9938C115.873 41.7783 115.712 41.6706 115.432 41.6706H109.42C109.14 41.6706 108.967 41.7783 108.903 41.9938C108.86 42.1877 108.881 42.3924 108.967 42.6079C109.053 42.8665 109.14 43.2113 109.226 43.6422C109.312 44.0731 109.301 44.6118 109.194 45.2583C109.021 46.2279 108.515 46.9282 107.674 47.3591C106.834 47.7901 105.821 47.9301 104.636 47.7793ZM114.817 37.1457L113.137 31.8773C113.094 31.6618 113.018 31.5002 112.91 31.3925C112.824 31.2632 112.673 31.1986 112.458 31.1986C112.243 31.1986 112.081 31.2632 111.973 31.3925C111.887 31.5002 111.812 31.6618 111.747 31.8773L110.099 37.1457H114.817ZM131.987 54.4374C130.673 54.4374 129.552 54.2974 128.626 54.0173C127.721 53.7372 126.848 53.3062 126.008 52.7244C125.275 52.2073 124.758 51.4854 124.456 50.5589C124.155 49.6324 124.305 48.6951 124.909 47.747C125.297 47.1652 125.727 46.7666 126.202 46.5511C126.697 46.3356 127.171 46.2494 127.624 46.2925C128.098 46.3141 128.507 46.411 128.852 46.5834C129.606 46.9497 130.188 47.2191 130.597 47.3914C131.028 47.5423 131.513 47.6177 132.052 47.6177C132.849 47.6177 133.517 47.3376 134.056 46.7773C134.616 46.2171 134.896 45.4306 134.896 44.4179V41.7999H134.314C134.163 42.9419 133.722 43.8469 132.989 44.5149C132.278 45.1613 131.297 45.4845 130.048 45.4845C129.1 45.4845 128.173 45.2475 127.268 44.7734C126.363 44.2994 125.62 43.5452 125.038 42.511C124.456 41.4767 124.165 40.1084 124.165 38.4062C124.165 35.9067 124.715 34.0428 125.814 32.8146C126.913 31.5864 128.335 30.9723 130.08 30.9723C131.287 30.9723 132.321 31.3817 133.183 32.2005C134.045 32.9978 134.476 34.1183 134.476 35.5619L134.573 35.5296V33.7196C134.573 32.9655 134.81 32.3083 135.284 31.748C135.779 31.1663 136.544 30.8754 137.579 30.8754C138.677 30.8754 139.464 31.1663 139.938 31.748C140.434 32.3083 140.681 32.9655 140.681 33.7196L140.714 43.9008C140.735 46.1417 140.455 48.0486 139.873 49.6216C139.313 51.1946 138.387 52.3904 137.094 53.2092C135.822 54.028 134.12 54.4374 131.987 54.4374ZM129.595 37.8567C129.595 39.0203 130.371 39.6021 131.922 39.6021C132.935 39.6021 133.646 39.462 134.056 39.1819C134.465 38.9018 134.67 38.4601 134.67 37.8567C134.67 37.2318 134.454 36.8009 134.023 36.5639C133.614 36.3269 132.903 36.2083 131.89 36.2083C131.157 36.2083 130.586 36.3269 130.177 36.5639C129.789 36.8009 129.595 37.2318 129.595 37.8567ZM147.136 47.7793C145.542 47.7793 144.292 47.3483 143.387 46.4865C142.504 45.6246 142.062 44.4179 142.062 42.8665C142.062 41.3151 142.579 40.1946 143.613 39.5051C144.648 38.794 145.973 38.4385 147.589 38.4385C148.537 38.4385 149.399 38.5031 150.174 38.6324C150.95 38.7617 151.65 38.9449 152.275 39.1819H152.372V38.6971C152.372 38.2015 152.189 37.8136 151.823 37.5335C151.456 37.2318 150.993 37.0918 150.433 37.1133C149.894 37.1133 149.431 37.1457 149.043 37.2103C148.677 37.2749 148.214 37.3827 147.653 37.5335C146.619 37.7921 145.725 37.7705 144.971 37.4689C144.217 37.1672 143.699 36.5747 143.419 35.6912C143.161 34.7647 143.215 33.989 143.581 33.3641C143.969 32.7392 144.551 32.2544 145.326 31.9096C145.994 31.5864 146.738 31.3171 147.556 31.1016C148.397 30.8861 149.302 30.7784 150.271 30.7784C153.094 30.7784 155.163 31.4679 156.477 32.847C157.813 34.2044 158.481 36.4885 158.481 39.699V44.7088C158.481 45.5922 158.212 46.3248 157.673 46.9066C157.134 47.4884 156.391 47.7793 155.443 47.7793C154.408 47.7793 153.633 47.4884 153.116 46.9066C152.62 46.3248 152.372 45.6138 152.372 44.7734V44.0301H151.726C151.726 44.5903 151.618 45.1613 151.403 45.7431C151.209 46.3248 150.789 46.8097 150.142 47.1975C149.517 47.5854 148.515 47.7793 147.136 47.7793ZM147.459 40.701C147.459 41.0673 147.589 41.3259 147.847 41.4767C148.127 41.6275 148.72 41.7029 149.625 41.7029C150.444 41.7029 151.015 41.6275 151.338 41.4767C151.661 41.3259 151.823 41.0673 151.823 40.701C151.823 40.3562 151.661 40.1192 151.338 39.9899C151.015 39.8391 150.444 39.7637 149.625 39.7637C148.72 39.7637 148.127 39.8391 147.847 39.9899C147.589 40.1192 147.459 40.3562 147.459 40.701ZM160.025 27.1261C160.025 26.1996 160.305 25.4562 160.866 24.896C161.447 24.3142 162.245 24.0233 163.257 24.0233C164.335 24.0233 165.132 24.3034 165.649 24.8636C166.188 25.4239 166.457 26.1673 166.457 27.0938C166.457 27.9988 166.188 28.7314 165.649 29.2916C165.132 29.8303 164.335 30.0997 163.257 30.0997C162.202 30.0997 161.394 29.8303 160.833 29.2916C160.295 28.7314 160.025 28.0096 160.025 27.1261ZM163.257 47.7793C162.245 47.7793 161.49 47.4992 160.995 46.9389C160.499 46.3787 160.252 45.6784 160.252 44.8381V33.7843C160.252 32.8577 160.499 32.1251 160.995 31.5864C161.49 31.0477 162.245 30.7784 163.257 30.7784C164.27 30.7784 165.024 31.0477 165.52 31.5864C166.037 32.1251 166.296 32.8362 166.296 33.7196V44.8381C166.296 45.6784 166.026 46.3787 165.488 46.9389C164.97 47.4992 164.227 47.7793 163.257 47.7793ZM171.212 47.7793C170.264 47.7793 169.499 47.4992 168.917 46.9389C168.357 46.3572 168.077 45.6461 168.077 44.8058V34.1075C168.077 33.2025 168.346 32.4376 168.885 31.8127C169.424 31.1878 170.199 30.8754 171.212 30.8754C172.203 30.8754 172.957 31.1878 173.475 31.8127C173.992 32.4376 174.25 33.224 174.25 34.1721V35.7882H174.832C174.832 34.56 175.048 33.5903 175.479 32.8793C175.931 32.1682 176.502 31.6618 177.192 31.3602C177.881 31.037 178.571 30.8754 179.26 30.8754C180.919 30.8754 182.137 31.4787 182.912 32.6854C183.688 33.8705 184.076 35.5619 184.076 37.7598V44.8058C184.076 45.6461 183.796 46.3572 183.236 46.9389C182.675 47.4992 181.921 47.7793 180.973 47.7793C180.003 47.7793 179.228 47.4992 178.646 46.9389C178.086 46.3572 177.806 45.6461 177.806 44.8058V39.0849C177.806 38.3092 177.655 37.7059 177.353 37.2749C177.073 36.844 176.653 36.6285 176.093 36.6285C175.446 36.6285 174.972 36.8655 174.671 37.3396C174.39 37.8136 174.25 38.417 174.25 39.1496V44.8058C174.25 45.6461 173.981 46.3572 173.442 46.9389C172.904 47.4992 172.16 47.7793 171.212 47.7793Z"/>
</mask>
<path d="M40.058 40.3131V44.3533C40.058 45.4737 39.7563 46.3248 39.153 46.9066C38.5712 47.4884 37.7955 47.7793 36.8259 47.7793H36.7936C35.7377 47.7793 34.8974 47.4884 34.2725 46.9066C33.6692 46.3248 33.3675 45.4737 33.3675 44.3533V39.796C33.3675 37.512 33.7123 35.7774 34.4018 34.5923C35.0913 33.4072 35.964 32.5561 37.0198 32.0389L36.8582 31.4248H36.3087C35.3176 31.4248 34.5311 31.1124 33.9493 30.4875C33.3891 29.8411 33.0982 28.9684 33.0766 27.8695C33.0551 26.7921 33.3352 25.9195 33.917 25.2515C34.5203 24.5835 35.3176 24.2495 36.3087 24.2495H44.8092C46.9855 24.2495 48.7524 24.9067 50.1098 26.2211C51.4889 27.514 52.1784 29.561 52.1784 32.3621C52.1784 34.3876 51.8229 35.9821 51.1118 37.1457C50.4007 38.3092 49.4634 39.128 48.2999 39.6021C47.1363 40.0761 45.8758 40.3131 44.5183 40.3131H40.058ZM39.6378 34.0752C39.6378 34.5492 39.724 34.8616 39.8964 35.0125C40.0903 35.1633 40.4243 35.2387 40.8983 35.2387H43.9042C44.8092 35.2387 45.4664 35.034 45.8758 34.6246C46.2852 34.1937 46.4899 33.5903 46.4899 32.8146C46.4899 32.0389 46.2852 31.4464 45.8758 31.037C45.4664 30.6276 44.8092 30.4229 43.9042 30.4229H40.8983C40.4243 30.4229 40.0903 30.4875 39.8964 30.6168C39.724 30.7461 39.6378 31.0585 39.6378 31.5541V34.0752ZM56.571 47.7793C55.5152 47.7793 54.718 47.4992 54.1793 46.9389C53.6621 46.3787 53.4036 45.6784 53.4036 44.8381V26.0919C53.4036 25.1653 53.6621 24.4004 54.1793 23.7971C54.718 23.1722 55.5152 22.8597 56.571 22.8597C57.5191 22.8597 58.2517 23.1722 58.7689 23.7971C59.286 24.4004 59.5446 25.1438 59.5446 26.0272V44.8381C59.5446 45.6784 59.286 46.3787 58.7689 46.9389C58.2517 47.4992 57.5191 47.7793 56.571 47.7793ZM65.9548 47.7793C64.3602 47.7793 63.1105 47.3483 62.2055 46.4865C61.3221 45.6246 60.8803 44.4179 60.8803 42.8665C60.8803 41.3151 61.3975 40.1946 62.4318 39.5051C63.466 38.794 64.7912 38.4385 66.4072 38.4385C67.3553 38.4385 68.2172 38.5031 68.9929 38.6324C69.7686 38.7617 70.4689 38.9449 71.0938 39.1819H71.1908V38.6971C71.1908 38.2015 71.0076 37.8136 70.6413 37.5335C70.275 37.2318 69.8117 37.0918 69.2515 37.1133C68.7128 37.1133 68.2496 37.1457 67.8617 37.2103C67.4954 37.2749 67.0321 37.3827 66.4719 37.5335C65.4376 37.7921 64.5434 37.7705 63.7892 37.4689C63.0351 37.1672 62.5179 36.5747 62.2378 35.6912C61.9793 34.7647 62.0331 33.989 62.3994 33.3641C62.7873 32.7392 63.3691 32.2544 64.1448 31.9096C64.8127 31.5864 65.5561 31.3171 66.3749 31.1016C67.2153 30.8861 68.1203 30.7784 69.0899 30.7784C71.9126 30.7784 73.9812 31.4679 75.2955 32.847C76.6315 34.2044 77.2995 36.4885 77.2995 39.699V44.7088C77.2995 45.5922 77.0301 46.3248 76.4914 46.9066C75.9527 47.4884 75.2094 47.7793 74.2613 47.7793C73.227 47.7793 72.4513 47.4884 71.9342 46.9066C71.4386 46.3248 71.1908 45.6138 71.1908 44.7734V44.0301H70.5443C70.5443 44.5903 70.4366 45.1613 70.2211 45.7431C70.0272 46.3248 69.607 46.8097 68.9606 47.1975C68.3357 47.5854 67.3338 47.7793 65.9548 47.7793ZM66.278 40.701C66.278 41.0673 66.4072 41.3259 66.6658 41.4767C66.9459 41.6275 67.5385 41.7029 68.4435 41.7029C69.2623 41.7029 69.8333 41.6275 70.1565 41.4767C70.4797 41.3259 70.6413 41.0673 70.6413 40.701C70.6413 40.3562 70.4797 40.1192 70.1565 39.9899C69.8333 39.8391 69.2623 39.7637 68.4435 39.7637C67.5385 39.7637 66.9459 39.8391 66.6658 39.9899C66.4072 40.1192 66.278 40.3562 66.278 40.701ZM84.4227 54.4374C82.979 54.4374 81.7939 54.2004 80.8674 53.7264C79.9624 53.2523 79.2513 52.6275 78.7342 51.8518C78.3033 51.1838 78.0555 50.4835 77.9908 49.7509C77.9477 49.0183 78.0878 48.3395 78.411 47.7147C78.7342 47.0682 79.219 46.5726 79.8654 46.2279C80.5334 45.8616 81.2014 45.7215 81.8694 45.8077C82.5373 45.8724 83.1514 46.1201 83.7117 46.5511C84.2719 46.9605 84.7028 47.4992 85.0045 48.1671C85.3277 48.8782 85.6509 49.3954 85.9741 49.7186C86.3189 50.0633 86.7606 50.1387 87.2993 49.9448C87.8164 49.7724 87.9996 49.2984 87.8488 48.5227C87.7195 47.747 87.4394 46.8312 87.0084 45.7754H85.8125C84.886 45.7754 83.9594 45.4414 83.0329 44.7734C82.1064 44.1055 81.3307 43.0496 80.7058 41.606L78.0555 35.465C77.6461 34.4953 77.603 33.6011 77.9262 32.7823C78.2709 31.9635 78.885 31.371 79.7685 31.0047C80.5873 30.6383 81.3953 30.6168 82.1926 30.94C82.9898 31.2632 83.6147 31.9527 84.0672 33.0086L86.5236 38.7294C86.933 39.6559 87.3747 40.3239 87.8488 40.7333C88.3443 41.1427 88.8615 41.2073 89.4002 40.9272C89.8742 40.6687 90.1328 40.3131 90.1759 39.8606C90.219 39.3866 89.9927 38.8156 89.4971 38.1476C89.2817 37.846 89.0231 37.512 88.7214 37.1457C88.4413 36.7794 88.1827 36.3592 87.9457 35.8851C87.7302 35.3895 87.6225 34.8401 87.6225 34.2368C87.6225 33.224 87.9673 32.3945 88.6568 31.748C89.3463 31.0801 90.2513 30.7461 91.3718 30.7461C92.3845 30.7461 93.1925 31.0693 93.7958 31.7157C94.4207 32.3621 94.7331 33.2025 94.7331 34.2368C94.7331 34.9694 94.647 35.7774 94.4746 36.6608C94.3022 37.5443 94.1083 38.3631 93.8928 39.1172L91.5657 47.6177C91.2209 48.889 90.7684 50.0418 90.2082 51.076C89.648 52.1103 88.9046 52.9291 87.978 53.5324C87.0515 54.1358 85.8664 54.4374 84.4227 54.4374ZM104.636 47.7793C103.193 47.5638 102.255 46.9066 101.824 45.8077C101.393 44.6872 101.48 43.2759 102.083 41.5736L106.349 29.4532C106.737 28.3328 107.179 27.3739 107.674 26.5767C108.192 25.7794 108.827 25.1653 109.581 24.7344C110.357 24.3034 111.316 24.0879 112.458 24.0879C114.182 24.0879 115.475 24.562 116.337 25.5101C117.22 26.4582 117.953 27.7725 118.534 29.4532L122.768 41.5736C123.372 43.2759 123.479 44.6872 123.092 45.8077C122.725 46.9066 121.81 47.5638 120.344 47.7793C119.159 47.9301 118.125 47.7901 117.241 47.3591C116.38 46.9282 115.862 46.2279 115.69 45.2583C115.561 44.6118 115.539 44.0731 115.625 43.6422C115.733 43.2113 115.83 42.8665 115.916 42.6079C115.981 42.3924 115.981 42.1877 115.916 41.9938C115.873 41.7783 115.712 41.6706 115.432 41.6706H109.42C109.14 41.6706 108.967 41.7783 108.903 41.9938C108.86 42.1877 108.881 42.3924 108.967 42.6079C109.053 42.8665 109.14 43.2113 109.226 43.6422C109.312 44.0731 109.301 44.6118 109.194 45.2583C109.021 46.2279 108.515 46.9282 107.674 47.3591C106.834 47.7901 105.821 47.9301 104.636 47.7793ZM114.817 37.1457L113.137 31.8773C113.094 31.6618 113.018 31.5002 112.91 31.3925C112.824 31.2632 112.673 31.1986 112.458 31.1986C112.243 31.1986 112.081 31.2632 111.973 31.3925C111.887 31.5002 111.812 31.6618 111.747 31.8773L110.099 37.1457H114.817ZM131.987 54.4374C130.673 54.4374 129.552 54.2974 128.626 54.0173C127.721 53.7372 126.848 53.3062 126.008 52.7244C125.275 52.2073 124.758 51.4854 124.456 50.5589C124.155 49.6324 124.305 48.6951 124.909 47.747C125.297 47.1652 125.727 46.7666 126.202 46.5511C126.697 46.3356 127.171 46.2494 127.624 46.2925C128.098 46.3141 128.507 46.411 128.852 46.5834C129.606 46.9497 130.188 47.2191 130.597 47.3914C131.028 47.5423 131.513 47.6177 132.052 47.6177C132.849 47.6177 133.517 47.3376 134.056 46.7773C134.616 46.2171 134.896 45.4306 134.896 44.4179V41.7999H134.314C134.163 42.9419 133.722 43.8469 132.989 44.5149C132.278 45.1613 131.297 45.4845 130.048 45.4845C129.1 45.4845 128.173 45.2475 127.268 44.7734C126.363 44.2994 125.62 43.5452 125.038 42.511C124.456 41.4767 124.165 40.1084 124.165 38.4062C124.165 35.9067 124.715 34.0428 125.814 32.8146C126.913 31.5864 128.335 30.9723 130.08 30.9723C131.287 30.9723 132.321 31.3817 133.183 32.2005C134.045 32.9978 134.476 34.1183 134.476 35.5619L134.573 35.5296V33.7196C134.573 32.9655 134.81 32.3083 135.284 31.748C135.779 31.1663 136.544 30.8754 137.579 30.8754C138.677 30.8754 139.464 31.1663 139.938 31.748C140.434 32.3083 140.681 32.9655 140.681 33.7196L140.714 43.9008C140.735 46.1417 140.455 48.0486 139.873 49.6216C139.313 51.1946 138.387 52.3904 137.094 53.2092C135.822 54.028 134.12 54.4374 131.987 54.4374ZM129.595 37.8567C129.595 39.0203 130.371 39.6021 131.922 39.6021C132.935 39.6021 133.646 39.462 134.056 39.1819C134.465 38.9018 134.67 38.4601 134.67 37.8567C134.67 37.2318 134.454 36.8009 134.023 36.5639C133.614 36.3269 132.903 36.2083 131.89 36.2083C131.157 36.2083 130.586 36.3269 130.177 36.5639C129.789 36.8009 129.595 37.2318 129.595 37.8567ZM147.136 47.7793C145.542 47.7793 144.292 47.3483 143.387 46.4865C142.504 45.6246 142.062 44.4179 142.062 42.8665C142.062 41.3151 142.579 40.1946 143.613 39.5051C144.648 38.794 145.973 38.4385 147.589 38.4385C148.537 38.4385 149.399 38.5031 150.174 38.6324C150.95 38.7617 151.65 38.9449 152.275 39.1819H152.372V38.6971C152.372 38.2015 152.189 37.8136 151.823 37.5335C151.456 37.2318 150.993 37.0918 150.433 37.1133C149.894 37.1133 149.431 37.1457 149.043 37.2103C148.677 37.2749 148.214 37.3827 147.653 37.5335C146.619 37.7921 145.725 37.7705 144.971 37.4689C144.217 37.1672 143.699 36.5747 143.419 35.6912C143.161 34.7647 143.215 33.989 143.581 33.3641C143.969 32.7392 144.551 32.2544 145.326 31.9096C145.994 31.5864 146.738 31.3171 147.556 31.1016C148.397 30.8861 149.302 30.7784 150.271 30.7784C153.094 30.7784 155.163 31.4679 156.477 32.847C157.813 34.2044 158.481 36.4885 158.481 39.699V44.7088C158.481 45.5922 158.212 46.3248 157.673 46.9066C157.134 47.4884 156.391 47.7793 155.443 47.7793C154.408 47.7793 153.633 47.4884 153.116 46.9066C152.62 46.3248 152.372 45.6138 152.372 44.7734V44.0301H151.726C151.726 44.5903 151.618 45.1613 151.403 45.7431C151.209 46.3248 150.789 46.8097 150.142 47.1975C149.517 47.5854 148.515 47.7793 147.136 47.7793ZM147.459 40.701C147.459 41.0673 147.589 41.3259 147.847 41.4767C148.127 41.6275 148.72 41.7029 149.625 41.7029C150.444 41.7029 151.015 41.6275 151.338 41.4767C151.661 41.3259 151.823 41.0673 151.823 40.701C151.823 40.3562 151.661 40.1192 151.338 39.9899C151.015 39.8391 150.444 39.7637 149.625 39.7637C148.72 39.7637 148.127 39.8391 147.847 39.9899C147.589 40.1192 147.459 40.3562 147.459 40.701ZM160.025 27.1261C160.025 26.1996 160.305 25.4562 160.866 24.896C161.447 24.3142 162.245 24.0233 163.257 24.0233C164.335 24.0233 165.132 24.3034 165.649 24.8636C166.188 25.4239 166.457 26.1673 166.457 27.0938C166.457 27.9988 166.188 28.7314 165.649 29.2916C165.132 29.8303 164.335 30.0997 163.257 30.0997C162.202 30.0997 161.394 29.8303 160.833 29.2916C160.295 28.7314 160.025 28.0096 160.025 27.1261ZM163.257 47.7793C162.245 47.7793 161.49 47.4992 160.995 46.9389C160.499 46.3787 160.252 45.6784 160.252 44.8381V33.7843C160.252 32.8577 160.499 32.1251 160.995 31.5864C161.49 31.0477 162.245 30.7784 163.257 30.7784C164.27 30.7784 165.024 31.0477 165.52 31.5864C166.037 32.1251 166.296 32.8362 166.296 33.7196V44.8381C166.296 45.6784 166.026 46.3787 165.488 46.9389C164.97 47.4992 164.227 47.7793 163.257 47.7793ZM171.212 47.7793C170.264 47.7793 169.499 47.4992 168.917 46.9389C168.357 46.3572 168.077 45.6461 168.077 44.8058V34.1075C168.077 33.2025 168.346 32.4376 168.885 31.8127C169.424 31.1878 170.199 30.8754 171.212 30.8754C172.203 30.8754 172.957 31.1878 173.475 31.8127C173.992 32.4376 174.25 33.224 174.25 34.1721V35.7882H174.832C174.832 34.56 175.048 33.5903 175.479 32.8793C175.931 32.1682 176.502 31.6618 177.192 31.3602C177.881 31.037 178.571 30.8754 179.26 30.8754C180.919 30.8754 182.137 31.4787 182.912 32.6854C183.688 33.8705 184.076 35.5619 184.076 37.7598V44.8058C184.076 45.6461 183.796 46.3572 183.236 46.9389C182.675 47.4992 181.921 47.7793 180.973 47.7793C180.003 47.7793 179.228 47.4992 178.646 46.9389C178.086 46.3572 177.806 45.6461 177.806 44.8058V39.0849C177.806 38.3092 177.655 37.7059 177.353 37.2749C177.073 36.844 176.653 36.6285 176.093 36.6285C175.446 36.6285 174.972 36.8655 174.671 37.3396C174.39 37.8136 174.25 38.417 174.25 39.1496V44.8058C174.25 45.6461 173.981 46.3572 173.442 46.9389C172.904 47.4992 172.16 47.7793 171.212 47.7793Z" fill="white"/>
<path d="M40.058 40.3131V38.587H38.3319V40.3131H40.058ZM39.153 46.9066L37.9549 45.6641L37.9436 45.675L37.9325 45.6861L39.153 46.9066ZM34.2725 46.9066L33.0744 48.1492L33.0853 48.1596L33.0963 48.1699L34.2725 46.9066ZM34.4018 34.5923L35.8938 35.4603L35.8938 35.4603L34.4018 34.5923ZM37.0198 32.0389L37.7791 33.5891L39.0489 32.9671L38.6891 31.5996L37.0198 32.0389ZM36.8582 31.4248L38.5275 30.9855L38.1888 29.6987H36.8582V31.4248ZM33.9493 30.4875L32.6449 31.618L32.665 31.6412L32.686 31.6637L33.9493 30.4875ZM33.0766 27.8695L34.8024 27.8357L34.8024 27.835L33.0766 27.8695ZM33.917 25.2515L32.636 24.0945L32.6256 24.1061L32.6154 24.1178L33.917 25.2515ZM50.1098 26.2211L48.9092 27.4612L48.9191 27.4709L48.9293 27.4804L50.1098 26.2211ZM51.1118 37.1457L49.639 36.2456L49.639 36.2456L51.1118 37.1457ZM48.2999 39.6021L47.6486 38.0035L47.6486 38.0035L48.2999 39.6021ZM39.8964 35.0125L38.7597 36.3115L38.7973 36.3443L38.8367 36.375L39.8964 35.0125ZM45.8758 34.6246L47.0963 35.8452L47.112 35.8295L47.1272 35.8135L45.8758 34.6246ZM45.8758 31.037L47.0963 29.8164L47.0963 29.8164L45.8758 31.037ZM39.8964 30.6168L38.9389 29.1806L38.8991 29.2072L38.8607 29.2359L39.8964 30.6168ZM38.3319 40.3131V44.3533H41.7841V40.3131H38.3319ZM38.3319 44.3533C38.3319 45.1689 38.1187 45.5061 37.9549 45.6641L40.3511 48.1492C41.394 47.1436 41.7841 45.7785 41.7841 44.3533H38.3319ZM37.9325 45.6861C37.7317 45.8869 37.4257 46.0532 36.8259 46.0532V49.5054C38.1653 49.5054 39.4107 49.09 40.3735 48.1272L37.9325 45.6861ZM36.8259 46.0532H36.7936V49.5054H36.8259V46.0532ZM36.7936 46.0532C36.0659 46.0532 35.6828 45.8613 35.4487 45.6433L33.0963 48.1699C34.112 49.1155 35.4096 49.5054 36.7936 49.5054V46.0532ZM35.4707 45.6641C35.3068 45.5061 35.0936 45.1689 35.0936 44.3533H31.6414C31.6414 45.7785 32.0315 47.1436 33.0744 48.1492L35.4707 45.6641ZM35.0936 44.3533V39.796H31.6414V44.3533H35.0936ZM35.0936 39.796C35.0936 37.6367 35.4281 36.2606 35.8938 35.4603L32.9099 33.7242C31.9964 35.2942 31.6414 37.3872 31.6414 39.796H35.0936ZM35.8938 35.4603C36.441 34.5198 37.0778 33.9326 37.7791 33.5891L36.2606 30.4888C34.8502 31.1796 33.7417 32.2946 32.9099 33.7243L35.8938 35.4603ZM38.6891 31.5996L38.5275 30.9855L35.1889 31.8641L35.3505 32.4782L38.6891 31.5996ZM36.8582 29.6987H36.3087V33.1509H36.8582V29.6987ZM36.3087 29.6987C35.7124 29.6987 35.4145 29.5282 35.2126 29.3113L32.686 31.6637C33.6476 32.6966 34.9227 33.1509 36.3087 33.1509V29.6987ZM35.2537 29.357C35.0256 29.0938 34.8183 28.6482 34.8024 27.8357L31.3509 27.9033C31.378 29.2886 31.7526 30.5884 32.6449 31.618L35.2537 29.357ZM34.8024 27.835C34.7875 27.0887 34.9764 26.6633 35.2186 26.3852L32.6154 24.1178C31.694 25.1757 31.3227 26.4955 31.3509 27.904L34.8024 27.835ZM35.1979 26.4085C35.4387 26.1419 35.7507 25.9756 36.3087 25.9756V22.5234C34.8845 22.5234 33.6019 23.0252 32.636 24.0945L35.1979 26.4085ZM36.3087 25.9756H44.8092V22.5234H36.3087V25.9756ZM44.8092 25.9756C46.6107 25.9756 47.9227 26.5061 48.9092 27.4612L51.3105 24.9811C49.582 23.3074 47.3603 22.5234 44.8092 22.5234V25.9756ZM48.9293 27.4804C49.8218 28.3171 50.4523 29.8075 50.4523 32.3621H53.9045C53.9045 29.3145 53.156 26.7109 51.2904 24.9619L48.9293 27.4804ZM50.4523 32.3621C50.4523 34.2139 50.1227 35.454 49.639 36.2456L52.5847 38.0457C53.5231 36.5102 53.9045 34.5612 53.9045 32.3621H50.4523ZM49.639 36.2456C49.1028 37.1229 48.4412 37.6806 47.6486 38.0035L48.9511 41.2006C50.4857 40.5754 51.6987 39.4955 52.5847 38.0457L49.639 36.2456ZM47.6486 38.0035C46.708 38.3868 45.6706 38.587 44.5183 38.587V42.0392C46.081 42.0392 47.5646 41.7655 48.9511 41.2006L47.6486 38.0035ZM44.5183 38.587H40.058V42.0392H44.5183V38.587ZM37.9117 34.0752C37.9117 34.4027 37.9399 34.7667 38.0385 35.124C38.1357 35.4763 38.3343 35.9392 38.7597 36.3115L41.033 33.7134C41.2861 33.9349 41.3554 34.1661 41.3664 34.206C41.3788 34.2509 41.3639 34.2217 41.3639 34.0752H37.9117ZM38.8367 36.375C39.5086 36.8976 40.3454 36.9648 40.8983 36.9648V33.5126C40.8247 33.5126 40.7692 33.5097 40.7295 33.5059C40.6893 33.5022 40.6718 33.4983 40.6725 33.4984C40.6728 33.4985 40.701 33.5047 40.748 33.5249C40.7955 33.5452 40.8704 33.5833 40.9561 33.65L38.8367 36.375ZM40.8983 36.9648H43.9042V33.5126H40.8983V36.9648ZM43.9042 36.9648C45.0165 36.9648 46.2211 36.7204 47.0963 35.8452L44.6553 33.4041C44.7117 33.3476 44.6019 33.5126 43.9042 33.5126V36.9648ZM47.1272 35.8135C47.9255 34.9732 48.216 33.8934 48.216 32.8146H44.7638C44.7638 33.2873 44.6449 33.4141 44.6244 33.4358L47.1272 35.8135ZM48.216 32.8146C48.216 31.7416 47.9275 30.6476 47.0963 29.8164L44.6553 32.2575C44.66 32.2622 44.6807 32.2822 44.7049 32.352C44.7317 32.4298 44.7638 32.5749 44.7638 32.8146H48.216ZM47.0963 29.8164C46.2211 28.9412 45.0165 28.6968 43.9042 28.6968V32.149C44.6019 32.149 44.7117 32.314 44.6553 32.2575L47.0963 29.8164ZM43.9042 28.6968H40.8983V32.149H43.9042V28.6968ZM40.8983 28.6968C40.3723 28.6968 39.5868 28.7487 38.9389 29.1806L40.8539 32.053C40.7689 32.1097 40.6996 32.1388 40.6633 32.1522C40.6266 32.1657 40.6096 32.1681 40.6203 32.166C40.6304 32.1641 40.6579 32.1595 40.7067 32.1556C40.755 32.1517 40.8183 32.149 40.8983 32.149V28.6968ZM38.8607 29.2359C38.3488 29.6199 38.1344 30.1415 38.0385 30.4891C37.9385 30.8516 37.9117 31.2239 37.9117 31.5541H41.3639C41.3639 31.3888 41.3802 31.357 41.3664 31.4071C41.3567 31.4423 41.2716 31.743 40.932 31.9977L38.8607 29.2359ZM37.9117 31.5541V34.0752H41.3639V31.5541H37.9117ZM54.1793 46.9389L52.9109 48.1097L52.9229 48.1226L52.935 48.1353L54.1793 46.9389ZM54.1793 23.7971L52.8719 22.67L52.8687 22.6737L54.1793 23.7971ZM58.7689 23.7971L57.4391 24.8976L57.4486 24.9091L57.4583 24.9204L58.7689 23.7971ZM56.571 46.0532C55.8109 46.0532 55.5333 45.8568 55.4235 45.7426L52.935 48.1353C53.9026 49.1416 55.2195 49.5054 56.571 49.5054V46.0532ZM55.4476 45.7682C55.2559 45.5605 55.1297 45.2926 55.1297 44.8381H51.6775C51.6775 46.0642 52.0684 47.197 52.9109 48.1097L55.4476 45.7682ZM55.1297 44.8381V26.0919H51.6775V44.8381H55.1297ZM55.1297 26.0919C55.1297 25.5051 55.2844 25.1601 55.4898 24.9204L52.8687 22.6737C52.0399 23.6407 51.6775 24.8255 51.6775 26.0919H55.1297ZM55.4866 24.9241C55.6103 24.7806 55.8666 24.5858 56.571 24.5858V21.1336C55.1639 21.1336 53.8256 21.5637 52.8719 22.67L55.4866 24.9241ZM56.571 24.5858C57.1015 24.5858 57.3069 24.7379 57.4391 24.8976L60.0986 22.6965C59.1965 21.6065 57.9367 21.1336 56.571 21.1336V24.5858ZM57.4583 24.9204C57.6769 25.1754 57.8185 25.5065 57.8185 26.0272H61.2707C61.2707 24.781 60.8951 23.6254 60.0794 22.6737L57.4583 24.9204ZM57.8185 26.0272V44.8381H61.2707V26.0272H57.8185ZM57.8185 44.8381C57.8185 45.2926 57.6923 45.5605 57.5005 45.7682L60.0372 48.1097C60.8798 47.197 61.2707 46.0642 61.2707 44.8381H57.8185ZM57.5005 45.7682C57.3867 45.8915 57.1631 46.0532 56.571 46.0532V49.5054C57.8751 49.5054 59.1168 49.1068 60.0372 48.1097L57.5005 45.7682ZM62.2055 46.4865L61.0001 47.722L61.0076 47.7292L61.0151 47.7364L62.2055 46.4865ZM62.4318 39.5051L63.3892 40.9413L63.3995 40.9345L63.4096 40.9275L62.4318 39.5051ZM68.9929 38.6324L69.2767 36.9298L69.2767 36.9298L68.9929 38.6324ZM71.0938 39.1819L70.4816 40.7958L70.7774 40.908H71.0938V39.1819ZM71.1908 39.1819V40.908H72.9169V39.1819H71.1908ZM70.6413 37.5335L69.544 38.8659L69.5681 38.8857L69.5928 38.9047L70.6413 37.5335ZM69.2515 37.1133V38.8394H69.2847L69.3178 38.8382L69.2515 37.1133ZM67.8617 37.2103L67.5779 35.5077L67.5698 35.509L67.5617 35.5105L67.8617 37.2103ZM66.4719 37.5335L66.8905 39.2081L66.9056 39.2043L66.9206 39.2003L66.4719 37.5335ZM63.7892 37.4689L63.1482 39.0715L63.1482 39.0715L63.7892 37.4689ZM62.2378 35.6912L60.5753 36.1552L60.5834 36.1842L60.5925 36.2129L62.2378 35.6912ZM62.3994 33.3641L60.9329 32.4538L60.9214 32.4723L60.9103 32.4912L62.3994 33.3641ZM64.1448 31.9096L64.8458 33.487L64.8714 33.4756L64.8966 33.4634L64.1448 31.9096ZM66.3749 31.1016L65.9462 29.4296L65.9356 29.4323L66.3749 31.1016ZM75.2955 32.847L74.0461 34.0379L74.0556 34.0479L74.0653 34.0577L75.2955 32.847ZM76.4914 46.9066L77.758 48.0794L77.758 48.0794L76.4914 46.9066ZM71.9342 46.9066L70.6202 48.0259L70.632 48.0398L70.6441 48.0534L71.9342 46.9066ZM71.1908 44.0301H72.9169V42.304H71.1908V44.0301ZM70.5443 44.0301V42.304H68.8182V44.0301H70.5443ZM70.2211 45.7431L68.6025 45.1436L68.5926 45.1702L68.5836 45.1972L70.2211 45.7431ZM68.9606 47.1975L68.0725 45.7174L68.0614 45.7241L68.0503 45.731L68.9606 47.1975ZM66.6658 41.4767L65.7961 42.9677L65.8215 42.9825L65.8475 42.9965L66.6658 41.4767ZM70.1565 41.4767L69.4266 39.9125L69.4266 39.9125L70.1565 41.4767ZM70.1565 39.9899L69.4266 41.5541L69.4705 41.5746L69.5154 41.5926L70.1565 39.9899ZM66.6658 39.9899L67.4378 41.5338L67.4611 41.5221L67.4842 41.5097L66.6658 39.9899ZM65.9548 46.0532C64.6762 46.0532 63.8983 45.715 63.3959 45.2365L61.0151 47.7364C62.3227 48.9817 64.0443 49.5054 65.9548 49.5054V46.0532ZM63.4109 45.2509C62.9412 44.7927 62.6064 44.0793 62.6064 42.8665H59.1542C59.1542 44.7566 59.7029 46.4564 61.0001 47.722L63.4109 45.2509ZM62.6064 42.8665C62.6064 41.7298 62.9561 41.23 63.3892 40.9413L61.4743 38.0689C59.8388 39.1592 59.1542 40.9003 59.1542 42.8665H62.6064ZM63.4096 40.9275C64.0836 40.4642 65.0404 40.1646 66.4072 40.1646V36.7124C64.5419 36.7124 62.8485 37.1239 61.4539 38.0827L63.4096 40.9275ZM66.4072 40.1646C67.2789 40.1646 68.044 40.2242 68.7092 40.335L69.2767 36.9298C68.3905 36.7821 67.4318 36.7124 66.4072 36.7124V40.1646ZM68.7092 40.335C69.3918 40.4488 69.9797 40.6054 70.4816 40.7958L71.706 37.568C70.9581 37.2843 70.1455 37.0746 69.2767 36.9298L68.7092 40.335ZM71.0938 40.908H71.1908V37.4558H71.0938V40.908ZM72.9169 39.1819V38.6971H69.4647V39.1819H72.9169ZM72.9169 38.6971C72.9169 37.7104 72.5188 36.7963 71.6898 36.1624L69.5928 38.9047C69.5862 38.8996 69.5693 38.8855 69.5487 38.8603C69.5276 38.8348 69.5081 38.8044 69.4926 38.7715C69.4596 38.7018 69.4647 38.6646 69.4647 38.6971H72.9169ZM71.7386 36.2011C70.988 35.5829 70.0872 35.3538 69.1852 35.3885L69.3178 38.8382C69.4363 38.8336 69.4977 38.8478 69.5196 38.8545C69.5373 38.8598 69.5406 38.8631 69.544 38.8659L71.7386 36.2011ZM69.2515 35.3872C68.6499 35.3872 68.0867 35.4229 67.5779 35.5077L68.1455 38.9129C68.4124 38.8684 68.7757 38.8394 69.2515 38.8394V35.3872ZM67.5617 35.5105C67.1258 35.5874 66.6086 35.7091 66.0232 35.8668L66.9206 39.2003C67.4556 39.0562 67.8649 38.9625 68.1617 38.9101L67.5617 35.5105ZM66.0533 35.859C65.2616 36.0569 64.7561 35.9966 64.4303 35.8662L63.1482 39.0715C64.3307 39.5445 65.6136 39.5273 66.8905 39.2081L66.0533 35.859ZM64.4303 35.8662C64.2269 35.7849 64.0319 35.6385 63.8832 35.1695L60.5925 36.2129C61.004 37.5108 61.8432 38.5495 63.1482 39.0715L64.4303 35.8662ZM63.9004 35.2272C63.7247 34.5976 63.829 34.3386 63.8885 34.237L60.9103 32.4912C60.2373 33.6394 60.2338 34.9317 60.5753 36.1552L63.9004 35.2272ZM63.866 34.2744C64.0444 33.987 64.3362 33.7135 64.8458 33.487L63.4437 30.3323C62.4019 30.7953 61.5302 31.4914 60.9329 32.4538L63.866 34.2744ZM64.8966 33.4634C65.4515 33.1949 66.0883 32.9619 66.8142 32.7709L65.9356 29.4323C65.0239 29.6723 64.174 29.978 63.393 30.3559L64.8966 33.4634ZM66.8036 32.7736C67.4886 32.598 68.2482 32.5045 69.0899 32.5045V29.0523C67.9924 29.0523 66.942 29.1743 65.9462 29.4296L66.8036 32.7736ZM69.0899 32.5045C71.668 32.5045 73.1867 33.1362 74.0461 34.0379L76.545 31.6561C74.7756 29.7996 72.1572 29.0523 69.0899 29.0523V32.5045ZM74.0653 34.0577C74.9252 34.9314 75.5734 36.6499 75.5734 39.699H79.0256C79.0256 36.327 78.3378 33.4775 76.5258 31.6362L74.0653 34.0577ZM75.5734 39.699V44.7088H79.0256V39.699H75.5734ZM75.5734 44.7088C75.5734 45.2111 75.4335 45.5085 75.2249 45.7339L77.758 48.0794C78.6267 47.1411 79.0256 45.9733 79.0256 44.7088H75.5734ZM75.2249 45.7339C75.0763 45.8943 74.8306 46.0532 74.2613 46.0532V49.5054C75.5881 49.5054 76.8292 49.0825 77.758 48.0794L75.2249 45.7339ZM74.2613 46.0532C73.5492 46.0532 73.3153 45.8623 73.2243 45.7599L70.6441 48.0534C71.5873 49.1145 72.9048 49.5054 74.2613 49.5054V46.0532ZM73.2481 45.7873C73.0457 45.5496 72.9169 45.2474 72.9169 44.7734H69.4647C69.4647 45.9802 69.8315 47.1001 70.6202 48.0259L73.2481 45.7873ZM72.9169 44.7734V44.0301H69.4647V44.7734H72.9169ZM71.1908 42.304H70.5443V45.7562H71.1908V42.304ZM68.8182 44.0301C68.8182 44.3648 68.7545 44.7331 68.6025 45.1436L71.8398 46.3426C72.1187 45.5894 72.2704 44.8157 72.2704 44.0301H68.8182ZM68.5836 45.1972C68.548 45.3042 68.4498 45.4911 68.0725 45.7174L69.8487 48.6776C70.7643 48.1283 71.5064 47.3455 71.8587 46.2889L68.5836 45.1972ZM68.0503 45.731C67.8479 45.8566 67.2504 46.0532 65.9548 46.0532V49.5054C67.4171 49.5054 68.8236 49.3141 69.8709 48.6641L68.0503 45.731ZM64.5519 40.701C64.5519 41.5204 64.8816 42.4342 65.7961 42.9677L67.5355 39.9857C67.6852 40.073 67.8279 40.2158 67.9188 40.3977C68.0017 40.5634 68.0041 40.6858 68.0041 40.701H64.5519ZM65.8475 42.9965C66.273 43.2256 66.7472 43.3135 67.1024 43.3587C67.4976 43.409 67.9511 43.429 68.4435 43.429V39.9768C68.0309 39.9768 67.7356 39.9592 67.5382 39.9341C67.4409 39.9217 67.3875 39.9099 67.3677 39.9048C67.3418 39.8981 67.3935 39.9081 67.4842 39.9569L65.8475 42.9965ZM68.4435 43.429C69.2695 43.429 70.1855 43.368 70.8864 43.0408L69.4266 39.9125C69.4918 39.8821 69.4641 39.9082 69.2598 39.9351C69.0731 39.9598 68.806 39.9768 68.4435 39.9768V43.429ZM70.8864 43.0408C71.2979 42.8488 71.698 42.5418 71.9838 42.0845C72.2678 41.63 72.3674 41.142 72.3674 40.701H68.9152C68.9152 40.6263 68.934 40.4507 69.0564 40.2548C69.1806 40.056 69.3383 39.9537 69.4266 39.9125L70.8864 43.0408ZM72.3674 40.701C72.3674 40.2529 72.2591 39.7511 71.9463 39.2923C71.6343 38.8347 71.2088 38.5518 70.7976 38.3873L69.5154 41.5926C69.4274 41.5573 69.2443 41.4576 69.094 41.237C68.9428 41.0153 68.9152 40.8043 68.9152 40.701H72.3674ZM70.8864 38.4258C70.1855 38.0986 69.2695 38.0376 68.4435 38.0376V41.4898C68.806 41.4898 69.0731 41.5068 69.2598 41.5315C69.4641 41.5584 69.4918 41.5845 69.4266 41.5541L70.8864 38.4258ZM68.4435 38.0376C67.9511 38.0376 67.4976 38.0576 67.1024 38.1079C66.7472 38.1531 66.273 38.241 65.8475 38.4701L67.4842 41.5097C67.3935 41.5585 67.3418 41.5685 67.3677 41.5618C67.3875 41.5567 67.4409 41.5449 67.5382 41.5325C67.7356 41.5074 68.0309 41.4898 68.4435 41.4898V38.0376ZM65.8939 38.446C65.4729 38.6565 65.1052 38.9879 64.8596 39.4381C64.6235 39.8709 64.5519 40.3179 64.5519 40.701H68.0041C68.0041 40.7393 67.997 40.8955 67.8903 41.0912C67.774 41.3044 67.6002 41.4526 67.4378 41.5338L65.8939 38.446ZM80.8674 53.7264L80.0665 55.2554L80.0738 55.2593L80.0812 55.263L80.8674 53.7264ZM78.7342 51.8518L77.2838 52.7875L77.2908 52.7984L77.298 52.8092L78.7342 51.8518ZM77.9908 49.7509L76.2677 49.8522L76.2692 49.8774L76.2714 49.9026L77.9908 49.7509ZM78.411 47.7147L79.9441 48.5077L79.9496 48.4972L79.9549 48.4866L78.411 47.7147ZM79.8654 46.2279L80.6777 47.7509L80.6866 47.7462L80.6954 47.7414L79.8654 46.2279ZM81.8694 45.8077L81.6485 47.5196L81.6757 47.5231L81.7031 47.5258L81.8694 45.8077ZM83.7117 46.5511L82.6592 47.9192L82.6761 47.9322L82.6932 47.9447L83.7117 46.5511ZM85.0045 48.1671L83.4314 48.8776L83.4331 48.8814L85.0045 48.1671ZM85.9741 49.7186L87.1947 48.498L87.1947 48.498L85.9741 49.7186ZM87.2993 49.9448L86.7535 48.3073L86.734 48.3138L86.7146 48.3207L87.2993 49.9448ZM87.8488 48.5227L86.1461 48.8065L86.15 48.8294L86.1544 48.8521L87.8488 48.5227ZM87.0084 45.7754L88.6065 45.1231L88.1682 44.0493H87.0084V45.7754ZM83.0329 44.7734L82.0235 46.1736L82.0235 46.1736L83.0329 44.7734ZM80.7058 41.606L79.121 42.2899L79.1217 42.2916L80.7058 41.606ZM78.0555 35.465L76.4652 36.1364L76.4707 36.1489L78.0555 35.465ZM77.9262 32.7823L76.3353 32.1125L76.3278 32.1304L76.3206 32.1485L77.9262 32.7823ZM79.7685 31.0047L80.4296 32.5991L80.4516 32.59L80.4734 32.5803L79.7685 31.0047ZM82.1926 30.94L82.8411 29.3404L82.8411 29.3404L82.1926 30.94ZM84.0672 33.0086L82.4806 33.6885L82.4811 33.6896L84.0672 33.0086ZM86.5236 38.7294L84.9375 39.4104L84.9411 39.4187L84.9447 39.427L86.5236 38.7294ZM87.8488 40.7333L86.7205 42.0397L86.7349 42.052L86.7494 42.0641L87.8488 40.7333ZM89.4002 40.9272L90.1965 42.4587L90.2117 42.4508L90.2267 42.4426L89.4002 40.9272ZM90.1759 39.8606L91.8942 40.0243L91.8949 40.0169L90.1759 39.8606ZM89.4971 38.1476L88.0925 39.1509L88.1016 39.1636L88.1109 39.1761L89.4971 38.1476ZM88.7214 37.1457L87.3503 38.1942L87.3692 38.2189L87.389 38.243L88.7214 37.1457ZM87.9457 35.8851L86.3628 36.5734L86.3812 36.6157L86.4018 36.6571L87.9457 35.8851ZM88.6568 31.748L89.8373 33.0073L89.8476 32.9976L89.8578 32.9878L88.6568 31.748ZM93.7958 31.7157L92.534 32.8935L92.5443 32.9045L92.5548 32.9154L93.7958 31.7157ZM94.4746 36.6608L92.7804 36.3303L92.7804 36.3303L94.4746 36.6608ZM93.8928 39.1172L92.2331 38.643L92.2305 38.6522L92.228 38.6615L93.8928 39.1172ZM91.5657 47.6177L89.9008 47.1619L89.8997 47.1659L91.5657 47.6177ZM90.2082 51.076L88.6904 50.2539L88.6904 50.2539L90.2082 51.076ZM87.978 53.5324L88.9199 54.9789L88.9199 54.9789L87.978 53.5324ZM84.4227 52.7113C83.1525 52.7113 82.2611 52.5006 81.6536 52.1897L80.0812 55.263C81.3267 55.9003 82.8056 56.1635 84.4227 56.1635V52.7113ZM81.6683 52.1973C80.9945 51.8444 80.512 51.4067 80.1704 50.8943L77.298 52.8092C77.9907 53.8482 78.9303 54.6603 80.0665 55.2554L81.6683 52.1973ZM80.1846 50.916C79.8931 50.4641 79.7483 50.0302 79.7102 49.5992L76.2714 49.9026C76.3627 50.9368 76.7134 51.9034 77.2838 52.7875L80.1846 50.916ZM79.7139 49.6495C79.6882 49.2127 79.7698 48.8447 79.9441 48.5077L76.8778 46.9216C76.4058 47.8343 76.2072 48.8238 76.2677 49.8522L79.7139 49.6495ZM79.9549 48.4866C80.1157 48.165 80.3425 47.9297 80.6777 47.7509L79.0532 44.7049C78.0955 45.2156 77.3528 45.9715 76.8671 46.9427L79.9549 48.4866ZM80.6954 47.7414C81.0868 47.5267 81.3896 47.4862 81.6485 47.5196L82.0902 44.0958C81.0132 43.9568 79.9801 44.1964 79.0355 44.7144L80.6954 47.7414ZM81.7031 47.5258C82.0312 47.5575 82.3414 47.6748 82.6592 47.9192L84.7641 45.1829C83.9614 44.5655 83.0435 44.1872 82.0356 44.0896L81.7031 47.5258ZM82.6932 47.9447C82.999 48.1682 83.2453 48.4656 83.4314 48.8776L86.5776 47.4567C86.1604 46.5328 85.5448 45.7528 84.7301 45.1575L82.6932 47.9447ZM83.4331 48.8814C83.7901 49.6668 84.2159 50.4014 84.7536 50.9391L87.1947 48.498C87.086 48.3893 86.8653 48.0896 86.5759 47.4529L83.4331 48.8814ZM84.7536 50.9391C85.1553 51.3408 85.669 51.632 86.2735 51.7352C86.8585 51.8351 87.4106 51.7393 87.884 51.5689L86.7146 48.3207C86.6493 48.3443 86.7112 48.3077 86.8545 48.3322C86.9259 48.3444 86.9982 48.3689 87.0642 48.4042C87.1291 48.4388 87.1719 48.4752 87.1947 48.498L84.7536 50.9391ZM87.8451 51.5823C88.5516 51.3468 89.1426 50.8378 89.4346 50.0821C89.6913 49.4178 89.6489 48.7372 89.5431 48.1932L86.1544 48.8521C86.1994 49.0839 86.1409 49.0282 86.2144 48.8379C86.2573 48.727 86.3346 48.6006 86.4537 48.4906C86.5701 48.3832 86.6839 48.3305 86.7535 48.3073L87.8451 51.5823ZM89.5514 48.2389C89.3939 47.2943 89.0663 46.2495 88.6065 45.1231L85.4103 46.4277C85.8124 47.4129 86.045 48.1996 86.1461 48.8065L89.5514 48.2389ZM87.0084 44.0493H85.8125V47.5015H87.0084V44.0493ZM85.8125 44.0493C85.3255 44.0493 84.7444 43.8794 84.0423 43.3733L82.0235 46.1736C83.1745 47.0034 84.4465 47.5015 85.8125 47.5015V44.0493ZM84.0423 43.3733C83.4461 42.9434 82.8358 42.1816 82.2899 40.9203L79.1217 42.2916C79.8255 43.9176 80.7666 45.2675 82.0235 46.1736L84.0423 43.3733ZM82.2906 40.922L79.6403 34.781L76.4707 36.1489L79.121 42.2899L82.2906 40.922ZM79.6456 34.7936C79.3753 34.1532 79.4061 33.7342 79.5317 33.4161L76.3206 32.1485C75.7998 33.468 75.9169 34.8375 76.4653 36.1364L79.6456 34.7936ZM79.517 33.4521C79.6712 33.0859 79.9302 32.8062 80.4296 32.5991L79.1074 29.4102C77.8398 29.9357 76.8706 30.8411 76.3353 32.1125L79.517 33.4521ZM80.4734 32.5803C80.8837 32.3967 81.2028 32.4013 81.5441 32.5397L82.8411 29.3404C81.5878 28.8323 80.2909 28.88 79.0636 29.429L80.4734 32.5803ZM81.5441 32.5397C81.7934 32.6407 82.1454 32.9063 82.4807 33.6885L85.6537 32.3286C85.084 30.9992 84.1863 29.8857 82.8411 29.3404L81.5441 32.5397ZM82.4811 33.6896L84.9375 39.4104L88.1097 38.0484L85.6533 32.3275L82.4811 33.6896ZM84.9447 39.427C85.401 40.4596 85.9697 41.3912 86.7205 42.0397L88.977 39.4269C88.7797 39.2566 88.465 38.8523 88.1024 38.0318L84.9447 39.427ZM86.7494 42.0641C87.1909 42.4288 87.7418 42.72 88.3942 42.8016C89.0548 42.8842 89.6692 42.7328 90.1965 42.4587L88.6038 39.3958C88.5937 39.4011 88.6115 39.3903 88.655 39.3814C88.7008 39.3721 88.7591 39.3681 88.8224 39.3761C88.9577 39.393 89.0022 39.4472 88.9481 39.4025L86.7494 42.0641ZM90.2267 42.4426C91.0953 41.9688 91.786 41.1606 91.8942 40.0243L88.4575 39.697C88.4603 39.6677 88.4681 39.6262 88.4861 39.5781C88.5041 39.5297 88.5281 39.4866 88.5537 39.4514C88.6051 39.3806 88.6363 39.3777 88.5736 39.4119L90.2267 42.4426ZM91.8949 40.0169C91.9963 38.9016 91.4596 37.8958 90.8834 37.1191L88.1109 39.1761C88.2984 39.4289 88.3917 39.6064 88.4338 39.7127C88.4753 39.8174 88.4479 39.8033 88.4569 39.7044L91.8949 40.0169ZM90.9017 37.1443C90.658 36.8031 90.3741 36.4372 90.0538 36.0484L87.389 38.243C87.6721 38.5867 87.9053 38.8888 88.0925 39.1509L90.9017 37.1443ZM90.0926 36.0971C89.8876 35.8291 89.6849 35.5039 89.4896 35.1132L86.4018 36.6571C86.6805 37.2144 86.9951 37.7297 87.3503 38.1942L90.0926 36.0971ZM89.5287 35.1969C89.418 34.9425 89.3486 34.6309 89.3486 34.2368H85.8964C85.8964 35.0493 86.0424 35.8366 86.3628 36.5734L89.5287 35.1969ZM89.3486 34.2368C89.3486 33.663 89.5228 33.3022 89.8373 33.0073L87.4762 30.4888C86.4118 31.4867 85.8964 32.7851 85.8964 34.2368H89.3486ZM89.8578 32.9878C90.1718 32.6836 90.6191 32.4722 91.3718 32.4722V29.02C89.8835 29.02 88.5208 29.4765 87.4558 30.5083L89.8578 32.9878ZM91.3718 32.4722C91.9824 32.4722 92.3058 32.649 92.534 32.8935L95.0577 30.538C94.0793 29.4896 92.7866 29.02 91.3718 29.02V32.4722ZM92.5548 32.9154C92.8215 33.1913 93.007 33.5775 93.007 34.2368H96.4592C96.4592 32.8274 96.0199 31.533 95.0369 30.516L92.5548 32.9154ZM93.007 34.2368C93.007 34.8367 92.9362 35.5321 92.7804 36.3303L96.1687 36.9914C96.3577 36.0227 96.4592 35.1021 96.4592 34.2368H93.007ZM92.7804 36.3303C92.6161 37.1723 92.4333 37.9425 92.2331 38.643L95.5525 39.5914C95.7833 38.7836 95.9883 37.9163 96.1687 36.9914L92.7804 36.3303ZM92.228 38.6615L89.9008 47.1619L93.2305 48.0735L95.5576 39.573L92.228 38.6615ZM89.8997 47.1659C89.5858 48.3236 89.1801 49.35 88.6904 50.2539L91.7259 51.8982C92.3568 50.7336 92.856 49.4544 93.2316 48.0695L89.8997 47.1659ZM88.6904 50.2539C88.2581 51.052 87.7063 51.6496 87.0362 52.086L88.9199 54.9789C90.1028 54.2087 91.0378 53.1686 91.7259 51.8982L88.6904 50.2539ZM87.0362 52.086C86.4637 52.4587 85.6327 52.7113 84.4227 52.7113V56.1635C86.1001 56.1635 87.6393 55.8128 88.9199 54.9789L87.0362 52.086ZM104.636 47.7793L104.381 49.4865L104.4 49.4892L104.418 49.4916L104.636 47.7793ZM101.824 45.8077L100.213 46.4274L100.217 46.4379L101.824 45.8077ZM102.083 41.5736L103.71 42.1503L103.711 42.1468L102.083 41.5736ZM106.349 29.4532L107.977 30.0264L107.98 30.0179L106.349 29.4532ZM107.674 26.5767L106.226 25.6373L106.217 25.6513L106.209 25.6654L107.674 26.5767ZM109.581 24.7344L108.743 23.2255L108.734 23.2305L108.725 23.2357L109.581 24.7344ZM116.337 25.5101L115.059 26.6712L115.066 26.679L115.074 26.6868L116.337 25.5101ZM118.534 29.4532L116.903 30.0179L116.905 30.0225L118.534 29.4532ZM122.768 41.5736L121.139 42.1429L121.141 42.1503L122.768 41.5736ZM123.092 45.8077L121.46 45.2431L121.457 45.2525L121.454 45.2619L123.092 45.8077ZM120.344 47.7793L120.562 49.4916L120.579 49.4895L120.595 49.487L120.344 47.7793ZM117.241 47.3591L116.47 48.903L116.477 48.9068L116.485 48.9105L117.241 47.3591ZM115.69 45.2583L117.39 44.9561L117.386 44.9379L117.383 44.9197L115.69 45.2583ZM115.625 43.6422L113.951 43.2236L113.941 43.2634L113.933 43.3037L115.625 43.6422ZM115.916 42.6079L117.554 43.1538L117.562 43.129L117.57 43.1039L115.916 42.6079ZM115.916 41.9938L114.224 42.3323L114.245 42.4377L114.279 42.5397L115.916 41.9938ZM108.903 41.9938L107.249 41.4978L107.231 41.558L107.218 41.6194L108.903 41.9938ZM108.967 42.6079L110.605 42.0621L110.589 42.014L110.57 41.9669L108.967 42.6079ZM109.226 43.6422L110.918 43.3037L110.918 43.3037L109.226 43.6422ZM109.194 45.2583L110.893 45.5604L110.895 45.5512L110.896 45.542L109.194 45.2583ZM107.674 47.3591L108.462 48.895L108.462 48.895L107.674 47.3591ZM114.817 37.1457V38.8718H117.18L116.462 36.6211L114.817 37.1457ZM113.137 31.8773L111.444 32.2158L111.463 32.3102L111.492 32.4019L113.137 31.8773ZM112.91 31.3925L111.474 32.35L111.569 32.4922L111.69 32.613L112.91 31.3925ZM111.973 31.3925L110.647 30.2875L110.636 30.3007L110.625 30.3142L111.973 31.3925ZM111.747 31.8773L113.394 32.3928L113.397 32.3831L113.4 32.3733L111.747 31.8773ZM110.099 37.1457L108.451 36.6302L107.75 38.8718H110.099V37.1457ZM104.891 46.0721C103.889 45.9226 103.581 45.5582 103.431 45.1775L100.217 46.4379C100.93 48.2551 102.496 49.2051 104.381 49.4865L104.891 46.0721ZM103.435 45.1881C103.211 44.6046 103.177 43.6535 103.71 42.1503L100.456 40.997C99.7821 42.8983 99.5758 44.7699 100.213 46.4273L103.435 45.1881ZM103.711 42.1468L107.977 30.0264L104.721 28.8801L100.455 41.0005L103.711 42.1468ZM107.98 30.0179C108.337 28.9886 108.728 28.152 109.14 27.4879L106.209 25.6654C105.63 26.5958 105.138 27.6769 104.718 28.8886L107.98 30.0179ZM109.123 27.516C109.504 26.9276 109.945 26.5149 110.438 26.233L108.725 23.2357C107.71 23.8157 106.879 24.6313 106.226 25.6373L109.123 27.516ZM110.42 26.2432C110.876 25.9899 111.527 25.814 112.458 25.814V22.3618C111.105 22.3618 109.839 22.6169 108.743 23.2255L110.42 26.2432ZM112.458 25.814C113.871 25.814 114.626 26.1951 115.059 26.6712L117.614 24.349C116.323 22.9289 114.492 22.3618 112.458 22.3618V25.814ZM115.074 26.6868C115.744 27.4061 116.373 28.4851 116.903 30.0179L120.165 28.8886C119.532 27.06 118.696 25.5102 117.599 24.3333L115.074 26.6868ZM116.905 30.0225L121.139 42.1429L124.398 41.0044L120.164 28.884L116.905 30.0225ZM121.141 42.1503C121.679 43.6673 121.668 44.6422 121.46 45.2431L124.723 46.3723C125.29 44.7323 125.064 42.8845 124.395 40.997L121.141 42.1503ZM121.454 45.2619C121.354 45.5625 121.127 45.9196 120.093 46.0716L120.595 49.487C122.492 49.2081 124.097 48.2508 124.729 46.3536L121.454 45.2619ZM120.126 46.067C119.202 46.1846 118.52 46.0622 117.998 45.8078L116.485 48.9105C117.73 49.518 119.116 49.6756 120.562 49.4916L120.126 46.067ZM118.013 45.8153C117.652 45.6346 117.469 45.4024 117.39 44.9561L113.991 45.5604C114.256 47.0533 115.107 48.2217 116.47 48.903L118.013 45.8153ZM117.383 44.9197C117.278 44.3956 117.293 44.1054 117.318 43.9807L113.933 43.3037C113.785 44.0409 113.844 44.8281 113.998 45.5968L117.383 44.9197ZM117.3 44.0608C117.403 43.6497 117.488 43.3527 117.554 43.1538L114.279 42.0621C114.173 42.3803 114.064 42.7728 113.951 43.2236L117.3 44.0608ZM117.57 43.1039C117.726 42.5837 117.742 42.0131 117.554 41.448L114.279 42.5397C114.252 42.4604 114.239 42.3757 114.239 42.2928C114.239 42.2114 114.252 42.1493 114.263 42.1119L117.57 43.1039ZM117.609 41.6553C117.51 41.1629 117.233 40.6572 116.72 40.3152C116.256 40.0059 115.769 39.9445 115.432 39.9445V43.3967C115.374 43.3967 115.108 43.3892 114.805 43.1876C114.454 42.9534 114.279 42.6092 114.224 42.3323L117.609 41.6553ZM115.432 39.9445H109.42V43.3967H115.432V39.9445ZM109.42 39.9445C109.074 39.9445 108.611 40.0092 108.166 40.2877C107.685 40.588 107.388 41.0346 107.249 41.4978L110.556 42.4898C110.482 42.7376 110.303 43.0226 109.995 43.2151C109.722 43.3859 109.486 43.3967 109.42 43.3967V39.9445ZM107.218 41.6194C107.087 42.2065 107.172 42.7667 107.365 43.249L110.57 41.9669C110.578 41.9881 110.595 42.0379 110.603 42.1121C110.611 42.1885 110.608 42.2766 110.588 42.3683L107.218 41.6194ZM107.33 43.1538C107.384 43.3163 107.454 43.5831 107.533 43.9807L110.918 43.3037C110.826 42.8394 110.723 42.4167 110.605 42.0621L107.33 43.1538ZM107.533 43.9807C107.564 44.1319 107.58 44.4428 107.491 44.9745L110.896 45.542C111.023 44.7808 111.061 44.0144 110.918 43.3037L107.533 43.9807ZM107.494 44.9561C107.411 45.4212 107.224 45.6505 106.887 45.8232L108.462 48.895C109.806 48.2059 110.631 47.0346 110.893 45.5604L107.494 44.9561ZM106.887 45.8232C106.429 46.0579 105.786 46.1855 104.854 46.067L104.418 49.4916C105.857 49.6747 107.239 49.5223 108.462 48.895L106.887 45.8232ZM116.462 36.6211L114.781 31.3527L111.492 32.4019L113.173 37.6703L116.462 36.6211ZM114.829 31.5388C114.748 31.1299 114.564 30.6053 114.131 30.172L111.69 32.613C111.58 32.5027 111.517 32.3955 111.484 32.3245C111.467 32.289 111.457 32.2611 111.452 32.2433C111.449 32.2343 111.447 32.2275 111.446 32.2229C111.445 32.2184 111.444 32.216 111.444 32.2158L114.829 31.5388ZM114.347 30.435C113.825 29.6531 113.007 29.4725 112.458 29.4725V32.9247C112.402 32.9247 112.248 32.9173 112.053 32.8336C111.839 32.7418 111.628 32.5799 111.474 32.35L114.347 30.435ZM112.458 29.4725C111.885 29.4725 111.171 29.6593 110.647 30.2875L113.299 32.4975C113.163 32.6608 112.992 32.7794 112.816 32.8497C112.651 32.9158 112.519 32.9247 112.458 32.9247V29.4725ZM110.625 30.3142C110.341 30.6695 110.187 31.0708 110.094 31.3813L113.4 32.3733C113.414 32.326 113.421 32.313 113.416 32.3245C113.413 32.3311 113.405 32.3476 113.391 32.3715C113.376 32.3952 113.354 32.4298 113.321 32.4708L110.625 30.3142ZM110.1 31.3619L108.451 36.6302L111.746 37.6611L113.394 32.3928L110.1 31.3619ZM110.099 38.8718H114.817V35.4196H110.099V38.8718ZM128.626 54.0173L128.115 55.6662L128.126 55.6695L128.626 54.0173ZM126.008 52.7244L125.012 54.1346L125.019 54.1391L125.025 54.1436L126.008 52.7244ZM124.456 50.5589L126.097 50.0245L126.097 50.0245L124.456 50.5589ZM124.909 47.747L123.472 46.7895L123.462 46.8048L123.452 46.8203L124.909 47.747ZM126.202 46.5511L125.513 44.9681L125.5 44.9738L125.487 44.9797L126.202 46.5511ZM127.624 46.2925L127.46 48.0109L127.503 48.0149L127.545 48.0168L127.624 46.2925ZM128.852 46.5834L128.08 48.1273L128.089 48.1317L128.098 48.1361L128.852 46.5834ZM130.597 47.3914L129.927 48.9823L129.977 49.003L130.027 49.0206L130.597 47.3914ZM134.056 46.7773L132.835 45.5568L132.823 45.5688L132.811 45.581L134.056 46.7773ZM134.896 41.7999H136.622V40.0738H134.896V41.7999ZM134.314 41.7999V40.0738H132.801L132.603 41.5739L134.314 41.7999ZM132.989 44.5149L134.15 45.7921L134.152 45.7904L132.989 44.5149ZM127.268 44.7734L128.069 43.2444L128.069 43.2444L127.268 44.7734ZM125.038 42.511L123.534 43.3572L123.534 43.3572L125.038 42.511ZM125.814 32.8146L127.1 33.9656L127.1 33.9656L125.814 32.8146ZM133.183 32.2005L131.994 33.452L132.002 33.4599L132.011 33.4677L133.183 32.2005ZM134.476 35.5619H132.75V37.9568L135.022 37.1995L134.476 35.5619ZM134.573 35.5296L135.119 37.1671L136.299 36.7737V35.5296H134.573ZM135.284 31.748L133.97 30.6287L133.966 30.6331L135.284 31.748ZM139.938 31.748L138.6 32.8384L138.622 32.8655L138.645 32.8917L139.938 31.748ZM140.681 33.7196L138.955 33.7196L138.955 33.7251L140.681 33.7196ZM140.714 43.9008L138.988 43.9062L138.988 43.9174L140.714 43.9008ZM139.873 49.6216L138.254 49.0228L138.251 49.0326L138.247 49.0425L139.873 49.6216ZM137.094 53.2092L136.17 51.751L136.159 51.7581L137.094 53.2092ZM134.056 39.1819L135.03 40.6065L135.03 40.6065L134.056 39.1819ZM134.023 36.5639L133.158 38.0577L133.175 38.0672L133.191 38.0763L134.023 36.5639ZM130.177 36.5639L129.312 35.0701L129.294 35.0803L129.277 35.091L130.177 36.5639ZM131.987 52.7113C130.786 52.7113 129.843 52.5822 129.125 52.365L128.126 55.6695C129.261 56.0126 130.56 56.1635 131.987 56.1635V52.7113ZM129.136 52.3683C128.412 52.1442 127.697 51.7947 126.99 51.3052L125.025 54.1436C125.999 54.8177 127.029 55.3301 128.115 55.6662L129.136 52.3683ZM127.003 51.3143C126.601 51.0307 126.294 50.6296 126.097 50.0245L122.815 51.0933C123.221 52.3413 123.949 53.3839 125.012 54.1346L127.003 51.3143ZM126.097 50.0245C125.981 49.6665 125.991 49.2614 126.365 48.6737L123.452 46.8203C122.62 48.1287 122.328 49.5982 122.815 51.0933L126.097 50.0245ZM126.345 48.7044C126.614 48.3015 126.819 48.1664 126.916 48.1225L125.487 44.9797C124.636 45.3668 123.98 46.0289 123.472 46.7895L126.345 48.7044ZM126.89 48.134C127.168 48.0131 127.349 48.0003 127.46 48.0109L127.787 44.5742C126.994 44.4986 126.226 44.6582 125.513 44.9681L126.89 48.134ZM127.545 48.0168C127.832 48.0299 127.995 48.0848 128.08 48.1273L129.624 45.0395C129.019 44.7372 128.363 44.5983 127.702 44.5682L127.545 48.0168ZM128.098 48.1361C128.86 48.5063 129.475 48.7917 129.927 48.9823L131.267 45.8006C130.901 45.6464 130.352 45.3932 129.606 45.0308L128.098 48.1361ZM130.027 49.0206C130.671 49.246 131.353 49.3438 132.052 49.3438V45.8916C131.673 45.8916 131.385 45.8386 131.167 45.7623L130.027 49.0206ZM132.052 49.3438C133.305 49.3438 134.426 48.8821 135.3 47.9737L132.811 45.581C132.607 45.793 132.393 45.8916 132.052 45.8916V49.3438ZM135.276 47.9979C136.244 47.0304 136.622 45.7549 136.622 44.4179H133.17C133.17 45.1064 132.988 45.4038 132.835 45.5568L135.276 47.9979ZM136.622 44.4179V41.7999H133.17V44.4179H136.622ZM134.896 40.0738H134.314V43.526H134.896V40.0738ZM132.603 41.5739C132.496 42.3812 132.21 42.8891 131.826 43.2394L134.152 45.7904C135.233 44.8047 135.83 43.5026 136.025 42.0259L132.603 41.5739ZM131.828 43.2377C131.521 43.517 131.001 43.7584 130.048 43.7584V47.2106C131.594 47.2106 133.035 46.8056 134.15 45.7921L131.828 43.2377ZM130.048 43.7584C129.4 43.7584 128.747 43.5993 128.069 43.2444L126.467 46.3025C127.6 46.8957 128.799 47.2106 130.048 47.2106V43.7584ZM128.069 43.2444C127.505 42.9489 126.988 42.4562 126.542 41.6647L123.534 43.3572C124.252 44.6343 125.221 45.6499 126.467 46.3025L128.069 43.2444ZM126.542 41.6647C126.156 40.977 125.891 39.933 125.891 38.4062H122.439C122.439 40.2839 122.757 41.9764 123.534 43.3572L126.542 41.6647ZM125.891 38.4062C125.891 36.119 126.4 34.7484 127.1 33.9656L124.527 31.6637C123.03 33.3372 122.439 35.6944 122.439 38.4062H125.891ZM127.1 33.9656C127.85 33.1271 128.793 32.6984 130.08 32.6984V29.2462C127.876 29.2462 125.975 30.0458 124.527 31.6637L127.1 33.9656ZM130.08 32.6984C130.852 32.6984 131.458 32.943 131.994 33.452L134.372 30.9491C133.184 29.8205 131.722 29.2462 130.08 29.2462V32.6984ZM132.011 33.4677C132.441 33.8654 132.75 34.4806 132.75 35.5619H136.202C136.202 33.7559 135.649 32.1301 134.355 30.9334L132.011 33.4677ZM135.022 37.1995L135.119 37.1671L134.027 33.8921L133.93 33.9244L135.022 37.1995ZM136.299 35.5296V33.7196H132.847V35.5296H136.299ZM136.299 33.7196C136.299 33.3614 136.399 33.1023 136.601 32.863L133.966 30.6331C133.22 31.5142 132.847 32.5695 132.847 33.7196H136.299ZM136.598 32.8674C136.66 32.794 136.862 32.6015 137.579 32.6015V29.1493C136.227 29.1493 134.898 29.5385 133.97 30.6287L136.598 32.8674ZM137.579 32.6015C138.407 32.6015 138.584 32.8185 138.6 32.8384L141.276 30.6577C140.344 29.5141 138.948 29.1493 137.579 29.1493V32.6015ZM138.645 32.8917C138.859 33.1335 138.955 33.3829 138.955 33.7196H142.407C142.407 32.548 142.008 31.483 141.231 30.6044L138.645 32.8917ZM138.955 33.7251L138.988 43.9062L142.44 43.8953L142.407 33.7141L138.955 33.7251ZM138.988 43.9174C139.008 46.0148 138.743 47.7007 138.254 49.0228L141.492 50.2204C142.167 48.3966 142.463 46.2686 142.44 43.8842L138.988 43.9174ZM138.247 49.0425C137.804 50.2873 137.107 51.1577 136.17 51.751L138.017 54.6675C139.666 53.6232 140.822 52.1018 141.499 50.2007L138.247 49.0425ZM136.159 51.7581C135.259 52.3379 133.919 52.7113 131.987 52.7113V56.1635C134.321 56.1635 136.386 55.7182 138.028 54.6604L136.159 51.7581ZM127.869 37.8567C127.869 38.8597 128.23 39.8628 129.141 40.5466C129.96 41.1604 130.981 41.3282 131.922 41.3282V37.876C131.637 37.876 131.444 37.8486 131.323 37.8184C131.204 37.7887 131.184 37.7637 131.213 37.7848C131.251 37.8133 131.293 37.864 131.318 37.9193C131.338 37.9645 131.321 37.9577 131.321 37.8567H127.869ZM131.922 41.3282C132.986 41.3282 134.16 41.2018 135.03 40.6065L133.081 37.7573C133.137 37.7189 133.104 37.7596 132.882 37.8035C132.67 37.8452 132.357 37.876 131.922 37.876V41.3282ZM135.03 40.6065C136.015 39.9328 136.396 38.8896 136.396 37.8567H132.944C132.944 37.9662 132.925 37.969 132.95 37.9148C132.963 37.8874 132.982 37.855 133.009 37.823C133.037 37.7912 133.063 37.7697 133.081 37.7573L135.03 40.6065ZM136.396 37.8567C136.396 36.8014 135.992 35.677 134.855 35.0514L133.191 38.0763C133.157 38.0574 133.111 38.0257 133.066 37.9784C133.02 37.9308 132.986 37.8807 132.964 37.8368C132.922 37.7522 132.944 37.7355 132.944 37.8567H136.396ZM134.888 35.0701C134.052 34.586 132.933 34.4822 131.89 34.4822V37.9344C132.336 37.9344 132.666 37.9611 132.899 37.9998C133.146 38.041 133.202 38.0827 133.158 38.0577L134.888 35.0701ZM131.89 34.4822C131.006 34.4822 130.091 34.6194 129.312 35.0701L131.042 38.0577C131.082 38.0343 131.309 37.9344 131.89 37.9344V34.4822ZM129.277 35.091C128.193 35.7534 127.869 36.8815 127.869 37.8567H131.321C131.321 37.7135 131.345 37.7065 131.315 37.7732C131.298 37.8095 131.27 37.8592 131.224 37.9117C131.178 37.9646 131.126 38.0065 131.077 38.0367L129.277 35.091ZM143.387 46.4865L142.182 47.722L142.189 47.7292L142.197 47.7364L143.387 46.4865ZM143.613 39.5051L144.571 40.9413L144.581 40.9345L144.591 40.9275L143.613 39.5051ZM150.174 38.6324L150.458 36.9298L150.458 36.9298L150.174 38.6324ZM152.275 39.1819L151.663 40.7958L151.959 40.908H152.275V39.1819ZM152.372 39.1819V40.908H154.098V39.1819H152.372ZM151.823 37.5335L150.725 38.8659L150.75 38.8857L150.774 38.9047L151.823 37.5335ZM150.433 37.1133V38.8394H150.466L150.499 38.8382L150.433 37.1133ZM149.043 37.2103L148.759 35.5077L148.751 35.509L148.743 35.5105L149.043 37.2103ZM147.653 37.5335L148.072 39.2081L148.087 39.2043L148.102 39.2003L147.653 37.5335ZM144.971 37.4689L144.33 39.0715L144.33 39.0715L144.971 37.4689ZM143.419 35.6912L141.757 36.1552L141.765 36.1842L141.774 36.2129L143.419 35.6912ZM143.581 33.3641L142.114 32.4538L142.103 32.4723L142.092 32.4912L143.581 33.3641ZM145.326 31.9096L146.027 33.487L146.053 33.4756L146.078 33.4634L145.326 31.9096ZM147.556 31.1016L147.128 29.4296L147.117 29.4323L147.556 31.1016ZM156.477 32.847L155.228 34.0379L155.237 34.0479L155.247 34.0577L156.477 32.847ZM157.673 46.9066L158.939 48.0794L158.939 48.0794L157.673 46.9066ZM153.116 46.9066L151.802 48.0259L151.813 48.0398L151.826 48.0534L153.116 46.9066ZM152.372 44.0301H154.098V42.304H152.372V44.0301ZM151.726 44.0301V42.304H150V44.0301H151.726ZM151.403 45.7431L149.784 45.1436L149.774 45.1702L149.765 45.1972L151.403 45.7431ZM150.142 47.1975L149.254 45.7174L149.243 45.7241L149.232 45.731L150.142 47.1975ZM147.847 41.4767L146.978 42.9677L147.003 42.9825L147.029 42.9965L147.847 41.4767ZM151.338 41.4767L150.608 39.9125L150.608 39.9125L151.338 41.4767ZM151.338 39.9899L150.608 41.5541L150.652 41.5746L150.697 41.5926L151.338 39.9899ZM147.847 39.9899L148.619 41.5338L148.643 41.5221L148.666 41.5097L147.847 39.9899ZM147.136 46.0532C145.858 46.0532 145.08 45.715 144.577 45.2365L142.197 47.7364C143.504 48.9817 145.226 49.5054 147.136 49.5054V46.0532ZM144.592 45.2509C144.123 44.7927 143.788 44.0793 143.788 42.8665H140.336C140.336 44.7566 140.884 46.4564 142.182 47.722L144.592 45.2509ZM143.788 42.8665C143.788 41.7298 144.138 41.23 144.571 40.9413L142.656 38.0689C141.02 39.1592 140.336 40.9003 140.336 42.8665H143.788ZM144.591 40.9275C145.265 40.4642 146.222 40.1646 147.589 40.1646V36.7124C145.723 36.7124 144.03 37.1239 142.635 38.0827L144.591 40.9275ZM147.589 40.1646C148.46 40.1646 149.225 40.2242 149.891 40.335L150.458 36.9298C149.572 36.7821 148.613 36.7124 147.589 36.7124V40.1646ZM149.891 40.335C150.573 40.4488 151.161 40.6054 151.663 40.7958L152.887 37.568C152.14 37.2843 151.327 37.0746 150.458 36.9298L149.891 40.335ZM152.275 40.908H152.372V37.4558H152.275V40.908ZM154.098 39.1819V38.6971H150.646V39.1819H154.098ZM154.098 38.6971C154.098 37.7104 153.7 36.7963 152.871 36.1624L150.774 38.9047C150.768 38.8996 150.751 38.8855 150.73 38.8603C150.709 38.8348 150.69 38.8044 150.674 38.7715C150.641 38.7018 150.646 38.6646 150.646 38.6971H154.098ZM152.92 36.2011C152.169 35.5829 151.269 35.3538 150.367 35.3885L150.499 38.8382C150.618 38.8336 150.679 38.8478 150.701 38.8545C150.719 38.8598 150.722 38.8631 150.725 38.8659L152.92 36.2011ZM150.433 35.3872C149.831 35.3872 149.268 35.4229 148.759 35.5077L149.327 38.9129C149.594 38.8684 149.957 38.8394 150.433 38.8394V35.3872ZM148.743 35.5105C148.307 35.5874 147.79 35.7091 147.205 35.8668L148.102 39.2003C148.637 39.0562 149.046 38.9625 149.343 38.9101L148.743 35.5105ZM147.235 35.859C146.443 36.0569 145.938 35.9966 145.612 35.8662L144.33 39.0715C145.512 39.5445 146.795 39.5273 148.072 39.2081L147.235 35.859ZM145.612 35.8662C145.408 35.7849 145.213 35.6385 145.065 35.1695L141.774 36.2129C142.185 37.5108 143.025 38.5495 144.33 39.0715L145.612 35.8662ZM145.082 35.2272C144.906 34.5976 145.01 34.3386 145.07 34.237L142.092 32.4912C141.419 33.6394 141.415 34.9317 141.757 36.1552L145.082 35.2272ZM145.047 34.2744C145.226 33.987 145.518 33.7135 146.027 33.487L144.625 30.3323C143.583 30.7953 142.712 31.4914 142.114 32.4538L145.047 34.2744ZM146.078 33.4634C146.633 33.1949 147.27 32.9619 147.996 32.7709L147.117 29.4323C146.205 29.6723 145.355 29.978 144.574 30.3559L146.078 33.4634ZM147.985 32.7736C148.67 32.598 149.43 32.5045 150.271 32.5045V29.0523C149.174 29.0523 148.123 29.1743 147.128 29.4296L147.985 32.7736ZM150.271 32.5045C152.849 32.5045 154.368 33.1362 155.228 34.0379L157.726 31.6561C155.957 29.7996 153.339 29.0523 150.271 29.0523V32.5045ZM155.247 34.0577C156.107 34.9314 156.755 36.6499 156.755 39.699H160.207C160.207 36.327 159.519 33.4775 157.707 31.6362L155.247 34.0577ZM156.755 39.699V44.7088H160.207V39.699H156.755ZM156.755 44.7088C156.755 45.2111 156.615 45.5085 156.406 45.7339L158.939 48.0794C159.808 47.1411 160.207 45.9733 160.207 44.7088H156.755ZM156.406 45.7339C156.258 45.8943 156.012 46.0532 155.443 46.0532V49.5054C156.77 49.5054 158.011 49.0825 158.939 48.0794L156.406 45.7339ZM155.443 46.0532C154.731 46.0532 154.497 45.8623 154.406 45.7599L151.826 48.0534C152.769 49.1145 154.086 49.5054 155.443 49.5054V46.0532ZM154.43 45.7873C154.227 45.5496 154.098 45.2474 154.098 44.7734H150.646C150.646 45.9802 151.013 47.1001 151.802 48.0259L154.43 45.7873ZM154.098 44.7734V44.0301H150.646V44.7734H154.098ZM152.372 42.304H151.726V45.7562H152.372V42.304ZM150 44.0301C150 44.3648 149.936 44.7331 149.784 45.1436L153.021 46.3426C153.3 45.5894 153.452 44.8157 153.452 44.0301H150ZM149.765 45.1972C149.729 45.3042 149.631 45.4911 149.254 45.7174L151.03 48.6776C151.946 48.1283 152.688 47.3455 153.04 46.2889L149.765 45.1972ZM149.232 45.731C149.029 45.8566 148.432 46.0532 147.136 46.0532V49.5054C148.599 49.5054 150.005 49.3141 151.052 48.6641L149.232 45.731ZM145.733 40.701C145.733 41.5204 146.063 42.4342 146.978 42.9677L148.717 39.9857C148.867 40.073 149.009 40.2158 149.1 40.3977C149.183 40.5634 149.186 40.6858 149.186 40.701H145.733ZM147.029 42.9965C147.454 43.2256 147.929 43.3135 148.284 43.3587C148.679 43.409 149.133 43.429 149.625 43.429V39.9768C149.212 39.9768 148.917 39.9592 148.72 39.9341C148.622 39.9217 148.569 39.9099 148.549 39.9048C148.523 39.8981 148.575 39.9081 148.666 39.9569L147.029 42.9965ZM149.625 43.429C150.451 43.429 151.367 43.368 152.068 43.0408L150.608 39.9125C150.673 39.8821 150.646 39.9082 150.441 39.9351C150.255 39.9598 149.987 39.9768 149.625 39.9768V43.429ZM152.068 43.0408C152.479 42.8488 152.879 42.5418 153.165 42.0845C153.449 41.63 153.549 41.142 153.549 40.701H150.097C150.097 40.6263 150.115 40.4507 150.238 40.2548C150.362 40.056 150.52 39.9537 150.608 39.9125L152.068 43.0408ZM153.549 40.701C153.549 40.2529 153.441 39.7511 153.128 39.2923C152.816 38.8347 152.39 38.5518 151.979 38.3873L150.697 41.5926C150.609 41.5573 150.426 41.4576 150.275 41.237C150.124 41.0153 150.097 40.8043 150.097 40.701H153.549ZM152.068 38.4258C151.367 38.0986 150.451 38.0376 149.625 38.0376V41.4898C149.987 41.4898 150.255 41.5068 150.441 41.5315C150.646 41.5584 150.673 41.5845 150.608 41.5541L152.068 38.4258ZM149.625 38.0376C149.133 38.0376 148.679 38.0576 148.284 38.1079C147.929 38.1531 147.454 38.241 147.029 38.4701L148.666 41.5097C148.575 41.5585 148.523 41.5685 148.549 41.5618C148.569 41.5567 148.622 41.5449 148.72 41.5325C148.917 41.5074 149.212 41.4898 149.625 41.4898V38.0376ZM147.075 38.446C146.654 38.6565 146.287 38.9879 146.041 39.4381C145.805 39.8709 145.733 40.3179 145.733 40.701H149.186C149.186 40.7393 149.179 40.8955 149.072 41.0912C148.955 41.3044 148.782 41.4526 148.619 41.5338L147.075 38.446ZM160.866 24.896L162.086 26.1165L162.086 26.1165L160.866 24.896ZM165.649 24.8636L164.381 26.0344L164.393 26.0473L164.405 26.06L165.649 24.8636ZM165.649 29.2916L164.405 28.0953L164.404 28.0963L165.649 29.2916ZM160.833 29.2916L159.589 30.488L159.613 30.5124L159.637 30.5359L160.833 29.2916ZM160.995 46.9389L159.702 48.0826L160.995 46.9389ZM160.995 31.5864L159.725 30.4178L159.725 30.4178L160.995 31.5864ZM165.52 31.5864L164.25 32.7551L164.262 32.7686L164.275 32.7818L165.52 31.5864ZM165.488 46.9389L164.243 45.7426L164.231 45.7552L164.219 45.7682L165.488 46.9389ZM161.751 27.1261C161.751 26.5737 161.904 26.2983 162.086 26.1165L159.645 23.6754C158.706 24.6141 158.299 25.8255 158.299 27.1261H161.751ZM162.086 26.1165C162.273 25.93 162.59 25.7494 163.257 25.7494V22.2972C161.899 22.2972 160.622 22.6984 159.645 23.6754L162.086 26.1165ZM163.257 25.7494C164.057 25.7494 164.307 25.9544 164.381 26.0344L166.917 23.6929C165.957 22.6525 164.613 22.2972 163.257 22.2972V25.7494ZM164.405 26.06C164.576 26.2384 164.731 26.522 164.731 27.0938H168.183C168.183 25.8126 167.799 24.6094 166.893 23.6673L164.405 26.06ZM164.731 27.0938C164.731 27.6315 164.584 27.9092 164.405 28.0953L166.893 30.488C167.792 29.5536 168.183 28.3661 168.183 27.0938H164.731ZM164.404 28.0963C164.334 28.1695 164.075 28.3736 163.257 28.3736V31.8258C164.595 31.8258 165.93 31.4912 166.894 30.487L164.404 28.0963ZM163.257 28.3736C162.485 28.3736 162.167 28.1798 162.03 28.0474L159.637 30.5359C160.62 31.4808 161.919 31.8258 163.257 31.8258V28.3736ZM162.078 28.0953C161.891 27.9012 161.751 27.6294 161.751 27.1261H158.299C158.299 28.3897 158.698 29.5616 159.589 30.488L162.078 28.0953ZM163.257 46.0532C162.556 46.0532 162.351 45.867 162.288 45.7953L159.702 48.0826C160.63 49.1314 161.934 49.5054 163.257 49.5054V46.0532ZM162.288 45.7953C162.106 45.59 161.978 45.3129 161.978 44.8381H158.525C158.525 46.044 158.892 47.1674 159.702 48.0826L162.288 45.7953ZM161.978 44.8381V33.7843H158.525V44.8381H161.978ZM161.978 33.7843C161.978 33.1711 162.135 32.897 162.265 32.7551L159.725 30.4178C158.864 31.3533 158.525 32.5443 158.525 33.7843H161.978ZM162.265 32.7551C162.324 32.6915 162.536 32.5045 163.257 32.5045V29.0523C161.953 29.0523 160.657 29.404 159.725 30.4178L162.265 32.7551ZM163.257 32.5045C163.979 32.5045 164.191 32.6915 164.25 32.7551L166.79 30.4178C165.857 29.404 164.562 29.0523 163.257 29.0523V32.5045ZM164.275 32.7818C164.428 32.9412 164.569 33.1946 164.569 33.7196H168.022C168.022 32.4777 167.646 31.309 166.765 30.3911L164.275 32.7818ZM164.569 33.7196V44.8381H168.022V33.7196H164.569ZM164.569 44.8381C164.569 45.2721 164.446 45.5315 164.243 45.7426L166.732 48.1353C167.606 47.226 168.022 46.0847 168.022 44.8381H164.569ZM164.219 45.7682C164.113 45.8836 163.885 46.0532 163.257 46.0532V49.5054C164.569 49.5054 165.828 49.1147 166.756 48.1097L164.219 45.7682ZM168.917 46.9389L167.674 48.1362L167.697 48.1597L167.72 48.1823L168.917 46.9389ZM168.885 31.8127L167.578 30.6856L167.578 30.6856L168.885 31.8127ZM173.475 31.8127L172.145 32.9132L173.475 31.8127ZM174.25 35.7882H172.524V37.5143H174.25V35.7882ZM174.832 35.7882V37.5143H176.558V35.7882H174.832ZM175.479 32.8793L174.022 31.9526L174.012 31.9685L174.002 31.9846L175.479 32.8793ZM177.192 31.3602L177.883 32.9416L177.904 32.9326L177.924 32.9231L177.192 31.3602ZM182.912 32.6854L181.46 33.6188L181.464 33.6247L181.468 33.6307L182.912 32.6854ZM183.236 46.9389L184.456 48.1595L184.468 48.148L184.479 48.1362L183.236 46.9389ZM178.646 46.9389L177.403 48.1362L177.425 48.1597L177.449 48.1823L178.646 46.9389ZM177.353 37.2749L175.906 38.2156L175.922 38.2405L175.939 38.2648L177.353 37.2749ZM174.671 37.3396L173.214 36.4129L173.199 36.4369L173.184 36.4615L174.671 37.3396ZM173.442 46.9389L174.687 48.1353L174.698 48.1236L174.709 48.1117L173.442 46.9389ZM171.212 46.0532C170.627 46.0532 170.319 45.8929 170.115 45.6956L167.72 48.1823C168.679 49.1055 169.901 49.5054 171.212 49.5054V46.0532ZM170.161 45.7417C169.924 45.4957 169.803 45.2196 169.803 44.8058H166.351C166.351 46.0726 166.79 47.2187 167.674 48.1362L170.161 45.7417ZM169.803 44.8058V34.1075H166.351V44.8058H169.803ZM169.803 34.1075C169.803 33.5731 169.951 33.22 170.192 32.9397L167.578 30.6856C166.742 31.6551 166.351 32.8319 166.351 34.1075H169.803ZM170.192 32.9397C170.33 32.7803 170.577 32.6015 171.212 32.6015V29.1493C169.822 29.1493 168.518 29.5953 167.578 30.6856L170.192 32.9397ZM171.212 32.6015C171.814 32.6015 172.028 32.772 172.145 32.9132L174.804 30.7122C173.887 29.6037 172.592 29.1493 171.212 29.1493V32.6015ZM172.145 32.9132C172.364 33.1778 172.524 33.5546 172.524 34.1721H175.976C175.976 32.8935 175.62 31.6973 174.804 30.7122L172.145 32.9132ZM172.524 34.1721V35.7882H175.976V34.1721H172.524ZM174.25 37.5143H174.832V34.0621H174.25V37.5143ZM176.558 35.7882C176.558 34.7347 176.747 34.116 176.955 33.7739L174.002 31.9846C173.348 33.0647 173.106 34.3853 173.106 35.7882H176.558ZM176.935 33.806C177.226 33.3483 177.545 33.0896 177.883 32.9416L176.5 29.7788C175.459 30.2341 174.636 30.9882 174.022 31.9526L176.935 33.806ZM177.924 32.9231C178.409 32.696 178.849 32.6015 179.26 32.6015V29.1493C178.292 29.1493 177.354 29.3779 176.459 29.7973L177.924 32.9231ZM179.26 32.6015C180.44 32.6015 181.056 32.9904 181.46 33.6188L184.364 31.7519C183.217 29.967 181.399 29.1493 179.26 29.1493V32.6015ZM181.468 33.6307C181.984 34.4195 182.35 35.7265 182.35 37.7598H185.802C185.802 35.3973 185.392 33.3214 184.357 31.74L181.468 33.6307ZM182.35 37.7598V44.8058H185.802V37.7598H182.35ZM182.35 44.8058C182.35 45.2196 182.229 45.4957 181.992 45.7417L184.479 48.1362C185.363 47.2187 185.802 46.0726 185.802 44.8058H182.35ZM182.015 45.7184C181.841 45.8926 181.56 46.0532 180.973 46.0532V49.5054C182.283 49.5054 183.51 49.1058 184.456 48.1595L182.015 45.7184ZM180.973 46.0532C180.355 46.0532 180.041 45.8858 179.843 45.6956L177.449 48.1823C178.415 49.1126 179.652 49.5054 180.973 49.5054V46.0532ZM179.889 45.7417C179.652 45.4957 179.532 45.2196 179.532 44.8058H176.08C176.08 46.0726 176.519 47.2187 177.403 48.1362L179.889 45.7417ZM179.532 44.8058V39.0849H176.08V44.8058H179.532ZM179.532 39.0849C179.532 38.1146 179.347 37.114 178.767 36.2851L175.939 38.2648C175.962 38.2977 176.08 38.5038 176.08 39.0849H179.532ZM178.8 36.3342C178.169 35.3633 177.175 34.9024 176.093 34.9024V38.3546C176.15 38.3546 176.115 38.3646 176.04 38.326C176.005 38.3078 175.972 38.2848 175.946 38.2605C175.92 38.2367 175.908 38.2188 175.906 38.2156L178.8 36.3342ZM176.093 34.9024C174.96 34.9024 173.885 35.3589 173.214 36.4129L176.127 38.2663C176.127 38.266 176.125 38.2697 176.119 38.2763C176.114 38.2828 176.106 38.2914 176.095 38.3009C176.073 38.3212 176.048 38.3382 176.024 38.3502C175.975 38.375 175.979 38.3546 176.093 38.3546V34.9024ZM173.184 36.4615C172.703 37.2754 172.524 38.207 172.524 39.1496H175.976C175.976 38.6269 176.077 38.3519 176.157 38.2177L173.184 36.4615ZM172.524 39.1496V44.8058H175.976V39.1496H172.524ZM172.524 44.8058C172.524 45.2398 172.4 45.5239 172.176 45.7662L174.709 48.1117C175.562 47.1905 175.976 46.0524 175.976 44.8058H172.524ZM172.198 45.7426C172.054 45.8921 171.801 46.0532 171.212 46.0532V49.5054C172.519 49.5054 173.753 49.1062 174.687 48.1353L172.198 45.7426Z" fill="#AF2F28" mask="url(#path-5-outside-1_312_562)"/>
<defs>
<linearGradient id="paint0_linear_312_562" x1="107.833" y1="69.2664" x2="107.833" y2="6.37888" gradientUnits="userSpaceOnUse">
<stop stop-color="#D83E31"/>
<stop offset="0.095" stop-color="#DC4734"/>
<stop offset="1" stop-color="#FF9753"/>
</linearGradient>
</defs>
</svg>
