<svg width="350" height="534" viewBox="0 0 350 534" fill="none" xmlns="http://www.w3.org/2000/svg">
<path d="M332.956 351.295V149.231C338.991 149.231 343.882 144.339 343.882 138.305V30.1221C343.882 16.8646 333.135 6.11719 319.877 6.11719H30.1215C16.8641 6.11719 6.11719 16.8646 6.11719 30.1215V138.305C6.11719 144.339 11.0089 149.231 17.043 149.231L17.0435 351.295C11.0094 351.295 6.11719 356.187 6.11719 362.221V470.405C6.11719 483.662 16.8646 494.409 30.122 494.409H319.878C333.135 494.409 343.883 483.663 343.883 470.405V362.221C343.882 356.187 338.991 351.295 332.956 351.295Z" fill="url(#paint0_linear_312_573)"/>
<g opacity="0.5">
<path d="M319.877 6.11719H30.1215C16.8641 6.11719 6.11719 16.8641 6.11719 30.1221V35.2523C6.11719 21.9944 16.8646 11.2475 30.1215 11.2475H319.878C333.135 11.2475 343.883 21.9954 343.883 35.2523V30.1221C343.882 16.8641 333.135 6.11719 319.877 6.11719Z" fill="white"/>
</g>
<path d="M319.877 6.11719C333.135 6.11719 343.882 16.8646 343.882 30.1221V138.306C343.882 144.34 338.991 149.231 332.956 149.231V351.296C338.991 351.296 343.882 356.188 343.882 362.221V470.405C343.882 483.662 333.135 494.409 319.878 494.409H30.1215C16.8641 494.409 6.11667 483.662 6.11667 470.405V362.221C6.11667 356.187 11.0084 351.296 17.0425 351.296H17.043V149.231H17.0425C11.0084 149.231 6.11667 144.339 6.11667 138.305V30.1221C6.11667 16.8646 16.8641 6.1177 30.121 6.1177H319.877M319.877 0H30.1215C13.5124 0 0 13.5124 0 30.1215V138.305C0 145.547 4.5415 151.75 10.9258 154.213L10.9263 346.312C4.5415 348.776 0 354.978 0 362.22V470.404C0 487.013 13.5129 500.526 30.122 500.526H319.878C336.488 500.526 350 487.013 350 470.404V362.221C350 354.978 345.459 348.777 339.074 346.313V154.213C345.458 151.75 350 145.548 350 138.306V30.1221C349.999 13.5129 336.487 0 319.877 0Z" fill="#AF2F28"/>
<g opacity="0.5">
<mask id="mask0_312_573" style="mask-type:luminance" maskUnits="userSpaceOnUse" x="6" y="6" width="338" height="489">
<path d="M332.956 351.295V149.231C338.991 149.231 343.882 144.339 343.882 138.305V30.1221C343.882 16.8646 333.135 6.11719 319.877 6.11719H30.1215C16.8641 6.11719 6.11719 16.8646 6.11719 30.1215V138.305C6.11719 144.339 11.0089 149.231 17.043 149.231H17.0435V351.295H17.043C11.0089 351.295 6.11719 356.187 6.11719 362.221V470.405C6.11719 483.662 16.8646 494.409 30.122 494.409H319.878C333.135 494.409 343.883 483.663 343.883 470.405V362.221C343.882 356.187 338.991 351.295 332.956 351.295Z" fill="white"/>
</mask>
<g mask="url(#mask0_312_573)">
<path d="M55.5732 527.034H43.3388V401.115H74.4727V313.108H34.918V160.664H87.539V65.6369H54.9145V-37.3882H67.1484V53.4025H99.7734V172.898H47.1523V300.873H86.7071V413.349H55.5732V527.034Z" fill="white"/>
</g>
<mask id="mask1_312_573" style="mask-type:luminance" maskUnits="userSpaceOnUse" x="6" y="6" width="338" height="489">
<path d="M332.956 351.295V149.231C338.991 149.231 343.882 144.339 343.882 138.305V30.1221C343.882 16.8646 333.135 6.11719 319.877 6.11719H30.1215C16.8641 6.11719 6.11719 16.8646 6.11719 30.1215V138.305C6.11719 144.339 11.0089 149.231 17.043 149.231H17.0435V351.295H17.043C11.0089 351.295 6.11719 356.187 6.11719 362.221V470.405C6.11719 483.662 16.8646 494.409 30.122 494.409H319.878C333.135 494.409 343.883 483.663 343.883 470.405V362.221C343.882 356.187 338.991 351.295 332.956 351.295Z" fill="white"/>
</mask>
<g mask="url(#mask1_312_573)">
<path d="M193.138 546.705H180.904V332.209H213.83V250.94H147.978V106.991H190.54V-33.1786H202.774V119.225H160.213V238.706H226.064V344.443H193.138V546.705Z" fill="white"/>
</g>
<mask id="mask2_312_573" style="mask-type:luminance" maskUnits="userSpaceOnUse" x="6" y="6" width="338" height="489">
<path d="M332.956 351.295V149.231C338.991 149.231 343.882 144.339 343.882 138.305V30.1221C343.882 16.8646 333.135 6.11719 319.877 6.11719H30.1215C16.8641 6.11719 6.11719 16.8646 6.11719 30.1215V138.305C6.11719 144.339 11.0089 149.231 17.043 149.231H17.0435V351.295H17.043C11.0089 351.295 6.11719 356.187 6.11719 362.221V470.405C6.11719 483.662 16.8646 494.409 30.122 494.409H319.878C333.135 494.409 343.883 483.663 343.883 470.405V362.221C343.882 356.187 338.991 351.295 332.956 351.295Z" fill="white"/>
</mask>
<g mask="url(#mask2_312_573)">
<path d="M274.476 527.034H262.241V362.729H283.71V243.411H257.12V119.135L276.501 99.754V-33.1786H288.735V104.822L269.354 124.203V231.176H295.944V374.963H274.476V527.034Z" fill="white"/>
</g>
</g>
<path d="M295.798 465.668H54.2014C43.3214 465.668 34.5015 456.848 34.5015 445.968V102.288C34.5015 91.4076 43.3214 82.5876 54.2014 82.5876H295.798C306.678 82.5876 315.497 91.4076 315.497 102.288V445.968C315.497 456.848 306.678 465.668 295.798 465.668Z" fill="#FFE7C9"/>
<path d="M295.798 468.727H54.2018C41.6529 468.727 31.4434 458.517 31.4434 445.968V102.288C31.4434 89.7381 41.6529 79.5286 54.2018 79.5286H295.798C308.347 79.5286 318.556 89.7381 318.556 102.288V445.968C318.556 458.517 308.347 468.727 295.798 468.727ZM54.2018 85.6463C45.0261 85.6463 37.5605 93.1118 37.5605 102.288V445.968C37.5605 455.145 45.0261 462.61 54.2018 462.61H295.798C304.973 462.61 312.439 455.144 312.439 445.968V102.288C312.439 93.1113 304.973 85.6458 295.798 85.6458H54.2018V85.6463Z" fill="#AF2F28"/>
<path d="M27.7598 38.0336C33.0895 38.0336 37.4101 33.713 37.4101 28.3832C37.4101 23.0535 33.0895 18.7328 27.7598 18.7328C22.43 18.7328 18.1094 23.0535 18.1094 28.3832C18.1094 33.713 22.43 38.0336 27.7598 38.0336Z" fill="#AF2F28"/>
<path d="M322.24 38.0336C327.569 38.0336 331.89 33.713 331.89 28.3832C331.89 23.0535 327.569 18.7328 322.24 18.7328C316.91 18.7328 312.589 23.0535 312.589 28.3832C312.589 33.713 316.91 38.0336 322.24 38.0336Z" fill="#AF2F28"/>
<path d="M27.7598 484.969C33.0895 484.969 37.4101 480.648 37.4101 475.319C37.4101 469.989 33.0895 465.668 27.7598 465.668C22.43 465.668 18.1094 469.989 18.1094 475.319C18.1094 480.648 22.43 484.969 27.7598 484.969Z" fill="#AF2F28"/>
<path d="M322.24 484.969C327.569 484.969 331.89 480.648 331.89 475.319C331.89 469.989 327.569 465.668 322.24 465.668C316.91 465.668 312.589 469.989 312.589 475.319C312.589 480.648 316.91 484.969 322.24 484.969Z" fill="#AF2F28"/>
<path d="M194.958 527.034H155.041C148.046 527.034 142.375 521.363 142.375 514.368V474.451C142.375 467.455 148.046 461.784 155.041 461.784H194.958C201.954 461.784 207.624 467.456 207.624 474.451V514.368C207.624 521.363 201.954 527.034 194.958 527.034Z" fill="url(#paint1_linear_312_573)"/>
<path opacity="0.5" d="M194.958 461.784H155.041C148.045 461.784 142.375 467.456 142.375 474.451V477.346C142.375 470.349 148.045 464.679 155.041 464.679H194.958C201.954 464.679 207.625 470.349 207.625 477.346V474.451C207.624 467.456 201.953 461.784 194.958 461.784Z" fill="white"/>
<path d="M194.958 461.784C201.954 461.784 207.624 467.455 207.624 474.45V514.368C207.624 521.363 201.954 527.034 194.958 527.034H155.041C148.046 527.034 142.375 521.363 142.375 514.368V474.45C142.375 467.455 148.046 461.784 155.041 461.784H194.958ZM194.958 455.667H155.041C144.684 455.667 136.258 464.093 136.258 474.45V514.368C136.258 524.725 144.684 533.151 155.041 533.151H194.958C205.316 533.151 213.742 524.725 213.742 514.368V474.45C213.742 464.093 205.315 455.667 194.958 455.667Z" fill="#AF2F28"/>
<path d="M191.209 517.826H158.79C154.81 517.826 151.583 514.599 151.583 510.619V478.2C151.583 474.22 154.81 470.993 158.79 470.993H191.209C195.189 470.993 198.416 474.22 198.416 478.2V510.619C198.416 514.599 195.189 517.826 191.209 517.826Z" fill="#FFE7C9"/>
<path d="M182.187 479.95L174.976 487.161L167.789 479.973C165.573 477.757 161.978 477.757 159.762 479.973C157.545 482.19 157.545 485.784 159.762 488.001L166.949 495.188L159.784 502.353C157.568 504.569 157.568 508.164 159.785 510.381C162.001 512.597 165.595 512.597 167.812 510.381L174.977 503.216L182.164 510.403C184.381 512.621 187.975 512.62 190.191 510.403C192.408 508.186 192.409 504.593 190.191 502.376L183.004 495.188L190.215 487.978C192.432 485.761 192.431 482.167 190.215 479.95C187.998 477.733 184.404 477.733 182.187 479.95Z" fill="#AF2F28"/>
<mask id="path-21-outside-1_312_573" maskUnits="userSpaceOnUse" x="78" y="26" width="194" height="35" fill="black">
<rect fill="white" x="78" y="26" width="194" height="35"/>
<path d="M91.7107 57.2247C89.7133 57.2247 87.9782 56.6505 86.5051 55.502C85.0321 54.3286 83.8961 52.7307 83.0972 50.7084C82.2983 48.6612 81.8988 46.3518 81.8988 43.7802C81.8988 41.3834 82.2483 39.2862 82.9474 37.4886C83.6714 35.6661 84.6451 34.1556 85.8685 32.9572C87.1168 31.7338 88.5524 30.8226 90.1752 30.2234C91.823 29.5992 93.5582 29.2871 95.3807 29.2871C98.7263 29.2871 101.198 29.7615 102.796 30.7102C104.419 31.634 105.23 32.8324 105.23 34.3054C105.23 35.4539 104.93 36.465 104.331 37.3388C103.757 38.2127 102.883 38.6496 101.71 38.6496C100.911 38.6496 100.149 38.5747 99.4253 38.4249C98.7263 38.2751 98.0022 38.1378 97.2532 38.0129C96.5292 37.8631 95.7178 37.7882 94.819 37.7882C92.8466 37.7882 91.4235 38.35 90.5497 39.4735C89.7008 40.597 89.2764 42.0076 89.2764 43.7053C89.2764 45.0785 89.5511 46.202 90.1003 47.0758C90.6745 47.9496 91.4235 48.5987 92.3473 49.0232C93.296 49.4226 94.3446 49.6224 95.4931 49.6224C96.4418 49.6224 97.3281 49.4102 98.152 48.9857C98.9759 48.5613 99.5002 47.7749 99.7249 46.6264H97.8899C97.0161 46.6264 96.342 46.3642 95.8676 45.8399C95.3932 45.2907 95.156 44.5916 95.156 43.7428C95.156 42.8939 95.3932 42.2073 95.8676 41.683C96.342 41.1587 97.0161 40.8966 97.8899 40.8966H102.384C104.007 40.8966 105.143 41.3335 105.792 42.2073C106.466 43.0562 106.803 44.3295 106.803 46.0272V53.0303C106.803 54.3286 106.453 55.3148 105.754 55.9889C105.055 56.663 104.132 57 102.983 57C101.76 57 100.798 56.663 100.099 55.9889C99.4004 55.3148 99.0508 54.3286 99.0508 53.0303V50.7084H98.3767C98.3767 52.9804 97.8025 54.6407 96.654 55.6893C95.5056 56.7129 93.9701 57.2247 92.0477 57.2247H91.7107ZM114.032 57C112.184 57 110.736 56.5007 109.688 55.502C108.664 54.5033 108.152 53.1052 108.152 51.3076C108.152 49.51 108.752 48.2118 109.95 47.4128C111.148 46.5889 112.684 46.177 114.556 46.177C115.655 46.177 116.653 46.2519 117.552 46.4017C118.451 46.5515 119.262 46.7637 119.986 47.0383H120.099V46.4766C120.099 45.9024 119.887 45.453 119.462 45.1284C119.038 44.7789 118.501 44.6166 117.852 44.6415C117.228 44.6415 116.691 44.679 116.241 44.7539C115.817 44.8288 115.28 44.9536 114.631 45.1284C113.433 45.428 112.397 45.403 111.523 45.0535C110.649 44.704 110.05 44.0174 109.725 42.9938C109.426 41.9202 109.488 41.0214 109.912 40.2974C110.362 39.5733 111.036 39.0116 111.935 38.6121C112.709 38.2376 113.57 37.9255 114.519 37.6759C115.492 37.4262 116.541 37.3014 117.665 37.3014C120.935 37.3014 123.332 38.1003 124.855 39.6982C126.403 41.2711 127.177 43.9175 127.177 47.6375V53.4423C127.177 54.4659 126.865 55.3148 126.241 55.9889C125.616 56.663 124.755 57 123.657 57C122.458 57 121.559 56.663 120.96 55.9889C120.386 55.3148 120.099 54.4909 120.099 53.5172V52.6558H119.35C119.35 53.3049 119.225 53.9666 118.975 54.6407C118.751 55.3148 118.264 55.8765 117.515 56.3259C116.791 56.7753 115.63 57 114.032 57ZM114.406 48.7985C114.406 49.2229 114.556 49.5225 114.856 49.6973C115.18 49.872 115.867 49.9594 116.916 49.9594C117.864 49.9594 118.526 49.872 118.9 49.6973C119.275 49.5225 119.462 49.2229 119.462 48.7985C119.462 48.399 119.275 48.1244 118.9 47.9746C118.526 47.7998 117.864 47.7124 116.916 47.7124C115.867 47.7124 115.18 47.7998 114.856 47.9746C114.556 48.1244 114.406 48.399 114.406 48.7985ZM132.636 57C131.513 57 130.614 56.6754 129.94 56.0263C129.291 55.3522 128.966 54.5283 128.966 53.5546V41.1587C128.966 40.1101 129.278 39.2238 129.902 38.4998C130.552 37.7757 131.463 37.4137 132.636 37.4137C133.785 37.4137 134.646 37.7757 135.22 38.4998C135.795 39.2238 136.082 40.1351 136.082 41.2336V43.1061H136.756C136.756 40.9839 137.205 39.5109 138.104 38.687C139.003 37.8382 140.114 37.4137 141.437 37.4137C143.135 37.4137 144.383 37.938 145.182 38.9866C145.981 40.0352 146.38 41.4084 146.38 43.1061H147.055C147.055 41.683 147.292 40.5595 147.766 39.7356C148.24 38.9117 148.84 38.325 149.564 37.9755C150.313 37.601 151.087 37.4137 151.886 37.4137C153.508 37.4137 154.694 37.8007 155.443 38.5747C156.217 39.3486 156.717 40.3847 156.941 41.683C157.166 42.9813 157.278 44.4418 157.278 46.0646V53.5546C157.278 54.5283 156.941 55.3522 156.267 56.0263C155.618 56.6754 154.744 57 153.646 57C152.547 57 151.661 56.6754 150.987 56.0263C150.313 55.3522 149.976 54.5283 149.976 53.5546V46.926C149.976 46.0272 149.863 45.3281 149.639 44.8288C149.414 44.3295 148.964 44.0798 148.29 44.0798C147.566 44.0798 147.092 44.3544 146.867 44.9037C146.668 45.453 146.568 46.152 146.568 47.0009V53.5546C146.568 54.5283 146.256 55.3522 145.631 56.0263C145.007 56.6754 144.146 57 143.047 57C141.924 57 141.025 56.6754 140.351 56.0263C139.702 55.3522 139.377 54.5283 139.377 53.5546V46.926C139.377 46.0272 139.265 45.3281 139.04 44.8288C138.816 44.3295 138.379 44.0798 137.73 44.0798C137.005 44.0798 136.544 44.3544 136.344 44.9037C136.169 45.453 136.082 46.152 136.082 47.0009V53.5546C136.082 54.5283 135.782 55.3522 135.183 56.0263C134.584 56.6754 133.735 57 132.636 57ZM159.065 47.263C159.065 45.2907 159.452 43.5555 160.226 42.0575C161.025 40.5595 162.148 39.3861 163.597 38.5372C165.07 37.6884 166.817 37.2639 168.84 37.2639C170.412 37.2639 171.823 37.551 173.071 38.1253C174.345 38.6995 175.343 39.4735 176.067 40.4472C176.791 41.3959 177.153 42.4445 177.153 43.593C177.153 44.7913 176.804 45.6402 176.105 46.1395C175.406 46.6389 174.37 46.8885 172.996 46.8885H165.132C165.132 47.5377 165.382 48.0745 165.881 48.4989C166.405 48.9233 167.279 49.1355 168.502 49.1355C169.127 49.1355 169.701 49.0731 170.225 48.9483C170.774 48.8234 171.324 48.7111 171.873 48.6112C172.447 48.4864 173.084 48.424 173.783 48.424C174.782 48.424 175.605 48.786 176.255 49.51C176.904 50.2091 177.228 51.1828 177.228 52.4311C177.228 53.9041 176.467 55.0526 174.944 55.8765C173.446 56.7004 171.473 57.1123 169.027 57.1123C167.304 57.1123 165.681 56.7753 164.158 56.1012C162.66 55.4271 161.437 54.366 160.488 52.918C159.539 51.4449 159.065 49.56 159.065 47.263ZM171.199 45.6527C171.573 45.6527 171.698 45.4779 171.573 45.1284C171.473 44.7789 171.174 44.4168 170.675 44.0424C170.175 43.6679 169.451 43.4806 168.502 43.4806C167.404 43.4806 166.58 43.7178 166.031 44.1922C165.506 44.6665 165.244 45.1534 165.244 45.6527H171.199ZM197.94 57.1123C195.269 57.1123 193.009 56.5256 191.162 55.3522C189.314 54.1788 187.916 52.556 186.967 50.4837C186.019 48.4115 185.544 46.0272 185.544 43.3308C185.544 40.6594 186.019 38.2876 186.967 36.2153C187.916 34.1181 189.314 32.4828 191.162 31.3094C193.009 30.111 195.269 29.5118 197.94 29.5118C200.612 29.5118 202.859 30.111 204.681 31.3094C206.529 32.4828 207.927 34.1181 208.875 36.2153C209.824 38.2876 210.299 40.6594 210.299 43.3308C210.299 46.0272 209.824 48.4115 208.875 50.4837C207.927 52.556 206.529 54.1788 204.681 55.3522C202.859 56.5256 200.612 57.1123 197.94 57.1123ZM190.263 42.7316C190.263 43.5056 190.45 44.2421 190.825 44.9411C191.199 45.6152 191.936 46.1645 193.034 46.5889C194.133 46.9884 195.768 47.1881 197.94 47.1881C200.112 47.1881 201.735 46.9884 202.809 46.5889C203.907 46.1645 204.644 45.6152 205.018 44.9411C205.393 44.2421 205.58 43.5056 205.58 42.7316C205.58 41.9327 205.393 41.2211 205.018 40.597C204.644 39.9478 203.907 39.436 202.809 39.0615C201.735 38.6621 200.112 38.4623 197.94 38.4623C195.768 38.4623 194.133 38.6621 193.034 39.0615C191.936 39.436 191.199 39.9478 190.825 40.597C190.45 41.2211 190.263 41.9327 190.263 42.7316ZM221.652 57C220.029 57 218.644 56.5256 217.495 55.5769C216.347 54.6282 215.398 53.0553 214.649 50.8582L211.691 42.3197C211.291 41.1962 211.291 40.16 211.691 39.2113C212.115 38.2626 212.889 37.6634 214.013 37.4137C215.011 37.189 215.885 37.2889 216.634 37.7133C217.408 38.1378 217.957 38.8493 218.282 39.848L221.203 48.424C221.552 49.4226 221.977 50.1592 222.476 50.6335C223 51.1079 223.637 51.2202 224.386 50.9706C225.085 50.6959 225.46 50.2465 225.51 49.6224C225.585 48.9732 225.447 48.2243 225.098 47.3754C224.798 46.6014 224.399 45.9398 223.899 45.3905C223.4 44.8413 222.951 44.267 222.551 43.6679C222.152 43.0687 221.952 42.3197 221.952 41.4209C221.952 40.1226 222.364 39.1115 223.188 38.3874C224.037 37.6384 225.148 37.2889 226.521 37.3388C227.694 37.3638 228.655 37.7757 229.404 38.5747C230.153 39.3736 230.528 40.3847 230.528 41.6081C230.528 42.2822 230.416 43.0062 230.191 43.7802C229.966 44.5542 229.716 45.3656 229.442 46.2144L227.944 50.9331C227.544 52.1815 227.095 53.2675 226.596 54.1913C226.121 55.0901 225.497 55.7891 224.723 56.2885C223.974 56.7628 222.951 57 221.652 57ZM231.149 47.263C231.149 45.2907 231.536 43.5555 232.31 42.0575C233.109 40.5595 234.232 39.3861 235.68 38.5372C237.153 37.6884 238.901 37.2639 240.923 37.2639C242.496 37.2639 243.907 37.551 245.155 38.1253C246.428 38.6995 247.427 39.4735 248.151 40.4472C248.875 41.3959 249.237 42.4445 249.237 43.593C249.237 44.7913 248.887 45.6402 248.188 46.1395C247.489 46.6389 246.453 46.8885 245.08 46.8885H237.216C237.216 47.5377 237.465 48.0745 237.965 48.4989C238.489 48.9233 239.363 49.1355 240.586 49.1355C241.21 49.1355 241.785 49.0731 242.309 48.9483C242.858 48.8234 243.407 48.7111 243.957 48.6112C244.531 48.4864 245.167 48.424 245.867 48.424C246.865 48.424 247.689 48.786 248.338 49.51C248.987 50.2091 249.312 51.1828 249.312 52.4311C249.312 53.9041 248.55 55.0526 247.027 55.8765C245.529 56.7004 243.557 57.1123 241.11 57.1123C239.388 57.1123 237.765 56.7753 236.242 56.1012C234.744 55.4271 233.521 54.366 232.572 52.918C231.623 51.4449 231.149 49.56 231.149 47.263ZM243.282 45.6527C243.657 45.6527 243.782 45.4779 243.657 45.1284C243.557 44.7789 243.258 44.4168 242.758 44.0424C242.259 43.6679 241.535 43.4806 240.586 43.4806C239.488 43.4806 238.664 43.7178 238.114 44.1922C237.59 44.6665 237.328 45.1534 237.328 45.6527H243.282ZM255.048 57C253.874 57 252.963 56.663 252.314 55.9889C251.665 55.3148 251.34 54.4659 251.34 53.4423V41.1587C251.34 40.0851 251.665 39.1988 252.314 38.4998C252.963 37.7757 253.874 37.4137 255.048 37.4137C256.221 37.4137 257.12 37.7757 257.744 38.4998C258.368 39.1988 258.68 40.0602 258.68 41.0838V41.8703H259.392C259.492 40.547 259.991 39.461 260.89 38.6121C261.789 37.7633 262.85 37.3388 264.073 37.3388C265.296 37.3388 266.258 37.7133 266.957 38.4623C267.681 39.2113 268.043 40.21 268.043 41.4583C268.043 42.6317 267.706 43.6054 267.032 44.3794C266.357 45.1534 265.496 45.5403 264.448 45.5403C263.574 45.5403 262.837 45.3406 262.238 44.9411C261.664 44.5167 261.239 44.0299 260.965 43.4806C260.166 43.3807 259.579 43.4681 259.205 43.7428C258.855 43.9924 258.68 44.5042 258.68 45.2782V53.4423C258.68 54.4659 258.368 55.3148 257.744 55.9889C257.12 56.663 256.221 57 255.048 57Z"/>
</mask>
<path d="M91.7107 57.2247C89.7133 57.2247 87.9782 56.6505 86.5051 55.502C85.0321 54.3286 83.8961 52.7307 83.0972 50.7084C82.2983 48.6612 81.8988 46.3518 81.8988 43.7802C81.8988 41.3834 82.2483 39.2862 82.9474 37.4886C83.6714 35.6661 84.6451 34.1556 85.8685 32.9572C87.1168 31.7338 88.5524 30.8226 90.1752 30.2234C91.823 29.5992 93.5582 29.2871 95.3807 29.2871C98.7263 29.2871 101.198 29.7615 102.796 30.7102C104.419 31.634 105.23 32.8324 105.23 34.3054C105.23 35.4539 104.93 36.465 104.331 37.3388C103.757 38.2127 102.883 38.6496 101.71 38.6496C100.911 38.6496 100.149 38.5747 99.4253 38.4249C98.7263 38.2751 98.0022 38.1378 97.2532 38.0129C96.5292 37.8631 95.7178 37.7882 94.819 37.7882C92.8466 37.7882 91.4235 38.35 90.5497 39.4735C89.7008 40.597 89.2764 42.0076 89.2764 43.7053C89.2764 45.0785 89.5511 46.202 90.1003 47.0758C90.6745 47.9496 91.4235 48.5987 92.3473 49.0232C93.296 49.4226 94.3446 49.6224 95.4931 49.6224C96.4418 49.6224 97.3281 49.4102 98.152 48.9857C98.9759 48.5613 99.5002 47.7749 99.7249 46.6264H97.8899C97.0161 46.6264 96.342 46.3642 95.8676 45.8399C95.3932 45.2907 95.156 44.5916 95.156 43.7428C95.156 42.8939 95.3932 42.2073 95.8676 41.683C96.342 41.1587 97.0161 40.8966 97.8899 40.8966H102.384C104.007 40.8966 105.143 41.3335 105.792 42.2073C106.466 43.0562 106.803 44.3295 106.803 46.0272V53.0303C106.803 54.3286 106.453 55.3148 105.754 55.9889C105.055 56.663 104.132 57 102.983 57C101.76 57 100.798 56.663 100.099 55.9889C99.4004 55.3148 99.0508 54.3286 99.0508 53.0303V50.7084H98.3767C98.3767 52.9804 97.8025 54.6407 96.654 55.6893C95.5056 56.7129 93.9701 57.2247 92.0477 57.2247H91.7107ZM114.032 57C112.184 57 110.736 56.5007 109.688 55.502C108.664 54.5033 108.152 53.1052 108.152 51.3076C108.152 49.51 108.752 48.2118 109.95 47.4128C111.148 46.5889 112.684 46.177 114.556 46.177C115.655 46.177 116.653 46.2519 117.552 46.4017C118.451 46.5515 119.262 46.7637 119.986 47.0383H120.099V46.4766C120.099 45.9024 119.887 45.453 119.462 45.1284C119.038 44.7789 118.501 44.6166 117.852 44.6415C117.228 44.6415 116.691 44.679 116.241 44.7539C115.817 44.8288 115.28 44.9536 114.631 45.1284C113.433 45.428 112.397 45.403 111.523 45.0535C110.649 44.704 110.05 44.0174 109.725 42.9938C109.426 41.9202 109.488 41.0214 109.912 40.2974C110.362 39.5733 111.036 39.0116 111.935 38.6121C112.709 38.2376 113.57 37.9255 114.519 37.6759C115.492 37.4262 116.541 37.3014 117.665 37.3014C120.935 37.3014 123.332 38.1003 124.855 39.6982C126.403 41.2711 127.177 43.9175 127.177 47.6375V53.4423C127.177 54.4659 126.865 55.3148 126.241 55.9889C125.616 56.663 124.755 57 123.657 57C122.458 57 121.559 56.663 120.96 55.9889C120.386 55.3148 120.099 54.4909 120.099 53.5172V52.6558H119.35C119.35 53.3049 119.225 53.9666 118.975 54.6407C118.751 55.3148 118.264 55.8765 117.515 56.3259C116.791 56.7753 115.63 57 114.032 57ZM114.406 48.7985C114.406 49.2229 114.556 49.5225 114.856 49.6973C115.18 49.872 115.867 49.9594 116.916 49.9594C117.864 49.9594 118.526 49.872 118.9 49.6973C119.275 49.5225 119.462 49.2229 119.462 48.7985C119.462 48.399 119.275 48.1244 118.9 47.9746C118.526 47.7998 117.864 47.7124 116.916 47.7124C115.867 47.7124 115.18 47.7998 114.856 47.9746C114.556 48.1244 114.406 48.399 114.406 48.7985ZM132.636 57C131.513 57 130.614 56.6754 129.94 56.0263C129.291 55.3522 128.966 54.5283 128.966 53.5546V41.1587C128.966 40.1101 129.278 39.2238 129.902 38.4998C130.552 37.7757 131.463 37.4137 132.636 37.4137C133.785 37.4137 134.646 37.7757 135.22 38.4998C135.795 39.2238 136.082 40.1351 136.082 41.2336V43.1061H136.756C136.756 40.9839 137.205 39.5109 138.104 38.687C139.003 37.8382 140.114 37.4137 141.437 37.4137C143.135 37.4137 144.383 37.938 145.182 38.9866C145.981 40.0352 146.38 41.4084 146.38 43.1061H147.055C147.055 41.683 147.292 40.5595 147.766 39.7356C148.24 38.9117 148.84 38.325 149.564 37.9755C150.313 37.601 151.087 37.4137 151.886 37.4137C153.508 37.4137 154.694 37.8007 155.443 38.5747C156.217 39.3486 156.717 40.3847 156.941 41.683C157.166 42.9813 157.278 44.4418 157.278 46.0646V53.5546C157.278 54.5283 156.941 55.3522 156.267 56.0263C155.618 56.6754 154.744 57 153.646 57C152.547 57 151.661 56.6754 150.987 56.0263C150.313 55.3522 149.976 54.5283 149.976 53.5546V46.926C149.976 46.0272 149.863 45.3281 149.639 44.8288C149.414 44.3295 148.964 44.0798 148.29 44.0798C147.566 44.0798 147.092 44.3544 146.867 44.9037C146.668 45.453 146.568 46.152 146.568 47.0009V53.5546C146.568 54.5283 146.256 55.3522 145.631 56.0263C145.007 56.6754 144.146 57 143.047 57C141.924 57 141.025 56.6754 140.351 56.0263C139.702 55.3522 139.377 54.5283 139.377 53.5546V46.926C139.377 46.0272 139.265 45.3281 139.04 44.8288C138.816 44.3295 138.379 44.0798 137.73 44.0798C137.005 44.0798 136.544 44.3544 136.344 44.9037C136.169 45.453 136.082 46.152 136.082 47.0009V53.5546C136.082 54.5283 135.782 55.3522 135.183 56.0263C134.584 56.6754 133.735 57 132.636 57ZM159.065 47.263C159.065 45.2907 159.452 43.5555 160.226 42.0575C161.025 40.5595 162.148 39.3861 163.597 38.5372C165.07 37.6884 166.817 37.2639 168.84 37.2639C170.412 37.2639 171.823 37.551 173.071 38.1253C174.345 38.6995 175.343 39.4735 176.067 40.4472C176.791 41.3959 177.153 42.4445 177.153 43.593C177.153 44.7913 176.804 45.6402 176.105 46.1395C175.406 46.6389 174.37 46.8885 172.996 46.8885H165.132C165.132 47.5377 165.382 48.0745 165.881 48.4989C166.405 48.9233 167.279 49.1355 168.502 49.1355C169.127 49.1355 169.701 49.0731 170.225 48.9483C170.774 48.8234 171.324 48.7111 171.873 48.6112C172.447 48.4864 173.084 48.424 173.783 48.424C174.782 48.424 175.605 48.786 176.255 49.51C176.904 50.2091 177.228 51.1828 177.228 52.4311C177.228 53.9041 176.467 55.0526 174.944 55.8765C173.446 56.7004 171.473 57.1123 169.027 57.1123C167.304 57.1123 165.681 56.7753 164.158 56.1012C162.66 55.4271 161.437 54.366 160.488 52.918C159.539 51.4449 159.065 49.56 159.065 47.263ZM171.199 45.6527C171.573 45.6527 171.698 45.4779 171.573 45.1284C171.473 44.7789 171.174 44.4168 170.675 44.0424C170.175 43.6679 169.451 43.4806 168.502 43.4806C167.404 43.4806 166.58 43.7178 166.031 44.1922C165.506 44.6665 165.244 45.1534 165.244 45.6527H171.199ZM197.94 57.1123C195.269 57.1123 193.009 56.5256 191.162 55.3522C189.314 54.1788 187.916 52.556 186.967 50.4837C186.019 48.4115 185.544 46.0272 185.544 43.3308C185.544 40.6594 186.019 38.2876 186.967 36.2153C187.916 34.1181 189.314 32.4828 191.162 31.3094C193.009 30.111 195.269 29.5118 197.94 29.5118C200.612 29.5118 202.859 30.111 204.681 31.3094C206.529 32.4828 207.927 34.1181 208.875 36.2153C209.824 38.2876 210.299 40.6594 210.299 43.3308C210.299 46.0272 209.824 48.4115 208.875 50.4837C207.927 52.556 206.529 54.1788 204.681 55.3522C202.859 56.5256 200.612 57.1123 197.94 57.1123ZM190.263 42.7316C190.263 43.5056 190.45 44.2421 190.825 44.9411C191.199 45.6152 191.936 46.1645 193.034 46.5889C194.133 46.9884 195.768 47.1881 197.94 47.1881C200.112 47.1881 201.735 46.9884 202.809 46.5889C203.907 46.1645 204.644 45.6152 205.018 44.9411C205.393 44.2421 205.58 43.5056 205.58 42.7316C205.58 41.9327 205.393 41.2211 205.018 40.597C204.644 39.9478 203.907 39.436 202.809 39.0615C201.735 38.6621 200.112 38.4623 197.94 38.4623C195.768 38.4623 194.133 38.6621 193.034 39.0615C191.936 39.436 191.199 39.9478 190.825 40.597C190.45 41.2211 190.263 41.9327 190.263 42.7316ZM221.652 57C220.029 57 218.644 56.5256 217.495 55.5769C216.347 54.6282 215.398 53.0553 214.649 50.8582L211.691 42.3197C211.291 41.1962 211.291 40.16 211.691 39.2113C212.115 38.2626 212.889 37.6634 214.013 37.4137C215.011 37.189 215.885 37.2889 216.634 37.7133C217.408 38.1378 217.957 38.8493 218.282 39.848L221.203 48.424C221.552 49.4226 221.977 50.1592 222.476 50.6335C223 51.1079 223.637 51.2202 224.386 50.9706C225.085 50.6959 225.46 50.2465 225.51 49.6224C225.585 48.9732 225.447 48.2243 225.098 47.3754C224.798 46.6014 224.399 45.9398 223.899 45.3905C223.4 44.8413 222.951 44.267 222.551 43.6679C222.152 43.0687 221.952 42.3197 221.952 41.4209C221.952 40.1226 222.364 39.1115 223.188 38.3874C224.037 37.6384 225.148 37.2889 226.521 37.3388C227.694 37.3638 228.655 37.7757 229.404 38.5747C230.153 39.3736 230.528 40.3847 230.528 41.6081C230.528 42.2822 230.416 43.0062 230.191 43.7802C229.966 44.5542 229.716 45.3656 229.442 46.2144L227.944 50.9331C227.544 52.1815 227.095 53.2675 226.596 54.1913C226.121 55.0901 225.497 55.7891 224.723 56.2885C223.974 56.7628 222.951 57 221.652 57ZM231.149 47.263C231.149 45.2907 231.536 43.5555 232.31 42.0575C233.109 40.5595 234.232 39.3861 235.68 38.5372C237.153 37.6884 238.901 37.2639 240.923 37.2639C242.496 37.2639 243.907 37.551 245.155 38.1253C246.428 38.6995 247.427 39.4735 248.151 40.4472C248.875 41.3959 249.237 42.4445 249.237 43.593C249.237 44.7913 248.887 45.6402 248.188 46.1395C247.489 46.6389 246.453 46.8885 245.08 46.8885H237.216C237.216 47.5377 237.465 48.0745 237.965 48.4989C238.489 48.9233 239.363 49.1355 240.586 49.1355C241.21 49.1355 241.785 49.0731 242.309 48.9483C242.858 48.8234 243.407 48.7111 243.957 48.6112C244.531 48.4864 245.167 48.424 245.867 48.424C246.865 48.424 247.689 48.786 248.338 49.51C248.987 50.2091 249.312 51.1828 249.312 52.4311C249.312 53.9041 248.55 55.0526 247.027 55.8765C245.529 56.7004 243.557 57.1123 241.11 57.1123C239.388 57.1123 237.765 56.7753 236.242 56.1012C234.744 55.4271 233.521 54.366 232.572 52.918C231.623 51.4449 231.149 49.56 231.149 47.263ZM243.282 45.6527C243.657 45.6527 243.782 45.4779 243.657 45.1284C243.557 44.7789 243.258 44.4168 242.758 44.0424C242.259 43.6679 241.535 43.4806 240.586 43.4806C239.488 43.4806 238.664 43.7178 238.114 44.1922C237.59 44.6665 237.328 45.1534 237.328 45.6527H243.282ZM255.048 57C253.874 57 252.963 56.663 252.314 55.9889C251.665 55.3148 251.34 54.4659 251.34 53.4423V41.1587C251.34 40.0851 251.665 39.1988 252.314 38.4998C252.963 37.7757 253.874 37.4137 255.048 37.4137C256.221 37.4137 257.12 37.7757 257.744 38.4998C258.368 39.1988 258.68 40.0602 258.68 41.0838V41.8703H259.392C259.492 40.547 259.991 39.461 260.89 38.6121C261.789 37.7633 262.85 37.3388 264.073 37.3388C265.296 37.3388 266.258 37.7133 266.957 38.4623C267.681 39.2113 268.043 40.21 268.043 41.4583C268.043 42.6317 267.706 43.6054 267.032 44.3794C266.357 45.1534 265.496 45.5403 264.448 45.5403C263.574 45.5403 262.837 45.3406 262.238 44.9411C261.664 44.5167 261.239 44.0299 260.965 43.4806C260.166 43.3807 259.579 43.4681 259.205 43.7428C258.855 43.9924 258.68 44.5042 258.68 45.2782V53.4423C258.68 54.4659 258.368 55.3148 257.744 55.9889C257.12 56.663 256.221 57 255.048 57Z" fill="white"/>
<path d="M86.5051 55.502L84.6359 57.8485L84.6482 57.8583L84.6605 57.8679L86.5051 55.502ZM83.0972 50.7084L80.3024 51.7991L80.307 51.8107L83.0972 50.7084ZM82.9474 37.4886L80.1593 36.381L80.1553 36.3911L80.1514 36.4013L82.9474 37.4886ZM85.8685 32.9572L87.9678 35.1003L87.9683 35.0998L85.8685 32.9572ZM90.1752 30.2234L91.2143 33.0376L91.2261 33.0333L91.2379 33.0288L90.1752 30.2234ZM102.796 30.7102L101.264 33.2898L101.288 33.3038L101.312 33.3174L102.796 30.7102ZM104.331 37.3388L101.857 35.6422L101.84 35.6666L101.824 35.6913L104.331 37.3388ZM99.4253 38.4249L98.7967 41.3583L98.8071 41.3605L98.8175 41.3627L99.4253 38.4249ZM97.2532 38.0129L96.6454 40.9507L96.7025 40.9625L96.76 40.9721L97.2532 38.0129ZM90.5497 39.4735L88.1817 37.6316L88.1688 37.6482L88.1561 37.665L90.5497 39.4735ZM90.1003 47.0758L87.5604 48.6723L87.5765 48.698L87.5932 48.7233L90.1003 47.0758ZM92.3473 49.0232L91.0948 51.7492L91.1387 51.7694L91.1831 51.7881L92.3473 49.0232ZM98.152 48.9857L99.5259 51.6527L98.152 48.9857ZM99.7249 46.6264L102.669 47.2024L103.369 43.6264H99.7249V46.6264ZM95.8676 45.8399L93.5971 47.8008L93.6198 47.827L93.643 47.8527L95.8676 45.8399ZM105.792 42.2073L103.384 43.9963L103.412 44.0351L103.442 44.073L105.792 42.2073ZM100.099 55.9889L102.182 53.8293L102.182 53.8293L100.099 55.9889ZM99.0508 50.7084H102.051V47.7084H99.0508V50.7084ZM98.3767 50.7084V47.7084H95.3767V50.7084H98.3767ZM96.654 55.6893L98.6502 57.9288L98.6636 57.9168L98.6768 57.9047L96.654 55.6893ZM91.7107 54.2247C90.3321 54.2247 89.2579 53.8442 88.3497 53.1361L84.6605 57.8679C86.6984 59.4567 89.0945 60.2247 91.7107 60.2247V54.2247ZM88.3744 53.1555C87.3717 52.3568 86.5236 51.2167 85.8873 49.6061L80.307 51.8107C81.2686 54.2448 82.6925 56.3004 84.6359 57.8485L88.3744 53.1555ZM85.8919 49.6178C85.2496 47.9719 84.8988 46.041 84.8988 43.7802H78.8988C78.8988 46.6625 79.3469 49.3504 80.3025 51.7991L85.8919 49.6178ZM84.8988 43.7802C84.8988 41.6683 85.2075 39.9541 85.7434 38.576L80.1514 36.4013C79.2892 38.6184 78.8988 41.0985 78.8988 43.7802H84.8988ZM85.7354 38.5962C86.3271 37.1068 87.0843 35.9658 87.9678 35.1003L83.7691 30.8141C82.2059 32.3454 81.0157 34.2253 80.1593 36.381L85.7354 38.5962ZM87.9683 35.0998C88.9176 34.1695 89.9927 33.4887 91.2143 33.0376L89.1361 27.4091C87.1121 28.1564 85.316 29.2982 83.7687 30.8146L87.9683 35.0998ZM91.2379 33.0288C92.5345 32.5377 93.9086 32.2871 95.3807 32.2871V26.2871C93.2078 26.2871 91.1115 26.6607 89.1125 27.4179L91.2379 33.0288ZM95.3807 32.2871C98.5579 32.2871 100.369 32.7582 101.264 33.2898L104.327 28.1306C102.027 26.7647 98.8946 26.2871 95.3807 26.2871V32.2871ZM101.312 33.3174C101.835 33.6155 102.053 33.8597 102.137 33.9838C102.201 34.0771 102.23 34.1571 102.23 34.3054H108.23C108.23 31.4559 106.548 29.3943 104.28 28.103L101.312 33.3174ZM102.23 34.3054C102.23 34.9015 102.085 35.3101 101.857 35.6422L106.805 39.0354C107.776 37.6199 108.23 36.0062 108.23 34.3054H102.23ZM101.824 35.6913C101.81 35.7123 101.811 35.7064 101.831 35.6881C101.852 35.6691 101.878 35.6512 101.904 35.6386C101.928 35.6266 101.933 35.6283 101.908 35.6337C101.88 35.6395 101.818 35.6496 101.71 35.6496V41.6496C103.748 41.6496 105.634 40.8189 106.838 38.9864L101.824 35.6913ZM101.71 35.6496C101.099 35.6496 100.542 35.5924 100.033 35.4871L98.8175 41.3627C99.7568 41.557 100.723 41.6496 101.71 41.6496V35.6496ZM100.054 35.4915C99.3073 35.3315 98.538 35.1857 97.7464 35.0537L96.76 40.9721C97.4665 41.0898 98.1453 41.2187 98.7967 41.3583L100.054 35.4915ZM97.8611 35.0751C96.8997 34.8763 95.88 34.7882 94.819 34.7882V40.7882C95.5556 40.7882 96.1587 40.85 96.6454 40.9507L97.8611 35.0751ZM94.819 34.7882C92.3002 34.7882 89.822 35.5227 88.1817 37.6316L92.9178 41.3153C93.0251 41.1773 93.393 40.7882 94.819 40.7882V34.7882ZM88.1561 37.665C86.838 39.4096 86.2764 41.4928 86.2764 43.7053H92.2764C92.2764 42.5223 92.5637 41.7844 92.9433 41.282L88.1561 37.665ZM86.2764 43.7053C86.2764 45.4613 86.6265 47.1865 87.5604 48.6723L92.6402 45.4793C92.4756 45.2174 92.2764 44.6956 92.2764 43.7053H86.2764ZM87.5932 48.7233C88.467 50.053 89.6449 51.083 91.0948 51.7492L93.5998 46.2971C93.2022 46.1145 92.8821 45.8462 92.6074 45.4283L87.5932 48.7233ZM91.1831 51.7881C92.5408 52.3597 93.9911 52.6224 95.4931 52.6224V46.6224C94.6982 46.6224 94.0513 46.4856 93.5115 46.2583L91.1831 51.7881ZM95.4931 52.6224C96.908 52.6224 98.2668 52.3013 99.5259 51.6527L96.7782 46.3188C96.3895 46.519 95.9756 46.6224 95.4931 46.6224V52.6224ZM99.5259 51.6527C101.374 50.7004 102.319 48.9923 102.669 47.2024L96.7807 46.0504C96.7269 46.3256 96.6639 46.4182 96.667 46.4135C96.6693 46.41 96.6828 46.3913 96.7092 46.3676C96.7358 46.3437 96.7614 46.3274 96.7782 46.3188L99.5259 51.6527ZM99.7249 43.6264H97.8899V49.6264H99.7249V43.6264ZM97.8899 43.6264C97.7496 43.6264 97.7428 43.6052 97.8163 43.6338C97.8535 43.6482 97.9025 43.6722 97.9558 43.7088C98.0094 43.7454 98.0555 43.7867 98.0922 43.8272L93.643 47.8527C94.8162 49.1494 96.3838 49.6264 97.8899 49.6264V43.6264ZM98.1381 43.8791C98.1453 43.8874 98.1543 43.8997 98.1626 43.9143C98.1709 43.9288 98.1744 43.9386 98.1749 43.9398C98.1761 43.9434 98.156 43.8876 98.156 43.7428H92.156C92.156 45.1827 92.5742 46.6164 93.5971 47.8008L98.1381 43.8791ZM98.156 43.7428C98.156 43.5967 98.1764 43.5508 98.1695 43.5707C98.1661 43.5805 98.158 43.6007 98.1428 43.6266C98.1275 43.6526 98.1098 43.6763 98.0922 43.6957L93.643 39.6703C92.5732 40.8526 92.156 42.3073 92.156 43.7428H98.156ZM98.0922 43.6957C98.0555 43.7363 98.0094 43.7775 97.9558 43.8142C97.9025 43.8507 97.8535 43.8747 97.8163 43.8892C97.7428 43.9178 97.7496 43.8966 97.8899 43.8966V37.8966C96.3838 37.8966 94.8162 38.3736 93.643 39.6703L98.0922 43.6957ZM97.8899 43.8966H102.384V37.8966H97.8899V43.8966ZM102.384 43.8966C102.943 43.8966 103.245 43.974 103.376 44.0243C103.478 44.0635 103.437 44.0683 103.384 43.9963L108.2 40.4183C106.748 38.463 104.471 37.8966 102.384 37.8966V43.8966ZM103.442 44.073C103.515 44.1648 103.803 44.6461 103.803 46.0272H109.803C109.803 44.0128 109.416 41.9476 108.141 40.3417L103.442 44.073ZM103.803 46.0272V53.0303H109.803V46.0272H103.803ZM103.803 53.0303C103.803 53.417 103.75 53.6371 103.713 53.7414C103.695 53.7916 103.681 53.8156 103.677 53.8228C103.674 53.8268 103.673 53.8284 103.673 53.8286C103.673 53.8287 103.673 53.8288 103.672 53.8293L107.837 58.1484C109.3 56.7377 109.803 54.8583 109.803 53.0303H103.803ZM103.672 53.8293C103.632 53.8674 103.506 54 102.983 54V60C104.757 60 106.478 59.4585 107.837 58.1484L103.672 53.8293ZM102.983 54C102.325 54 102.186 53.8335 102.182 53.8293L98.017 58.1484C99.4109 59.4924 101.194 60 102.983 60V54ZM102.182 53.8293C102.181 53.8288 102.181 53.8287 102.181 53.8286C102.181 53.8284 102.18 53.8268 102.177 53.8228C102.173 53.8156 102.158 53.7916 102.141 53.7414C102.104 53.6371 102.051 53.417 102.051 53.0303H96.0508C96.0508 54.8583 96.5541 56.7377 98.017 58.1484L102.182 53.8293ZM102.051 53.0303V50.7084H96.0508V53.0303H102.051ZM99.0508 47.7084H98.3767V53.7084H99.0508V47.7084ZM95.3767 50.7084C95.3767 52.531 94.9162 53.2136 94.6312 53.4738L98.6768 57.9047C100.689 56.0677 101.377 53.4298 101.377 50.7084H95.3767ZM94.6579 53.4497C94.1865 53.8699 93.4248 54.2247 92.0477 54.2247V60.2247C94.5155 60.2247 96.8247 59.5558 98.6502 57.9288L94.6579 53.4497ZM92.0477 54.2247H91.7107V60.2247H92.0477V54.2247ZM109.688 55.502L107.593 57.6494L107.606 57.662L107.619 57.6744L109.688 55.502ZM109.95 47.4128L111.614 49.909L111.632 49.8971L111.649 49.885L109.95 47.4128ZM117.552 46.4017L118.045 43.4425H118.045L117.552 46.4017ZM119.986 47.0383L118.923 49.8433L119.437 50.0383H119.986V47.0383ZM120.099 47.0383V50.0383H123.099V47.0383H120.099ZM119.462 45.1284L117.555 47.4442L117.597 47.4786L117.64 47.5115L119.462 45.1284ZM117.852 44.6415V47.6415H117.909L117.967 47.6393L117.852 44.6415ZM116.241 44.7539L115.748 41.7947L115.734 41.7971L115.72 41.7995L116.241 44.7539ZM114.631 45.1284L115.359 48.0388L115.385 48.0323L115.411 48.0252L114.631 45.1284ZM111.523 45.0535L110.409 47.8389L111.523 45.0535ZM109.725 42.9938L106.836 43.8002L106.85 43.8506L106.866 43.9005L109.725 42.9938ZM109.912 40.2974L107.364 38.7153L107.344 38.7475L107.324 38.7802L109.912 40.2974ZM111.935 38.6121L113.153 41.3536L113.198 41.3338L113.241 41.3126L111.935 38.6121ZM114.519 37.6759L113.774 34.7699L113.764 34.7722L113.755 34.7747L114.519 37.6759ZM124.855 39.6982L122.683 41.768L122.7 41.7853L122.717 41.8025L124.855 39.6982ZM126.241 55.9889L128.442 58.0271V58.0271L126.241 55.9889ZM120.96 55.9889L118.676 57.9343L118.697 57.9583L118.718 57.9819L120.96 55.9889ZM120.099 52.6558H123.099V49.6558H120.099V52.6558ZM119.35 52.6558V49.6558H116.35V52.6558H119.35ZM118.975 54.6407L116.162 53.5987L116.145 53.6451L116.129 53.692L118.975 54.6407ZM117.515 56.3259L115.971 53.7534L115.952 53.7651L115.933 53.777L117.515 56.3259ZM114.856 49.6973L113.344 52.2886L113.388 52.3144L113.434 52.3387L114.856 49.6973ZM118.9 49.6973L117.632 46.9787H117.632L118.9 49.6973ZM118.9 47.9746L117.632 50.6931L117.708 50.7287L117.786 50.76L118.9 47.9746ZM114.856 47.9746L116.197 50.6579L116.238 50.6375L116.278 50.616L114.856 47.9746ZM114.032 54C112.733 54 112.106 53.6618 111.757 53.3296L107.619 57.6744C109.367 59.3395 111.635 60 114.032 60V54ZM111.783 53.3547C111.478 53.0576 111.152 52.5166 111.152 51.3076H105.152C105.152 53.6938 105.85 55.9491 107.593 57.6494L111.783 53.3547ZM111.152 51.3076C111.152 50.2309 111.46 50.0113 111.614 49.909L108.286 44.9167C106.043 46.4122 105.152 48.7892 105.152 51.3076H111.152ZM111.649 49.885C112.222 49.4916 113.117 49.177 114.556 49.177V43.177C112.251 43.177 110.075 43.6862 108.25 44.9407L111.649 49.885ZM114.556 49.177C115.522 49.177 116.352 49.2431 117.059 49.3609L118.045 43.4425C116.955 43.2607 115.788 43.177 114.556 43.177V49.177ZM117.059 49.3609C117.796 49.4837 118.412 49.6498 118.923 49.8433L121.05 44.2333C120.113 43.8777 119.106 43.6193 118.045 43.4425L117.059 49.3609ZM119.986 50.0383H120.099V44.0383H119.986V50.0383ZM123.099 47.0383V46.4766H117.099V47.0383H123.099ZM123.099 46.4766C123.099 45.0488 122.513 43.6849 121.285 42.7453L117.64 47.5115C117.501 47.4051 117.341 47.2305 117.227 46.9899C117.117 46.7563 117.099 46.5638 117.099 46.4766H123.099ZM121.369 42.8126C120.277 41.913 118.98 41.596 117.737 41.6438L117.967 47.6393C118.011 47.6377 117.969 47.6452 117.873 47.6162C117.77 47.5849 117.655 47.5267 117.555 47.4442L121.369 42.8126ZM117.852 41.6415C117.118 41.6415 116.408 41.6848 115.748 41.7947L116.735 47.7131C116.974 47.6732 117.337 47.6415 117.852 47.6415V41.6415ZM115.72 41.7995C115.175 41.8958 114.544 42.045 113.851 42.2316L115.411 48.0252C116.016 47.8623 116.459 47.7618 116.763 47.7082L115.72 41.7995ZM113.904 42.218C113.127 42.4121 112.766 42.3198 112.637 42.2681L110.409 47.8389C112.027 48.4862 113.739 48.4439 115.359 48.0388L113.904 42.218ZM112.637 42.2681C112.625 42.2632 112.63 42.2641 112.645 42.2744C112.66 42.2849 112.672 42.2964 112.678 42.3038C112.693 42.3212 112.645 42.2753 112.585 42.087L106.866 43.9005C107.418 45.6444 108.577 47.1065 110.409 47.8389L112.637 42.2681ZM112.615 42.1874C112.536 41.9051 112.537 41.7602 112.54 41.7223C112.541 41.7054 112.542 41.712 112.535 41.7352C112.528 41.7591 112.516 41.7874 112.501 41.8145L107.324 38.7802C106.367 40.4138 106.392 42.2105 106.836 43.8002L112.615 42.1874ZM112.461 41.8795C112.547 41.742 112.717 41.5475 113.153 41.3536L110.716 35.8707C109.355 36.4757 108.177 37.4046 107.364 38.7153L112.461 41.8795ZM113.241 41.3126C113.819 41.0332 114.495 40.7843 115.282 40.5771L113.755 34.7747C112.645 35.0668 111.599 35.4421 110.628 35.9116L113.241 41.3126ZM115.264 40.5819C115.968 40.4015 116.763 40.3014 117.665 40.3014V34.3014C116.319 34.3014 115.017 34.451 113.774 34.7699L115.264 40.5819ZM117.665 40.3014C120.51 40.3014 121.951 40.9998 122.683 41.768L127.027 37.6284C124.713 35.2008 121.36 34.3014 117.665 34.3014V40.3014ZM122.717 41.8025C123.437 42.5346 124.177 44.1981 124.177 47.6375H130.177C130.177 43.6369 129.369 40.0075 126.993 37.5939L122.717 41.8025ZM124.177 47.6375V53.4423H130.177V47.6375H124.177ZM124.177 53.4423C124.177 53.8035 124.09 53.896 124.039 53.9506L128.442 58.0271C129.64 56.7335 130.177 55.1283 130.177 53.4423H124.177ZM124.039 53.9506C124.034 53.9567 124.034 53.9551 124.04 53.9512C124.046 53.9474 124.045 53.9488 124.033 53.9535C124.01 53.9627 123.9 54 123.657 54V60C125.413 60 127.14 59.4335 128.442 58.0271L124.039 53.9506ZM123.657 54C123.331 54 123.178 53.9534 123.137 53.9382C123.119 53.9314 123.125 53.9316 123.144 53.9447C123.164 53.9583 123.185 53.9765 123.202 53.9958L118.718 57.9819C120.058 59.4892 121.898 60 123.657 60V54ZM123.244 54.0435C123.179 53.9674 123.099 53.8541 123.099 53.5172H117.099C117.099 55.1277 117.593 56.6621 118.676 57.9343L123.244 54.0435ZM123.099 53.5172V52.6558H117.099V53.5172H123.099ZM120.099 49.6558H119.35V55.6558H120.099V49.6558ZM116.35 52.6558C116.35 52.9131 116.301 53.2224 116.162 53.5987L121.789 55.6826C122.149 54.7107 122.35 53.6968 122.35 52.6558H116.35ZM116.129 53.692C116.137 53.6693 116.147 53.6472 116.158 53.6283C116.169 53.6096 116.176 53.6011 116.175 53.6028C116.171 53.6064 116.12 53.664 115.971 53.7534L119.058 58.8984C120.275 58.1682 121.322 57.0887 121.821 55.5893L116.129 53.692ZM115.933 53.777C115.976 53.7501 115.882 53.8182 115.531 53.8861C115.191 53.952 114.701 54 114.032 54V60C115.775 60 117.639 59.7799 119.097 58.8748L115.933 53.777ZM111.406 48.7985C111.406 50.0105 111.905 51.4489 113.344 52.2886L116.367 47.1059C116.702 47.3014 117.007 47.6089 117.202 47.9999C117.384 48.3628 117.406 48.666 117.406 48.7985H111.406ZM113.434 52.3387C114.092 52.6932 114.79 52.8132 115.235 52.8699C115.751 52.9355 116.322 52.9594 116.916 52.9594V46.9594C116.461 46.9594 116.164 46.9397 115.993 46.9179C115.91 46.9073 115.891 46.9005 115.92 46.908C115.938 46.9127 116.08 46.9492 116.278 47.0559L113.434 52.3387ZM116.916 52.9594C117.877 52.9594 119.138 52.897 120.169 52.4158L117.632 46.9787C117.751 46.9233 117.826 46.9045 117.83 46.9036C117.837 46.9018 117.807 46.9096 117.731 46.9197C117.571 46.9407 117.308 46.9594 116.916 46.9594V52.9594ZM120.169 52.4158C120.791 52.1258 121.416 51.6515 121.866 50.9315C122.313 50.2166 122.462 49.4589 122.462 48.7985H116.462C116.462 48.5625 116.518 48.1668 116.778 47.7515C117.04 47.3311 117.385 47.094 117.632 46.9787L120.169 52.4158ZM122.462 48.7985C122.462 48.1195 122.297 47.3316 121.8 46.6029C121.305 45.8763 120.636 45.4376 120.015 45.1892L117.786 50.76C117.54 50.6613 117.151 50.4349 116.843 49.9829C116.533 49.5288 116.462 49.078 116.462 48.7985H122.462ZM120.169 45.256C119.138 44.7749 117.877 44.7124 116.916 44.7124V50.7124C117.308 50.7124 117.571 50.7311 117.731 50.7521C117.807 50.7623 117.837 50.7701 117.83 50.7682C117.826 50.7674 117.751 50.7486 117.632 50.6931L120.169 45.256ZM116.916 44.7124C116.322 44.7124 115.751 44.7364 115.235 44.802C114.79 44.8587 114.092 44.9787 113.434 45.3332L116.278 50.616C116.08 50.7227 115.938 50.7591 115.92 50.7639C115.891 50.7713 115.91 50.7646 115.993 50.754C116.164 50.7322 116.461 50.7124 116.916 50.7124V44.7124ZM113.514 45.2913C112.857 45.6197 112.274 46.1425 111.885 46.8563C111.512 47.5398 111.406 48.2325 111.406 48.7985H117.406C117.406 48.965 117.375 49.3206 117.152 49.7295C116.913 50.1686 116.555 50.4793 116.197 50.6579L113.514 45.2913ZM129.94 56.0263L127.779 58.1072L127.818 58.148L127.859 58.1873L129.94 56.0263ZM129.902 38.4998L127.669 36.4971L127.649 36.5189L127.63 36.541L129.902 38.4998ZM136.082 43.1061H133.082V46.1061H136.082V43.1061ZM136.756 43.1061V46.1061H139.756V43.1061H136.756ZM138.104 38.687L140.131 40.8985L140.148 40.8834L140.164 40.8681L138.104 38.687ZM145.182 38.9866L147.568 37.1685V37.1685L145.182 38.9866ZM146.38 43.1061H143.38V46.1061H146.38V43.1061ZM147.055 43.1061V46.1061H150.055V43.1061H147.055ZM149.564 37.9755L150.868 40.6771L150.887 40.6681L150.905 40.6588L149.564 37.9755ZM155.443 38.5747L153.287 40.6609L153.305 40.6786L153.322 40.696L155.443 38.5747ZM156.941 41.683L153.985 42.1946L156.941 41.683ZM156.267 56.0263L158.389 58.1476L156.267 56.0263ZM150.987 56.0263L148.865 58.1476L148.885 58.1676L148.906 58.1873L150.987 56.0263ZM146.867 44.9037L144.091 43.7678L144.068 43.8227L144.048 43.8785L146.867 44.9037ZM145.631 56.0263L147.794 58.1056L147.814 58.0853L147.833 58.0645L145.631 56.0263ZM140.351 56.0263L138.19 58.1072L138.229 58.148L138.27 58.1873L140.351 56.0263ZM136.344 44.9037L133.524 43.8785L133.504 43.9359L133.485 43.9941L136.344 44.9037ZM135.183 56.0263L137.387 58.0611L137.406 58.0404L137.425 58.0194L135.183 56.0263ZM132.636 54C132.123 54 132.027 53.8713 132.021 53.8653L127.859 58.1873C129.201 59.4795 130.902 60 132.636 60V54ZM132.101 53.9454C132.014 53.8549 131.966 53.7871 131.966 53.5546H125.966C125.966 55.2695 126.568 56.8495 127.779 58.1072L132.101 53.9454ZM131.966 53.5546V41.1587H125.966V53.5546H131.966ZM131.966 41.1587C131.966 40.7542 132.067 40.5838 132.175 40.4586L127.63 36.541C126.49 37.8638 125.966 39.466 125.966 41.1587H131.966ZM132.136 40.5024C132.148 40.4887 132.152 40.4846 132.18 40.4733C132.222 40.4569 132.356 40.4137 132.636 40.4137V34.4137C130.802 34.4137 129.003 35.0085 127.669 36.4971L132.136 40.5024ZM132.636 40.4137C132.9 40.4137 132.993 40.4556 132.981 40.4509C132.975 40.4482 132.953 40.4379 132.926 40.4171C132.898 40.3962 132.879 40.3758 132.87 40.364L137.571 36.6356C136.291 35.022 134.456 34.4137 132.636 34.4137V40.4137ZM132.87 40.364C132.948 40.4623 133.082 40.6793 133.082 41.2336H139.082C139.082 39.5909 138.641 37.9853 137.571 36.6356L132.87 40.364ZM133.082 41.2336V43.1061H139.082V41.2336H133.082ZM136.082 46.1061H136.756V40.1061H136.082V46.1061ZM139.756 43.1061C139.756 42.2382 139.85 41.6535 139.962 41.2851C140.071 40.9282 140.168 40.8646 140.131 40.8985L136.077 36.4756C134.229 38.1693 133.756 40.7283 133.756 43.1061H139.756ZM140.164 40.8681C140.464 40.5844 140.821 40.4137 141.437 40.4137V34.4137C139.407 34.4137 137.541 35.0919 136.044 36.506L140.164 40.8681ZM141.437 40.4137C142.494 40.4137 142.722 40.7078 142.796 40.8048L147.568 37.1685C146.044 35.1682 143.776 34.4137 141.437 34.4137V40.4137ZM142.796 40.8047C143.095 41.1973 143.38 41.8749 143.38 43.1061H149.38C149.38 40.9419 148.867 38.8731 147.568 37.1685L142.796 40.8047ZM146.38 46.1061H147.055V40.1061H146.38V46.1061ZM150.055 43.1061C150.055 41.9666 150.253 41.4294 150.366 41.2325L145.166 38.2387C144.331 39.6896 144.055 41.3994 144.055 43.1061H150.055ZM150.366 41.2325C150.595 40.8338 150.78 40.7195 150.868 40.6771L148.259 35.2738C146.899 35.9305 145.885 36.9896 145.166 38.2387L150.366 41.2325ZM150.905 40.6588C151.258 40.4822 151.575 40.4137 151.886 40.4137V34.4137C150.598 34.4137 149.367 34.7197 148.222 35.2922L150.905 40.6588ZM151.886 40.4137C153.104 40.4137 153.336 40.7106 153.287 40.6609L157.599 36.4884C156.053 34.8908 153.913 34.4137 151.886 34.4137V40.4137ZM153.322 40.696C153.575 40.9494 153.844 41.3795 153.985 42.1946L159.897 41.1714C159.589 39.39 158.859 37.7479 157.565 36.4534L153.322 40.696ZM153.985 42.1946C154.175 43.2905 154.278 44.5756 154.278 46.0646H160.278C160.278 44.308 160.157 42.6721 159.897 41.1714L153.985 42.1946ZM154.278 46.0646V53.5546H160.278V46.0646H154.278ZM154.278 53.5546C154.278 53.6886 154.257 53.748 154.249 53.7669C154.242 53.7846 154.221 53.8294 154.146 53.905L158.389 58.1476C159.639 56.8976 160.278 55.3049 160.278 53.5546H154.278ZM154.146 53.905C154.131 53.9197 154.119 53.9298 154.08 53.9443C154.032 53.9624 153.901 54 153.646 54V60C155.372 60 157.068 59.4677 158.389 58.1476L154.146 53.905ZM153.646 54C153.179 54 153.087 53.8836 153.068 53.8653L148.906 58.1873C150.235 59.4673 151.916 60 153.646 60V54ZM153.108 53.905C153.033 53.8294 153.012 53.7846 153.005 53.7669C152.997 53.748 152.976 53.6886 152.976 53.5546H146.976C146.976 55.3049 147.615 56.8976 148.865 58.1476L153.108 53.905ZM152.976 53.5546V46.926H146.976V53.5546H152.976ZM152.976 46.926C152.976 45.8415 152.85 44.6547 152.374 43.5977L146.903 46.0599C146.881 46.0106 146.904 46.0429 146.929 46.2036C146.955 46.3604 146.976 46.5957 146.976 46.926H152.976ZM152.374 43.5977C152.015 42.7994 151.418 42.1044 150.59 41.6446C149.802 41.2069 148.983 41.0798 148.29 41.0798V47.0798C148.271 47.0798 148.015 47.0776 147.676 46.8895C147.298 46.6794 147.037 46.3588 146.903 46.0599L152.374 43.5977ZM148.29 41.0798C147.565 41.0798 146.706 41.216 145.888 41.6895C145.028 42.1875 144.432 42.9329 144.091 43.7678L149.644 46.0396C149.527 46.3252 149.28 46.6587 148.895 46.8821C148.551 47.0809 148.292 47.0798 148.29 47.0798V41.0798ZM144.048 43.8785C143.688 44.8689 143.568 45.9465 143.568 47.0009H149.568C149.568 46.3576 149.647 46.037 149.687 45.9289L144.048 43.8785ZM143.568 47.0009V53.5546H149.568V47.0009H143.568ZM143.568 53.5546C143.568 53.8222 143.508 53.9039 143.43 53.9881L147.833 58.0645C149.003 56.8005 149.568 55.2344 149.568 53.5546H143.568ZM143.469 53.947C143.467 53.9493 143.469 53.9466 143.474 53.9432C143.479 53.94 143.476 53.9429 143.459 53.9493C143.425 53.9621 143.304 54 143.047 54V60C144.77 60 146.483 59.4685 147.794 58.1056L143.469 53.947ZM143.047 54C142.534 54 142.438 53.8713 142.432 53.8653L138.27 58.1873C139.612 59.4795 141.313 60 143.047 60V54ZM142.512 53.9454C142.425 53.8549 142.377 53.7871 142.377 53.5546H136.377C136.377 55.2695 136.979 56.8495 138.19 58.1072L142.512 53.9454ZM142.377 53.5546V46.926H136.377V53.5546H142.377ZM142.377 46.926C142.377 45.8415 142.252 44.6547 141.776 43.5977L136.304 46.0599C136.282 46.0106 136.305 46.0429 136.331 46.2036C136.356 46.3604 136.377 46.5957 136.377 46.926H142.377ZM141.776 43.5977C141.428 42.8236 140.85 42.1297 140.032 41.6623C139.248 41.2138 138.428 41.0798 137.73 41.0798V47.0798C137.68 47.0798 137.404 47.0706 137.056 46.8718C136.675 46.654 136.428 46.3347 136.304 46.0599L141.776 43.5977ZM137.73 41.0798C137.009 41.0798 136.136 41.2143 135.307 41.7072C134.427 42.2302 133.839 43.0142 133.524 43.8785L139.163 45.9289C139.049 46.2439 138.791 46.616 138.373 46.8644C138.19 46.9733 138.026 47.0276 137.912 47.0539C137.802 47.0796 137.735 47.0798 137.73 47.0798V41.0798ZM133.485 43.9941C133.184 44.941 133.082 45.9749 133.082 47.0009H139.082C139.082 46.3291 139.154 45.9649 139.203 45.8133L133.485 43.9941ZM133.082 47.0009V53.5546H139.082V47.0009H133.082ZM133.082 53.5546C133.082 53.857 133.011 53.9539 132.941 54.0332L137.425 58.0194C138.553 56.7505 139.082 55.1996 139.082 53.5546H133.082ZM132.979 53.9915C132.985 53.9842 132.997 53.9731 133.013 53.9628C133.028 53.9526 133.034 53.951 133.025 53.9544C133.006 53.9618 132.894 54 132.636 54V60C134.354 60 136.087 59.4696 137.387 58.0611L132.979 53.9915ZM160.226 42.0575L157.579 40.6457L157.57 40.663L157.561 40.6804L160.226 42.0575ZM163.597 38.5372L162.099 35.9379L162.089 35.9435L162.079 35.9491L163.597 38.5372ZM173.071 38.1253L171.818 40.8507L171.828 40.8554L171.838 40.86L173.071 38.1253ZM176.067 40.4472L173.66 42.2373L173.671 42.2523L173.682 42.2672L176.067 40.4472ZM176.105 46.1395L174.361 43.6983V43.6983L176.105 46.1395ZM165.132 46.8885V43.8885H162.132V46.8885H165.132ZM165.881 48.4989L163.938 50.7847L163.965 50.808L163.993 50.8306L165.881 48.4989ZM170.225 48.9483L169.56 46.0229L169.545 46.0263L169.53 46.0299L170.225 48.9483ZM171.873 48.6112L172.41 51.5628L172.46 51.5537L172.51 51.5428L171.873 48.6112ZM176.255 49.51L174.021 51.5127L174.038 51.5322L174.056 51.5514L176.255 49.51ZM174.944 55.8765L173.516 53.2379L173.507 53.2428L173.498 53.2479L174.944 55.8765ZM164.158 56.1012L162.927 58.837L162.936 58.8408L162.944 58.8445L164.158 56.1012ZM160.488 52.918L157.966 54.5424L157.972 54.5522L157.979 54.562L160.488 52.918ZM171.573 45.1284L168.689 45.9526L168.715 46.0459L168.748 46.1374L171.573 45.1284ZM170.675 44.0424L168.875 46.4423V46.4424L170.675 44.0424ZM166.031 44.1922L164.07 41.9217L164.044 41.9443L164.018 41.9675L166.031 44.1922ZM165.244 45.6527H162.244V48.6527H165.244V45.6527ZM162.065 47.263C162.065 45.6885 162.372 44.44 162.891 43.4346L157.561 40.6804C156.532 42.671 156.065 44.8928 156.065 47.263H162.065ZM162.873 43.4693C163.414 42.4543 164.149 41.6906 165.114 41.1253L162.079 35.9491C160.148 37.0816 158.636 38.6647 157.579 40.6457L162.873 43.4693ZM165.094 41.1365C166.032 40.596 167.243 40.2639 168.84 40.2639V34.2639C166.391 34.2639 164.107 34.7808 162.099 35.9379L165.094 41.1365ZM168.84 40.2639C170.042 40.2639 171.016 40.4818 171.818 40.8507L174.325 35.3998C172.63 34.6203 170.783 34.2639 168.84 34.2639V40.2639ZM171.838 40.86C172.717 41.2565 173.284 41.7315 173.66 42.2373L178.475 38.6571C177.403 37.2154 175.972 36.1426 174.305 35.3905L171.838 40.86ZM173.682 42.2672C174.024 42.7151 174.153 43.1293 174.153 43.593H180.153C180.153 41.7596 179.558 40.0767 178.452 38.6271L173.682 42.2672ZM174.153 43.593C174.153 43.7485 174.142 43.8553 174.131 43.9213C174.119 43.9867 174.11 44.0037 174.117 43.9861C174.125 43.9666 174.148 43.9183 174.195 43.8577C174.244 43.7959 174.301 43.7411 174.361 43.6983L177.848 48.5807C179.62 47.3154 180.153 45.3485 180.153 43.593H174.153ZM174.361 43.6983C174.39 43.6775 174.331 43.7291 174.101 43.7848C173.868 43.8409 173.51 43.8885 172.996 43.8885V49.8885C174.65 49.8885 176.418 49.6025 177.848 48.5807L174.361 43.6983ZM172.996 43.8885H165.132V49.8885H172.996V43.8885ZM162.132 46.8885C162.132 48.4275 162.776 49.7966 163.938 50.7847L167.824 46.2131C167.868 46.2508 167.963 46.3487 168.039 46.5128C168.116 46.6776 168.132 46.8187 168.132 46.8885H162.132ZM163.993 50.8306C165.339 51.9201 167.086 52.1355 168.502 52.1355V46.1355C168.05 46.1355 167.777 46.0949 167.638 46.0611C167.495 46.0266 167.591 46.0231 167.769 46.1671L163.993 50.8306ZM168.502 52.1355C169.325 52.1355 170.136 52.0535 170.92 51.8667L169.53 46.0299C169.266 46.0928 168.929 46.1355 168.502 46.1355V52.1355ZM170.89 51.8737C171.397 51.7584 171.904 51.6548 172.41 51.5628L171.336 45.6596C170.744 45.7674 170.152 45.8885 169.56 46.0229L170.89 51.8737ZM172.51 51.5428C172.84 51.4711 173.259 51.424 173.783 51.424V45.424C172.909 45.424 172.054 45.5017 171.236 45.6797L172.51 51.5428ZM173.783 51.424C173.851 51.424 173.893 51.4301 173.915 51.4344C173.926 51.4366 173.933 51.4386 173.937 51.4398C173.941 51.441 173.942 51.4418 173.943 51.4421C173.944 51.4423 173.944 51.4426 173.945 51.4433C173.947 51.444 173.95 51.4458 173.955 51.4495C173.964 51.4565 173.987 51.4746 174.021 51.5127L178.488 47.5074C177.253 46.1294 175.608 45.424 173.783 45.424V51.424ZM174.056 51.5514C174.068 51.5638 174.102 51.6014 174.139 51.7133C174.18 51.8363 174.228 52.0621 174.228 52.4311H180.228C180.228 50.6658 179.76 48.8767 178.453 47.4687L174.056 51.5514ZM174.228 52.4311C174.228 52.6206 174.189 52.6911 174.157 52.7394C174.109 52.8117 173.954 53.0011 173.516 53.2379L176.371 58.5151C178.659 57.2778 180.228 55.2203 180.228 52.4311H174.228ZM173.498 53.2479C172.593 53.7456 171.173 54.1124 169.027 54.1124V60.1124C171.774 60.1124 174.299 59.6552 176.39 58.5052L173.498 53.2479ZM169.027 54.1124C167.708 54.1124 166.5 53.8569 165.373 53.3579L162.944 58.8445C164.863 59.6937 166.901 60.1124 169.027 60.1124V54.1124ZM165.389 53.3654C164.442 52.9389 163.651 52.2707 162.998 51.2739L157.979 54.562C159.223 56.4614 160.879 57.9153 162.927 58.837L165.389 53.3654ZM163.01 51.2935C162.457 50.4342 162.065 49.1598 162.065 47.263H156.065C156.065 49.9601 156.622 52.4557 157.966 54.5424L163.01 51.2935ZM171.199 48.6527C171.65 48.6527 173.076 48.5786 174.015 47.2653C174.962 45.9385 174.554 44.554 174.399 44.1194L168.748 46.1374C168.718 46.0523 168.309 44.9299 169.132 43.7779C169.945 42.6394 171.123 42.6527 171.199 42.6527V48.6527ZM174.458 44.3042C174.089 43.0136 173.16 42.1563 172.475 41.6423L168.875 46.4424C168.993 46.5311 169.003 46.5566 168.963 46.5074C168.922 46.4587 168.781 46.2747 168.689 45.9526L174.458 44.3042ZM172.475 41.6424C171.248 40.7227 169.781 40.4806 168.502 40.4806V46.4806C168.788 46.4806 168.945 46.5096 169.006 46.5255C169.062 46.5401 168.994 46.5317 168.875 46.4423L172.475 41.6424ZM168.502 40.4806C167.04 40.4806 165.384 40.7868 164.07 41.9217L167.992 46.4626C167.884 46.5557 167.821 46.5615 167.891 46.5414C167.969 46.5187 168.159 46.4806 168.502 46.4806V40.4806ZM164.018 41.9675C163.134 42.7677 162.244 44.0009 162.244 45.6527H168.244C168.244 45.9511 168.161 46.1895 168.082 46.3354C168.013 46.464 167.968 46.4852 168.044 46.4168L164.018 41.9675ZM165.244 48.6527H171.199V42.6527H165.244V48.6527ZM191.162 55.3522L192.77 52.8198L191.162 55.3522ZM186.967 50.4837L189.695 49.2349L186.967 50.4837ZM186.967 36.2153L189.695 37.4642L189.701 37.4518L186.967 36.2153ZM191.162 31.3094L192.77 33.8418L192.782 33.8341L192.794 33.8263L191.162 31.3094ZM204.681 31.3094L203.033 33.8161L203.053 33.8291L203.073 33.8418L204.681 31.3094ZM208.875 36.2153L206.142 37.4518L206.148 37.4642L208.875 36.2153ZM208.875 50.4837L206.148 49.2349V49.2349L208.875 50.4837ZM204.681 55.3522L203.073 52.8198L203.065 52.8248L203.057 52.8298L204.681 55.3522ZM190.825 44.9411L188.18 46.3578L188.191 46.378L188.202 46.3981L190.825 44.9411ZM193.034 46.5889L191.953 49.3873L191.981 49.3981L192.009 49.4083L193.034 46.5889ZM202.809 46.5889L203.855 49.4006L203.872 49.3941L203.89 49.3873L202.809 46.5889ZM205.018 44.9411L207.641 46.3981L207.652 46.378L207.663 46.3578L205.018 44.9411ZM205.018 40.597L202.42 42.0961L202.432 42.1184L202.446 42.1404L205.018 40.597ZM202.809 39.0615L201.762 41.8732L201.801 41.8877L201.841 41.9011L202.809 39.0615ZM193.034 39.0615L194.002 41.9011L194.031 41.8913L194.059 41.8809L193.034 39.0615ZM190.825 40.597L193.397 42.1405L193.41 42.1184L193.423 42.0961L190.825 40.597ZM197.94 54.1124C195.712 54.1124 194.04 53.6266 192.77 52.8198L189.553 57.8846C191.978 59.4247 194.825 60.1124 197.94 60.1124V54.1124ZM192.77 52.8198C191.433 51.9704 190.413 50.8031 189.695 49.2349L184.24 51.7326C185.419 54.3088 187.196 56.3872 189.553 57.8846L192.77 52.8198ZM189.695 49.2349C188.956 47.6198 188.544 45.6742 188.544 43.3308H182.544C182.544 46.3802 183.082 49.2032 184.24 51.7326L189.695 49.2349ZM188.544 43.3308C188.544 41.0168 188.954 39.0827 189.695 37.4642L184.24 34.9665C183.083 37.4924 182.544 40.3019 182.544 43.3308H188.544ZM189.701 37.4518C190.422 35.858 191.442 34.6854 192.77 33.8418L189.553 28.777C187.186 30.2803 185.41 32.3783 184.234 34.9788L189.701 37.4518ZM192.794 33.8263C194.061 33.0048 195.724 32.5118 197.94 32.5118V26.5118C194.814 26.5118 191.958 27.2173 189.529 28.7925L192.794 33.8263ZM197.94 32.5118C200.158 32.5118 201.8 33.0053 203.033 33.8161L206.329 28.8027C203.917 27.2167 201.065 26.5118 197.94 26.5118V32.5118ZM203.073 33.8418C204.401 34.6854 205.421 35.858 206.142 37.4518L211.609 34.9788C210.432 32.3783 208.656 30.2803 206.289 28.777L203.073 33.8418ZM206.148 37.4642C206.889 39.0827 207.299 41.0168 207.299 43.3308H213.299C213.299 40.3019 212.76 37.4924 211.603 34.9665L206.148 37.4642ZM207.299 43.3308C207.299 45.6742 206.887 47.6198 206.148 49.2349L211.603 51.7326C212.761 49.2032 213.299 46.3802 213.299 43.3308H207.299ZM206.148 49.2349C205.43 50.8031 204.41 51.9704 203.073 52.8198L206.289 57.8846C208.647 56.3872 210.424 54.3088 211.603 51.7326L206.148 49.2349ZM203.057 52.8298C201.82 53.626 200.17 54.1124 197.94 54.1124V60.1124C201.053 60.1124 203.897 59.4253 206.305 57.8746L203.057 52.8298ZM187.263 42.7316C187.263 44.0124 187.578 45.2342 188.18 46.3578L193.469 43.5245C193.322 43.25 193.263 42.9987 193.263 42.7316H187.263ZM188.202 46.3981C189.057 47.9369 190.53 48.8374 191.953 49.3873L194.115 43.7905C193.753 43.6504 193.55 43.5272 193.451 43.4538C193.359 43.3851 193.393 43.3861 193.447 43.4842L188.202 46.3981ZM192.009 49.4083C193.607 49.9896 195.665 50.1881 197.94 50.1881V44.1881C195.871 44.1881 194.658 43.9872 194.059 43.7696L192.009 49.4083ZM197.94 50.1881C200.208 50.1881 202.267 49.9913 203.855 49.4006L201.762 43.7773C201.203 43.9855 200.016 44.1881 197.94 44.1881V50.1881ZM203.89 49.3873C205.313 48.8374 206.786 47.9369 207.641 46.3981L202.396 43.4842C202.45 43.3861 202.484 43.3851 202.391 43.4538C202.293 43.5272 202.09 43.6504 201.727 43.7905L203.89 49.3873ZM207.663 46.3578C208.264 45.2342 208.58 44.0124 208.58 42.7316H202.58C202.58 42.9987 202.521 43.25 202.374 43.5245L207.663 46.3578ZM208.58 42.7316C208.58 41.4437 208.272 40.1887 207.591 39.0535L202.446 42.1404C202.514 42.2536 202.58 42.4217 202.58 42.7316H208.58ZM207.617 39.0978C206.725 37.5527 205.202 36.7079 203.777 36.222L201.841 41.9011C202.199 42.0231 202.39 42.132 202.473 42.1898C202.549 42.2425 202.492 42.2224 202.42 42.0961L207.617 39.0978ZM203.855 36.2499C202.267 35.6592 200.208 35.4623 197.94 35.4623V41.4623C200.016 41.4623 201.203 41.6649 201.762 41.8732L203.855 36.2499ZM197.94 35.4623C195.665 35.4623 193.607 35.6609 192.009 36.2421L194.059 41.8809C194.658 41.6632 195.871 41.4623 197.94 41.4623V35.4623ZM192.066 36.222C190.641 36.7079 189.117 37.5527 188.226 39.0978L193.423 42.0961C193.35 42.2224 193.294 42.2425 193.37 42.1898C193.453 42.132 193.644 42.0231 194.002 41.9011L192.066 36.222ZM188.252 39.0535C187.571 40.1887 187.263 41.4437 187.263 42.7316H193.263C193.263 42.4217 193.329 42.2536 193.397 42.1405L188.252 39.0535ZM214.649 50.8582L217.489 49.8902L217.486 49.8831L217.484 49.876L214.649 50.8582ZM211.691 42.3197L214.525 41.3375L214.521 41.326L214.517 41.3146L211.691 42.3197ZM211.691 39.2113L208.952 37.9862L208.939 38.0165L208.926 38.0471L211.691 39.2113ZM214.013 37.4137L214.663 40.3423L214.671 40.3406L214.013 37.4137ZM216.634 37.7133L215.155 40.3234L215.173 40.3337L215.191 40.3438L216.634 37.7133ZM218.282 39.848L215.429 40.7752L215.435 40.7953L215.442 40.8152L218.282 39.848ZM221.203 48.424L218.363 49.3912L218.367 49.4032L218.371 49.415L221.203 48.424ZM222.476 50.6335L220.41 52.8085L220.436 52.8337L220.463 52.8581L222.476 50.6335ZM224.386 50.9706L225.335 53.8166L225.41 53.7917L225.483 53.7628L224.386 50.9706ZM225.51 49.6224L222.529 49.2785L222.523 49.3307L222.519 49.3831L225.51 49.6224ZM225.098 47.3754L222.3 48.4584L222.311 48.4881L222.324 48.5176L225.098 47.3754ZM223.899 45.3905L221.679 47.4086V47.4086L223.899 45.3905ZM222.551 43.6679L220.055 45.332L222.551 43.6679ZM223.188 38.3874L225.168 40.6409L225.173 40.6369L223.188 38.3874ZM226.521 37.3388L226.412 40.3368L226.434 40.3377L226.457 40.3381L226.521 37.3388ZM229.404 38.5747L227.216 40.6265V40.6265L229.404 38.5747ZM229.442 46.2144L226.588 45.291L226.585 45.2988L226.582 45.3067L229.442 46.2144ZM227.944 50.9331L230.801 51.8475L230.803 51.8409L227.944 50.9331ZM226.596 54.1913L223.957 52.7647L223.949 52.7778L223.943 52.791L226.596 54.1913ZM224.723 56.2885L226.328 58.8229L226.339 58.8162L226.35 58.8093L224.723 56.2885ZM221.652 54C220.66 54 219.967 53.7278 219.406 53.264L215.585 57.8898C217.32 59.3234 219.399 60 221.652 60V54ZM219.406 53.264C218.862 52.8144 218.15 51.8307 217.489 49.8902L211.81 51.8262C212.646 54.2798 213.832 56.4419 215.585 57.8898L219.406 53.264ZM217.484 49.876L214.525 41.3375L208.856 43.3018L211.814 51.8404L217.484 49.876ZM214.517 41.3146C214.326 40.7773 214.392 40.5258 214.456 40.3755L208.926 38.0471C208.19 39.7943 208.256 41.615 208.864 43.3247L214.517 41.3146ZM214.429 40.4364C214.444 40.4035 214.452 40.3955 214.447 40.4018C214.441 40.4088 214.433 40.4171 214.426 40.4225C214.407 40.437 214.458 40.388 214.663 40.3423L213.362 34.4852C211.427 34.9151 209.81 36.0696 208.952 37.9862L214.429 40.4364ZM214.671 40.3406C214.895 40.2901 215.023 40.2946 215.076 40.3007C215.122 40.3059 215.139 40.3143 215.155 40.3234L218.113 35.1033C216.597 34.244 214.934 34.1313 213.354 34.4869L214.671 40.3406ZM215.191 40.3438C215.209 40.3536 215.225 40.3637 215.252 40.3985C215.284 40.4404 215.355 40.5491 215.429 40.7752L221.135 38.9207C220.622 37.3419 219.644 35.9426 218.077 35.0829L215.191 40.3438ZM215.442 40.8152L218.363 49.3912L224.043 47.4567L221.122 38.8807L215.442 40.8152ZM218.371 49.415C218.802 50.6443 219.429 51.8765 220.41 52.8085L224.542 48.4585C224.544 48.4603 224.483 48.4016 224.383 48.2275C224.283 48.0541 224.162 47.7971 224.034 47.4329L218.371 49.415ZM220.463 52.8581C221.898 54.156 223.704 54.3602 225.335 53.8166L223.437 48.1245C223.433 48.1261 223.598 48.0715 223.868 48.1192C224.157 48.1702 224.373 48.3042 224.489 48.4089L220.463 52.8581ZM225.483 53.7628C226.172 53.4921 226.907 53.055 227.496 52.3481C228.109 51.6131 228.429 50.7456 228.5 49.8616L222.519 49.3831C222.54 49.1233 222.649 48.7926 222.887 48.507C223.101 48.2495 223.299 48.1744 223.289 48.1783L225.483 53.7628ZM228.49 49.9663C228.642 48.649 228.341 47.372 227.872 46.2331L222.324 48.5176C222.554 49.0765 222.527 49.2975 222.529 49.2785L228.49 49.9663ZM227.895 46.2924C227.478 45.2143 226.895 44.2256 226.119 43.3725L221.679 47.4086C221.903 47.654 222.118 47.9885 222.3 48.4584L227.895 46.2924ZM226.119 43.3725C225.717 42.9308 225.361 42.4745 225.047 42.0038L220.055 45.332C220.54 46.0596 221.082 46.7518 221.679 47.4086L226.119 43.3725ZM225.047 42.0038C225.043 41.9973 225.022 41.9654 225 41.8837C224.977 41.7977 224.952 41.6498 224.952 41.4209H218.952C218.952 42.7647 219.254 44.1302 220.055 45.332L225.047 42.0038ZM224.952 41.4209C224.952 40.8115 225.112 40.6898 225.168 40.6409L221.207 36.1339C219.615 37.5331 218.952 39.4337 218.952 41.4209H224.952ZM225.173 40.6369C225.327 40.5009 225.633 40.3085 226.412 40.3368L226.63 34.3408C224.662 34.2693 222.746 34.776 221.203 36.1379L225.173 40.6369ZM226.457 40.3381C226.888 40.3473 227.061 40.4617 227.216 40.6265L231.593 36.5229C230.25 35.0898 228.501 34.3803 226.585 34.3395L226.457 40.3381ZM227.216 40.6265C227.381 40.8027 227.528 41.0503 227.528 41.6081H233.528C233.528 39.7192 232.926 37.9445 231.593 36.5228L227.216 40.6265ZM227.528 41.6081C227.528 41.9503 227.471 42.3903 227.31 42.9438L233.072 44.6166C233.361 43.6222 233.528 42.6141 233.528 41.6081H227.528ZM227.31 42.9438C227.094 43.6857 226.854 44.468 226.588 45.291L232.296 47.1379C232.579 46.2632 232.838 45.4226 233.072 44.6166L227.31 42.9438ZM226.582 45.3067L225.084 50.0254L230.803 51.8409L232.301 47.1222L226.582 45.3067ZM225.087 50.0188C224.731 51.1315 224.349 52.0389 223.957 52.7647L229.235 55.6178C229.841 54.4961 230.358 53.2314 230.801 51.8475L225.087 50.0188ZM223.943 52.791C223.683 53.2825 223.394 53.5756 223.097 53.7676L226.35 58.8093C227.6 58.0027 228.56 56.8976 229.249 55.5915L223.943 52.791ZM223.118 53.754C223.023 53.8141 222.631 54 221.652 54V60C223.27 60 224.925 59.7115 226.328 58.8229L223.118 53.754ZM232.31 42.0575L229.663 40.6457L229.653 40.663L229.644 40.6804L232.31 42.0575ZM235.68 38.5372L234.182 35.9379L234.173 35.9435L234.163 35.9491L235.68 38.5372ZM245.155 38.1253L243.901 40.8507L243.911 40.8554L243.922 40.86L245.155 38.1253ZM248.151 40.4472L245.744 42.2373L245.755 42.2523L245.766 42.2672L248.151 40.4472ZM248.188 46.1395L246.445 43.6983V43.6983L248.188 46.1395ZM237.216 46.8885V43.8885H234.216V46.8885H237.216ZM237.965 48.4989L236.022 50.7847L236.049 50.808L236.077 50.8306L237.965 48.4989ZM242.309 48.9483L241.644 46.0229L241.629 46.0263L241.614 46.0299L242.309 48.9483ZM243.957 48.6112L244.493 51.5628L244.544 51.5537L244.594 51.5428L243.957 48.6112ZM248.338 49.51L246.105 51.5127L246.122 51.5322L246.14 51.5514L248.338 49.51ZM247.027 55.8765L245.6 53.2379L245.591 53.2428L245.582 53.2479L247.027 55.8765ZM236.242 56.1012L235.011 58.837L235.019 58.8408L235.028 58.8445L236.242 56.1012ZM232.572 52.918L230.05 54.5424L230.056 54.5522L230.062 54.562L232.572 52.918ZM243.657 45.1284L240.772 45.9526L240.799 46.0459L240.832 46.1374L243.657 45.1284ZM242.758 44.0424L240.958 46.4423L240.958 46.4424L242.758 44.0424ZM238.114 44.1922L236.154 41.9217L236.127 41.9443L236.102 41.9675L238.114 44.1922ZM237.328 45.6527H234.328V48.6527H237.328V45.6527ZM234.149 47.263C234.149 45.6885 234.455 44.44 234.975 43.4346L229.644 40.6804C228.616 42.671 228.149 44.8928 228.149 47.263H234.149ZM234.957 43.4693C235.498 42.4543 236.233 41.6906 237.197 41.1253L234.163 35.9491C232.231 37.0816 230.719 38.6647 229.663 40.6457L234.957 43.4693ZM237.178 41.1365C238.116 40.596 239.327 40.2639 240.923 40.2639V34.2639C238.475 34.2639 236.19 34.7808 234.182 35.9379L237.178 41.1365ZM240.923 40.2639C242.126 40.2639 243.099 40.4818 243.901 40.8507L246.409 35.3998C244.714 34.6203 242.866 34.2639 240.923 34.2639V40.2639ZM243.922 40.86C244.801 41.2565 245.368 41.7315 245.744 42.2373L250.558 38.6571C249.486 37.2154 248.056 36.1426 246.388 35.3905L243.922 40.86ZM245.766 42.2672C246.108 42.7151 246.237 43.1293 246.237 43.593H252.237C252.237 41.7596 251.642 40.0767 250.536 38.6271L245.766 42.2672ZM246.237 43.593C246.237 43.7485 246.226 43.8553 246.214 43.9213C246.203 43.9867 246.194 44.0037 246.201 43.9861C246.209 43.9666 246.232 43.9183 246.279 43.8577C246.327 43.7959 246.385 43.7411 246.445 43.6983L249.932 48.5807C251.704 47.3154 252.237 45.3485 252.237 43.593H246.237ZM246.445 43.6983C246.474 43.6775 246.415 43.7291 246.184 43.7848C245.951 43.8409 245.594 43.8885 245.08 43.8885V49.8885C246.734 49.8885 248.502 49.6025 249.932 48.5807L246.445 43.6983ZM245.08 43.8885H237.216V49.8885H245.08V43.8885ZM234.216 46.8885C234.216 48.4275 234.859 49.7966 236.022 50.7847L239.908 46.2131C239.952 46.2508 240.047 46.3487 240.123 46.5128C240.2 46.6776 240.216 46.8187 240.216 46.8885H234.216ZM236.077 50.8306C237.423 51.9201 239.17 52.1355 240.586 52.1355V46.1355C240.134 46.1355 239.86 46.0949 239.721 46.0611C239.579 46.0266 239.674 46.0231 239.852 46.1671L236.077 50.8306ZM240.586 52.1355C241.408 52.1355 242.219 52.0535 243.004 51.8667L241.614 46.0299C241.35 46.0928 241.012 46.1355 240.586 46.1355V52.1355ZM242.974 51.8737C243.481 51.7584 243.987 51.6548 244.493 51.5628L243.42 45.6596C242.827 45.7674 242.235 45.8885 241.644 46.0229L242.974 51.8737ZM244.594 51.5428C244.924 51.4711 245.343 51.424 245.867 51.424V45.424C244.992 45.424 244.138 45.5017 243.319 45.6797L244.594 51.5428ZM245.867 51.424C245.934 51.424 245.977 51.4301 245.998 51.4344C246.009 51.4366 246.016 51.4386 246.02 51.4398C246.024 51.441 246.026 51.4418 246.027 51.4421C246.027 51.4423 246.028 51.4426 246.029 51.4433C246.03 51.444 246.033 51.4458 246.038 51.4495C246.048 51.4565 246.07 51.4746 246.105 51.5127L250.572 47.5074C249.336 46.1294 247.691 45.424 245.867 45.424V51.424ZM246.14 51.5514C246.151 51.5638 246.185 51.6014 246.222 51.7133C246.263 51.8363 246.312 52.0621 246.312 52.4311H252.312C252.312 50.6658 251.844 48.8767 250.537 47.4687L246.14 51.5514ZM246.312 52.4311C246.312 52.6206 246.273 52.6911 246.24 52.7394C246.193 52.8117 246.038 53.0011 245.6 53.2379L248.455 58.5151C250.742 57.2778 252.312 55.2203 252.312 52.4311H246.312ZM245.582 53.2479C244.677 53.7456 243.256 54.1124 241.11 54.1124V60.1124C243.858 60.1124 246.382 59.6552 248.473 58.5052L245.582 53.2479ZM241.11 54.1124C239.791 54.1124 238.583 53.8569 237.456 53.3579L235.028 58.8445C236.946 59.6937 238.984 60.1124 241.11 60.1124V54.1124ZM237.473 53.3654C236.525 52.9389 235.734 52.2707 235.081 51.2739L230.062 54.562C231.307 56.4614 232.963 57.9153 235.011 58.837L237.473 53.3654ZM235.094 51.2935C234.54 50.4342 234.149 49.1598 234.149 47.263H228.149C228.149 49.9601 228.706 52.4557 230.05 54.5424L235.094 51.2935ZM243.283 48.6527C243.733 48.6527 245.16 48.5786 246.098 47.2653C247.046 45.9385 246.637 44.554 246.482 44.1194L240.832 46.1374C240.801 46.0523 240.393 44.9299 241.216 43.7779C242.029 42.6394 243.206 42.6527 243.283 42.6527V48.6527ZM246.542 44.3042C246.173 43.0136 245.243 42.1563 244.558 41.6423L240.958 46.4424C241.077 46.5311 241.087 46.5566 241.046 46.5074C241.006 46.4587 240.864 46.2747 240.772 45.9526L246.542 44.3042ZM244.558 41.6424C243.332 40.7227 241.865 40.4806 240.586 40.4806V46.4806C240.871 46.4806 241.028 46.5096 241.09 46.5255C241.146 46.5401 241.077 46.5317 240.958 46.4423L244.558 41.6424ZM240.586 40.4806C239.124 40.4806 237.468 40.7868 236.154 41.9217L240.075 46.4626C239.967 46.5557 239.904 46.5615 239.974 46.5414C240.053 46.5187 240.243 46.4806 240.586 46.4806V40.4806ZM236.102 41.9675C235.217 42.7677 234.328 44.0009 234.328 45.6527H240.328C240.328 45.9511 240.245 46.1895 240.166 46.3354C240.097 46.464 240.051 46.4852 240.127 46.4168L236.102 41.9675ZM237.328 48.6527H243.283V42.6527H237.328V48.6527ZM252.314 55.9889L254.475 53.9079L252.314 55.9889ZM252.314 38.4998L254.512 40.5411L254.53 40.5219L254.547 40.5024L252.314 38.4998ZM257.744 38.4998L255.472 40.4586L255.489 40.4784L255.506 40.4978L257.744 38.4998ZM258.68 41.8703H255.68V44.8703H258.68V41.8703ZM259.392 41.8703V44.8703H262.174L262.383 42.096L259.392 41.8703ZM260.89 38.6121L258.83 36.4311L260.89 38.6121ZM266.957 38.4623L264.763 40.5093L264.781 40.5285L264.8 40.5474L266.957 38.4623ZM267.032 44.3794L264.769 42.4091L267.032 44.3794ZM262.238 44.9411L260.455 47.3537L260.513 47.3969L260.574 47.4373L262.238 44.9411ZM260.965 43.4806L263.648 42.139L262.93 40.7029L261.337 40.5038L260.965 43.4806ZM259.205 43.7428L260.948 46.184L260.964 46.1731L260.979 46.162L259.205 43.7428ZM257.744 55.9889L259.945 58.0271L257.744 55.9889ZM255.048 54C254.744 54 254.586 53.9562 254.525 53.9335C254.495 53.9224 254.483 53.9146 254.481 53.9136C254.48 53.9129 254.479 53.9122 254.475 53.9079L250.153 58.0698C251.504 59.4725 253.279 60 255.048 60V54ZM254.475 53.9079C254.417 53.8477 254.34 53.7695 254.34 53.4423H248.34C248.34 55.1623 248.913 56.7818 250.153 58.0698L254.475 53.9079ZM254.34 53.4423V41.1587H248.34V53.4423H254.34ZM254.34 41.1587C254.34 40.7399 254.444 40.6145 254.512 40.5411L250.115 36.4584C248.885 37.7831 248.34 39.4304 248.34 41.1587H254.34ZM254.547 40.5024C254.56 40.4887 254.563 40.4846 254.592 40.4733C254.633 40.4569 254.767 40.4137 255.048 40.4137V34.4137C253.213 34.4137 251.415 35.0085 250.08 36.4971L254.547 40.5024ZM255.048 40.4137C255.329 40.4137 255.454 40.4573 255.481 40.468C255.494 40.4732 255.492 40.4738 255.483 40.4672C255.473 40.4604 255.469 40.4554 255.472 40.4586L260.016 36.541C258.695 35.008 256.878 34.4137 255.048 34.4137V40.4137ZM255.506 40.4978C255.593 40.5946 255.68 40.7236 255.68 41.0838H261.68C261.68 39.3967 261.144 37.8031 259.982 36.5017L255.506 40.4978ZM255.68 41.0838V41.8703H261.68V41.0838H255.68ZM258.68 44.8703H259.392V38.8703H258.68V44.8703ZM262.383 42.096C262.431 41.4582 262.636 41.0894 262.95 40.7932L258.83 36.4311C257.346 37.8326 256.552 39.6358 256.4 41.6445L262.383 42.096ZM262.95 40.7932C263.298 40.4641 263.625 40.3388 264.073 40.3388V34.3388C262.075 34.3388 260.279 35.0625 258.83 36.4311L262.95 40.7932ZM264.073 40.3388C264.64 40.3388 264.741 40.4852 264.763 40.5093L269.15 36.4154C267.774 34.9414 265.953 34.3388 264.073 34.3388V40.3388ZM264.8 40.5474C264.879 40.629 265.043 40.8237 265.043 41.4583H271.043C271.043 39.5963 270.483 37.7936 269.114 36.3773L264.8 40.5474ZM265.043 41.4583C265.043 42.0179 264.9 42.2592 264.769 42.4091L269.294 46.3497C270.511 44.9517 271.043 43.2456 271.043 41.4583H265.043ZM264.769 42.4091C264.692 42.4978 264.652 42.5129 264.651 42.5136C264.647 42.5151 264.595 42.5403 264.448 42.5403V48.5403C266.342 48.5403 268.036 47.7939 269.294 46.3497L264.769 42.4091ZM264.448 42.5403C264.038 42.5403 263.912 42.4515 263.902 42.445L260.574 47.4373C261.762 48.2297 263.109 48.5403 264.448 48.5403V42.5403ZM264.021 42.5286C263.765 42.3395 263.679 42.2014 263.648 42.139L258.281 44.8222C258.799 45.8583 259.562 46.694 260.455 47.3537L264.021 42.5286ZM261.337 40.5038C260.292 40.3731 258.742 40.3617 257.43 41.3235L260.979 46.162C260.679 46.3817 260.426 46.4298 260.367 46.4385C260.314 46.4464 260.374 46.4301 260.593 46.4574L261.337 40.5038ZM257.461 41.3015C255.865 42.4411 255.68 44.2841 255.68 45.2782H261.68C261.68 45.0911 261.705 45.1242 261.65 45.2833C261.588 45.4656 261.402 45.8599 260.948 46.184L257.461 41.3015ZM255.68 45.2782V53.4423H261.68V45.2782H255.68ZM255.68 53.4423C255.68 53.8035 255.593 53.896 255.543 53.9506L259.945 58.0271C261.143 56.7335 261.68 55.1283 261.68 53.4423H255.68ZM255.543 53.9506C255.562 53.9294 255.581 53.9262 255.548 53.9382C255.501 53.9558 255.352 54 255.048 54V60C256.811 60 258.605 59.4742 259.945 58.0271L255.543 53.9506Z" fill="#AF2F28" mask="url(#path-21-outside-1_312_573)"/>
<defs>
<linearGradient id="paint0_linear_312_573" x1="175" y1="494.409" x2="175" y2="6.1173" gradientUnits="userSpaceOnUse">
<stop stop-color="#D83E31"/>
<stop offset="0.095" stop-color="#DC4734"/>
<stop offset="1" stop-color="#FF9753"/>
</linearGradient>
<linearGradient id="paint1_linear_312_573" x1="175" y1="527.034" x2="175" y2="461.784" gradientUnits="userSpaceOnUse">
<stop stop-color="#D83E31"/>
<stop offset="0.095" stop-color="#DC4734"/>
<stop offset="1" stop-color="#FF9753"/>
</linearGradient>
</defs>
</svg>
