<svg width="133" height="79" viewBox="0 0 133 79" fill="none" xmlns="http://www.w3.org/2000/svg">
<path d="M93.6384 20.6575L40.3412 20.6575C40.3412 19.6001 39.0509 18.743 37.4594 18.743L8.92463 18.743C5.42779 18.743 2.59302 20.6262 2.59302 22.9492L2.59302 73.722C2.59302 76.045 5.42779 77.9282 8.92449 77.9282L37.4594 77.9282C39.0509 77.9282 40.3412 77.071 40.3412 76.0137L93.6384 76.0136C93.6384 77.0709 94.9287 77.9282 96.5203 77.9282L125.055 77.9282C128.552 77.9282 131.387 76.0449 131.387 73.7219L131.387 22.9492C131.387 20.6261 128.552 18.743 125.055 18.743L96.5203 18.743C94.9287 18.743 93.6384 19.6001 93.6384 20.6575Z" fill="url(#paint0_linear_293_1026)"/>
<g opacity="0.5">
<path d="M2.59302 22.9492L2.59302 73.7219C2.59302 76.045 5.42765 77.9281 8.92463 77.9281L10.2778 77.9281C6.78084 77.9281 3.9462 76.0449 3.9462 73.7219L3.9462 22.9492C3.9462 20.6261 6.7811 18.7429 10.2778 18.7429L8.92463 18.7429C5.42765 18.7429 2.59302 20.6261 2.59302 22.9492Z" fill="white"/>
</g>
<path d="M2.59298 22.9492C2.59298 20.6261 5.42775 18.7429 8.92459 18.7429L37.4594 18.7429C39.051 18.7429 40.3413 19.6001 40.3413 20.6573L93.6385 20.6573C93.6385 19.6 94.9288 18.7429 96.5202 18.7429L125.055 18.7429C128.552 18.7429 131.387 20.6261 131.387 22.9491L131.387 73.7218C131.387 76.0449 128.552 77.9281 125.055 77.9281L96.5202 77.9281C94.9286 77.9281 93.6385 77.071 93.6385 76.0136L40.3411 76.0135C40.3411 77.0709 39.0509 77.9281 37.4593 77.9281L8.92459 77.9281C5.42775 77.9281 2.59312 76.0449 2.59312 73.7219L2.59312 22.9492M0.97949 22.9492L0.979492 73.7219C0.979492 76.6323 4.54356 79 8.92446 79L37.4593 79C39.3696 79 41.0055 78.2042 41.6552 77.0855L92.3241 77.0854C92.9738 78.2042 94.6097 78.9999 96.5199 78.9999L125.055 78.9999C129.436 78.9999 133 76.6321 133 73.7218L133 22.949C133 20.0387 129.436 17.6709 125.055 17.6709L96.5202 17.6709C94.6098 17.6709 92.974 18.4666 92.3243 19.5853L41.6553 19.5853C41.0055 18.4666 39.3697 17.6709 37.4594 17.6709L8.92459 17.6709C4.54369 17.671 0.97949 20.0388 0.97949 22.9492Z" fill="#AF2F28"/>
<g opacity="0.5">
<mask id="mask0_293_1026" style="mask-type:luminance" maskUnits="userSpaceOnUse" x="2" y="18" width="130" height="60">
<path d="M93.6384 20.6573L40.3412 20.6573C40.3412 19.6 39.0509 18.7429 37.4594 18.7429L8.92463 18.7429C5.42779 18.7429 2.59302 20.6261 2.59302 22.9491L2.59302 73.7219C2.59302 76.0449 5.42779 77.928 8.92449 77.928L37.4594 77.928C39.0509 77.928 40.3412 77.0709 40.3412 76.0136L40.3412 76.0135L93.6384 76.0135L93.6384 76.0136C93.6384 77.0709 94.9287 77.928 96.5203 77.928L125.055 77.928C128.552 77.928 131.387 76.0448 131.387 73.7218L131.387 22.949C131.387 20.626 128.552 18.7429 125.055 18.7429L96.5203 18.7429C94.9287 18.7429 93.6384 19.6 93.6384 20.6573Z" fill="white"/>
</mask>
<g mask="url(#mask0_293_1026)">
<path d="M139.992 69.2621L139.992 71.4058L106.779 71.4058L106.779 65.9505L83.5662 65.9505L83.5662 72.8815L43.3571 72.8815L43.3571 63.6608L18.2925 63.6608L18.2925 69.3776L-8.88184 69.3776L-8.88184 67.2338L15.0655 67.2338L15.0655 61.517L46.5841 61.517L46.5841 70.7377L80.3393 70.7377L80.3393 63.8067L110.006 63.8067L110.006 69.2621L139.992 69.2621Z" fill="white"/>
</g>
<mask id="mask1_293_1026" style="mask-type:luminance" maskUnits="userSpaceOnUse" x="2" y="18" width="130" height="60">
<path d="M93.6384 20.6573L40.3412 20.6573C40.3412 19.6 39.0509 18.7429 37.4594 18.7429L8.92463 18.7429C5.42779 18.7429 2.59302 20.6261 2.59302 22.9491L2.59302 73.7219C2.59302 76.0449 5.42779 77.928 8.92449 77.928L37.4594 77.928C39.0509 77.928 40.3412 77.0709 40.3412 76.0136L40.3412 76.0135L93.6384 76.0135L93.6384 76.0136C93.6384 77.0709 94.9287 77.928 96.5203 77.928L125.055 77.928C128.552 77.928 131.387 76.0448 131.387 73.7218L131.387 22.949C131.387 20.626 128.552 18.7429 125.055 18.7429L96.5203 18.7429C94.9287 18.7429 93.6384 19.6 93.6384 20.6573Z" fill="white"/>
</mask>
<g mask="url(#mask1_293_1026)">
<path d="M145.18 45.157L145.18 47.3008L88.6041 47.3008L88.6041 41.5314L67.1685 41.5314L67.1685 53.0702L29.1998 53.0702L29.1998 45.6123L-7.77173 45.6123L-7.77173 43.4685L32.4268 43.4685L32.4268 50.9265L63.9415 50.9265L63.9415 39.3876L91.8311 39.3876L91.8311 45.157L145.18 45.157Z" fill="white"/>
</g>
<mask id="mask2_293_1026" style="mask-type:luminance" maskUnits="userSpaceOnUse" x="2" y="18" width="130" height="60">
<path d="M93.6384 20.6573L40.3412 20.6573C40.3412 19.6 39.0509 18.7429 37.4594 18.7429L8.92463 18.7429C5.42779 18.7429 2.59302 20.6261 2.59302 22.9491L2.59302 73.7219C2.59302 76.0449 5.42779 77.928 8.92449 77.928L37.4594 77.928C39.0509 77.928 40.3412 77.0709 40.3412 76.0136L40.3412 76.0135L93.6384 76.0135L93.6384 76.0136C93.6384 77.0709 94.9287 77.928 96.5203 77.928L125.055 77.928C128.552 77.928 131.387 76.0448 131.387 73.7218L131.387 22.949C131.387 20.626 128.552 18.7429 125.055 18.7429L96.5203 18.7429C94.9287 18.7429 93.6384 19.6 93.6384 20.6573Z" fill="white"/>
</mask>
<g mask="url(#mask2_293_1026)">
<path d="M139.992 30.9048L139.992 33.0485L96.6542 33.0485L96.6542 29.2868L65.1824 29.2868L65.1824 33.946L32.403 33.946L27.291 30.5499L-7.77173 30.5499L-7.77173 28.4061L28.6277 28.4061L33.7398 31.8022L61.9554 31.8022L61.9554 27.1431L99.8812 27.1431L99.8812 30.9048L139.992 30.9048Z" fill="white"/>
</g>
</g>
<path d="M118.344 27.1687L118.344 69.5024C118.344 71.4089 116.017 72.9543 113.148 72.9543L22.4971 72.9543C19.6274 72.9543 17.301 71.4089 17.301 69.5024L17.301 27.1687C17.301 25.2622 19.6274 23.7167 22.4971 23.7167L113.148 23.7167C116.017 23.7166 118.344 25.2621 118.344 27.1687Z" fill="#FFE7C9"/>
<path d="M119.15 27.1687L119.15 69.5025C119.15 71.7014 116.457 73.4905 113.147 73.4905L22.4969 73.4905C19.1868 73.4905 16.4939 71.7015 16.4939 69.5025L16.4939 27.1687C16.4939 24.9698 19.1868 23.1808 22.4969 23.1808L113.147 23.1808C116.457 23.1809 119.15 24.9698 119.15 27.1687ZM18.1075 69.5025C18.1075 71.1104 20.0767 72.4186 22.497 72.4186L113.147 72.4186C115.568 72.4186 117.537 71.1104 117.537 69.5025L117.537 27.1687C117.537 25.5608 115.568 24.2527 113.147 24.2527L22.4969 24.2527C20.0765 24.2527 18.1074 25.5608 18.1074 27.1687L18.1074 69.5025L18.1075 69.5025Z" fill="#AF2F28"/>
<path d="M11.0115 74.1359C11.0115 73.2019 9.87187 72.4449 8.46607 72.4449C7.06028 72.4449 5.92065 73.2019 5.92065 74.1359C5.92065 75.0698 7.06028 75.8268 8.46607 75.8268C9.87187 75.8268 11.0115 75.0698 11.0115 74.1359Z" fill="#AF2F28"/>
<path d="M11.0115 22.5355C11.0115 21.6016 9.87187 20.8445 8.46607 20.8445C7.06028 20.8445 5.92065 21.6016 5.92065 22.5355C5.92065 23.4694 7.06028 24.2265 8.46607 24.2265C9.87187 24.2265 11.0115 23.4694 11.0115 22.5355Z" fill="#AF2F28"/>
<path d="M128.896 74.136C128.896 73.2021 127.757 72.445 126.351 72.445C124.945 72.445 123.806 73.2021 123.806 74.136C123.806 75.0699 124.945 75.827 126.351 75.827C127.757 75.827 128.896 75.0699 128.896 74.136Z" fill="#AF2F28"/>
<path d="M128.896 22.5355C128.896 21.6016 127.757 20.8445 126.351 20.8445C124.945 20.8445 123.806 21.6016 123.806 22.5355C123.806 23.4694 124.945 24.2265 126.351 24.2265C127.757 24.2265 128.896 23.4694 128.896 22.5355Z" fill="#AF2F28"/>
<path d="M92.4373 13.056V6.45523C93.3487 6.45523 94.0874 5.71647 94.0874 4.80507V3.10628C94.0874 2.2217 93.3704 1.50464 92.4858 1.50464H42.1065C41.2219 1.50464 40.5049 2.2217 40.5049 3.10628V4.80507C40.5049 5.71647 41.2436 6.45523 42.155 6.45523V13.056C41.2436 13.056 40.5049 13.7947 40.5049 14.7061V16.4049C40.5049 17.2895 41.2219 18.0066 42.1065 18.0066H92.4858C93.3704 18.0066 94.0874 17.2895 94.0874 16.4049V14.7061C94.0874 13.7948 93.3487 13.056 92.4373 13.056Z" fill="url(#paint1_linear_293_1026)"/>
<path d="M92.4855 1.50459C93.3701 1.50459 94.0871 2.22165 94.0871 3.10622V4.80502C94.0871 5.71642 93.3482 6.45517 92.437 6.45517V13.0559C93.3484 13.0559 94.0871 13.7947 94.0871 14.7061V16.4049C94.0871 17.2894 93.3701 18.0065 92.4855 18.0065H42.1062C41.2217 18.0065 40.5046 17.2894 40.5046 16.4049V14.7061C40.5046 13.7947 41.2433 13.0559 42.1547 13.0559V6.45517C41.2433 6.45517 40.5046 5.71642 40.5046 4.80502V3.10622C40.5046 2.22165 41.2217 1.50459 42.1062 1.50459H92.4855ZM92.4855 0H42.1062C40.3934 0 39 1.3935 39 3.10622V4.80502C39 6.00003 39.668 7.04208 40.6502 7.57734V11.9337C39.6679 12.469 39 13.5109 39 14.7061V16.4049C39 18.1176 40.3935 19.5111 42.1062 19.5111H92.4856C94.1983 19.5111 95.5918 18.1176 95.5918 16.4049V14.7061C95.5918 13.5111 94.9238 12.469 93.9417 11.9337V7.57734C94.9239 7.04208 95.5918 6.00016 95.5918 4.80502V3.10622C95.5917 1.3935 94.1983 0 92.4855 0Z" fill="#AF2F28"/>
<g opacity="0.5">
<mask id="mask3_293_1026" style="mask-type:luminance" maskUnits="userSpaceOnUse" x="40" y="1" width="55" height="18">
<path d="M92.4373 13.056V6.45523C93.3487 6.45523 94.0874 5.71647 94.0874 4.80507V3.10628C94.0874 2.2217 93.3704 1.50464 92.4858 1.50464H42.1065C41.2219 1.50464 40.5049 2.2217 40.5049 3.10628V4.80507C40.5049 5.71647 41.2436 6.45523 42.155 6.45523V13.056C41.2436 13.056 40.5049 13.7947 40.5049 14.7061V16.4049C40.5049 17.2895 41.2219 18.0066 42.1065 18.0066H92.4858C93.3704 18.0066 94.0874 17.2895 94.0874 16.4049V14.7061C94.0874 13.7948 93.3487 13.056 92.4373 13.056Z" fill="white"/>
</mask>
<g mask="url(#mask3_293_1026)">
<path d="M39.2012 9.24507V7.98837H52.1353V11.1864H61.1753V7.12335H76.834V12.5286H86.595V9.17736H97.1775V10.4341H87.8517V13.7853H75.5773V8.38005H62.432V12.4431H50.8786V9.24507H39.2012Z" fill="white"/>
</g>
</g>
<mask id="path-20-outside-1_293_1026" maskUnits="userSpaceOnUse" x="48.8367" y="4.21289" width="37" height="11" fill="black">
<rect fill="white" x="48.8367" y="4.21289" width="37" height="11"/>
<path d="M53.5112 13.2453C53.1077 13.2453 52.7006 13.2057 52.2899 13.1264C51.8865 13.04 51.5118 12.9175 51.166 12.759C50.8273 12.5933 50.5536 12.3951 50.3446 12.1646C50.1357 11.9268 50.0312 11.653 50.0312 11.3432C50.0312 10.947 50.1573 10.6299 50.4095 10.3922C50.6616 10.1544 50.957 10.0427 51.2957 10.0571C51.5622 10.0644 51.8288 10.122 52.0954 10.2301C52.362 10.3309 52.6322 10.4318 52.906 10.5327C53.1869 10.6335 53.4679 10.684 53.7489 10.684C54.0299 10.684 54.2244 10.6479 54.3325 10.5759C54.4406 10.5039 54.4946 10.4066 54.4946 10.2841C54.4946 10.14 54.419 10.0211 54.2677 9.92746C54.1164 9.8338 53.9254 9.76175 53.6949 9.71131L53.1653 9.58163C52.6178 9.45194 52.1278 9.30784 51.6955 9.14933C51.2632 8.98362 50.921 8.76747 50.6688 8.50089C50.4239 8.22711 50.3014 7.86326 50.3014 7.40935C50.3014 6.91221 50.4383 6.50874 50.7121 6.19893C50.9859 5.88191 51.3569 5.65136 51.8252 5.50726C52.2935 5.36316 52.8159 5.29111 53.3923 5.29111C53.9831 5.29111 54.5018 5.35235 54.9485 5.47484C55.3952 5.59732 55.7411 5.77384 55.986 6.0044C56.2382 6.23495 56.3643 6.51594 56.3643 6.84737C56.3643 7.20041 56.267 7.4778 56.0725 7.67953C55.8852 7.87407 55.633 7.97133 55.316 7.97133C55.107 7.97133 54.8873 7.93531 54.6567 7.86326C54.4334 7.79121 54.1956 7.72276 53.9435 7.65792C53.6985 7.58587 53.4355 7.54985 53.1545 7.54985C52.9024 7.54985 52.7114 7.58947 52.5817 7.66873C52.452 7.74078 52.3872 7.83804 52.3872 7.96052C52.3872 8.11183 52.4737 8.2235 52.6466 8.29555C52.8195 8.3676 53.1041 8.45406 53.5004 8.55493L54.1056 8.69542C54.6027 8.81791 55.0386 8.96561 55.4133 9.13852C55.7879 9.31144 56.0797 9.5384 56.2887 9.81939C56.4976 10.1004 56.6021 10.4678 56.6021 10.9217C56.6021 11.4693 56.4724 11.916 56.213 12.2618C55.9536 12.6005 55.5934 12.849 55.1323 13.0076C54.6712 13.1661 54.1308 13.2453 53.5112 13.2453ZM60.8553 13.2345C60.1493 13.2345 59.5116 13.0904 58.9424 12.8022C58.3805 12.5068 57.9374 12.0709 57.6131 11.4945C57.2889 10.9181 57.1268 10.2085 57.1268 9.36548C57.1268 8.52251 57.2889 7.79481 57.6131 7.1824C57.9446 6.56998 58.3949 6.10166 58.9641 5.77744C59.5404 5.44602 60.1961 5.28031 60.931 5.28031C61.7812 5.28031 62.4332 5.39919 62.8871 5.63695C63.341 5.87471 63.568 6.22775 63.568 6.69607C63.568 7.05631 63.4707 7.35531 63.2762 7.59308C63.0817 7.82363 62.8151 7.93891 62.4764 7.93891C62.1882 7.93891 61.9073 7.90289 61.6335 7.83084C61.3669 7.75158 61.0535 7.71196 60.6932 7.71196C60.2321 7.71196 59.8683 7.84525 59.6017 8.11183C59.3351 8.37841 59.2018 8.72785 59.2018 9.16014C59.2018 9.58523 59.3351 9.94187 59.6017 10.2301C59.8683 10.5111 60.2321 10.6516 60.6932 10.6516C60.9382 10.6516 61.1615 10.6335 61.3633 10.5975C61.5722 10.5543 61.774 10.5111 61.9685 10.4678C62.1702 10.4246 62.3864 10.403 62.6169 10.403C62.9988 10.403 63.2798 10.5291 63.4599 10.7812C63.64 11.0262 63.7301 11.3324 63.7301 11.6999C63.7301 12.0673 63.5968 12.3663 63.3302 12.5969C63.0636 12.8202 62.7106 12.9823 62.2711 13.0832C61.8388 13.1841 61.3669 13.2345 60.8553 13.2345ZM67.3513 13.2453C66.5804 13.2453 65.9283 13.076 65.3952 12.7374C64.862 12.3987 64.4585 11.9304 64.1848 11.3324C63.911 10.7344 63.7741 10.0463 63.7741 9.26821C63.7741 8.49729 63.911 7.81282 64.1848 7.21482C64.4585 6.60961 64.862 6.13769 65.3952 5.79906C65.9283 5.45322 66.5804 5.28031 67.3513 5.28031C68.1222 5.28031 68.7707 5.45322 69.2966 5.79906C69.8298 6.13769 70.2333 6.60961 70.5071 7.21482C70.7808 7.81282 70.9177 8.49729 70.9177 9.26821C70.9177 10.0463 70.7808 10.7344 70.5071 11.3324C70.2333 11.9304 69.8298 12.3987 69.2966 12.7374C68.7707 13.076 68.1222 13.2453 67.3513 13.2453ZM65.1358 9.0953C65.1358 9.31865 65.1898 9.53119 65.2979 9.73293C65.406 9.92746 65.6185 10.086 65.9355 10.2085C66.2526 10.3237 66.7245 10.3814 67.3513 10.3814C67.9781 10.3814 68.4465 10.3237 68.7563 10.2085C69.0733 10.086 69.2858 9.92746 69.3939 9.73293C69.502 9.53119 69.556 9.31865 69.556 9.0953C69.556 8.86474 69.502 8.6594 69.3939 8.47928C69.2858 8.29195 69.0733 8.14425 68.7563 8.03618C68.4465 7.9209 67.9781 7.86326 67.3513 7.86326C66.7245 7.86326 66.2526 7.9209 65.9355 8.03618C65.6185 8.14425 65.406 8.29195 65.2979 8.47928C65.1898 8.6594 65.1358 8.86474 65.1358 9.0953ZM76.6487 13.2129C76.2885 13.2129 76.0039 13.1048 75.795 12.8887C75.586 12.6653 75.4743 12.3771 75.4599 12.0241C75.4311 11.4117 75.2762 10.9794 74.9952 10.7272C74.7214 10.4678 74.354 10.3381 73.8929 10.3381H73.6767V12.0673C73.6767 12.442 73.5759 12.7266 73.3741 12.9211C73.1724 13.1156 72.9058 13.2129 72.5744 13.2129C72.2213 13.2129 71.9439 13.1156 71.7422 12.9211C71.5405 12.7266 71.4396 12.442 71.4396 12.0673V10.5435C71.4396 9.77976 71.5513 9.19977 71.7746 8.8035C72.0052 8.40723 72.297 8.12263 72.65 7.94972L72.596 7.74438H72.4231C72.0916 7.74438 71.8287 7.63991 71.6341 7.43097C71.4468 7.21482 71.3459 6.92302 71.3315 6.55557C71.3243 6.19533 71.4216 5.90353 71.6233 5.68018C71.8251 5.45682 72.0916 5.34515 72.4231 5.34515H75.1789C75.9499 5.34515 76.5731 5.53248 77.0486 5.90713C77.5241 6.28178 77.7619 6.87979 77.7619 7.70115C77.7619 8.12624 77.6899 8.48288 77.5458 8.77108C77.4017 9.05207 77.2179 9.26821 76.9946 9.41952C76.7712 9.57082 76.5371 9.66088 76.2921 9.6897V9.83019C76.7388 9.93827 77.1063 10.176 77.3944 10.5435C77.6899 10.9109 77.8376 11.4045 77.8376 12.0241C77.8376 12.4204 77.7295 12.7194 77.5133 12.9211C77.3044 13.1156 77.0162 13.2129 76.6487 13.2129ZM73.6227 8.68462C73.6227 8.84312 73.6515 8.94759 73.7091 8.99803C73.7668 9.04846 73.8749 9.07368 74.0334 9.07368H75.0493C75.3519 9.07368 75.5716 9.00523 75.7085 8.86834C75.8454 8.73145 75.9138 8.54052 75.9138 8.29555C75.9138 8.04338 75.8454 7.84885 75.7085 7.71196C75.5716 7.57506 75.3519 7.50662 75.0493 7.50662H74.0334C73.8749 7.50662 73.7668 7.52823 73.7091 7.57146C73.6515 7.61469 73.6227 7.71916 73.6227 7.88487V8.68462ZM80.9671 13.1913C80.6141 13.1913 80.2755 13.1589 79.9512 13.094C79.6342 13.0292 79.3532 12.9067 79.1083 12.7266C78.8705 12.5392 78.6796 12.2727 78.5355 11.9268C78.3986 11.5738 78.3301 11.1127 78.3301 10.5435C78.3301 10.0319 78.3986 9.59243 78.5355 9.22498C78.6724 8.85753 78.8345 8.56574 79.0218 8.34959C79.2163 8.13344 79.3929 8.00015 79.5514 7.94972L79.4973 7.74438H79.3136C78.9822 7.74438 78.7192 7.63991 78.5247 7.43097C78.3373 7.21482 78.2401 6.92302 78.2329 6.55557C78.2257 6.19533 78.3193 5.90713 78.5139 5.69098C78.7156 5.47484 78.9822 5.36676 79.3136 5.36676H83.1934C83.9644 5.36676 84.3498 5.72701 84.3498 6.4475C84.3498 6.77172 84.2562 7.03109 84.0688 7.22563C83.8815 7.42016 83.5897 7.51742 83.1934 7.51742H80.9563C80.6897 7.51742 80.5564 7.67233 80.5564 7.98214V8.79269C80.9167 8.71344 81.2913 8.61977 81.6804 8.5117C82.0767 8.40363 82.4513 8.34959 82.8044 8.34959C83.143 8.34959 83.3952 8.42524 83.5609 8.57654C83.7338 8.72064 83.8203 8.91878 83.8203 9.17095C83.8203 9.43032 83.7338 9.63566 83.5609 9.78696C83.3952 9.93106 83.143 10.0067 82.8044 10.0139C82.4513 10.0211 82.0767 9.97069 81.6804 9.86262C81.2841 9.75454 80.9059 9.66088 80.5456 9.58163V10.9974C80.5456 11.1343 80.5817 11.2315 80.6537 11.2892C80.733 11.3396 80.8554 11.318 81.0212 11.2243C81.3814 11.0154 81.7344 10.8497 82.0803 10.7272C82.4261 10.5975 82.7647 10.5327 83.0962 10.5327C83.5645 10.5327 83.9175 10.6552 84.1553 10.9001C84.4003 11.1451 84.5227 11.4657 84.5227 11.862C84.5227 12.2871 84.393 12.6149 84.1337 12.8454C83.8815 13.076 83.4708 13.1913 82.9016 13.1913H80.9671Z"/>
</mask>
<path d="M53.5112 13.2453C53.1077 13.2453 52.7006 13.2057 52.2899 13.1264C51.8865 13.04 51.5118 12.9175 51.166 12.759C50.8273 12.5933 50.5536 12.3951 50.3446 12.1646C50.1357 11.9268 50.0312 11.653 50.0312 11.3432C50.0312 10.947 50.1573 10.6299 50.4095 10.3922C50.6616 10.1544 50.957 10.0427 51.2957 10.0571C51.5622 10.0644 51.8288 10.122 52.0954 10.2301C52.362 10.3309 52.6322 10.4318 52.906 10.5327C53.1869 10.6335 53.4679 10.684 53.7489 10.684C54.0299 10.684 54.2244 10.6479 54.3325 10.5759C54.4406 10.5039 54.4946 10.4066 54.4946 10.2841C54.4946 10.14 54.419 10.0211 54.2677 9.92746C54.1164 9.8338 53.9254 9.76175 53.6949 9.71131L53.1653 9.58163C52.6178 9.45194 52.1278 9.30784 51.6955 9.14933C51.2632 8.98362 50.921 8.76747 50.6688 8.50089C50.4239 8.22711 50.3014 7.86326 50.3014 7.40935C50.3014 6.91221 50.4383 6.50874 50.7121 6.19893C50.9859 5.88191 51.3569 5.65136 51.8252 5.50726C52.2935 5.36316 52.8159 5.29111 53.3923 5.29111C53.9831 5.29111 54.5018 5.35235 54.9485 5.47484C55.3952 5.59732 55.7411 5.77384 55.986 6.0044C56.2382 6.23495 56.3643 6.51594 56.3643 6.84737C56.3643 7.20041 56.267 7.4778 56.0725 7.67953C55.8852 7.87407 55.633 7.97133 55.316 7.97133C55.107 7.97133 54.8873 7.93531 54.6567 7.86326C54.4334 7.79121 54.1956 7.72276 53.9435 7.65792C53.6985 7.58587 53.4355 7.54985 53.1545 7.54985C52.9024 7.54985 52.7114 7.58947 52.5817 7.66873C52.452 7.74078 52.3872 7.83804 52.3872 7.96052C52.3872 8.11183 52.4737 8.2235 52.6466 8.29555C52.8195 8.3676 53.1041 8.45406 53.5004 8.55493L54.1056 8.69542C54.6027 8.81791 55.0386 8.96561 55.4133 9.13852C55.7879 9.31144 56.0797 9.5384 56.2887 9.81939C56.4976 10.1004 56.6021 10.4678 56.6021 10.9217C56.6021 11.4693 56.4724 11.916 56.213 12.2618C55.9536 12.6005 55.5934 12.849 55.1323 13.0076C54.6712 13.1661 54.1308 13.2453 53.5112 13.2453ZM60.8553 13.2345C60.1493 13.2345 59.5116 13.0904 58.9424 12.8022C58.3805 12.5068 57.9374 12.0709 57.6131 11.4945C57.2889 10.9181 57.1268 10.2085 57.1268 9.36548C57.1268 8.52251 57.2889 7.79481 57.6131 7.1824C57.9446 6.56998 58.3949 6.10166 58.9641 5.77744C59.5404 5.44602 60.1961 5.28031 60.931 5.28031C61.7812 5.28031 62.4332 5.39919 62.8871 5.63695C63.341 5.87471 63.568 6.22775 63.568 6.69607C63.568 7.05631 63.4707 7.35531 63.2762 7.59308C63.0817 7.82363 62.8151 7.93891 62.4764 7.93891C62.1882 7.93891 61.9073 7.90289 61.6335 7.83084C61.3669 7.75158 61.0535 7.71196 60.6932 7.71196C60.2321 7.71196 59.8683 7.84525 59.6017 8.11183C59.3351 8.37841 59.2018 8.72785 59.2018 9.16014C59.2018 9.58523 59.3351 9.94187 59.6017 10.2301C59.8683 10.5111 60.2321 10.6516 60.6932 10.6516C60.9382 10.6516 61.1615 10.6335 61.3633 10.5975C61.5722 10.5543 61.774 10.5111 61.9685 10.4678C62.1702 10.4246 62.3864 10.403 62.6169 10.403C62.9988 10.403 63.2798 10.5291 63.4599 10.7812C63.64 11.0262 63.7301 11.3324 63.7301 11.6999C63.7301 12.0673 63.5968 12.3663 63.3302 12.5969C63.0636 12.8202 62.7106 12.9823 62.2711 13.0832C61.8388 13.1841 61.3669 13.2345 60.8553 13.2345ZM67.3513 13.2453C66.5804 13.2453 65.9283 13.076 65.3952 12.7374C64.862 12.3987 64.4585 11.9304 64.1848 11.3324C63.911 10.7344 63.7741 10.0463 63.7741 9.26821C63.7741 8.49729 63.911 7.81282 64.1848 7.21482C64.4585 6.60961 64.862 6.13769 65.3952 5.79906C65.9283 5.45322 66.5804 5.28031 67.3513 5.28031C68.1222 5.28031 68.7707 5.45322 69.2966 5.79906C69.8298 6.13769 70.2333 6.60961 70.5071 7.21482C70.7808 7.81282 70.9177 8.49729 70.9177 9.26821C70.9177 10.0463 70.7808 10.7344 70.5071 11.3324C70.2333 11.9304 69.8298 12.3987 69.2966 12.7374C68.7707 13.076 68.1222 13.2453 67.3513 13.2453ZM65.1358 9.0953C65.1358 9.31865 65.1898 9.53119 65.2979 9.73293C65.406 9.92746 65.6185 10.086 65.9355 10.2085C66.2526 10.3237 66.7245 10.3814 67.3513 10.3814C67.9781 10.3814 68.4465 10.3237 68.7563 10.2085C69.0733 10.086 69.2858 9.92746 69.3939 9.73293C69.502 9.53119 69.556 9.31865 69.556 9.0953C69.556 8.86474 69.502 8.6594 69.3939 8.47928C69.2858 8.29195 69.0733 8.14425 68.7563 8.03618C68.4465 7.9209 67.9781 7.86326 67.3513 7.86326C66.7245 7.86326 66.2526 7.9209 65.9355 8.03618C65.6185 8.14425 65.406 8.29195 65.2979 8.47928C65.1898 8.6594 65.1358 8.86474 65.1358 9.0953ZM76.6487 13.2129C76.2885 13.2129 76.0039 13.1048 75.795 12.8887C75.586 12.6653 75.4743 12.3771 75.4599 12.0241C75.4311 11.4117 75.2762 10.9794 74.9952 10.7272C74.7214 10.4678 74.354 10.3381 73.8929 10.3381H73.6767V12.0673C73.6767 12.442 73.5759 12.7266 73.3741 12.9211C73.1724 13.1156 72.9058 13.2129 72.5744 13.2129C72.2213 13.2129 71.9439 13.1156 71.7422 12.9211C71.5405 12.7266 71.4396 12.442 71.4396 12.0673V10.5435C71.4396 9.77976 71.5513 9.19977 71.7746 8.8035C72.0052 8.40723 72.297 8.12263 72.65 7.94972L72.596 7.74438H72.4231C72.0916 7.74438 71.8287 7.63991 71.6341 7.43097C71.4468 7.21482 71.3459 6.92302 71.3315 6.55557C71.3243 6.19533 71.4216 5.90353 71.6233 5.68018C71.8251 5.45682 72.0916 5.34515 72.4231 5.34515H75.1789C75.9499 5.34515 76.5731 5.53248 77.0486 5.90713C77.5241 6.28178 77.7619 6.87979 77.7619 7.70115C77.7619 8.12624 77.6899 8.48288 77.5458 8.77108C77.4017 9.05207 77.2179 9.26821 76.9946 9.41952C76.7712 9.57082 76.5371 9.66088 76.2921 9.6897V9.83019C76.7388 9.93827 77.1063 10.176 77.3944 10.5435C77.6899 10.9109 77.8376 11.4045 77.8376 12.0241C77.8376 12.4204 77.7295 12.7194 77.5133 12.9211C77.3044 13.1156 77.0162 13.2129 76.6487 13.2129ZM73.6227 8.68462C73.6227 8.84312 73.6515 8.94759 73.7091 8.99803C73.7668 9.04846 73.8749 9.07368 74.0334 9.07368H75.0493C75.3519 9.07368 75.5716 9.00523 75.7085 8.86834C75.8454 8.73145 75.9138 8.54052 75.9138 8.29555C75.9138 8.04338 75.8454 7.84885 75.7085 7.71196C75.5716 7.57506 75.3519 7.50662 75.0493 7.50662H74.0334C73.8749 7.50662 73.7668 7.52823 73.7091 7.57146C73.6515 7.61469 73.6227 7.71916 73.6227 7.88487V8.68462ZM80.9671 13.1913C80.6141 13.1913 80.2755 13.1589 79.9512 13.094C79.6342 13.0292 79.3532 12.9067 79.1083 12.7266C78.8705 12.5392 78.6796 12.2727 78.5355 11.9268C78.3986 11.5738 78.3301 11.1127 78.3301 10.5435C78.3301 10.0319 78.3986 9.59243 78.5355 9.22498C78.6724 8.85753 78.8345 8.56574 79.0218 8.34959C79.2163 8.13344 79.3929 8.00015 79.5514 7.94972L79.4973 7.74438H79.3136C78.9822 7.74438 78.7192 7.63991 78.5247 7.43097C78.3373 7.21482 78.2401 6.92302 78.2329 6.55557C78.2257 6.19533 78.3193 5.90713 78.5139 5.69098C78.7156 5.47484 78.9822 5.36676 79.3136 5.36676H83.1934C83.9644 5.36676 84.3498 5.72701 84.3498 6.4475C84.3498 6.77172 84.2562 7.03109 84.0688 7.22563C83.8815 7.42016 83.5897 7.51742 83.1934 7.51742H80.9563C80.6897 7.51742 80.5564 7.67233 80.5564 7.98214V8.79269C80.9167 8.71344 81.2913 8.61977 81.6804 8.5117C82.0767 8.40363 82.4513 8.34959 82.8044 8.34959C83.143 8.34959 83.3952 8.42524 83.5609 8.57654C83.7338 8.72064 83.8203 8.91878 83.8203 9.17095C83.8203 9.43032 83.7338 9.63566 83.5609 9.78696C83.3952 9.93106 83.143 10.0067 82.8044 10.0139C82.4513 10.0211 82.0767 9.97069 81.6804 9.86262C81.2841 9.75454 80.9059 9.66088 80.5456 9.58163V10.9974C80.5456 11.1343 80.5817 11.2315 80.6537 11.2892C80.733 11.3396 80.8554 11.318 81.0212 11.2243C81.3814 11.0154 81.7344 10.8497 82.0803 10.7272C82.4261 10.5975 82.7647 10.5327 83.0962 10.5327C83.5645 10.5327 83.9175 10.6552 84.1553 10.9001C84.4003 11.1451 84.5227 11.4657 84.5227 11.862C84.5227 12.2871 84.393 12.6149 84.1337 12.8454C83.8815 13.076 83.4708 13.1913 82.9016 13.1913H80.9671Z" fill="white"/>
<path d="M52.2899 13.1264L52.0804 14.1042L52.0904 14.1064L52.1004 14.1083L52.2899 13.1264ZM51.166 12.759L50.7264 13.6572L50.7378 13.6628L50.7493 13.668L51.166 12.759ZM50.3446 12.1646L49.5934 12.8247L49.5985 12.8304L49.6036 12.8361L50.3446 12.1646ZM50.4095 10.3922L49.7234 9.66459L49.7234 9.66459L50.4095 10.3922ZM51.2957 10.0571L51.2531 11.0562L51.2609 11.0566L51.2686 11.0568L51.2957 10.0571ZM52.0954 10.2301L51.7197 11.1568L51.7306 11.1612L51.7415 11.1654L52.0954 10.2301ZM52.906 10.5327L52.5602 11.471L52.5681 11.4739L52.906 10.5327ZM54.3325 10.5759L53.7778 9.74385L53.7778 9.74385L54.3325 10.5759ZM54.2677 9.92746L54.794 9.0772L54.794 9.07719L54.2677 9.92746ZM53.6949 9.71131L53.457 10.6826L53.4691 10.6856L53.4812 10.6882L53.6949 9.71131ZM53.1653 9.58163L53.4032 8.6103L53.3958 8.60854L53.1653 9.58163ZM51.6955 9.14933L51.3376 10.0831L51.3444 10.0857L51.3513 10.0882L51.6955 9.14933ZM50.6688 8.50089L49.9236 9.16769L49.9328 9.17802L49.9424 9.18809L50.6688 8.50089ZM50.7121 6.19893L51.4614 6.86117L51.4689 6.85255L50.7121 6.19893ZM51.8252 5.50726L51.5311 4.55148L51.5311 4.55148L51.8252 5.50726ZM54.9485 5.47484L54.6841 6.43924L54.6841 6.43924L54.9485 5.47484ZM55.986 6.0044L55.3007 6.7326L55.3059 6.73755L55.3113 6.74243L55.986 6.0044ZM56.0725 7.67953L55.3527 6.9854L55.3522 6.98589L56.0725 7.67953ZM54.6567 7.86326L54.3497 8.81501L54.3585 8.81774L54.6567 7.86326ZM53.9435 7.65792L53.6613 8.61728L53.6778 8.62213L53.6944 8.62641L53.9435 7.65792ZM52.5817 7.66873L53.0674 8.54288L53.0855 8.53282L53.1032 8.52201L52.5817 7.66873ZM52.6466 8.29555L52.262 9.21863L52.262 9.21863L52.6466 8.29555ZM53.5004 8.55493L53.2537 9.52403L53.2639 9.52663L53.2742 9.52903L53.5004 8.55493ZM54.1056 8.69542L54.3448 7.72437L54.3317 7.72133L54.1056 8.69542ZM55.4133 9.13852L54.9942 10.0465L54.9942 10.0465L55.4133 9.13852ZM56.2887 9.81939L55.4862 10.4161L55.4862 10.4161L56.2887 9.81939ZM56.213 12.2618L57.0069 12.87L57.013 12.8618L56.213 12.2618ZM55.1323 13.0076L54.8072 12.0619L54.8072 12.0619L55.1323 13.0076ZM53.5112 12.2453C53.1736 12.2453 52.8299 12.2122 52.4794 12.1445L52.1004 14.1083C52.5713 14.1992 53.0418 14.2453 53.5112 14.2453V12.2453ZM52.4995 12.1486C52.1614 12.0762 51.8568 11.9756 51.5826 11.8499L50.7493 13.668C51.1668 13.8594 51.6116 14.0038 52.0804 14.1042L52.4995 12.1486ZM51.6055 11.8608C51.3574 11.7393 51.1934 11.612 51.0856 11.4931L49.6036 12.8361C49.9137 13.1783 50.2973 13.4472 50.7264 13.6572L51.6055 11.8608ZM51.0958 11.5045C51.0434 11.4449 51.0312 11.4043 51.0312 11.3432H49.0312C49.0312 11.9017 49.2279 12.4088 49.5934 12.8247L51.0958 11.5045ZM51.0312 11.3432C51.0312 11.1791 51.0732 11.1408 51.0955 11.1198L49.7234 9.66459C49.2414 10.1191 49.0312 10.7148 49.0312 11.3432H51.0312ZM51.0955 11.1198C51.1563 11.0624 51.1908 11.0536 51.2531 11.0562L51.3382 9.05805C50.7233 9.03189 50.1669 9.24646 49.7234 9.66459L51.0955 11.1198ZM51.2686 11.0568C51.4065 11.0605 51.5553 11.0902 51.7197 11.1568L52.4711 9.30333C52.1024 9.15383 51.718 9.0682 51.3227 9.05751L51.2686 11.0568ZM51.7415 11.1654C52.0109 11.2673 52.2838 11.3692 52.5602 11.471L53.2517 9.59433C52.9805 9.49444 52.7131 9.39459 52.4493 9.29478L51.7415 11.1654ZM52.5681 11.4739C52.9507 11.6112 53.3457 11.684 53.7489 11.684V9.68397C53.5901 9.68397 53.4232 9.65588 53.2438 9.59148L52.5681 11.4739ZM53.7489 11.684C54.0449 11.684 54.5101 11.6594 54.8872 11.408L53.7778 9.74385C53.8326 9.70731 53.8771 9.68923 53.8989 9.68144C53.9212 9.67347 53.9312 9.67225 53.9235 9.67367C53.9164 9.67499 53.8986 9.67775 53.8679 9.68008C53.8376 9.68238 53.7983 9.68397 53.7489 9.68397V11.684ZM54.8872 11.408C55.2534 11.1638 55.4946 10.7643 55.4946 10.2841H53.4946C53.4946 10.1929 53.5163 10.0778 53.5799 9.96327C53.6423 9.85106 53.7215 9.78141 53.7778 9.74385L54.8872 11.408ZM55.4946 10.2841C55.4946 9.70916 55.16 9.30372 54.794 9.0772L53.7413 10.7777C53.7216 10.7655 53.6556 10.7202 53.5942 10.6237C53.5275 10.5189 53.4946 10.3977 53.4946 10.2841H55.4946ZM54.794 9.07719C54.5208 8.90803 54.2159 8.80163 53.9086 8.73441L53.4812 10.6882C53.635 10.7219 53.712 10.7596 53.7413 10.7777L54.794 9.07719ZM53.9328 8.74002L53.4032 8.61033L52.9275 10.5529L53.457 10.6826L53.9328 8.74002ZM53.3958 8.60854C52.8787 8.48607 52.4278 8.35272 52.0398 8.21046L51.3513 10.0882C51.8279 10.263 52.3568 10.4178 52.9349 10.5547L53.3958 8.60854ZM52.0535 8.21559C51.7254 8.08983 51.5213 7.94694 51.3953 7.81369L49.9424 9.18809C50.3207 9.588 50.8011 9.87741 51.3376 10.0831L52.0535 8.21559ZM51.4141 7.8341C51.3694 7.7842 51.3014 7.67765 51.3014 7.40935H49.3014C49.3014 8.04886 49.4783 8.67001 49.9236 9.16769L51.4141 7.8341ZM51.3014 7.40935C51.3014 7.10428 51.3804 6.95273 51.4614 6.86113L49.9627 5.53673C49.4961 6.06475 49.3014 6.72014 49.3014 7.40935H51.3014ZM51.4689 6.85255C51.6003 6.70041 51.7996 6.56142 52.1193 6.46304L51.5311 4.55148C50.9142 4.74129 50.3714 5.06341 49.9552 5.54531L51.4689 6.85255ZM52.1193 6.46304C52.4773 6.35289 52.8985 6.29111 53.3923 6.29111V4.29111C52.7333 4.29111 52.1098 4.37343 51.5311 4.55148L52.1193 6.46304ZM53.3923 6.29111C53.917 6.29111 54.3434 6.34583 54.6841 6.43924L55.213 4.51043C54.6602 4.35888 54.0492 4.29111 53.3923 4.29111V6.29111ZM54.6841 6.43924C55.0297 6.53399 55.2109 6.64813 55.3007 6.7326L56.6714 5.2762C56.2712 4.89955 55.7608 4.66065 55.213 4.51043L54.6841 6.43924ZM55.3113 6.74243C55.3476 6.77566 55.3561 6.79457 55.3574 6.79745C55.3583 6.79961 55.3643 6.81188 55.3643 6.84737H57.3643C57.3643 6.22548 57.1129 5.67972 56.6608 5.26637L55.3113 6.74243ZM55.3643 6.84737C55.3643 6.93319 55.3524 6.97587 55.3477 6.98929C55.3443 6.999 55.3452 6.99315 55.3527 6.9854L56.7923 8.37367C57.2102 7.94034 57.3643 7.38888 57.3643 6.84737H55.3643ZM55.3522 6.98589C55.3546 6.98335 55.3596 6.97884 55.3667 6.9741C55.3739 6.96936 55.3799 6.96659 55.383 6.96538C55.3897 6.96279 55.3723 6.97133 55.316 6.97133V8.97133C55.8535 8.97133 56.3842 8.79752 56.7928 8.37318L55.3522 6.98589ZM55.316 6.97133C55.2226 6.97133 55.1038 6.95526 54.955 6.90878L54.3585 8.81774C54.6708 8.91535 54.9915 8.97133 55.316 8.97133V6.97133ZM54.9637 6.91155C54.7193 6.8327 54.4621 6.75875 54.1925 6.68943L53.6944 8.62641C53.9292 8.68678 54.1475 8.74972 54.3497 8.81497L54.9637 6.91155ZM54.2256 6.69855C53.8803 6.597 53.5215 6.54985 53.1545 6.54985V8.54985C53.3495 8.54985 53.5166 8.57474 53.6613 8.61728L54.2256 6.69855ZM53.1545 6.54985C52.8266 6.54985 52.419 6.59621 52.0603 6.81545L53.1032 8.52201C53.0742 8.53972 53.0512 8.54949 53.0381 8.55434C53.0252 8.55914 53.0201 8.5598 53.0254 8.5587C53.0307 8.55761 53.0437 8.55529 53.066 8.5533C53.0881 8.55132 53.1174 8.54985 53.1545 8.54985V6.54985ZM52.0961 6.79457C51.7285 6.99881 51.3872 7.39219 51.3872 7.96052H53.3872C53.3872 8.08675 53.3504 8.22669 53.2679 8.35041C53.1914 8.4652 53.1053 8.52182 53.0674 8.54288L52.0961 6.79457ZM51.3872 7.96052C51.3872 8.24092 51.4725 8.52598 51.6613 8.76993C51.8398 9.00046 52.066 9.13698 52.262 9.21863L53.0312 7.37248C53.0542 7.38208 53.1508 7.42673 53.2428 7.54559C53.3452 7.67786 53.3872 7.83143 53.3872 7.96052H51.3872ZM52.262 9.21863C52.5069 9.32068 52.852 9.42177 53.2537 9.52403L53.747 7.58583C53.3562 7.48634 53.1321 7.41452 53.0312 7.37248L52.262 9.21863ZM53.2742 9.52903L53.8794 9.66952L54.3317 7.72133L53.7265 7.58083L53.2742 9.52903ZM53.8663 9.66639C54.3158 9.77711 54.6892 9.90571 54.9942 10.0465L55.8323 8.23057C55.388 8.02551 54.8896 7.8587 54.3448 7.72446L53.8663 9.66639ZM54.9942 10.0465C55.2442 10.1619 55.3934 10.2914 55.4862 10.4161L57.0911 9.22268C56.766 8.78543 56.3316 8.46103 55.8323 8.23057L54.9942 10.0465ZM55.4862 10.4161C55.5334 10.4796 55.6021 10.619 55.6021 10.9217H57.6021C57.6021 10.3167 57.4618 9.72117 57.0911 9.22268L55.4862 10.4161ZM55.6021 10.9217C55.6021 11.3112 55.5115 11.5306 55.413 11.6618L57.013 12.8618C57.4333 12.3014 57.6021 11.6274 57.6021 10.9217H55.6021ZM55.4191 11.6538C55.2959 11.8147 55.1096 11.9579 54.8072 12.0619L55.4573 13.9532C56.0771 13.7402 56.6114 13.3863 57.0069 12.8699L55.4191 11.6538ZM54.8072 12.0619C54.4746 12.1762 54.0487 12.2453 53.5112 12.2453V14.2453C54.2129 14.2453 54.8677 14.1559 55.4573 13.9532L54.8072 12.0619ZM58.9424 12.8022L58.4772 13.6874L58.4839 13.6909L58.4907 13.6944L58.9424 12.8022ZM57.6131 11.4945L58.4847 11.0043L58.4847 11.0043L57.6131 11.4945ZM57.6131 7.1824L56.7336 6.70643L56.7294 6.71451L57.6131 7.1824ZM58.9641 5.77744L59.459 6.64637L59.4625 6.64435L58.9641 5.77744ZM62.8871 5.63695L62.4231 6.52278L62.4231 6.52278L62.8871 5.63695ZM63.2762 7.59308L64.0405 8.23795L64.0454 8.23217L64.0501 8.22631L63.2762 7.59308ZM61.6335 7.83084L61.3485 8.78937L61.3637 8.79388L61.379 8.79791L61.6335 7.83084ZM59.6017 8.11183L58.8946 7.40472L58.8946 7.40472L59.6017 8.11183ZM59.6017 10.2301L58.8675 10.9092L58.8762 10.9183L59.6017 10.2301ZM61.3633 10.5975L61.5391 11.5819L61.5525 11.5795L61.5659 11.5768L61.3633 10.5975ZM61.9685 10.4678L61.759 9.49L61.7516 9.49164L61.9685 10.4678ZM63.4599 10.7812L62.6461 11.3625L62.6543 11.3736L63.4599 10.7812ZM63.3302 12.5969L63.9724 13.3634L63.9784 13.3584L63.9844 13.3532L63.3302 12.5969ZM62.2711 13.0832L62.0474 12.1085L62.0439 12.1094L62.2711 13.0832ZM60.8553 12.2345C60.2892 12.2345 59.8089 12.1201 59.3942 11.9101L58.4907 13.6944C59.2143 14.0608 60.0093 14.2345 60.8553 14.2345V12.2345ZM59.4077 11.917C59.0237 11.7152 58.7186 11.42 58.4847 11.0043L56.7416 11.9848C57.1562 12.7219 57.7372 13.2984 58.4772 13.6874L59.4077 11.917ZM58.4847 11.0043C58.2648 10.6132 58.1268 10.0829 58.1268 9.36548H56.1268C56.1268 10.334 56.3131 11.223 56.7416 11.9848L58.4847 11.0043ZM58.1268 9.36548C58.1268 8.65066 58.2639 8.09054 58.4969 7.65028L56.7294 6.71451C56.314 7.49909 56.1268 8.39435 56.1268 9.36548H58.1268ZM58.4926 7.65835C58.741 7.19946 59.0626 6.87219 59.459 6.64636L58.4691 4.90852C57.7272 5.33114 57.1482 5.9405 56.7337 6.70645L58.4926 7.65835ZM59.4625 6.64435C59.8717 6.40908 60.3521 6.28031 60.931 6.28031V4.28031C60.04 4.28031 59.2092 4.48295 58.4656 4.91054L59.4625 6.64435ZM60.931 6.28031C61.7135 6.28031 62.1773 6.394 62.4231 6.52278L63.3511 4.75112C62.6892 4.40438 61.8488 4.28031 60.931 4.28031V6.28031ZM62.4231 6.52278C62.5303 6.57892 62.5554 6.61903 62.5566 6.62081C62.558 6.623 62.5596 6.62575 62.5615 6.63278C62.5637 6.64059 62.568 6.66016 62.568 6.69607H64.568C64.568 6.29311 64.4679 5.89539 64.2389 5.53929C64.0131 5.18803 63.6979 4.93274 63.3511 4.75112L62.4231 6.52278ZM62.568 6.69607C62.568 6.86721 62.5262 6.93057 62.5022 6.95984L64.0501 8.22631C64.4153 7.78005 64.568 7.24541 64.568 6.69607H62.568ZM62.5119 6.9482C62.5097 6.95079 62.5112 6.94855 62.5168 6.94438C62.5225 6.94011 62.5286 6.9367 62.5334 6.93459C62.5381 6.93258 62.5377 6.93345 62.5298 6.93496C62.5216 6.93653 62.5044 6.93891 62.4764 6.93891V8.93891C63.0691 8.93891 63.6312 8.72296 64.0405 8.23795L62.5119 6.9482ZM62.4764 6.93891C62.2726 6.93891 62.0772 6.91356 61.888 6.86376L61.379 8.79791C61.7373 8.89221 62.1039 8.93891 62.4764 8.93891V6.93891ZM61.9184 6.8723C61.5367 6.75882 61.1231 6.71196 60.6932 6.71196V8.71196C60.9838 8.71196 61.197 8.74434 61.3485 8.78937L61.9184 6.8723ZM60.6932 6.71196C60.0298 6.71196 59.389 6.91034 58.8946 7.40472L60.3088 8.81893C60.3476 8.78015 60.4344 8.71196 60.6932 8.71196V6.71196ZM58.8946 7.40472C58.4126 7.88672 58.2018 8.50485 58.2018 9.16014H60.2018C60.2018 8.95084 60.2576 8.8701 60.3088 8.81893L58.8946 7.40472ZM58.2018 9.16014C58.2018 9.81425 58.4152 10.4201 58.8676 10.9091L60.3358 9.55102C60.255 9.46367 60.2018 9.35621 60.2018 9.16014H58.2018ZM58.8762 10.9183C59.3673 11.436 60.0143 11.6516 60.6932 11.6516V9.65155C60.4499 9.65155 60.3692 9.58616 60.3272 9.54181L58.8762 10.9183ZM60.6932 11.6516C60.9861 11.6516 61.2694 11.6301 61.5391 11.5819L61.1875 9.61309C61.0537 9.63698 60.8903 9.65155 60.6932 9.65155V11.6516ZM61.5659 11.5768C61.7793 11.5326 61.9858 11.4884 62.1854 11.444L61.7516 9.49164C61.5621 9.53374 61.3652 9.57595 61.1607 9.61825L61.5659 11.5768ZM62.178 11.4456C62.3034 11.4188 62.4487 11.403 62.6169 11.403V9.40298C62.3241 9.40298 62.0371 9.43043 61.759 9.49002L62.178 11.4456ZM62.6169 11.403C62.6997 11.403 62.7199 11.4167 62.7047 11.4099C62.6968 11.4064 62.6847 11.3996 62.6717 11.3889C62.6587 11.3782 62.6503 11.3682 62.6462 11.3625L64.2736 10.2C63.8616 9.62319 63.2374 9.40298 62.6169 9.40298V11.403ZM62.6543 11.3736C62.6836 11.4135 62.7301 11.5001 62.7301 11.6999H64.7301C64.7301 11.1648 64.5965 10.6389 64.2656 10.1888L62.6543 11.3736ZM62.7301 11.6999C62.7301 11.7605 62.7197 11.786 62.7168 11.7925C62.7143 11.798 62.707 11.8137 62.6761 11.8405L63.9844 13.3532C64.481 12.9237 64.7301 12.3436 64.7301 11.6999H62.7301ZM62.688 11.8304C62.573 11.9267 62.3771 12.0329 62.0474 12.1085L62.4948 14.0579C63.0441 13.9318 63.5542 13.7138 63.9724 13.3634L62.688 11.8304ZM62.0439 12.1094C61.6963 12.1905 61.3017 12.2345 60.8553 12.2345V14.2345C61.4321 14.2345 61.9813 14.1777 62.4983 14.057L62.0439 12.1094ZM65.3952 12.7374L65.9313 11.8932L65.9313 11.8932L65.3952 12.7374ZM64.1848 11.3324L65.094 10.9161L65.094 10.9161L64.1848 11.3324ZM64.1848 7.21482L65.094 7.6311L65.0959 7.62699L64.1848 7.21482ZM65.3952 5.79906L65.9313 6.64323L65.9394 6.63802L65.3952 5.79906ZM69.2966 5.79906L68.7472 6.63461L68.7538 6.63895L68.7605 6.64319L69.2966 5.79906ZM70.5071 7.21482L69.5959 7.62699L69.5978 7.6311L70.5071 7.21482ZM70.5071 11.3324L69.5978 10.9161L69.5978 10.9161L70.5071 11.3324ZM69.2966 12.7374L68.7605 11.8932L68.7553 11.8966L69.2966 12.7374ZM65.2979 9.73293L64.4164 10.2051L64.42 10.2119L64.4238 10.2186L65.2979 9.73293ZM65.9355 10.2085L65.5752 11.1412L65.5844 11.1448L65.5938 11.1482L65.9355 10.2085ZM68.7563 10.2085L69.105 11.1457L69.1167 11.1412L68.7563 10.2085ZM69.3939 9.73293L70.2681 10.2186L70.2718 10.2119L70.2754 10.2051L69.3939 9.73293ZM69.3939 8.47928L68.5277 8.979L68.532 8.98642L68.5364 8.99377L69.3939 8.47928ZM68.7563 8.03618L68.4075 8.9734L68.4205 8.97822L68.4336 8.98269L68.7563 8.03618ZM65.9355 8.03618L66.2582 8.98269L66.2678 8.97942L66.2773 8.97597L65.9355 8.03618ZM65.2979 8.47928L66.1554 8.99377L66.1598 8.98642L66.1641 8.979L65.2979 8.47928ZM67.3513 12.2453C66.7282 12.2453 66.272 12.1096 65.9313 11.8932L64.859 13.5815C65.5846 14.0424 66.4326 14.2453 67.3513 14.2453V12.2453ZM65.9313 11.8932C65.5682 11.6626 65.2909 11.3461 65.094 10.9161L63.2755 11.7487C63.6262 12.5147 64.1558 13.1349 64.859 13.5815L65.9313 11.8932ZM65.094 10.9161C64.89 10.4705 64.7741 9.92867 64.7741 9.26821H62.7741C62.7741 10.164 62.932 10.9983 63.2755 11.7487L65.094 10.9161ZM64.7741 9.26821C64.7741 8.61645 64.8894 8.07789 65.094 7.6311L63.2755 6.79854C62.9325 7.54776 62.7741 8.37813 62.7741 9.26821H64.7741ZM65.0959 7.62699C65.2938 7.18955 65.5713 6.87187 65.9313 6.64319L64.859 4.95493C64.1528 5.4035 63.6233 6.02967 63.2737 6.80265L65.0959 7.62699ZM65.9394 6.63802C66.2789 6.4178 66.732 6.28031 67.3513 6.28031V4.28031C66.4288 4.28031 65.5778 4.48864 64.851 4.9601L65.9394 6.63802ZM67.3513 6.28031C67.9712 6.28031 68.4178 6.418 68.7472 6.63461L69.846 4.9635C69.1236 4.48845 68.2733 4.28031 67.3513 4.28031V6.28031ZM68.7605 6.64319C69.1206 6.87187 69.3981 7.18955 69.5959 7.62699L71.4182 6.80265C71.0685 6.02967 70.539 5.4035 69.8328 4.95493L68.7605 6.64319ZM69.5978 7.6311C69.8024 8.07789 69.9177 8.61645 69.9177 9.26821H71.9177C71.9177 8.37813 71.7593 7.54776 71.4163 6.79854L69.5978 7.6311ZM69.9177 9.26821C69.9177 9.92867 69.8018 10.4705 69.5978 10.9161L71.4163 11.7487C71.7598 10.9983 71.9177 10.164 71.9177 9.26821H69.9177ZM69.5978 10.9161C69.401 11.3461 69.1236 11.6626 68.7605 11.8932L69.8328 13.5815C70.536 13.1349 71.0656 12.5147 71.4163 11.7487L69.5978 10.9161ZM68.7553 11.8966C68.4247 12.1094 67.975 12.2453 67.3513 12.2453V14.2453C68.2695 14.2453 69.1167 14.0426 69.838 13.5782L68.7553 11.8966ZM64.1358 9.0953C64.1358 9.48759 64.2326 9.8619 64.4164 10.2051L66.1794 9.26071C66.1471 9.20048 66.1358 9.1497 66.1358 9.0953H64.1358ZM64.4238 10.2186C64.692 10.7013 65.1499 10.9769 65.5752 11.1412L66.2959 9.27565C66.1996 9.23844 66.1526 9.20827 66.1362 9.19608C66.122 9.18546 66.1455 9.19948 66.1721 9.24729L64.4238 10.2186ZM65.5938 11.1482C66.0775 11.3241 66.6902 11.3814 67.3513 11.3814V9.38137C66.7588 9.38137 66.4276 9.32333 66.2773 9.26866L65.5938 11.1482ZM67.3513 11.3814C68.0102 11.3814 68.6239 11.3247 69.105 11.1457L68.4075 9.27123C68.269 9.32277 67.9461 9.38137 67.3513 9.38137V11.3814ZM69.1167 11.1412C69.5419 10.9769 69.9998 10.7013 70.2681 10.2186L68.5197 9.24729C68.5463 9.19948 68.5698 9.18546 68.5556 9.19608C68.5393 9.20827 68.4922 9.23844 68.3959 9.27565L69.1167 11.1412ZM70.2754 10.2051C70.4593 9.8619 70.556 9.48759 70.556 9.0953H68.556C68.556 9.1497 68.5447 9.20048 68.5124 9.26071L70.2754 10.2051ZM70.556 9.0953C70.556 8.70174 70.4617 8.31525 70.2514 7.96478L68.5364 8.99377C68.5423 9.00355 68.556 9.02774 68.556 9.0953H70.556ZM70.2601 7.97955C69.9797 7.49357 69.5049 7.23487 69.0789 7.08967L68.4336 8.98269C68.5284 9.015 68.5715 9.04138 68.5828 9.0492C68.5916 9.05529 68.5604 9.03561 68.5277 8.979L70.2601 7.97955ZM69.105 7.09895C68.6239 6.91994 68.0102 6.86326 67.3513 6.86326V8.86326C67.9461 8.86326 68.269 8.92185 68.4075 8.9734L69.105 7.09895ZM67.3513 6.86326C66.6902 6.86326 66.0775 6.9205 65.5938 7.09638L66.2773 8.97597C66.4276 8.9213 66.7588 8.86326 67.3513 8.86326V6.86326ZM65.6129 7.08967C65.187 7.23487 64.7121 7.49357 64.4317 7.97955L66.1641 8.979C66.1314 9.03561 66.1003 9.05529 66.109 9.0492C66.1203 9.04138 66.1634 9.015 66.2582 8.98269L65.6129 7.08967ZM64.4404 7.96478C64.2301 8.31525 64.1358 8.70174 64.1358 9.0953H66.1358C66.1358 9.02774 66.1495 9.00355 66.1554 8.99377L64.4404 7.96478ZM75.795 12.8887L75.0647 13.5718L75.0703 13.5778L75.076 13.5837L75.795 12.8887ZM75.4599 12.0241L76.4591 11.9833L76.4588 11.9771L75.4599 12.0241ZM74.9952 10.7272L74.3075 11.4532L74.3173 11.4624L74.3273 11.4714L74.9952 10.7272ZM73.6767 10.3381V9.33814H72.6767V10.3381H73.6767ZM73.3741 12.9211L72.68 12.2012L72.68 12.2012L73.3741 12.9211ZM71.7422 12.9211L72.4363 12.2012L72.4363 12.2012L71.7422 12.9211ZM71.7746 8.8035L70.9102 8.30056L70.9035 8.31248L71.7746 8.8035ZM72.65 7.94972L73.0899 8.84778L73.8256 8.48744L73.6171 7.69522L72.65 7.94972ZM72.596 7.74438L73.5631 7.48988L73.3669 6.74438H72.596V7.74438ZM71.6341 7.43097L70.8785 8.0859L70.8901 8.09935L70.9022 8.11238L71.6341 7.43097ZM71.3315 6.55557L70.3317 6.57557L70.3319 6.58516L70.3323 6.59476L71.3315 6.55557ZM77.0486 5.90713L77.6675 5.12164L77.6675 5.12164L77.0486 5.90713ZM77.5458 8.77108L78.4356 9.22742L78.4402 9.21829L77.5458 8.77108ZM76.9946 9.41952L76.4337 8.5916L76.4337 8.5916L76.9946 9.41952ZM76.2921 9.6897L76.1753 8.69655L75.2921 8.80045V9.6897H76.2921ZM76.2921 9.83019H75.2921V10.6171L76.057 10.8022L76.2921 9.83019ZM77.3944 10.5435L76.6075 11.1607L76.6151 11.17L77.3944 10.5435ZM77.5133 12.9211L78.1948 13.653L78.1956 13.6521L77.5133 12.9211ZM73.7091 8.99803L73.0506 9.75061L73.0506 9.75061L73.7091 8.99803ZM75.7085 7.71196L75.0014 8.41906L75.0014 8.41906L75.7085 7.71196ZM73.7091 7.57146L73.1091 6.77146L73.1091 6.77146L73.7091 7.57146ZM76.6487 12.2129C76.5682 12.2129 76.5303 12.2008 76.5201 12.197C76.5135 12.1945 76.5149 12.1946 76.514 12.1936L75.076 13.5837C75.5101 14.0328 76.0753 14.2129 76.6487 14.2129V12.2129ZM76.5252 12.2055C76.5051 12.1839 76.4653 12.1363 76.4591 11.9833L74.4608 12.0649C74.4833 12.6179 74.667 13.1467 75.0647 13.5718L76.5252 12.2055ZM76.4588 11.9771C76.425 11.2571 76.2371 10.4981 75.6631 9.98296L74.3273 11.4714C74.3153 11.4607 74.4373 11.5662 74.461 12.0711L76.4588 11.9771ZM75.683 10.0013C75.184 9.5285 74.5497 9.33814 73.8929 9.33814V11.3381C74.1582 11.3381 74.2589 11.4072 74.3075 11.4532L75.683 10.0013ZM73.8929 9.33814H73.6767V11.3381H73.8929V9.33814ZM72.6767 10.3381V12.0673H74.6767V10.3381H72.6767ZM72.6767 12.0673C72.6767 12.1672 72.663 12.215 72.6585 12.2277C72.6565 12.2334 72.6567 12.2312 72.661 12.2243C72.6655 12.2172 72.6721 12.2089 72.68 12.2012L74.0683 13.6409C74.5246 13.2009 74.6767 12.6185 74.6767 12.0673H72.6767ZM72.68 12.2012C72.6792 12.202 72.68 12.2012 72.6818 12.2C72.6837 12.1989 72.6836 12.1992 72.6801 12.2005C72.6734 12.203 72.6424 12.2129 72.5744 12.2129V14.2129C73.1142 14.2129 73.6467 14.0475 74.0683 13.6409L72.68 12.2012ZM72.5744 12.2129C72.4886 12.2129 72.4459 12.201 72.4325 12.1963C72.4227 12.1929 72.4286 12.1938 72.4363 12.2012L71.0481 13.6409C71.4814 14.0588 72.0329 14.2129 72.5744 14.2129V12.2129ZM72.4363 12.2012C72.4443 12.2089 72.4508 12.2172 72.4553 12.2243C72.4597 12.2312 72.4598 12.2334 72.4578 12.2277C72.4533 12.215 72.4396 12.1672 72.4396 12.0673H70.4396C70.4396 12.6185 70.5917 13.2009 71.0481 13.6409L72.4363 12.2012ZM72.4396 12.0673V10.5435H70.4396V12.0673H72.4396ZM72.4396 10.5435C72.4396 9.84874 72.5461 9.47131 72.6458 9.29451L70.9035 8.31248C70.5564 8.92822 70.4396 9.71078 70.4396 10.5435H72.4396ZM72.639 9.30639C72.7871 9.05182 72.9422 8.9201 73.0899 8.84778L72.2102 7.05165C71.6517 7.32517 71.2233 7.76264 70.9103 8.3006L72.639 9.30639ZM73.6171 7.69522L73.5631 7.48988L71.6289 7.99887L71.683 8.20421L73.6171 7.69522ZM72.596 6.74438H72.4231V8.74438H72.596V6.74438ZM72.4231 6.74438C72.3625 6.74438 72.3422 6.73497 72.3465 6.73667C72.3483 6.7374 72.3527 6.73946 72.358 6.74309C72.3605 6.74476 72.3625 6.74635 72.364 6.74767C72.3655 6.74898 72.3662 6.7497 72.366 6.74955L70.9022 8.11238C71.3169 8.55771 71.8629 8.74438 72.4231 8.74438V6.74438ZM72.3898 6.77603C72.3893 6.77538 72.3389 6.7226 72.3308 6.51639L70.3323 6.59476C70.353 7.12344 70.5044 7.65426 70.8785 8.0859L72.3898 6.77603ZM72.3313 6.53557C72.3296 6.45047 72.3408 6.40354 72.3478 6.38277C72.3537 6.36493 72.3592 6.35736 72.3654 6.35046L70.8812 5.00989C70.4762 5.45828 70.3205 6.01406 70.3317 6.57557L72.3313 6.53557ZM72.3654 6.35046C72.3699 6.3455 72.3711 6.34516 72.3686 6.34691C72.3661 6.34875 72.3631 6.35036 72.361 6.35124C72.3552 6.35364 72.3707 6.34515 72.4231 6.34515V4.34515C71.8407 4.34515 71.293 4.55402 70.8812 5.00989L72.3654 6.35046ZM72.4231 6.34515H75.1789V4.34515H72.4231V6.34515ZM75.1789 6.34515C75.7877 6.34515 76.174 6.49111 76.4297 6.69262L77.6675 5.12164C76.9722 4.57384 76.1121 4.34515 75.1789 4.34515V6.34515ZM76.4297 6.69262C76.5858 6.81555 76.7619 7.06942 76.7619 7.70115H78.7619C78.7619 6.69016 78.4625 5.74802 77.6675 5.12164L76.4297 6.69262ZM76.7619 7.70115C76.7619 8.01855 76.7075 8.21158 76.6513 8.32386L78.4402 9.21829C78.6722 8.75418 78.7619 8.23392 78.7619 7.70115H76.7619ZM76.6559 8.31476C76.5754 8.47182 76.4959 8.54947 76.4337 8.5916L77.5554 10.2474C77.9399 9.98695 78.2279 9.63231 78.4356 9.22739L76.6559 8.31476ZM76.4337 8.5916C76.3303 8.66164 76.2466 8.68816 76.1753 8.69655L76.4089 10.6828C76.8276 10.6336 77.2121 10.48 77.5554 10.2474L76.4337 8.5916ZM75.2921 9.6897V9.83019H77.2921V9.6897H75.2921ZM76.057 10.8022C76.2813 10.8564 76.4558 10.967 76.6076 11.1606L78.1813 9.92634C77.7568 9.38504 77.1963 9.0201 76.5273 8.85824L76.057 10.8022ZM76.6151 11.17C76.7283 11.3108 76.8376 11.5603 76.8376 12.0241H78.8376C78.8376 11.2487 78.6514 10.511 78.1738 9.91692L76.6151 11.17ZM76.8376 12.0241C76.8376 12.1337 76.8223 12.1882 76.816 12.2056C76.8117 12.2176 76.8147 12.2053 76.831 12.19L78.1956 13.6521C78.6766 13.2033 78.8376 12.5992 78.8376 12.0241H76.8376ZM76.8319 12.1892C76.838 12.1835 76.8393 12.1862 76.8207 12.1924C76.7985 12.1999 76.7456 12.2129 76.6487 12.2129V14.2129C77.1939 14.2129 77.7522 14.065 78.1947 13.653L76.8319 12.1892ZM72.6227 8.68462C72.6227 8.8163 72.6338 8.97904 72.6803 9.14778C72.7261 9.31362 72.8253 9.55342 73.0506 9.75061L74.3677 8.24545C74.5354 8.39221 74.5914 8.55455 74.6083 8.61592C74.626 8.68019 74.6227 8.71144 74.6227 8.68462H72.6227ZM73.0506 9.75061C73.4056 10.0612 73.8496 10.0737 74.0334 10.0737V8.07368C74.001 8.07368 74.016 8.07051 74.0607 8.08093C74.0995 8.08999 74.2301 8.12505 74.3677 8.24545L73.0506 9.75061ZM74.0334 10.0737H75.0493V8.07368H74.0334V10.0737ZM75.0493 10.0737C75.472 10.0737 76.0088 9.98222 76.4156 9.57545L75.0014 8.16123C75.0672 8.09541 75.128 8.07246 75.1436 8.06759C75.1505 8.06544 75.1472 8.06716 75.1308 8.06932C75.1143 8.07148 75.0877 8.07368 75.0493 8.07368V10.0737ZM76.4156 9.57545C76.7866 9.20446 76.9138 8.7317 76.9138 8.29555H74.9138C74.9138 8.32619 74.9095 8.31768 74.9212 8.28501C74.9343 8.24828 74.9604 8.20219 75.0014 8.16123L76.4156 9.57545ZM76.9138 8.29555C76.9138 7.86175 76.7919 7.3811 76.4156 7.00485L75.0014 8.41906C74.9572 8.37486 74.9313 8.32692 74.9192 8.29243C74.9086 8.26231 74.9138 8.2582 74.9138 8.29555H76.9138ZM76.4156 7.00485C76.0088 6.59808 75.472 6.50662 75.0493 6.50662V8.50662C75.0877 8.50662 75.1143 8.50882 75.1308 8.51097C75.1472 8.51313 75.1505 8.51485 75.1436 8.51271C75.128 8.50784 75.0672 8.48489 75.0014 8.41906L76.4156 7.00485ZM75.0493 6.50662H74.0334V8.50662H75.0493V6.50662ZM74.0334 6.50662C73.9142 6.50662 73.7772 6.51427 73.6373 6.54225C73.5071 6.56829 73.3039 6.62541 73.1091 6.77146L74.3091 8.37146C74.2367 8.42578 74.1708 8.45691 74.1262 8.47433C74.0813 8.49191 74.047 8.49992 74.0295 8.50341C73.9977 8.50977 73.994 8.50662 74.0334 8.50662V6.50662ZM73.1091 6.77146C72.8337 6.97805 72.7253 7.25319 72.6803 7.41631C72.6329 7.58805 72.6227 7.75424 72.6227 7.88487H74.6227C74.6227 7.84979 74.6269 7.88089 74.6083 7.94816C74.5921 8.00681 74.527 8.2081 74.3091 8.37146L73.1091 6.77146ZM72.6227 7.88487V8.68462H74.6227V7.88487H72.6227ZM79.9512 13.094L79.7508 14.0737L79.7551 14.0746L79.9512 13.094ZM79.1083 12.7266L78.4894 13.5121L78.5025 13.5224L78.5159 13.5322L79.1083 12.7266ZM78.5355 11.9268L77.6031 12.2883L77.6076 12.2999L77.6124 12.3114L78.5355 11.9268ZM78.5355 9.22498L79.4726 9.57409L79.4726 9.57409L78.5355 9.22498ZM79.0218 8.34959L78.2785 7.68062L78.2722 7.68758L78.2661 7.69466L79.0218 8.34959ZM79.5514 7.94972L79.8546 8.90264L80.7603 8.61444L80.5184 7.69522L79.5514 7.94972ZM79.4973 7.74438L80.4644 7.48988L80.2682 6.74438H79.4973V7.74438ZM78.5247 7.43097L77.769 8.0859L77.7806 8.09935L77.7928 8.11238L78.5247 7.43097ZM78.2329 6.55557L79.2327 6.53597L79.2327 6.53557L78.2329 6.55557ZM78.5139 5.69098L77.7828 5.00867L77.7766 5.01529L77.7706 5.02202L78.5139 5.69098ZM80.5564 8.79269H79.5564V10.0366L80.7713 9.76933L80.5564 8.79269ZM81.6804 8.5117L81.4173 7.54692L81.4128 7.54818L81.6804 8.5117ZM83.5609 8.57654L82.8866 9.31503L82.9033 9.33028L82.9207 9.34476L83.5609 8.57654ZM83.5609 9.78696L84.2171 10.5416L84.2194 10.5395L83.5609 9.78696ZM82.8044 10.0139L82.8248 11.0137L82.8256 11.0137L82.8044 10.0139ZM81.6804 9.86262L81.4173 10.8274L81.4173 10.8274L81.6804 9.86262ZM80.5456 9.58163L80.7605 8.60498L79.5456 8.33771V9.58163H80.5456ZM80.6537 11.2892L80.029 12.0701L80.0712 12.1038L80.1168 12.1328L80.6537 11.2892ZM81.0212 11.2243L81.5132 12.095L81.5229 12.0894L81.0212 11.2243ZM82.0803 10.7272L82.4141 11.6698L82.4228 11.6668L82.4314 11.6635L82.0803 10.7272ZM84.1553 10.9001L83.4377 11.5966L83.4429 11.602L83.4482 11.6072L84.1553 10.9001ZM84.1337 12.8454L83.4692 12.098L83.4589 12.1074L84.1337 12.8454ZM80.9671 12.1913C80.6755 12.1913 80.4028 12.1645 80.1473 12.1134L79.7551 14.0746C80.1481 14.1532 80.5526 14.1913 80.9671 14.1913V12.1913ZM80.1516 12.1143C79.9671 12.0765 79.8217 12.0099 79.7006 11.9209L78.5159 13.5322C78.8848 13.8035 79.3014 13.9818 79.7508 14.0737L80.1516 12.1143ZM79.7271 11.9411C79.6516 11.8815 79.5525 11.7676 79.4585 11.5422L77.6124 12.3114C77.8067 12.7777 78.0894 13.1969 78.4894 13.5121L79.7271 11.9411ZM79.4678 11.5653C79.3922 11.3703 79.3301 11.0451 79.3301 10.5435H77.3301C77.3301 11.1802 77.4049 11.7773 77.6031 12.2883L79.4678 11.5653ZM79.3301 10.5435C79.3301 10.1167 79.3878 9.80162 79.4726 9.57409L77.5984 8.87587C77.4094 9.38325 77.3301 9.94713 77.3301 10.5435H79.3301ZM79.4726 9.57409C79.5821 9.27992 79.6915 9.10371 79.7775 9.00452L78.2661 7.69466C77.9774 8.02776 77.7626 8.43514 77.5984 8.87587L79.4726 9.57409ZM79.7651 9.01855C79.8322 8.94403 79.8783 8.90395 79.9027 8.88555C79.9286 8.86599 79.9121 8.88432 79.8546 8.90264L79.2482 6.99679C78.8365 7.12777 78.5146 7.41835 78.2785 7.68062L79.7651 9.01855ZM80.5184 7.69522L80.4644 7.48988L78.5302 7.99887L78.5843 8.20421L80.5184 7.69522ZM79.4973 6.74438H79.3136V8.74438H79.4973V6.74438ZM79.3136 6.74438C79.253 6.74438 79.2327 6.73497 79.237 6.73667C79.2388 6.7374 79.2432 6.73946 79.2485 6.74309C79.251 6.74476 79.253 6.74635 79.2545 6.74767C79.256 6.74898 79.2567 6.7497 79.2566 6.74955L77.7928 8.11238C78.2074 8.55771 78.7534 8.74438 79.3136 8.74438V6.74438ZM79.2804 6.77603C79.2789 6.77439 79.2702 6.76469 79.2599 6.73378C79.2487 6.70013 79.2347 6.63784 79.2327 6.53597L77.2331 6.57517C77.2435 7.10853 77.3892 7.64773 77.769 8.0859L79.2804 6.77603ZM79.2327 6.53557C79.2309 6.44656 79.2423 6.3983 79.2487 6.37833C79.2519 6.36848 79.2544 6.36392 79.2551 6.36274C79.2557 6.36167 79.2561 6.36106 79.2571 6.35995L77.7706 5.02202C77.3679 5.46946 77.2221 6.02509 77.2331 6.57557L79.2327 6.53557ZM79.2449 6.3733C79.2484 6.36955 79.249 6.36963 79.2465 6.37133C79.244 6.37308 79.2416 6.37423 79.2408 6.37456C79.238 6.37569 79.2573 6.36676 79.3136 6.36676V4.36676C78.742 4.36676 78.1975 4.56431 77.7828 5.00867L79.2449 6.3733ZM79.3136 6.36676H83.1934V4.36676H79.3136V6.36676ZM83.1934 6.36676C83.3114 6.36676 83.3758 6.38091 83.4019 6.38905C83.424 6.39594 83.4067 6.39444 83.3779 6.36755C83.3646 6.35515 83.3537 6.34167 83.3457 6.32917C83.3379 6.31698 83.3353 6.30964 83.3357 6.31062C83.337 6.3143 83.3498 6.35381 83.3498 6.4475H85.3498C85.3498 5.91513 85.2042 5.33689 84.7435 4.90635C84.2956 4.48771 83.7168 4.36676 83.1934 4.36676V6.36676ZM83.3498 6.4475C83.3498 6.51371 83.3403 6.54205 83.339 6.54555C83.3384 6.54736 83.3389 6.54534 83.3415 6.54121C83.3441 6.53704 83.3468 6.53375 83.3485 6.53198L84.7891 7.91927C85.1909 7.50211 85.3498 6.97521 85.3498 6.4475H83.3498ZM83.3485 6.53198C83.3817 6.49754 83.4073 6.4911 83.3933 6.49579C83.3739 6.50225 83.3134 6.51742 83.1934 6.51742V8.51742C83.7341 8.51742 84.3402 8.38543 84.7891 7.91927L83.3485 6.53198ZM83.1934 6.51742H80.9563V8.51742H83.1934V6.51742ZM80.9563 6.51742C80.6264 6.51742 80.2091 6.62029 79.8984 6.98136C79.6125 7.31367 79.5564 7.70682 79.5564 7.98214H81.5564C81.5564 7.94765 81.5671 8.10844 81.4144 8.28584C81.237 8.49201 81.0197 8.51742 80.9563 8.51742V6.51742ZM79.5564 7.98214V8.79269H81.5564V7.98214H79.5564ZM80.7713 9.76933C81.1508 9.68584 81.5431 9.58769 81.948 9.47522L81.4128 7.54818C81.0396 7.65185 80.6825 7.74103 80.3416 7.81605L80.7713 9.76933ZM81.9435 9.47646C82.2677 9.38806 82.5533 9.34959 82.8044 9.34959V7.34959C82.3494 7.34959 81.8857 7.41919 81.4173 7.54693L81.9435 9.47646ZM82.8044 9.34959C82.9027 9.34959 82.9495 9.36096 82.9601 9.36415C82.9672 9.36627 82.9323 9.35671 82.8866 9.31503L84.2352 7.83806C83.8107 7.45053 83.269 7.34959 82.8044 7.34959V9.34959ZM82.9207 9.34476C82.8927 9.32145 82.8605 9.28262 82.8389 9.23316C82.8187 9.18683 82.8203 9.15982 82.8203 9.17095H84.8203C84.8203 8.66222 84.6312 8.16675 84.2011 7.80832L82.9207 9.34476ZM82.8203 9.17095C82.8203 9.18898 82.8175 9.17007 82.8338 9.13143C82.8513 9.08975 82.8783 9.05547 82.9024 9.03439L84.2194 10.5395C84.6387 10.1727 84.8203 9.67727 84.8203 9.17095H82.8203ZM82.9047 9.03236C82.9481 8.99461 82.9768 8.98894 82.9601 8.99395C82.941 8.99969 82.8866 9.01194 82.7831 9.01415L82.8256 11.0137C83.2773 11.0041 83.8013 10.9031 84.2171 10.5416L82.9047 9.03236ZM82.784 9.01413C82.5407 9.01909 82.2621 8.98475 81.9435 8.89785L81.4173 10.8274C81.8912 10.9566 82.3619 11.0232 82.8248 11.0137L82.784 9.01413ZM81.9435 8.89785C81.533 8.7859 81.1386 8.68817 80.7605 8.60498L80.3308 10.5583C80.6731 10.6336 81.0352 10.7232 81.4173 10.8274L81.9435 8.89785ZM79.5456 9.58163V10.9974H81.5456V9.58163H79.5456ZM79.5456 10.9974C79.5456 11.2868 79.6226 11.7449 80.029 12.0701L81.2784 10.5083C81.5408 10.7182 81.5456 10.9817 81.5456 10.9974H79.5456ZM80.1168 12.1328C80.4281 12.3309 80.7529 12.3354 80.9788 12.2956C81.1947 12.2575 81.3783 12.1712 81.5132 12.0949L80.5291 10.3538C80.4983 10.3712 80.5378 10.3425 80.6312 10.326C80.7347 10.3078 80.9585 10.2979 81.1906 10.4455L80.1168 12.1328ZM81.5229 12.0894C81.8367 11.9074 82.1337 11.7691 82.4141 11.6698L81.7464 9.78458C81.3352 9.93023 80.9261 10.1234 80.5194 10.3593L81.5229 12.0894ZM82.4314 11.6635C82.6777 11.5712 82.8976 11.5327 83.0962 11.5327V9.53267C82.6319 9.53267 82.1745 9.62388 81.7292 9.79087L82.4314 11.6635ZM83.0962 11.5327C83.2458 11.5327 83.3361 11.5525 83.3844 11.5693C83.4276 11.5843 83.4376 11.5965 83.4377 11.5966L84.8729 10.2036C84.3853 9.70129 83.7316 9.53267 83.0962 9.53267V11.5327ZM83.4482 11.6072C83.4782 11.6373 83.5227 11.6895 83.5227 11.862H85.5227C85.5227 11.2419 85.3223 10.6529 84.8624 10.193L83.4482 11.6072ZM83.5227 11.862C83.5227 11.9738 83.5056 12.0334 83.4956 12.0588C83.4874 12.0796 83.4801 12.0884 83.4693 12.098L84.798 13.5929C85.3179 13.1307 85.5227 12.5031 85.5227 11.862H83.5227ZM83.4589 12.1074C83.4733 12.0942 83.4576 12.1164 83.3663 12.142C83.2726 12.1683 83.1233 12.1913 82.9016 12.1913V14.1913C83.5653 14.1913 84.2828 14.0641 84.8084 13.5835L83.4589 12.1074ZM82.9016 12.1913H80.9671V14.1913H82.9016V12.1913Z" fill="#AF2F28" mask="url(#path-20-outside-1_293_1026)"/>
<defs>
<linearGradient id="paint0_linear_293_1026" x1="131.387" y1="48.3356" x2="2.59305" y2="48.3356" gradientUnits="userSpaceOnUse">
<stop stop-color="#D83E31"/>
<stop offset="0.095" stop-color="#DC4734"/>
<stop offset="1" stop-color="#FF9753"/>
</linearGradient>
<linearGradient id="paint1_linear_293_1026" x1="67.2961" y1="18.0066" x2="67.2961" y2="1.50466" gradientUnits="userSpaceOnUse">
<stop stop-color="#D83E31"/>
<stop offset="0.095" stop-color="#DC4734"/>
<stop offset="1" stop-color="#FF9753"/>
</linearGradient>
</defs>
</svg>
