<svg width="41" height="39" viewBox="0 0 41 39" fill="none" xmlns="http://www.w3.org/2000/svg">
<path d="M22.6156 1.76732L26.6477 9.93594C27.0348 10.7206 27.7847 11.2664 28.651 11.3919L37.6662 12.7011C39.8494 13.0186 40.7202 15.7007 39.1418 17.2398L32.6181 23.5987C31.9907 24.2095 31.7049 25.0909 31.8531 25.9542L33.3922 34.9332C33.7656 37.1072 31.4827 38.7658 29.5309 37.7392L21.4681 33.4999C20.6925 33.0917 19.7672 33.0917 18.9916 33.4999L10.9288 37.7392C8.97701 38.7658 6.69409 37.1072 7.06752 34.9332L8.6066 25.9542C8.75477 25.0909 8.46902 24.2095 7.8416 23.5987L1.31789 17.2398C-0.262013 15.7007 0.610334 13.0171 2.79196 12.7011L11.8072 11.3919C12.6735 11.2664 13.4234 10.7221 13.8105 9.93594L17.8426 1.76732C18.8193 -0.210201 21.6389 -0.210201 22.6156 1.76732Z" fill="#F1B81A"/>
<path d="M9.68608 38.3319C9.07831 38.3319 8.47508 38.1414 7.95802 37.7665C7.04485 37.1028 6.59582 35.9991 6.78632 34.8864L8.32691 25.9074C8.45996 25.1363 8.20294 24.3486 7.64355 23.8028L1.11984 17.4439C0.310988 16.6562 0.026757 15.4997 0.374487 14.4262C0.723728 13.3528 1.63387 12.5848 2.75114 12.423L11.7664 11.1122C12.542 11.0004 13.2102 10.5135 13.5565 9.81051L17.5886 1.64189C18.0875 0.628937 19.1005 0 20.2283 0C21.3577 0 22.3691 0.628937 22.8681 1.64189L26.9002 9.81051C27.2464 10.5135 27.9162 10.9988 28.6903 11.1122L37.7055 12.423C38.8228 12.5848 39.7329 13.3528 40.0822 14.4262C40.4314 15.4997 40.1457 16.6562 39.3368 17.4439L32.8131 23.8028C32.2522 24.3486 31.9967 25.1363 32.1298 25.9074L33.6688 34.8864C33.8593 35.9991 33.4118 37.1028 32.4971 37.7665C31.584 38.4302 30.3957 38.5163 29.3963 37.9902L21.3335 33.7509C20.6411 33.3866 19.8126 33.3866 19.1201 33.7509L11.0573 37.9902C10.625 38.2185 10.1532 38.3319 9.68608 38.3319ZM20.2283 0.566951C19.3031 0.566951 18.5048 1.06284 18.0951 1.89286L14.0629 10.0615C13.6336 10.9308 12.8051 11.5325 11.8465 11.6716L2.83127 12.9824C1.91508 13.1155 1.19694 13.7202 0.9112 14.6016C0.625457 15.4815 0.850725 16.3932 1.51292 17.0403L8.03663 23.3992C8.73058 24.075 9.04656 25.0501 8.88328 26.0056L7.34269 34.9846C7.18696 35.8963 7.54074 36.7671 8.28912 37.3114C9.03749 37.8557 9.97485 37.9237 10.7943 37.4928L18.8571 33.2535C19.7143 32.803 20.7393 32.803 21.5966 33.2535L29.6594 37.4928C30.4788 37.9237 31.4146 37.8557 32.1645 37.3114C32.9129 36.7671 33.2667 35.8978 33.111 34.9846L31.5704 26.0056C31.4071 25.0501 31.7231 24.0765 32.417 23.3992L38.9407 17.0403C39.6029 16.3947 39.8282 15.483 39.5424 14.6016C39.2567 13.7217 38.5386 13.1155 37.6224 12.9824L28.6071 11.6716C27.6486 11.5325 26.8186 10.9308 26.3907 10.0615L22.3586 1.89286C21.9519 1.06284 21.1551 0.566951 20.2283 0.566951Z" fill="#BD8034"/>
<path d="M39.1403 17.2414C40.7202 15.7023 39.8478 13.0187 37.6647 12.7027L28.6494 11.3935C27.7831 11.268 27.0332 10.7237 26.6462 9.93753L22.6141 1.76891C21.6374 -0.208614 18.8178 -0.208614 17.8411 1.76891L13.8089 9.93753C13.4219 10.7222 12.672 11.268 11.8057 11.3935L2.79045 12.7027C0.607309 13.0202 -0.263527 15.7023 1.31637 17.2414L7.84008 23.6003C8.46751 24.2111 8.75325 25.0925 8.60509 25.9558L7.06601 34.9348C6.69258 37.1088 8.9755 38.7673 10.9273 37.7408L18.9901 33.5015C19.7657 33.0933 20.691 33.0933 21.4666 33.5015L29.5293 37.7408C31.4812 38.7673 33.7641 37.1088 33.3907 34.9348L31.8516 25.9558C31.7034 25.0925 31.9891 24.2111 32.6166 23.6003L39.1403 17.2414ZM29.8423 25.345L31.1153 32.7713C31.4237 34.5689 29.5369 35.9401 27.9222 35.092L21.2534 31.5845C20.6123 31.2473 19.8458 31.2473 19.2048 31.5845L12.5359 35.0905C10.9213 35.9386 9.03446 34.5689 9.34288 32.7698L10.6174 25.3435C10.7398 24.6299 10.5025 23.9011 9.98391 23.3962L4.58806 18.1379C3.2818 16.8649 4.00296 14.647 5.80813 14.3839L13.2632 13.2999C13.9798 13.1956 14.5996 12.7451 14.9202 12.0965L18.2538 5.33994C19.0612 3.7041 21.394 3.7041 22.2013 5.33994L25.535 12.0965C25.8555 12.7466 26.4754 13.1956 27.192 13.2999L34.647 14.3839C36.4522 14.647 37.1733 16.8649 35.8671 18.1379L30.4712 23.3962C29.9557 23.9027 29.7198 24.6314 29.8423 25.345Z" fill="#F1B81A"/>
<path opacity="0.71" d="M9.04504 20.4753C10.7867 21.3854 12.7915 21.8344 14.7478 21.8888C15.6685 21.9145 16.5787 21.8359 17.4767 21.6273C18.9841 21.2781 20.4476 20.7701 21.8899 20.2152C24.7171 19.1252 27.4853 17.8733 30.435 17.134C31.838 16.7818 33.3891 16.5383 34.8466 16.7319C34.8466 16.7319 34.4217 15.9593 34.3265 15.8656C34.0256 15.5708 33.6446 15.3848 33.2289 15.3243L26.5086 14.3477C25.8631 14.2539 25.3037 13.8472 25.0149 13.2621L22.0093 7.17233C21.2821 5.69825 19.1791 5.69825 18.4504 7.17233L15.4448 13.2621C15.156 13.8472 14.5966 14.2539 13.9511 14.3477C13.9511 14.3477 7.26709 15.3183 7.2308 15.3243C5.99409 15.5042 5.44529 16.4552 5.98351 17.5437C6.62757 18.8439 7.77659 19.8131 9.04504 20.4753Z" fill="#FFF8A3"/>
<path opacity="0.87" d="M19.7597 7.54569C18.535 7.36276 17.8411 9.58369 17.637 10.4424C17.5418 10.8446 17.4526 11.2679 17.5508 11.6701C17.7186 12.3534 18.3929 12.5651 19.0188 12.3217C20.2843 11.8288 20.824 10.2126 20.7877 8.96534C20.7741 8.50422 20.6502 7.99169 20.2601 7.74526C20.0847 7.63338 19.9184 7.56837 19.7597 7.54569Z" fill="white"/>
<path opacity="0.87" d="M17.835 13.5675C17.6506 13.3407 17.256 13.3165 16.9325 13.5145C16.6709 13.6733 16.5076 13.9923 16.559 14.2931C16.7148 15.2078 17.7564 14.7119 17.9137 14.077C17.9681 13.8562 17.9288 13.6854 17.835 13.5675Z" fill="white"/>
</svg>
